<?xml version="1.0" encoding="UTF-8"?>
<svg id="_레이어_2" data-name="레이어 2" xmlns="http://www.w3.org/2000/svg" viewBox="0 0 92.85 97.54">
  <defs>
    <style>
      .cls-1 {
        fill: #95c735;
      }

      .cls-2 {
        fill: #3f251a;
      }

      .cls-3 {
        fill: #faf04d;
      }

      .cls-4 {
        fill: #fbb921;
      }

      .cls-5 {
        fill: #fbcb24;
      }
    </style>
  </defs>
  <g id="_레이어_1-2" data-name="레이어 1">
    <g id="_생성형_개체" data-name="생성형 개체">
      <g>
        <path class="cls-3" d="M63.57,7.07c11.79,13.93,13.12,32.96,6.66,49.66-6.89,17.82-21.42,23.95-36.35,33.39-.73.46-2.1,1.75-2.68,2.03-.1.05-.39-.03-.55,0-.28-.32-.94-.7-1.29-.37.11-1.22,1.4-1.79,2.4-2.59,9.23-7.34,20.36-11.99,28.49-21.18,9.66-10.91,12.67-28.21,10.08-42.27,1.96,20.04-11.78,37.42-29.41,45.13-10.51,4.6-22.01,6.39-32.83,9.99-.07-.2-.67-.81-.92-.92.17-.46-.17-.3.46-.74,1.66-1.15,6.17-1.66,8.05-2.96.69,0,6.88-1.72,7.4-2.03,20.95-5.26,40.33-16.81,44.39-39.68,1.3-7.33,1.71-17.56-3.24-23.58l.83,6.01c1.44,32-29.66,48.98-58.17,48.92H1.23c-.01-.19-.33-.98-.55-1.11.7-.7,16.83-2.25,19.51-2.77,17.54-3.45,32.82-12.11,39.68-29.32,2.87-7.21,5.12-17.92.92-24.88.3-.03,2.45-.6,2.77-.74Z"/>
        <path class="cls-5" d="M31.75,89.2c-2.46-.24-5.02-.01-7.49-.18-3.32-.23-15.06-1.59-16.74-4.62,1-.52.85-2.63.55-3.51,10.82-3.6,22.32-5.39,32.83-9.99,17.63-7.71,31.37-25.1,29.41-45.13,2.58,14.06-.43,31.35-10.08,42.27-8.13,9.18-19.25,13.84-28.49,21.18Z"/>
        <path class="cls-5" d="M23.06,74.21s.04-.43.46-.55c-2.38-.29-4.85-.14-7.21-.37-2.79-.27-5.85-.98-8.32-1.11l-5.55-1.66c-.72.97,1.28.64,1.02,1.66-1.04-.59-2.93-1.59-3.33-2.77.88-.78,1.2-2.38,1.11-3.51h5.64c28.52.06,59.61-16.93,58.17-48.92l-.83-6.01c4.95,6.02,4.54,16.26,3.24,23.58-4.06,22.86-23.44,34.41-44.39,39.68Z"/>
        <path class="cls-4" d="M66.53,5.04c2.06,4.29,7.07,5.75,10.64,8.51,30.78,23.85,12.32,71.63-21.46,81.76-4.96,1.49-21.14,4-24.88.37,1.23-.3.33-2.93-.18-3.51.16-.03.46.05.55,0,.62,1.15.53,2.07.65,3.33,10.49-.84,20.05-3.89,29.22-8.88,24.5-13.32,35.41-45.97,16.37-67.98-4.02-4.64-9.14-7.6-13.5-11.75.23-.11,2.5-1.72,2.59-1.85Z"/>
        <path class="cls-1" d="M66.53,5.04c-.09.13-2.36,1.74-2.59,1.85-.12.06-.33.17-.37.18-.33.14-2.48.71-2.77.74-1.36.12-3.88-.04-4.62-1.39-1.85-3.34,2.68-3.71,4.72-4.53,1.17-.47,3.54-2.18,4.81-1.85,1.59.42,1.63,3.81.83,4.99Z"/>
        <path class="cls-4" d="M23.06,74.21c-.52.31-6.71,2.04-7.4,2.03-2.72-.03-9.75-2.66-12.21-4.07.27-1.02-1.74-.7-1.02-1.66l5.55,1.66c2.47.13,5.53.84,8.32,1.11,2.36.23,4.83.08,7.21.37-.42.13-.43.54-.46.55Z"/>
        <path class="cls-2" d="M30.64,92.16c.51.58,1.41,3.21.18,3.51-.84-.82-1.59-2.73-1.48-3.88.35-.33,1.01.05,1.29.37Z"/>
        <path class="cls-2" d="M8.08,80.87c.29.88.45,3-.55,3.51-.56-1.01-.79-3.36-.37-4.44.26.11.86.72.92.92Z"/>
        <path class="cls-2" d="M1.23,65.89c.09,1.13-.23,2.74-1.11,3.51-.29-.85-.07-4,.55-4.62.23.13.54.92.55,1.11Z"/>
        <path class="cls-5" d="M63.94,6.89c4.36,4.14,9.49,7.1,13.5,11.75,19.04,22,8.13,54.66-16.37,67.98-9.18,4.99-18.74,8.04-29.22,8.88-.12-1.26-.03-2.18-.65-3.33.58-.28,1.95-1.57,2.68-2.03,14.93-9.44,29.45-15.57,36.35-33.39,6.46-16.7,5.13-35.74-6.66-49.66.04-.01.25-.13.37-.18Z"/>
      </g>
    </g>
  </g>
</svg>