<?xml version="1.0" encoding="UTF-8"?>
<svg id="_레이어_2" data-name="레이어 2" xmlns="http://www.w3.org/2000/svg" xmlns:xlink="http://www.w3.org/1999/xlink" viewBox="0 0 133.76 90.53">
  <defs>
    <style>
      .cls-1 {
        fill: url(#_무제_그라디언트_4);
      }

      .cls-2 {
        fill: url(#_무제_그라디언트_2);
      }

      .cls-3 {
        fill: #ea7a73;
      }

      .cls-4 {
        fill: #f89c93;
      }

      .cls-5 {
        fill: url(#_무제_그라디언트_3);
      }

      .cls-6 {
        fill: #db5f5b;
      }

      .cls-7 {
        fill: #fddcd4;
      }
    </style>
    <linearGradient id="_무제_그라디언트_2" data-name="무제 그라디언트 2" x1="122.06" y1="49.18" x2="-39.91" y2="50.72" gradientTransform="translate(33.65 25.87) scale(.78)" gradientUnits="userSpaceOnUse">
      <stop offset="0" stop-color="#c54d47"/>
      <stop offset=".39" stop-color="#f06f62"/>
      <stop offset="1" stop-color="#ca504a"/>
    </linearGradient>
    <linearGradient id="_무제_그라디언트_3" data-name="무제 그라디언트 3" x1="61.11" y1="11.16" x2="-29.15" y2="15.78" gradientTransform="translate(33.65 25.87) scale(.78)" gradientUnits="userSpaceOnUse">
      <stop offset="0" stop-color="#e26b65"/>
      <stop offset="1" stop-color="#f5948c"/>
    </linearGradient>
    <linearGradient id="_무제_그라디언트_4" data-name="무제 그라디언트 4" x1="61.45" y1="-10.6" x2="114.87" y2="-9" gradientTransform="translate(33.65 25.87) scale(.78)" gradientUnits="userSpaceOnUse">
      <stop offset="0" stop-color="#e06762"/>
      <stop offset="1" stop-color="#cf4c4c"/>
    </linearGradient>
  </defs>
  <g id="_레이어_1-2" data-name="레이어 1">
    <g id="_생성형_개체" data-name="생성형 개체">
      <path class="cls-2" d="m1.21,61.31C-.32,56.47-.06,48.17.2,42.92c1.09,3.51,3.12,6.22,5.92,8.57,10.3,8.66,52.01,21.65,65.77,22.93,21.56,2.01,51.73-6.42,59.84-28.85.88-2.43,1.15-5.02,2.02-7.43.28,17.22-2.86,29.07-16.76,40.06-28.02,22.17-63.99,10.02-93.48-2.02-8.28-3.38-17.35-6.95-22.3-14.87Z"/>
      <g>
        <path class="cls-4" d="m130.98,22c2.86,6,2.67,9.67,2.77,16.13-.86,2.41-1.14,5-2.02,7.43-8.12,22.43-38.28,30.86-59.84,28.85-13.76-1.28-55.47-14.27-65.77-22.93-2.8-2.35-4.83-5.06-5.92-8.57.89-17.92,14.96-13.05,28.6-15.87C56.55,21.3,67.21-3.13,96.83.33c12.66,1.48,28.48,9.82,34.14,21.67Z"/>
        <path class="cls-7" d="m88.27,2.1c35.12-1.82,61.33,34.25,28.73,58.96-27.29,20.69-64.69,8.66-93.23-3.02-7.74-3.17-28.51-12.21-19.28-23.56,3.18-3.91,19.46-4.14,25.32-5.42C53.39,23.93,66.8,3.21,88.27,2.1Z"/>
        <g>
          <path class="cls-5" d="m70.88,10.16c3.65-.37,4.18,4.89,5.67,7.43,3.43,5.87,9.58,7.86,7.06,16.13-2.56,8.38-19.38,10.87-26.33,16-3.3,2.44-9.35,11.18-12.35,11.59-5.94.81-31.95-10.8-35.15-16.76-6.17-11.48,17.63-11.95,24.32-13.73,7.42-1.98,14.99-5.4,21.42-9.58,2.76-1.79,13.36-10.88,15.37-11.09Z"/>
          <path class="cls-1" d="m88.27,4.87c11.79-1.33,36.72,7.1,37.92,21.04,1.06,12.35-22.05,2.06-26.84,1.13-6.6-1.28-11.52.91-16.5-5.17-5.77-7.03-4.75-15.86,5.42-17.01Z"/>
          <path class="cls-6" d="m119.76,33.6c1.86-.01,4.71-.29,6.3.5,4.53,2.27.05,12.32-1.89,15.5-6.96,11.37-22.11,18.04-34.9,19.78.96-3.68,2.72-7.19,3.4-10.96,1.48-8.12-.64-15.59,7.43-21.04,5.03-3.4,13.65-3.74,19.65-3.78Z"/>
          <path class="cls-3" d="m84.74,43.17c8.13-.12,6.58,5.37,5.92,11.72-.34,3.22-2.49,13.29-5.67,14.74-2.75,1.25-13.07.06-16.38-.5-2.47-.42-14.91-3.51-15.75-5.42-2-4.54,5.47-11.59,8.95-13.73,4.72-2.92,17.45-6.72,22.93-6.8Z"/>
          <path class="cls-6" d="m91.79,29.31c9.93-1.34,7.27,10.94-1.51,10.08-7.12-.7-4.81-9.22,1.51-10.08Z"/>
        </g>
      </g>
    </g>
  </g>
</svg>