<?xml version="1.0" encoding="UTF-8"?>
<svg id="_레이어_2" data-name="레이어 2" xmlns="http://www.w3.org/2000/svg" width="91.83" height="94.76" xmlns:xlink="http://www.w3.org/1999/xlink" viewBox="0 0 91.83 94.76">
  <defs>
    <style>
      .cls-1 {
        fill: #256d31;
      }

      .cls-2 {
        fill: #8ca35f;
      }

      .cls-3 {
        fill: #cfd9a9;
      }

      .cls-4 {
        fill: #418636;
      }

      .cls-5 {
        fill: #749147;
      }

      .cls-6 {
        fill: url(#_무제_그라디언트_146);
      }

      .cls-7 {
        fill: url(#_무제_그라디언트_150);
      }

      .cls-8 {
        fill: #69b248;
      }

      .cls-9 {
        fill: url(#_무제_그라디언트_144);
      }

      .cls-10 {
        fill: #9cb868;
      }

      .cls-11 {
        fill: url(#_무제_그라디언트_147);
      }

      .cls-12 {
        fill: url(#_무제_그라디언트_148);
      }

      .cls-13 {
        fill: #467939;
      }

      .cls-14 {
        fill: #1e5225;
      }

      .cls-15 {
        fill: #baca8b;
      }

      .cls-16 {
        fill: #f4f7e5;
      }

      .cls-17 {
        fill: #eaefce;
      }
    </style>
    <linearGradient id="_무제_그라디언트_146" data-name="무제 그라디언트 146" x1=".81" y1="24.65" x2="35.9" y2="47.19" gradientUnits="userSpaceOnUse">
      <stop offset="0" stop-color="#7ab33d"/>
      <stop offset="1" stop-color="#498a3b"/>
    </linearGradient>
    <linearGradient id="_무제_그라디언트_147" data-name="무제 그라디언트 147" x1="92.6" y1="26.13" x2="58" y2="43.23" gradientUnits="userSpaceOnUse">
      <stop offset="0" stop-color="#64a33d"/>
      <stop offset="1" stop-color="#347536"/>
    </linearGradient>
    <linearGradient id="_무제_그라디언트_148" data-name="무제 그라디언트 148" x1="80.36" y1="26.95" x2="51.8" y2="50.07" gradientUnits="userSpaceOnUse">
      <stop offset="0" stop-color="#278135"/>
      <stop offset="1" stop-color="#1b4b22"/>
    </linearGradient>
    <linearGradient id="_무제_그라디언트_144" data-name="무제 그라디언트 144" x1="28.88" y1="9.63" x2="54.25" y2="40.95" gradientUnits="userSpaceOnUse">
      <stop offset="0" stop-color="#8abd3c"/>
      <stop offset="1" stop-color="#5f9e42"/>
    </linearGradient>
    <linearGradient id="_무제_그라디언트_150" data-name="무제 그라디언트 150" x1="46.44" y1="48.63" x2="66.95" y2="74.51" gradientUnits="userSpaceOnUse">
      <stop offset="0" stop-color="#f7f8ec"/>
      <stop offset="1" stop-color="#e0e6ba"/>
    </linearGradient>
  </defs>
  <g id="_레이어_1-2" data-name="레이어 1">
    <g id="_생성형_개체" data-name="생성형 개체">
      <g>
        <path class="cls-6" d="M23.84,20.75c1.14.84,4.7,4.18,5.27,5.35,2.09,4.26-.82,8.09.78,12.33-1.62-2.34-3.62-4.61-5.58-6.67-2.51-2.62-10-9.24-13.26-10.23-.15-.05-.4-.07-.31.16.08.19,3.06,1.81,3.57,2.17,3.81,2.71,7.29,5.96,10.31,9.53-.06.41-1.23.12-1.47.08-1.61-.27-4.64-1.25-6.2-1.86-2-.79-3.81-2.11-5.81-2.87,3.16,2.42,6.71,4.21,10.46,5.5.95.33,3.26.51,3.88.78,1.11.48,4.71,7.58,5.12,9.15-2.59-2.59-6.57-3.49-9.92-4.81l-3.18-1.63c3.06,2.67,9.6,3.86,12.09,6.98,1.9,2.37,3.02,7.2,3.72,10.15-.47.33-.13.83-.16,1.4-.48-.75-.62-1.74-1.09-2.56-2.55-4.48-8.61-4.73-11.86-8.45-.46.06-.18.21-.08.39,1.38,2.51,8.04,4.56,10.08,7.13,1.84,2.31,2.74,7.04,2.33,9.92,0,.06-.17,1.08-.47.78-1.12-7.74-10.03-4.96-14.11-10.08-.55-.68-.84-1.79-1.4-2.48-2.61-3.25-6.98-3.6-8.06-8.53-1.05-4.81-.59-8.84-4.03-13.18-2.34-2.95-6.53-3.29-3.26-8.37,5.29-8.22,16.24-4.78,22.63-.08Z"/>
        <path class="cls-11" d="M61.67,57.03l-.78.16c.16-3.35.87-9.18,2.64-12.02,2.24-3.6,9.13-5.43,11.94-8.84l-3.64,2.56c-3.29,1.74-7.18,2.89-9.46,6.05-.21-.23.13-.33.08-.62.91-1.69,2.81-8.31,4.11-9.3.39-.3,2.42-.75,3.1-1.09,3.87-1.88,7.82-4.03,10.62-7.36-3.76,3.18-8.25,5.54-13.02,6.82l4.65-6.2,7.36-7.21c-4.21,3.2-8.18,6.8-11.39,11.01-1.21-1.65-2.83-7.43-2.02-9.15.92-1.93,8.17-6.82,10.31-7.6,4.7-1.71,12.08-.93,14.81,3.8,2.5,4.33-1.02,4.79-2.95,7.44-4.22,5.81-1.51,13.89-4.81,18.14-1.26,1.62-3.61,2.85-4.81,4.5-.86,1.17-1.1,2.62-1.86,3.72-3.42,4.93-11.45,3.22-13.72,9.07-1.45-4.14,0-7.95,3.41-10.54,2.55-1.94,6.23-3.18,7.6-6.51-3.62,5.16-12.23,5.51-12.17,13.18Z"/>
        <path class="cls-1" d="M37.01,4.93c.81,3.69,1.32,6.24-.47,9.84-1.24,2.49-2.04,2.25-3.88,3.49l-.93-3.18.39-5.97c-1.69,2.98-1.49,6.65-.85,9.92-3.52,2.8.66,6.09,1.4,9.22,1.32,5.6-.53,5.63,2.64,11.7l-.93,6.2c-1.13-2.42-2.98-5.55-4.5-7.75-1.59-4.24,1.31-8.07-.78-12.33-.57-1.17-4.13-4.51-5.27-5.35,3.02-3.84,4.38-9.31,7.6-12.95,1.39-1.57,3.37-3.2,5.58-2.87Z"/>
        <path class="cls-3" d="M32.36,88.03c-.82-.46-1.72.72-2.48,1.09-4.66-9.32.88-15.71,2.64-24.11.59-2.81.47-5.9.62-8.76.03-.57-.32-1.07.16-1.4.4,1.69,1.09,3.45,1.24,5.19.84,9.63-6.58,18.58-2.17,27.98Z"/>
        <path class="cls-10" d="M61.36,60.44c2.37,8.71,9.81,24.75,1.24,31.94-3.46,2.89-7.26,2.28-11.32,1.55,6.02.14,11.54-2.64,13.18-8.76,2.43-9.06-3.75-17.38-3.72-26.43.47-.03.41.22.47.54.1.55-.03.49.16,1.16Z"/>
        <path class="cls-15" d="M32.36,88.03c.25.14,1.6,2.11,2.25,2.64.79.64,2.08,1.34,3.02,1.71,2.33.9,5.12,1.22,7.6,1.24-4.6,1.05-8.71,2.38-12.87-1.09-1.2-1-1.8-2.05-2.48-3.41.77-.37,1.66-1.55,2.48-1.09Z"/>
        <path class="cls-13" d="M61.67,57.03l-.31,3.41c-.18-.68-.06-.61-.16-1.16-.06-.32,0-.57-.47-.54,0-.49.13-1,.16-1.55l.78-.16Z"/>
        <path class="cls-14" d="M32.67,18.27c-.43.29-1.02.47-1.4.78-.64-3.28-.84-6.94.85-9.92l-.39,5.97.93,3.18Z"/>
        <path class="cls-14" d="M35.31,39.97c.11.21.61.8.62.85.28,1.61-1.3,4.89-.78,6.74-.02.03.02.18-.16.16-.2-.47-.43-1.14-.62-1.55l.93-6.2Z"/>
        <path class="cls-16" d="M24.3,31.76c-.05.41-.2.27,0,.7.68,1.43,3,3.75,4.03,5.27,7.22,10.64,10.53,20.3,7.75,33.18-1.25,5.8-4.97,13.36,0,18.37.26.4.99.98,1.4,1.24.03,1.43-1.16.73.16,1.86-.95-.36-2.23-1.07-3.02-1.71-.65-.53-1.99-2.49-2.25-2.64-4.41-9.41,3.01-18.35,2.17-27.98-.15-1.74-.84-3.51-1.24-5.19-.7-2.96-1.82-7.78-3.72-10.15-2.49-3.11-9.03-4.31-12.09-6.98l3.18,1.63c3.35,1.32,7.33,2.22,9.92,4.81-.41-1.56-4-8.67-5.12-9.15-.61-.26-2.93-.45-3.88-.78-3.76-1.29-7.3-3.08-10.46-5.5,2.01.76,3.81,2.08,5.81,2.87,1.56.61,4.59,1.59,6.2,1.86.25.04,1.42.33,1.47-.08-3.02-3.57-6.5-6.82-10.31-9.53-.5-.36-3.49-1.98-3.57-2.17-.09-.23.16-.2.31-.16,3.25.99,10.75,7.61,13.26,10.23Z"/>
        <path class="cls-3" d="M29.88,38.42c1.52,2.2,3.37,5.33,4.5,7.75.19.41.42,1.08.62,1.55,2.04,4.82,4.01,11.25,3.57,16.51-.4,4.75-3.28,9.53-4.03,14.19-.44,2.69-.58,5.38.93,7.75-.97-.2.53,2.96.62,3.1-4.97-5.02-1.25-12.58,0-18.37,2.78-12.87-.53-22.53-7.75-33.18-1.03-1.52-3.35-3.84-4.03-5.27-.2-.42-.05-.28,0-.7,1.97,2.06,3.96,4.33,5.58,6.67Z"/>
        <path class="cls-3" d="M62.44,44.31c.05.29-.29.39-.08.62,2.28-3.16,6.16-4.3,9.46-6.05l3.64-2.56c-2.81,3.41-9.7,5.24-11.94,8.84-1.77,2.84-2.47,8.67-2.64,12.02-.03.55-.15,1.06-.16,1.55-.03,9.06,6.15,17.38,3.72,26.43-1.64,6.12-7.16,8.9-13.18,8.76-3.26-.59-2.51-1.12-6.05-.31-2.48-.02-5.27-.34-7.6-1.24-1.32-1.13-.12-.43-.16-1.86,1.68,1.1,4.37,1.54,6.36,1.71,3.6.3,10.02.18,13.33-1.24,10.28-4.39,2.05-18.21,1.09-25.5-1.41-10.69,1.81-20.35,6.82-29.53.37.13.34.29.23.62-.59,1.83-3.04,5.72-3.18,7.52,0,.1.31.21.31.23Z"/>
        <path class="cls-17" d="M62.44,44.31s-.32-.13-.31-.23c.14-1.8,2.59-5.69,3.18-7.52.11-.33.13-.49-.23-.62.27-.5.62-.99.93-1.47-.05-.34-.75.36-.78.39.78-1.34,1.69-2.65,2.64-3.88,3.22-4.21,7.18-7.81,11.39-11.01l-7.36,7.21-4.65,6.2c4.77-1.28,9.26-3.64,13.02-6.82-2.8,3.34-6.75,5.49-10.62,7.36-.68.33-2.71.78-3.1,1.09-1.29.99-3.2,7.61-4.11,9.3Z"/>
        <path class="cls-10" d="M65.08,35.94c-5.01,9.19-8.23,18.85-6.82,29.53.96,7.29,9.2,21.11-1.09,25.5,3.06-2.64,3.89-5.85,3.57-9.84-.03-.39-.45-1.4-.47-1.47-.82-6.18-3.54-11.07-3.72-17.44-.21-7.38,3.52-21.9,8.68-27.36.03-.03.73-.73.78-.39-.31.49-.66.97-.93,1.47Z"/>
        <g>
          <path class="cls-12" d="M65.85,21.83c-.82,1.71.81,7.5,2.02,9.15-.94,1.23-1.86,2.53-2.64,3.88-5.16,5.46-8.9,19.99-8.68,27.36.18,6.38,2.9,11.26,3.72,17.44l-.78,4.73c-.36.22-.3-.05-.31-.31-.03-.72.34-1.83.31-2.71.24-.09.42-.28.47-.54.34-2.22-.7-5.58-1.55-7.6-.19-.45.1-.93-.47-1.09.18.91.47,1.77.47,2.71-1.22-6.65-4.86-14.9-4.65-21.63s3.69-9.2,5.58-14.65c2.67-7.7.72-15.67-2.64-22.79,1.05-2.55,2.41-4.49,4.5-6.28-2.36.39-3.94,2.29-5.74,3.64-.64-1.16-2-3.29-2.79-4.34,3.39-2.46,7.59-4.03,11.7-2.48,1.54.58,6.64,4.35,6.12,6.12-.06.2-2.21,1.67-2.64,2.17-1.2,1.41-2.35,4.69-2.48,6.51-.04.52-.18,1.34.47.7Z"/>
          <path class="cls-14" d="M56.7,15.79c-.38-.81-.83-1.88-1.24-2.64,1.8-1.35,3.37-3.26,5.74-3.64-2.08,1.79-3.45,3.73-4.5,6.28Z"/>
          <path class="cls-14" d="M59.49,81.37c-.07-2.06-.5-4.24-1.09-6.2.01-.1,0-.21,0-.31,0-.94-.28-1.81-.47-2.71.57.16.28.63.47,1.09.85,2.02,1.89,5.38,1.55,7.6-.04.26-.23.45-.47.54Z"/>
          <path class="cls-8" d="M62.05,12.69c.12.56-2.38,5.07-2.64,4.96-.03-.01-.24-.66-.23-.7.07-.39,2.73-3.38,2.87-4.26Z"/>
        </g>
        <g>
          <path class="cls-14" d="M40.58,47.41c4.49,9.25-4.01,21.36-4.96,31.01-.16,1.59-.23,2.91,0,4.5l-.62-1.94c-.11-1.08.06-1.96.47-2.95-.67-1.18-.32.61-.93.39.76-4.65,3.63-9.44,4.03-14.19.44-5.27-1.52-11.69-3.57-16.51.18.03.13-.12.16-.16.37-.56.81-6.1,1.16-6.2,1.34,1.95,3.23,3.91,4.26,6.05Z"/>
          <path class="cls-4" d="M38.64,46.02c.24,1.93-.05,3.93-.78,5.74l.78-5.74Z"/>
        </g>
        <g>
          <path class="cls-9" d="M52.67,8.81c.8,1.05,2.15,3.18,2.79,4.34.41.76.86,1.82,1.24,2.64,3.35,7.12,5.3,15.09,2.64,22.79l-.16-1.32c-1.24,4.88-5.48,8.02-6.36,13.18,0-1.29-.55-2.61-.62-3.88-.36-6.86,5.67-10.05,6.2-16.43-1,4.78-4.45,8.34-6.36,12.71-2.78-8.01,3.57-14.32,3.49-22.09-.05,5.48-4.41,10.72-5.04,15.81-.2-2.2-.84-4.44-.78-6.67.08-2.66,1.39-4.48,2.02-6.9.77-2.96.98-6.08.93-9.15l-.62,5.74c-.31,2.8-2.58,6.47-2.64,9.07-.8-.57.05-2.6-.93-2.95-.29-3.86-.6-7.98-1.24-11.86-.12-.75-1.79-9.18-2.25-9.07,2.2,8.46,2.46,17.47,2.4,26.28-.19.38-.76-.71-.85-.85-.15-.23.29-.14.23-.23-.1-.16-.37,0-.47-.16-1.83-3.06-3.88-6.79-4.81-10.23-.2-.76-.06-2.44-.78-2.79.56,2.37.9,4.83,1.71,7.13.97,2.76,3.69,6.31,4.19,8.84.57,2.88-.08,6.96-.16,10l-.78,2.64c-.36-5.06-5.1-8.84-6.98-13.26-.72-1.69-.89-3.47-1.47-5.19.14,2.09.7,4.18,1.47,6.12,2.01,5.06,6.08,8.11,5.58,14.11-.11,1.35-.8,3.23-1.16,4.57-.55-4-2.79-7.57-5.74-10.23l3.18,5.89c-1.04-2.14-2.92-4.09-4.26-6.05-.35.1-.79,5.65-1.16,6.2-.53-1.85,1.06-5.13.78-6.74,0-.05-.51-.64-.62-.85-3.16-6.08-1.31-6.11-2.64-11.7-.74-3.13-4.91-6.42-1.4-9.22.38-.3.96-.48,1.4-.78,1.84-1.24,2.64-1,3.88-3.49,1.79-3.61,1.28-6.15.47-9.84-.37-1.7-1.76-4.1,1.16-4.81,4.62-1.11,11.89,5.24,14.5,8.68Z"/>
          <path class="cls-7" d="M48.49,25.71c.93,12.46.61,24.87,2.48,37.29,1.03,6.86,4.64,17.65,2.02,24.19-.66,1.65-1.43,2.19-3.18,2.4-3.13.39-4.65.03-6.28-2.71-5.76-9.67,2.54-28.12,3.1-39.07.09-1.68-.2-3.4-.16-5.04.08-3.04.72-7.12.16-10-.5-2.52-3.22-6.08-4.19-8.84-.8-2.3-1.14-4.77-1.71-7.13.72.35.57,2.03.78,2.79.92,3.44,2.98,7.17,4.81,10.23.1.16.37,0,.47.16.06.09-.38,0-.23.23.09.15.66,1.24.85.85.06-8.8-.21-17.82-2.4-26.28.46-.11,2.13,8.32,2.25,9.07.64,3.88.95,8,1.24,11.86Z"/>
          <path class="cls-15" d="M49.42,28.65c0,.42-.17,1.33.31,1.24-.07,2.23.58,4.46.78,6.67-1.74,14.09,5.37,30.87,5.12,44.8-.04,2.21-.38,4.34-.7,6.51,1.61-.87,2.9-2.23,3.64-3.88-1.16,10.42-16.12,10.12-20.77,3.1,1.67.83,3.31,1.98,5.27,1.94-4.42-5.68-3.16-13.69-1.86-20.31,1.34-6.85,4.98-16.47,4.5-23.33l.78-2.64c-.04,1.64.24,3.36.16,5.04-.56,10.95-8.86,29.4-3.1,39.07,1.63,2.74,3.15,3.1,6.28,2.71,1.75-.22,2.52-.76,3.18-2.4,2.63-6.54-.98-17.32-2.02-24.19-1.87-12.41-1.55-24.83-2.48-37.29.98.35.13,2.38.93,2.95Z"/>
          <path class="cls-17" d="M45.7,45.4c.49,6.86-3.15,16.49-4.5,23.33-1.3,6.62-2.56,14.63,1.86,20.31-1.97.04-3.6-1.11-5.27-1.94-1.81-2.73-1.99-5.46-2.17-8.68.96-9.64,9.45-21.76,4.96-31.01l-3.18-5.89c2.95,2.67,5.18,6.24,5.74,10.23.36-1.34,1.05-3.22,1.16-4.57.5-6-3.57-9.05-5.58-14.11-.77-1.95-1.33-4.04-1.47-6.12.59,1.72.76,3.5,1.47,5.19,1.87,4.41,6.62,8.19,6.98,13.26Z"/>
          <path class="cls-17" d="M59.34,38.58c-1.89,5.45-5.36,7.72-5.58,14.65s3.44,14.98,4.65,21.63c0,.1.01.21,0,.31-.02.21-.29.58-.16.93-.82-4.57-2.5-10.3-3.41-13.26-.18-.58.09-2.66-1.55-1.71.39,6.53,2.88,13.27,2.64,19.84-.01.28.14.7-.31.39.25-13.93-6.85-30.72-5.12-44.8.63-5.09,4.99-10.34,5.04-15.81.08,7.77-6.26,14.08-3.49,22.09,1.91-4.37,5.36-7.93,6.36-12.71-.54,6.38-6.56,9.57-6.2,16.43.07,1.26.62,2.59.62,3.88.87-5.15,5.12-8.3,6.36-13.18l.16,1.32Z"/>
          <path class="cls-17" d="M49.73,29.89c-.48.09-.32-.82-.31-1.24.06-2.6,2.32-6.27,2.64-9.07l.62-5.74c.05,3.07-.16,6.18-.93,9.15-.63,2.42-1.93,4.23-2.02,6.9Z"/>
          <path class="cls-5" d="M59.49,81.37c.03.88-.34,2-.31,2.71.01.26-.05.53.31.31l.78-4.73c.01.08.43,1.08.47,1.47.32,4-.51,7.21-3.57,9.84-3.31,1.42-9.73,1.54-13.33,1.24l-3.88-2.02c-.78-.52-1.47-1.09-2.17-1.71-.98-1.72-1.88-3.59-2.17-5.58-.23-1.59-.16-2.91,0-4.5.18,3.22.36,5.95,2.17,8.68,4.66,7.02,19.61,7.32,20.77-3.1.37-3.31.28-4.61-.31-7.91-.13-.35.13-.72.16-.93.58,1.96,1.02,4.14,1.09,6.2Z"/>
          <path class="cls-3" d="M58.25,76.09c.59,3.29.68,4.59.31,7.91-.74,1.64-2.03,3.01-3.64,3.88.32-2.17.66-4.3.7-6.51.45.31.3-.1.31-.39.24-6.57-2.25-13.32-2.64-19.84,1.64-.96,1.37,1.13,1.55,1.71.91,2.95,2.59,8.69,3.41,13.26Z"/>
          <path class="cls-14" d="M35.62,82.92c.29,2,1.19,3.86,2.17,5.58-.72-.63-1.63-1.39-2.17-2.17-.11-.15-.15-.15-.16-.16-1.51-2.37-1.37-5.06-.93-7.75.61.22.26-1.57.93-.39-.4.99-.57,1.86-.47,2.95l.62,1.94Z"/>
          <path class="cls-2" d="M35.46,86.17s.05,0,.16.16c.71,1.84,2.32,3.64,4.34,3.88l3.88,2.02c-1.98-.16-4.68-.61-6.36-1.71-.4-.26-1.14-.84-1.4-1.24-.09-.14-1.59-3.3-.62-3.1Z"/>
          <path class="cls-10" d="M37.79,88.5c.7.62,1.4,1.18,2.17,1.71-2.02-.24-3.63-2.03-4.34-3.88.54.78,1.46,1.54,2.17,2.17Z"/>
        </g>
      </g>
    </g>
  </g>
</svg>