<?xml version="1.0" encoding="UTF-8"?>
<svg id="_레이어_2" data-name="레이어 2" xmlns="http://www.w3.org/2000/svg" viewBox="0 0 95.03 63.95">
  <defs>
    <style>
      .cls-1 {
        fill: #e3731a;
      }

      .cls-2 {
        fill: #feddaf;
      }

      .cls-3 {
        fill: #fbc488;
      }

      .cls-4 {
        fill: #ee9b36;
      }

      .cls-5 {
        fill: #eb8a28;
      }

      .cls-6 {
        fill: #da5a0c;
      }
    </style>
  </defs>
  <g id="_레이어_1-2" data-name="레이어 1">
    <g id="_생성형_개체" data-name="생성형 개체">
      <path class="cls-1" d="M95.02,39.44l-1.08,4.23c-6.61,17.77-45.21,18.25-60.54,16.46-11.87-1.39-28.17-5.27-32.83-17.72L.03,38c.01-.29.15-.52.18-.9,3.23,6.99,8.84,10.58,15.65,13.49,20.4,8.73,89.67,11.05,74.48-26.99,2.79,4.61,4.62,10.39,4.68,15.83Z"/>
      <path class="cls-5" d="M90.35,23.6c15.19,38.04-54.08,35.71-74.48,26.99,4.83.5,9.61,1.49,14.48,1.8,14.82.95,44.07-.39,53.7-13.4,4.74-6.4,4.07-13.96,2.34-21.32,1.42,1.79,3.1,3.8,3.96,5.94Z"/>
      <path class="cls-6" d="M95.02,39.44c.09,7.55-3.16,12.54-9.36,16.55-18.91,9.49-52.83,10.86-72.23,2.16-2.13-.96-4.6-3.06-6.39-3.78C1.7,50.12-.29,44.78.03,38l.54,4.41c4.66,12.45,20.96,16.33,32.83,17.72,15.33,1.79,53.93,1.31,60.54-16.46l1.08-4.23Z"/>
      <path class="cls-2" d="M65.34,31.88c.04.17.32.82.09.9-10.89-13.47-25.97-23.91-43.45-26.27.73-.4,1.37-.91,2.16-1.26,14.31.48,28.79,8.64,37.06,20.24,1.46,2.05,2.45,4.59,4.14,6.39Z"/>
      <path class="cls-3" d="M26.3,4.35c13.98.36,27.72,8.05,35.26,19.79,1.35,2.09,3.26,5.34,3.78,7.74-1.68-1.8-2.67-4.34-4.14-6.39C52.93,13.9,38.45,5.74,24.14,5.25c.66-.3,1.47-.72,2.16-.9Z"/>
      <path class="cls-2" d="M50.41.04c2.94,1.72,6.18,2.9,9.09,4.68,4.13,2.53,9.22,6.83,12.14,10.7,1.65,2.19,2.74,4.71,4.32,6.93.05.24.47,1.02.27,1.08C68.36,13.11,57.91,5.28,46.09.04c1.42-.04,2.9-.06,4.32,0Z"/>
      <path class="cls-3" d="M54.01.22l7.47,3.78c6.09,4.25,11.01,9.59,14.12,16.37.15.57.23,1.37.36,1.98-1.58-2.22-2.67-4.74-4.32-6.93-2.92-3.88-8.01-8.17-12.14-10.7-2.91-1.78-6.15-2.96-9.09-4.68,1.19.05,2.42.06,3.6.18Z"/>
      <path class="cls-1" d="M27.38,3.99c8.59-.72,19.11,3.8,25.64,9.18,2.12,1.75,7.72,7.44,8.73,9.8.19.46.29.82-.18,1.17C54.02,12.4,40.28,4.71,26.3,4.35c.35-.09.51-.31,1.08-.36Z"/>
      <path class="cls-1" d="M59.04,1.12c-.09.53.11.48.45.72,7.02,4.85,13.77,9.7,16.1,18.53-3.12-6.78-8.04-12.12-14.12-16.37L54.01.22c1.48.15,3.54.59,5.04.9Z"/>
      <g>
        <path class="cls-4" d="M46.09.04c11.82,5.25,22.27,13.07,30.13,23.39.2-.06-.22-.84-.27-1.08-.13-.61-.21-1.41-.36-1.98-2.33-8.83-9.08-13.68-16.1-18.53-.34-.24-.54-.18-.45-.72,10.76,2.24,20.51,7.96,27.35,16.55,1.73,7.36,2.4,14.92-2.34,21.32-9.64,13.02-38.88,14.36-53.7,13.4-4.87-.31-9.65-1.3-14.48-1.8-6.81-2.91-12.42-6.5-15.65-13.49C1.34,23.87,10.68,12.66,21.98,6.51c17.48,2.35,32.56,12.8,43.45,26.27.23-.08-.05-.73-.09-.9-.52-2.4-2.43-5.64-3.78-7.74.47-.35.37-.71.18-1.17-1-2.37-6.6-8.05-8.73-9.8-6.53-5.38-17.05-9.89-25.64-9.18C33.18,1.28,39.69.21,46.09.04Z"/>
        <path class="cls-3" d="M27.92,24.68c-3.67,4.2-7.38,8.87-12.32,11.69-2.34,1.34-7.92,3.85-9.8.81-3.16-5.1,6.84-16.2,12.41-16.28,3.45,1.03,6.47,2.25,9.71,3.78Z"/>
        <path class="cls-2" d="M48.61,38.36c.04.18.57.73.09.72-6.03-5.98-13.1-10.78-20.78-14.39-3.25-1.53-6.27-2.75-9.71-3.78-2.96-.88-5.98-1.87-9.09-1.98.32-.59,1.82-.77,2.43-.9,1.96.51,4.15.24,6.21.54,8.26,1.18,18.64,6.46,24.65,12.23,2.38,2.28,4.18,4.99,6.21,7.56Z"/>
        <path class="cls-3" d="M48.25,37.1c.17.41.26.82.36,1.26-2.03-2.56-3.83-5.27-6.21-7.56-6.01-5.77-16.38-11.05-24.65-12.23-2.06-.29-4.25-.03-6.21-.54,1.17-.24,2.6-.5,3.78-.54,11.33-.35,28.49,8.81,32.92,19.61Z"/>
        <path class="cls-3" d="M27.11,9.75c7.17-.95-1.25,8.63-5.04,6.84-3.14-1.49,2.82-6.54,5.04-6.84Z"/>
        <path class="cls-1" d="M48.25,37.1c-4.44-10.8-21.6-19.95-32.92-19.61,13.01-1.23,28.34,7.18,32.92,19.61Z"/>
      </g>
    </g>
  </g>
</svg>