<?xml version="1.0" encoding="UTF-8"?>
<svg id="_레이어_2" data-name="레이어 2" xmlns="http://www.w3.org/2000/svg" viewBox="0 0 77.82 104.84">
  <defs>
    <style>
      .cls-1 {
        fill: #c8df9f;
      }

      .cls-2 {
        fill: #daedc4;
      }

      .cls-3 {
        fill: #2a7c3c;
      }

      .cls-4 {
        fill: #4c9a46;
      }

      .cls-5 {
        fill: #a5cb6b;
      }

      .cls-6 {
        fill: #69ac51;
      }
    </style>
  </defs>
  <g id="_레이어_1-2" data-name="레이어 1">
    <g id="_생성형_개체" data-name="생성형 개체">
      <path class="cls-5" d="M38.89,39.01l-.1,65.83c-2.93-.02-5.74-.51-8.54-1.31,3.09-17.54,2.59-36.67-6.98-52.16-.27,0-.09.21-.05.35.65,2.11,2.05,4.6,2.81,6.83,4.31,12.65,4.75,26.27,3.32,39.5l-.9,4.97c-.26-.1-1.66-.6-1.71-.75,2.61-16.9,2.48-35.65-6.03-50.9l4.22-.9c1.32,2.19,3.07,5.11,4.62,7.09.59.75,1.26,1.68,2.21,1.96.52.58,1.31.3,1.91,0,.73-.37,1.41-1.37,1.41-2.21l.7-5.58c.21-4.37.6-8.74.8-13.12.78.14,1.52.32,2.31.4Z"/>
      <path class="cls-3" d="M68.84,50.27c-2.82,4.71-9.63,2.33-9.05-3.12-.07-.16-1.32.37-1.66.4-.9.09-1.61-.07-2.46-.3-2.48-.69-3.95-2.87-3.42-5.48l-.2-.15c-.51.06-1.21.31-1.71.3-.29,0-1.03-.06-1.31-.1-3.12-.48-5.34-3.15-5.33-6.28l-.2-.1c-.33.17-.65.34-1.01.45-2.22.68-3.69.65-5.83-.3-.45-.2-.87-.49-1.26-.8-.2,2.95-1.9,5.73-4.77,6.73-.44.15-1.16.35-1.61.4-.37.04-.82,0-1.21,0-.33,0-.6-.09-.9-.05.29,2.79-.76,4.98-3.32,6.18-1.47.69-3.07.93-4.57.2-.24.13-.1.34-.15.5-.75,2.55-2.46,4.33-5.38,4.02-1.69-.18-4.2-2.46-3.67-4.22.07-.22,1.03-.78,1.31-1.16.73-.96.81-2.51,1.86-3.27,3.79,3.85,8.67-1.75,5.23-5.43,4.43,3.53,9.97-1.01,6.08-5.68,2.14.3,4.17-1.22,4.32-3.42.06-.86-.32-1.56-.25-2.36,1.89,2.09,4.58.24,6.43-.9-.05,5.02,5.98,5.96,7.59,1.06.1-.3.08-1.66.45-1.56.09.03.6,1.07.75,1.26,1.63,1.94,3.88,2.35,5.98.85.23-.17,1.21-1.3,1.31-1.31.1,0,1.25,1.13,1.66,1.06-3,2.47-2.68,7.09,1.51,7.84-.46,4.18,4.95,6.78,7.74,3.52.24-.28.96-1.74,1.06-1.76.09-.02.82.54,1.11.4l.1.2c-1.95,2.72-.23,6.03,2.86,6.78-.49,2.3.39,3.96,1.91,5.58Z"/>
      <path class="cls-5" d="M42.5,38.81c.16,4.31.26,8.96.8,13.22.25,1.97.53,4.4,1.51,6.08.03.5.69,1.28,1.11,1.51.83.46,1.26.4,2.01-.1,1.09-.72,5.28-7.76,6.23-9.35.66.21,1.42.34,2.11.4-3.3,6.09-6.13,12.51-7.84,19.25-2.81,11.06-2.48,22.49.3,33.52-3.21,1-6.57,1.53-9.95,1.51l.1-65.83c1.23.12,2.43.19,3.62-.2Z"/>
      <path class="cls-6" d="M57.68,50.77c-8.34,16-9.21,33.91-6.03,51.51-.91.51-1.93.75-2.91,1.06-2.78-11.03-3.11-22.46-.3-33.52,1.71-6.74,4.54-13.16,7.84-19.25.43.04,1.13-.18,1.41.2Z"/>
      <path class="cls-1" d="M30.24,103.53c-.6-.17-1.22-.28-1.81-.5l.9-4.97c1.44-13.23.99-26.85-3.32-39.5-.76-2.24-2.16-4.72-2.81-6.83-.04-.14-.22-.35.05-.35,9.57,15.49,10.07,34.62,6.98,52.16Z"/>
      <path class="cls-6" d="M24.92,50.47l-4.22.9c-.47-.85-1.12-1.97-1.81-2.61.05-.16-.09-.37.15-.5,1.5.73,3.1.49,4.57-.2.41.81.84,1.63,1.31,2.41Z"/>
      <path class="cls-4" d="M59.79,47.15c-.69,1.2-1.47,2.39-2.11,3.62-.27-.38-.97-.16-1.41-.2-.69-.07-1.45-.19-2.11-.4l1.51-2.91c.85.24,1.56.4,2.46.3.34-.04,1.59-.56,1.66-.4Z"/>
      <g>
        <path class="cls-4" d="M68.84,50.27c-1.52-1.61-2.4-3.28-1.91-5.58-3.09-.75-4.81-4.07-2.86-6.78l-.1-.2c-.28.14-1.02-.42-1.11-.4-.1.02-.81,1.48-1.06,1.76-2.79,3.26-8.2.66-7.74-3.52-4.19-.75-4.51-5.37-1.51-7.84-.4.08-1.56-1.06-1.66-1.06-.09,0-1.07,1.14-1.31,1.31-2.1,1.49-4.35,1.09-5.98-.85-.16-.19-.66-1.23-.75-1.26-.37-.1-.36,1.26-.45,1.56-1.61,4.9-7.64,3.97-7.59-1.06-1.85,1.15-4.54,2.99-6.43.9-.06.8.31,1.5.25,2.36-.15,2.19-2.18,3.71-4.32,3.42,3.89,4.67-1.65,9.2-6.08,5.68,3.44,3.68-1.44,9.27-5.23,5.43-1.05.76-1.13,2.3-1.86,3.27-.28.37-1.24.93-1.31,1.16-.97.15-1.77.88-2.76,1.01-6.17.79-9.59-6.7-4.87-10.7-2.98-4.19-.18-9.26,4.92-9.05-4.84-4.12-1.78-11.8,4.62-10.95-2.02-4.98,2.15-9.91,7.39-8.69-.78-6.69,6.91-10.46,11.96-6.13,4.55-5.96,13.63-5.15,17.29,1.31,5.26-5.91,14.58-1.15,13.37,6.53,6.24-1.56,11.14,5.39,7.59,10.8,5.13.02,7.46,6.02,3.72,9.55,4.78.53,6.51,6.45,2.61,9.35,4.09,3.8.82,10.59-4.77,9.5-.76-.15-1.33-.7-2.06-.8Z"/>
        <path class="cls-5" d="M38.84,12.68c2.12-.2,4.47.81,5.58,2.66-4.3-1.84-8.39.17-10.4,4.17-.69-3.06,1.66-6.53,4.82-6.83Z"/>
        <path class="cls-5" d="M25.37,3.53c1.56-.22,3.35.15,4.57,1.16-2.01.04-4.06.19-5.78,1.36s-2.47,3.01-3.12,4.82c-1.26-2.94,1.24-6.89,4.32-7.34Z"/>
        <path class="cls-5" d="M10.8,19.81c.17-.02,1.11-.03,1.16.05-2.07,1.29-3.92,3.27-4.12,5.83-.08,1.04.23,2.04.15,3.07-3.23-2.83-1.43-8.5,2.81-8.94Z"/>
        <path class="cls-5" d="M17.43,11.07c.58-.04,1.49.02,1.96.35-3.67.95-5.63,3.84-5.58,7.59-2.37-3.08-.26-7.71,3.62-7.94Z"/>
        <path class="cls-5" d="M38.03,1.72c1.83-.2,4.22.18,5.63,1.41-4.56-1.5-8.84.2-11.71,3.87.59-2.71,3.36-4.98,6.08-5.28Z"/>
        <path class="cls-5" d="M5.87,30.77c.18-.02,1.21-.03,1.26.05-1.94,1.08-3.53,2.79-3.62,5.13-.03.71.36,1.66.15,2.36-2.65-2.39-1.43-7.1,2.21-7.54Z"/>
        <path class="cls-5" d="M24.57,17.1c1.15-.16,2.37.12,3.27.85-3.19-.11-5.13,1.54-5.88,4.57-1.13-2,.28-5.1,2.61-5.43Z"/>
        <path class="cls-2" d="M45.97,16.5c2.23-.26,3.9,1.36,4.27,3.47l-1.56-1.96c-1.21-.93-3.16-1.28-4.52-.5.12-.48,1.43-.96,1.81-1.01Z"/>
      </g>
      <path class="cls-4" d="M30.65,41.52l4.42,15.78c0,.85-.68,1.84-1.41,2.21l-4.62-17.59c.45-.05,1.17-.25,1.61-.4Z"/>
      <path class="cls-6" d="M29.04,41.92l4.62,17.59c-.6.3-1.39.58-1.91,0l-3.92-17.59c.39,0,.84.04,1.21,0Z"/>
      <path class="cls-4" d="M42.5,35.89c-.19.96-.04,1.95,0,2.91-1.19.39-2.38.32-3.62.2-.8-.08-1.53-.26-2.31-.4.05-1-.08-2.01.1-3.02,2.14.95,3.61.98,5.83.3Z"/>
      <path class="cls-6" d="M52.05,41.62l-4.12,17.89c-.75.5-1.18.56-2.01.1l4.42-17.69c.5,0,1.2-.25,1.71-.3Z"/>
      <path class="cls-4" d="M50.34,41.92l-4.42,17.69c-.41-.23-1.08-1.01-1.11-1.51l4.22-16.28c.27.04,1.02.1,1.31.1Z"/>
    </g>
  </g>
</svg>