<?xml version="1.0" encoding="UTF-8"?>
<svg id="_레이어_2" data-name="레이어 2" xmlns="http://www.w3.org/2000/svg" xmlns:xlink="http://www.w3.org/1999/xlink" viewBox="0 0 59.67 107">
<defs>
    <style>
      .cls-1 {
        fill: #f7972a;
      }

      .cls-2 {
        fill: #fac26e;
      }

      .cls-3 {
        fill: #ec7a19;
      }

      .cls-4 {
        fill: #eb630f;
      }

      .cls-5 {
        fill: #bde2ad;
      }

      .cls-6 {
        fill: #619e26;
      }

      .cls-7 {
        fill: #daebc5;
      }

      .cls-8 {
        fill: #75ae39;
      }

      .cls-9 {
        fill: #b2d97f;
      }

      .cls-10 {
        fill: #f9a055;
      }

      .cls-11 {
        fill: url(#_무제_그라디언트_270);
      }

      .cls-12 {
        fill: #f5c698;
      }

      .cls-13 {
        fill: #88bf45;
      }

      .cls-14 {
        fill: #f8a832;
      }

      .cls-15 {
        fill: #519027;
      }

      .cls-16 {
        fill: #fdfdfd;
      }

      .cls-17 {
        fill: #fbb164;
      }
    </style>
    <linearGradient id="_무제_그라디언트_270" data-name="무제 그라디언트 270" x1="-348.51" y1="679.94" x2="-345.54" y2="1306.09" gradientTransform="translate(55.88 -10.41) scale(.08)" gradientUnits="userSpaceOnUse">
      <stop offset="0" stop-color="#fab338"/>
      <stop offset="1" stop-color="#f78d24"/>
    </linearGradient>
  </defs>
  <g id="_레이어_1-2" data-name="레이어 1">
    <g id="_생성형_개체" data-name="생성형 개체">
      <g>
        <path class="cls-3" d="M43.79,69.38h-.36l.18-1.07c-1.48.25-3,.06-4.48.12l.84-7.28c.62,0,4.61-.02,4.84-.12.2-.09.37-1,.12-1.07-1.6.23-3.23.16-4.84.24.54-3.39.58-6.94-.36-10.27.66.1,5.37.49,5.67.36.34-.15.07-1.35-.12-1.43-.38-.16-3.8.38-4.48.48l1.43-.42-.84-2.45c.43,0,3.12.07,3.22-.06-.08-1.74-1.88-1.04-3.1-1.02-1.15-.05-1.29-1.27-1.91-1.97-.45-.51-1.22-1.31-1.73-1.73-.47-.39-2.42-1.16-1.25-1.31,13.86,2.42,9,19.21,7.17,29.02Z"/>
        <path class="cls-4" d="M43.43,69.38h.36c-1.96,10.46-5.17,24.32-9.79,33.86-.34.71-1.77,3.72-2.51,3.76l1.07-3.7c1.21.05,2.03-.69.48-.72-.35.1-.14-.58-.12-.66.23-.89.59-1.77.72-2.69.98.08,1.69.51,2.03-.66-.06-.07-1.56-.08-1.79-.06l.96-4.18c.83.03,3.05.3,2.33-.84-.71.13-1.52-.03-2.21,0l.6-2.87c.82.08,3.54.52,2.81-.84-.85,0-1.72.03-2.57.12l.96-5.61c.46,0,3.26.09,3.4,0,.09-.05.06-.65.3-.78-.06-.28-3.22-.07-3.58-.06l.84-5.49c.44.05,3.82.22,4,.12.08-.04.28-.84.12-.96-1.2.06-2.86-.19-4-.12l1.07-7.64c1.49.04,3.04,0,4.54,0Z"/>
        <path class="cls-1" d="M21.1,68.07c.68,3.97,1.57,8,2.39,11.94l-2.15-.36c-.91-3.82-1.71-7.72-2.39-11.58h2.15Z"/>
        <path class="cls-14" d="M19.67,50.39c-.32,2.69-.13,5.56.12,8.24l-2.27-.12c-.31-3.01-.7-5.69-.24-8.72.17,1.06,1.56.44,2.39.6Z"/>
        <path class="cls-1" d="M19.79,58.63c.04.47.07.97.12,1.43-2.92-.09-2.42,1.46.24,1.07.23,1.97.51,4.27.84,6.21l-2.15.12c-.51-2.97-1-5.96-1.31-8.96l2.27.12Z"/>
        <path class="cls-1" d="M34.6,40.01c.39.03,1.11.17,1.55.24.21.03.39.1.48.12-1.17.15.78.93,1.25,1.31.51.42,1.28,1.22,1.73,1.73.62.7.76,1.92,1.91,1.97-1.1.03-2.25.05-3.34.12-1.57-2.87-4.3-4.4-7.28-5.49,1.22-.01,2.49-.1,3.7,0Z"/>
        <path class="cls-14" d="M20.51,46.69c.12.79-.58,1.8-.72,2.51h-2.39c.18-.9.37-1.78.72-2.63.57.09,1.89.26,2.39.12Z"/>
        <path class="cls-2" d="M19.79,49.2c-.06.29-.08.83-.12,1.19-.82-.16-2.22.47-2.39-.6.03-.22.08-.39.12-.6h2.39Z"/>
        <path class="cls-2" d="M20.98,45.98c-.06.08.03.58-.48.72s-1.82-.03-2.39-.12c.12-.3.33-.56.48-.84.61.49,1.65.13,2.39.24Z"/>
        <path class="cls-14" d="M20.98,67.35c.04.23.08.48.12.72h-2.15c-.04-.2-.08-.4-.12-.6l2.15-.12Z"/>
        <path class="cls-12" d="M22.06,49.8c-.03.18.03.41,0,.6-.09.65-.08,1.27-.12,1.91,0,.16-.11.42-.12.72-.07,1.82.15,3.49.24,5.25,0,.14-.01.29,0,.48.03.49.09.95.12,1.43.02.32.1.66.12.96.16,2.04.26,4.06.48,6.09.03.29.09.55.12.84.18,1.67.38,3.35.6,5.02.03.24.09.49.12.72.24,1.81.56,3.58.84,5.37.05.32.07.63.12.96.18,1.14.28,2.32.48,3.46.09.54.32,1.12.36,1.31.18,1.04.4,2.06.6,3.1.05.27.06.54.12.84.05.23.07.47.12.72s.05.51.12.84c.36,1.78.77,3.47,1.19,5.25.07.31.21.59.24.72.09.37.11.92.18,1.31-.1.03-.67-1.24-.78-1.37-.05-.07-.51-.09-.48-.24.02-.07.37.06.36-.48-.04-1.68-1.16-4.87-1.55-6.69-.25-1.16-.65-2.73-.96-4.12-.08-.39-.15-.8-.24-1.19-.26-1.19-.59-2.4-.84-3.58-.82-3.95-1.71-7.97-2.39-11.94-.04-.24-.08-.48-.12-.72-.32-1.94-.6-4.24-.84-6.21-.04-.38-.2-.75-.24-1.07-.05-.47-.08-.96-.12-1.43-.25-2.68-.44-5.55-.12-8.24.04-.36.06-.91.12-1.19.14-.71.83-1.71.72-2.51.5-.14.41-.64.48-.72,1.57-1.89,3.27-3.77,5.85-4.12-1.08.83-2.26,1.68-2.99,2.87-1.65,2.68.35,1.42.36,1.79-1.79-.22-1.92,1.89-2.15,3.28Z"/>
        <path class="cls-2" d="M41.4,46.45c-.89.02-1.87.13-2.75.12-2.2-.02-4.48-.3-6.69-.42,2.04-.3,4.16-.53,6.21-.66,1.09-.07,2.25-.09,3.34-.12,1.22-.03,3.03-.72,3.1,1.02-.1.13-2.79.05-3.22.06Z"/>
        <path class="cls-17" d="M39.97,61.14c-2.52,0-5.13-.25-7.64-.42,2.59-.06,5.18-.41,7.76-.54,1.61-.08,3.24,0,4.84-.24.25.08.08.99-.12,1.07-.22.1-4.21.12-4.84.12Z"/>
        <path class="cls-1" d="M41.4,46.45l.84,2.45-1.43.42c-.37.06-.86.06-1.19.12l-.96-2.87c.87,0,1.85-.1,2.75-.12Z"/>
        <path class="cls-17" d="M43.43,69.38c-1.5,0-3.05.04-4.54,0-2.01-.06-4.08-.22-6.09-.42,2.09-.15,4.24-.46,6.33-.54,1.48-.05,3,.13,4.48-.12l-.18,1.07Z"/>
        <path class="cls-17" d="M39.73,49.92c-.35-.05-.71-.16-1.07-.18.17-.23.69-.25.96-.3.33-.06.82-.06,1.19-.12.67-.1,4.1-.64,4.48-.48.19.08.46,1.28.12,1.43-.3.13-5.01-.26-5.67-.36Z"/>
        <path class="cls-17" d="M36.75,84.31c-1.57-.02-3.34-.15-4.9-.42,1.65-.22,3.35-.35,5.02-.42.37-.01,3.52-.22,3.58.06-.24.12-.21.72-.3.78-.15.09-2.94,0-3.4,0Z"/>
        <path class="cls-17" d="M37.7,77.98c-.79-.08-1.85-.32-2.63-.54.88-.1,1.87-.37,2.75-.42,1.14-.07,2.8.18,4,.12.16.11-.04.91-.12.96-.18.1-3.56-.07-4-.12Z"/>
        <path class="cls-17" d="M26.12,88.85c-.06-.29-.07-.56-.12-.84,1.27-.02,2.68-.39,3.82.42-.99,1.07-2.5.89-3.7.42Z"/>
        <path class="cls-10" d="M35.55,90.64c-.43-.04-.81-.21-1.31-.24-.07-.23.32-.31.48-.36.35-.1.72-.08,1.07-.12.84-.09,1.71-.13,2.57-.12.74,1.35-1.99.92-2.81.84Z"/>
        <path class="cls-17" d="M25.4,84.91c-.03-.19-.27-.78-.36-1.31l4.3.66-3.94.66Z"/>
        <g>
          <path class="cls-11" d="M30.89,40.01c2.98,1.09,5.72,2.62,7.28,5.49-2.05.12-4.17.36-6.21.66,2.21.12,4.48.4,6.69.42l.96,2.87c-.26.05-.78.06-.96.3.36.02.73.13,1.07.18.94,3.33.9,6.88.36,10.27-2.58.13-5.17.47-7.76.54,2.52.17,5.12.42,7.64.42l-.84,7.28c-2.09.08-4.24.38-6.33.54,2.01.2,4.08.36,6.09.42l-1.07,7.64c-.88.05-1.86.32-2.75.42.77.22,1.84.45,2.63.54l-.84,5.49c-1.66.06-3.36.2-5.02.42,1.56.27,3.32.4,4.9.42l-.96,5.61c-.36.04-.72.02-1.07.12l-8.48-.48c-.05-.24-.07-.48-.12-.72,1.21.47,2.71.66,3.7-.42-1.14-.81-2.55-.44-3.82-.42-.2-1.04-.41-2.06-.6-3.1l3.94-.66-4.3-.66c-.19-1.14-.3-2.32-.48-3.46l7.28-.54-7.4-.42c-.27-1.8-.6-3.56-.84-5.37l7.4-.42-7.52-.3c-.21-1.67-.41-3.34-.6-5.02l6.33-.54-6.45-.3c-.21-2.03-.32-4.05-.48-6.09l4.42-.42-4.54-.54c-.03-.48-.09-.95-.12-1.43l6.69-.18-6.69-.3c-.09-1.76-.31-3.43-.24-5.25l10.75-.3-10.63-.42c.04-.64.03-1.26.12-1.91l6.33-.18-6.33-.42c.23-1.4.36-3.51,2.15-3.28,0-.37-2.01.89-.36-1.79.73-1.18,1.9-2.04,2.99-2.87-2.58.35-4.28,2.23-5.85,4.12-.74-.11-1.78.25-2.39-.24,1.65-3.2,4.68-5.07,8.24-5.61.3-.05,1.06-.09,1.43-.12.82-.07,1.78,0,2.63,0Z"/>
          <g>
            <path class="cls-2" d="M21.82,53.02c.01-.3.11-.56.12-.72l10.63.42-10.75.3Z"/>
            <path class="cls-14" d="M29.16,65.92c2.49-.12,5.16-.02,7.58.42-3.58.42-7.31.53-10.87-.12,1.09-.08,2.2-.25,3.28-.3Z"/>
            <path class="cls-1" d="M34.72,90.04c-.16.05-.55.13-.48.36-.41-.02-.97-.21-1.61-.24-2.03-.08-4.23.21-6.27.24-.07-.32-.07-.58-.12-.84l8.48.48Z"/>
            <path class="cls-14" d="M26.89,74.52c2.52-.22,5.85-.1,8.3.42-3.16.38-6.34.11-9.49-.06-.1-.29,1.05-.35,1.19-.36Z"/>
            <path class="cls-2" d="M32.98,54.22c2.14-.05,4.42.07,6.51.42-3.29.37-6.64.21-9.91-.12,1.11-.11,2.29-.27,3.4-.3Z"/>
            <path class="cls-14" d="M23.61,73.8c-.03-.23-.09-.47-.12-.72l7.52.3-7.4.42Z"/>
            <path class="cls-14" d="M24.57,80.13c-.05-.33-.07-.64-.12-.96l7.4.42-7.28.54Z"/>
            <path class="cls-14" d="M32.03,81.92c1.29-.06,2.92,0,4.12.42-2.25.35-4.59.4-6.81,0-.06-.13,2.49-.41,2.69-.42Z"/>
            <path class="cls-14" d="M22.89,68.07c-.03-.28-.09-.55-.12-.84l6.45.3-6.33.54Z"/>
            <path class="cls-2" d="M22.06,58.75c-.01-.18,0-.34,0-.48l6.69.3-6.69.18Z"/>
            <path class="cls-14" d="M28.45,85.98c1.48-.16,3.53,0,4.96.42-.58.25-6.09.29-6.09-.12.32-.15.8-.26,1.13-.3Z"/>
            <path class="cls-2" d="M22.06,50.39c.03-.19-.03-.41,0-.6l6.33.42-6.33.18Z"/>
            <path class="cls-2" d="M22.3,61.14c-.02-.3-.1-.63-.12-.96l4.54.54-4.42.42Z"/>
          </g>
        </g>
        <path class="cls-1" d="M34.84,94.34c-.91-.04-1.96-.3-2.87-.42.91-.04,2.13-.38,2.99-.42.69-.03,1.5.13,2.21,0,.72,1.13-1.5.87-2.33.84Z"/>
        <path class="cls-10" d="M33.64,99.24c-.47-.04-1.29-.05-1.67-.3.61.02,1.37-.37,1.91-.42.23-.02,1.73-.01,1.79.06-.34,1.17-1.05.74-2.03.66Z"/>
        <path class="cls-17" d="M24.57,84.79c-.31.36-1.83-.36-1.79-.54l1.55-.66c.09.4.15.81.24,1.19Z"/>
        <path class="cls-1" d="M33.04,102.58c1.55.02.74.77-.48.72-.31-.01-1.1-.07-1.31-.42.55-.12,1.23-.31,1.79-.3Z"/>
        <g>
          <path class="cls-3" d="M23.49,80.01c.25,1.19.58,2.39.84,3.58l-1.55.66c-.04.18,1.48.89,1.79.54.3,1.39.7,2.96.96,4.12.4,1.81,1.51,5.01,1.55,6.69.01.53-.34.41-.36.48-.03.15.42.17.48.24.1.13.68,1.4.78,1.37-.07-.39-.09-.94-.18-1.31l5.61-.42-5.85-.3c-.43-1.78-.83-3.48-1.19-5.25,2.04-.03,4.24-.32,6.27-.24.64.03,1.2.21,1.61.24.5.03.88.2,1.31.24l-.6,2.87c-.86.04-2.07.38-2.99.42.91.12,1.96.38,2.87.42l-.96,4.18c-.54.05-1.3.43-1.91.42.38.25,1.2.26,1.67.3-.13.92-.48,1.8-.72,2.69-.02.08-.23.76.12.66-.56,0-1.24.18-1.79.3.21.35,1,.4,1.31.42l-1.07,3.7c-.29.01-.53-.23-.72-.42-3.16-3.19-8.23-21.86-9.43-26.93l2.15.36Z"/>
          <path class="cls-1" d="M27.79,96.37c-.03-.13-.17-.41-.24-.72l5.85.3-5.61.42Z"/>
          <path class="cls-1" d="M30,99.95c.32-.05,3.12-.08,3.16.18-.55.93-6.03.25-3.16-.18Z"/>
          <path class="cls-1" d="M30.24,104.61c.54-.38,1.18.62.72,1.07-.3.14-.96-.9-.72-1.07Z"/>
        </g>
        <path class="cls-2" d="M19.91,60.07c.04.32.19.7.24,1.07-2.66.38-3.16-1.16-.24-1.07Z"/>
      </g>
      <g>
        <path class="cls-13" d="M31.25,12.78c-.44-.07-.15,1.42-.12,1.49.11.24.54.09.72.06.01,0-.04.2.06.24.27-.51.36-1.13.54-1.67.54-1.13.17.32.48-.06.16-.2.21-.92.54-1.13.43.02.03,2.25-.3,2.45l1.49-1.61c.29.34-.28.91-.18,1.13.05.1.33-.19.36,0,.02.14-1.07.64,0,.72-2.06,1.78-3.36,3.2-3.1,6.09l1.07-3.34c.55.34.39-1.19,1.13-1.49l-.3,1.19c-.17.27-.77,1.36-.3,1.55.1.04,1.37-1.38,1.49-1.55.67.62-.98.83.36.78l-1.07.72c.06.17.88-.41.84.24-.04.69-2.82,1.24-3.1,2.51-.35,1.55.02,7.84.12,9.79.11,2.15.62,4.33.48,6.51l-1.07-8.24c.12-2.05.59-5.96.24-7.82-.29-1.51-2.41-2.09-3.1-3.22l.6-.36c-1.94-2.04-1.27-4.75.66-1.13.68-1.48,1.51,2.5,1.79,3.1.86-2.68-1.93-3.71-2.45-5.43l.3-1.85c.57.67.86,1.07,1.19,1.91l-.42-1.73c.31-.44.16.3.6.12l-.06-1.02c.31.28.35.73.54,1.07Z"/>
        <path class="cls-8" d="M48.57,30.81l-.18-.48c-.19.16.17.45.18.48.03.15.3.33-.06.36-1.27-1.19-1.43-2.43-3.46-2.27.44.57,1.38.52,1.91,1.07.58.6-.05.24-.06.42-.02.37,1.84.92.78,1.73l-1.07-.84v.72c-2.12-2.11-1.44-3.81-4.9-2.03-1.53.79-3.16,2.57-4,4.06-.77.04-1.17,2.63-1.31,2.69-.29.11-.85-.27-1.19-.18.27-.87,1.04-2.47,1.55-3.22,1.14-1.68,3.22-3.28,5.08-4.06.92-.38,1.91-.25,2.75-.84s1.16-1.9,1.67-2.75c.45,1.08.29-.32.66-.66.05-.05.88-.07,1.13-.54.39.23-.21.48-.18.54.18.32.62-.3.66-.3.83.14-.95,1.66-1.13,1.85l.78-.3c-.24,1.4-2.4,1.64-3.46,2.39,2.88.69,3.74-2.27,6.03-2.81l-.84.84.84-.24-1.25,1.49c.6-.41,1.29-.65,2.03-.6-.44.8.85.87,1.49.9-.82.96-1.3.78-2.33.3l.9.78-1.25.06.42.54c-.46.67-1.19-.05-1.73-.3.05.7,1.38.51,1.02,1.25l-1.43-.06Z"/>
        <path class="cls-13" d="M25.58,6.21c.38-.15.67.96.72,1.19,1.68-1.62.82,1.89.42,2.81.61-.06.96-1.44,1.67-.96-.78.49,0,.39,0,.48.18,1.96-.77,2.21-1.67,3.7l1.37-.9c.61,1.43-1.56,2.71-2.33,3.88-.3.46-.43,1.17-.78,1.61.63-.62-1.84-8.03-1.07-7.88-.08.34.68.88.78.66-.34-.55-.56-1.14-.48-1.79,1.02.68-.53-2.75,1.07-1.67-.09-.22.16-1.08.3-1.13Z"/>
        <path class="cls-13" d="M37.88,6.57c.31.02.38,1.14.48,1.19.98-1.77.76.99.9,1.25.1.2.33-.14.42-.06.42.4.02,1.14-.06,1.61l.54-.66c.72-.35-.39,5.11-.42,5.43-.06.71.13,1.53-.06,2.21-.29-.72-.52-1.47-1.02-2.09-.63-.79-1.94-1.49-2.51-2.39.83-.86.74-.26,1.67,0-1.22-.98-1.51-1.68-1.79-3.22.23-.36.43.14.66.3l-.3-.54c.52-.61.84.83,1.19,1.07l-.72-2.63.18-.3c.7.75.27-1.24.84-1.19Z"/>
        <path class="cls-13" d="M52.33,20.3c.24-.02.49-.06.66.18l-.54.78c.46-.07,1.37-.92,1.79-.84.4.08-.24.52,0,.6.16.05,1.66-.76,1.85-.18.02.05-.69.09.36.48-.75.98-.15.86-.12,1.07.08.62-2.27.6-2.75.6.37.42,1.35.58.66,1.13l-2.75-.6c-.08.22,1.03.8.48.96-.49.13-4.14-2.09-5.19-1.73.73-.32,1.59-.36,2.33-.66s2.68-1.74,3.22-1.79Z"/>
        <path class="cls-13" d="M14.77,13.61c.39,0,.61.34.9.12l2.39,1.91c.65.04.4-.84.84-.72.28.08,2.94,2.88,3.76,3.05-1.23.15-2.65.4-3.88.3-.14-.01.2-.26-.42-.36-.51-.08-1.29.13-1.85-.12l-.18-.18c.43-.22.25-.45.42-.9-1.06.09-3.08-.07-1.37-1.02-.39.03-1.56-.86-1.43-1.19s.71-.08.84-.24c.18-.23-1.04-.68,0-.66Z"/>
        <path class="cls-8" d="M23.97,18.63c.02.05-.02.19,0,.24-.8-.41-2.46-.77-3.28-.48-.87.31,0,.35.06.54.02.06-.45,1.07-.6,1.19,2.08-1.25.04,1.24-.24,1.91-.25.6-.29,1.23-.42,1.85.03-1.17-1.4-2.92-1.02-3.88.11-.27.52-.17.6-.48.37-1.55-1.13-.43-1.31-.96l.6-.66c.62.1.28.35.42.36,1.23.11,2.66-.15,3.88-.3-.82-.16-3.48-2.97-3.76-3.05-.44-.12-.18.76-.84.72l-2.39-1.91c-.29.22-.5-.11-.9-.12.18-1.31,1.59.37,1.73.36.32-.03.1-.33.24-.36.37-.07,1.14,1.52,1.55,1.67l-.66-1.13c.16-.22.82.08,1.02.18,1.49.73,3.71,3.4,5.31,4.3Z"/>
        <path class="cls-13" d="M42.36,12.66c-.08.18-.07.41-.36.48.14-1.93-1.06-2.75-1.79-4.36l1.07.36c-.89-.81-2.66-3.96-.24-1.67l-.84-1.91c1,.07.32-.04.48-.36.55-1.11.51.19.72.36.05.04.68-.45.6.72l.24-.12v.96l.36-.12-.12,1.31c.19.04.27-.56.42-.54.82.1-.84,4.32-.54,4.9Z"/>
        <path class="cls-8" d="M17.88,10.51s0-.09,0-.12l3.22,3.05c-.83-.43-2.55.18-3.16-.06-.04-.02-.32-.59-.36-.6-.25-.05-.09.33-.48.24-.46-.11-1.11-.75-.18-.78l-.24-.18c-.53-.33-3.64-.41-1.55-1.25-.45-.1-2.53-1.19-1.19-1.37.55-.08,1.87.85,2.45,1.07.27.1.45-.13.48-.12.2.07.93,1.05,1.25.42.1-.39-.24-.28-.24-.3Z"/>
        <path class="cls-13" d="M14,17.79c.99.76,1.58.68,2.03,1.91.24-.08-.76-1.67.66-.66-1.01-2.11,1.2-.02,1.19.96l.24-.12c-.39,1.49-.08,2.16.78,3.28l-4-2.21.48-.24c-.3-.11-1.52-.83-1.55-1.07-.05-.34.51.18.48-.24,0-.08-.95-.95-.96-1.31l.66.18v-.48Z"/>
        <path class="cls-8" d="M36.69,18.99c.21-.01.67.34.66.54,0,.13-1.32,1.76-1.67,1.79l.96.12c-.12.47-.77.69-.96.96-.01.02.25.34.24.36-.12.29-1.73.4-2.09.54-.77.3-1.18.84-1.79,1.31l2.27-4.66c.54,1.02.71-.46,1.43-.84.37.98.46-.09.96-.12Z"/>
        <path class="cls-13" d="M26.66,18.63l.96.84v-.84c.63.62.85.78,1.19,2.03.12-.21-.08-1.57.42-1.02.55.61,1.05,4.05,2.21,4.84-1.2-1.21-2.86-1.41-4.24-2.33l1.07-.12c-.53-.05-1.64-1.23-1.67-1.67-.02-.23.38-.24.36-.36-.06-.38-.79-.86-.3-1.37Z"/>
        <path class="cls-13" d="M11.55,19.11c-.68-1.35-2.26-2.32-2.09-3.58l.66.18c-1.05-.83-.28-.8-.24-.96,0-.02-.38-.09-.24-.36.06-.12.28.19.36,0,.03-.07-.21-1.01-.12-1.37.94-.33.57.9.72,1.25.21.5.81,1.07.84,1.67l1.07.12c-.25.43-.65,1.33-.72,1.79-.06.39.47,1.32-.24,1.25Z"/>
        <path class="cls-6" d="M18.83,4.42c0,.32-.12.45-.12.48,0,.54.04,1.24-.24,1.73-1.04-1.16-.91-2.6-1.31-3.82-.16-.49-.46-.43-.48-.48-.15-.4-.09-2.05-.96-.78-.04-.17-.31-1.49-.18-1.55.34.26.59,1.12.72.36,1.17.37.36,2.27,1.67.96-.2,1.03.6.86.66,1.02.03.1.23,1.89.24,2.09Z"/>
        <path class="cls-8" d="M20.98,5.14c-.27.41-1.26,1.1-1.55,1.67-.49-.62-.02-1.29-.72-1.91,0-.02.13-.16.12-.48.78-.08-.57-1.87.66-2.39.12.34.23.35.36,0,.57.47.03.97.24,1.55-.02-.85.7-1.18.9-.42.03.13-.34.88-.24,1.07.04.08,1.12-.44.24.9Z"/>
        <path class="cls-6" d="M37.7,34.03c-1.02,1.82-1.72,4.11-1.55,6.21-.44-.07-1.17-.21-1.55-.24.04-1.16.25-2.37.6-3.46.34-.09.91.29,1.19.18.14-.05.54-2.65,1.31-2.69Z"/>
        <path class="cls-13" d="M32.45,12.9c-.18.55-.27,1.16-.54,1.67-.1-.04-.05-.24-.06-.24.05-.67-.23-.94-.36-1.43-.11-.41-.4-.82-.36-1.25.01-.13.33-.18.36-.24.02-.03-.42-.71.24-.24-.89-1.22.71-2.35.96-1.31.15.65-.41,1.81.36,1.55-.24.5-.42.97-.6,1.49Z"/>
        <path class="cls-15" d="M28.27,40.01c-.37.03-1.13.07-1.43.12.05-1.12-.12-2.27-.48-3.34.64.21,1.15.12,1.07-.6.39.92.36,1.64.6,2.33.03.07,1.22,1.27.12.6l.12.9Z"/>
        <path class="cls-13" d="M34.84,16.84c-.13.17-1.39,1.59-1.49,1.55-.47-.19.13-1.28.3-1.55.16-.25,1.59-1.9,1.85-1.79l-.18.42h.36c-.34.43-.51.93-.84,1.37Z"/>
        <path class="cls-6" d="M17.88,10.51s.34-.09.24.3c-.33.63-1.06-.35-1.25-.42-.02,0-.21.22-.48.12-.58-.22-1.9-1.15-2.45-1.07-.11-.38-.15-.43.3-.36.4.06,1.91,1.19,2.15,1.07-.58-1.67,1,.2,1.49.36Z"/>
        <path class="cls-6" d="M31.25,12.78c.08.14.05.15.24.12.13.49.41.76.36,1.43-.18.03-.61.18-.72-.06-.03-.07-.33-1.56.12-1.49Z"/>
        <g>
          <path class="cls-13" d="M18.71,4.9c.69.62.23,1.29.72,1.91-.41.82,0,.43.42,1.07.29-.9.32-2.01,1.25-2.51-.09,1.02-1.3,3.53-1.19,4.36.05.43,1.66,2.39,1.91,2.99l-1.31-4.54.6.24-.36-1.31c.92.03.02-.85.54-1.61l.42.18.24-1.31c1.01.6-.19,1.63,1.31.6l-.12,1.43.54-.18-.18.54h.36l-1.07,1.79c.43-.31.88-.64,1.07,0,.07.25-1.88,3.62-1.79,4.66.08.91,2.57,5.18,3.1,6.45,1.67,3.99,2.96,8.24,4.06,12.42.25.95.62,3.91.96,4.54.24.44.58.32.72-.12.21-.68.41-6.15.48-7.34l1.07,8.24c.96-.3.48-1.72.72-2.57.58-2.08,2.03-5.06,2.87-7.22l.36-.06c.28.57-.41,1.06-.48,1.31-.27.98-.49,2.47-.72,3.46-.12.55-.73,1.73-.36,2.09l.06.24c1.38-3.23,3.93-5.6,6.39-8l1.31-.9-1.19,1.49c-1.77,1.85-3.55,3.72-4.66,6.09-.51.75-1.28,2.35-1.55,3.22-.35,1.1-.56,2.31-.6,3.46-1.22-.1-2.48-.01-3.7,0-.84,0-1.81-.07-2.63,0l-.12-.9c1.1.68-.09-.53-.12-.6-.24-.69-.21-1.41-.6-2.33s-.77-1.73-1.31-2.51c-3.12-5.86-8.52-9.24-13.79-12.9-.28-.06-1.38.13-1.67.24-.58.22-4.17,3.67-2.51.72-.57.62-2.9,2.02-3.05.78l.66-.66c-.92.42-3.99.4-1.73-.66l-.9-.3c.61-1.02,1.23-.48,1.91-.6.11-.02,0-.34.12-.36.43-.05.86.22,1.31.12l-.36-.72,5.79,1.13c-1.76-.78-2.52-2.59-4.6-2.21-.51.1-3.49,1.65-2.27.24-.72.08-1.43.56-2.15.24.45-.91-.62-.5-.66-.9-.09-.91,1.87-.5,2.39-.72-.68-.83-2.4.39-2.99-.24-.09-.09.21-.26.12-.36-.1-.11-.55,0-.6-.24-.05-.29.72-.18,0-.6l1.25.06c-1.29-.92-.99-.79.42-1.13-.71.03-3.1-.4-1.55-1.07-.29-.16-1.07-.55-1.19-.84-.09-.21.25-.18.24-.24-.06-.29-.57-.23-.18-.54.86.78,1.95.21,2.51,1.43l.24-.48,1.31,1.43-.66-1.61.54.06c-.44-1.31.47.19.6-.84.35.16.35,1.18.42,1.25.18.2.39-.19.42-.18.35.17.34,1.97.54,2.45.22.53,1.3,1.31,1.73,1.73-.11-.58-1.62-2.11-1.61-2.57.01-.52.31-.12.36-.48,0-.06-.45-.59-.48-.72-.09-.51.46,0,.36-.36s-.71-1.49-.3-1.73c.1-.06.14.61.36-.12.3.19.64,1.51.72,1.55.23.12.17-.79.54-.3l.18,1.85c.17-.49-.14-1,.36-1.31,1.09,1.05-.22,2.95.3,4.36.31.83,2.68,1.93,3.28,2.69.32-.1-.23-.81-.3-.96.71.06.18-.86.24-1.25.07-.46.47-1.36.72-1.79l-1.07-.12c-.02-.6-.63-1.17-.84-1.67-.15-.35.23-1.58-.72-1.25.16-.65.29-.2.54-.24s.18-.6.6.48l.48-.72c.59.38.11,1.18.18,1.49,0,.03.39.31.42.3.08-.02.07-.75.42-.3l-.36,1.31.66-.42.18.3c-.31,1.4-1.47,3.49-.72,4.9.42.78,4.77,3.15,5.79,3.88,3.94,2.83,8.43,6.92,10.27,11.46-.46-5.74-2.13-11.33-4.36-16.6-.02-.05.02-.19,0-.24-.42-.98-1.73-4.16-2.45-4.66-1.24-.86-2.79-.22-4.18-.36l.24-.36c-1.22.18-2.99-.85-.9-1.19l.24.18c-.93.03-.28.67.18.78.39.09.23-.28.48-.24.03,0,.32.58.36.6.62.24,2.34-.37,3.16.06l-3.22-3.05c-.05-.19-.3-.45.18-.36.39.07,2.31,2.12,2.75,2.51-.19-.61-.99-2.54-1.43-2.87-.38-.27-4.83-1.16-4.72-1.97.03-.21.7-.13.42-.42l-1.02-.54c.09-.27.81-.44.84-.48.05-.07-.7-.4-.3-.66l1.97,1.13c-.43-.62-2.1-2.38-.36-1.55-.15-.45-.69-.74-.42-1.25l1.25.54c-.5-.3-2.45-2.67-.96-1.91-.13-.34-.28-.66-.36-1.02.87-1.27.8.37.96.78.02.05.32,0,.48.48.4,1.22.27,2.66,1.31,3.82.28-.49.23-1.2.24-1.73Z"/>
          <path class="cls-5" d="M21.1,5.37c-.94.5-.97,1.61-1.25,2.51-.42-.64-.83-.25-.42-1.07.29-.58,1.28-1.26,1.55-1.67-.01.11.13.13.12.24Z"/>
          <path class="cls-16" d="M4.92,16.6c1.37-.18,2.39.47,3.4,1.25l-3.4-1.25Z"/>
        </g>
        <g>
          <path class="cls-13" d="M47.49,13.61c.13.17.59.09.6.42,0,.1-.31.39-.36.6-.04.19.24.31.24.36-.01.13-1.94,1.52-.42,1.85.1-.03.04-.23.06-.24.41-.22.71-.43.96-.84.07,0,.18-.02.24,0l-2.27,6.03c1.34-1.01,3.07-1.91,3.1-3.76l.18.6,1.37-1.43-1.02,1.67c.77-.86,1.98-1.67,2.33-2.81.19-.63.1-2,.24-2.39.13-.36.52.05.6-.12.05-.1.17-2.04.66-2.09.18-.02.17,1.04,1.07-.24l.06.78.36-.12-.06.78c.1-.07.56-.47.6-.48.56-.05-.02.78.96-.36l.12.84c.12-.42,2.49-1.4,2.57-1.25-.91.94-.26.82-.24,1.07,0,.13-.83.76-1.07.72l.72.36c-.58.25-1.13.78-1.19,1.31,0,.04.37.33.36.36-.09.31-2.02.16-1.91.78-.02,0-.06.21-.3.12.21-1.02-.84-.14-1.31,0-.55.16-1.38-.04-1.61.66,1.23-.27,2.67.38,3.88.18.14-.02.18-.33.24-.36.02,0,.2.27.42.06.37-.35.07-.65,0-1.02.23-.03.81-.17.96-.06.24.9-.28.77-.36.96-.08.2.53.18.06.54-.55.42-4.12-.2-5.14,0-.72.14-1.98,1.48-2.69,1.85.05.39.21.09.3.06.32-.1,3.24-2.25,3.4-1.49-.76,1.06.61-.14,1.13-.18l-.24.6c.72-.56,2.86-.51,1.31.12l.12.24c2.12-.69.32.32.3.42-.05.21.48.47-.06.78-.6.32-1.14-.3-1.79-.24l.48.48c-.63.17-1.87-.73-1.43.24-.4.2-2.82-.63-3.7-.48-1.12.19-7.73,6.54-8.9,7.76l1.19-1.49-1.31.9c.68-.67,4.88-4.28,5.02-4.6.16-.38.04-2.2-.12-2.63-.54-1.41-4.9-2-5.85-.96-.46.51-3.08,7.46-3.46,8.6-.81,2.41-1.4,4.89-2.03,7.34-.37-.36.23-1.54.36-2.09.23-.99.45-2.48.72-3.46.07-.25.76-.75.48-1.31l-.36.06c.96-2.5,5.86-12.96,5.97-14.45.29-.07.28-.3.36-.48.87-2,1.24-2.41.84-4.66.58.22.39,1.45.48,1.97.34-.14.63-.36.96-.54-1.02.98-1.65,2.32-1.97,3.7.29-.41,2.29-3.47,2.51-3.46.11,0,.01.35.12.36.08,0,1-1.07,1.19-1.19v.72c.07-.51,2.21-1.81,2.39-1.79.05,0-.13.4.54.54-.06.34-1.72,1.33-1.67,1.43.04.09,1.18,0,.18.78-.47.37-1.24.3-1.73.66.71-.21,1.62.32.9,1.02s-2.55.59-3.46.96c-1.72.68-2.37,3.15-3.05,4.72l4.6-3.88v1.07c.54-.85,1.38-1.44,2.15-2.03.46.23.16.57.18.6Z"/>
          <path class="cls-13" d="M56.33,16c.43-.1.87-.3,1.31-.36.07.37.37.67,0,1.02-.22.21-.4-.07-.42-.06-.06.03-.1.34-.24.36-1.21.2-2.65-.45-3.88-.18.23-.7,1.06-.5,1.61-.66.48-.14,1.52-1.02,1.31,0,.23.09.28-.12.3-.12Z"/>
          <path class="cls-7" d="M45.17,17.44c.56.06.85.81.3.66-.03,0-.66-.49-.3-.66Z"/>
        </g>
        <g>
          <path class="cls-13" d="M26.12,33.68c.55.78.94,1.63,1.31,2.51.08.71-.43.81-1.07.6-1.04-3.1-5.77-7.77-9.14-8-2.02-.14-1.2,2.71-1.67,3.82-.05.11-.21-.18-.3-.06-.07.09.02,1.31-.36.12l-.18.9-.12-1.07c-.27.28-1,1.99-1.43,1.07l-.24.48c-.84-.72-1.47-.6.06-1.49-1.31-.11.06-.46.24-.72.02-.03-.36-.08-.24-.24.84-1.16,2.15-1.93,3.16-2.93-2.83-.05-4.23.94-4.12,3.88-.37.43-.07-.26-.54-.3l-.24,1.19-.12-.84c-.17-.07-1.22,1.99-1.43.96l-.6.36c.33-.62-.11-.14-.3-.42.46-.65.38-1.11,1.31-1.67h-.6l2.93-2.45c-.58.18-2.2.31-2.63.6-.81.55-.38,2.29-1.19,2.63-.06.03-.01-.3-.24-.24-.09.02-.56.87-1.43,1.07-.17-.76-.34-.5.12-1.19-.48.57-2.67.59-1.55-.48-.76-.01-1.93.92-1.31-.36-.6.56-1.46.63-2.09.06-.02-.29,1.42-.58,1.73-.54l-.3-.42c.71-.71,1.43-.61,2.39-.6l-1.07-.84.54-.3-.9-.18.36-.24-.3-.42c1.86.23,3.26.81,4.9,1.67l3.4-.66c-1.54-.12-3.13.31-4.54-.48l.3-.3c-.92.35-.59-.26-.66-.3-.27-.16-2.01-.84-2.03-.96.1-.28,1.63-.66,1.73-.66.43.03,1.2,1.66.84,0,.49-.08,1.22.55,1.43.6.03,0,.12-.36.24-.36s1.02,1.41,1.43,1.67c1.56,1,2.84.27,4.54.24-.65-.73-2.45-.47-3.46-.84-.31-.11-1.1-.73-.72-.96-.27,0-.98-.02-1.19-.12-.45-.22.49-.36,0-.6-.13-.06-1.29-.19-1.25-.54.02-.19.65-.18.12-.36.02-.43.83-.38,1.13-.18-.29-.92,1.2-.27,1.55.36-.25-1.86.78-.44,1.31-.12.05.03.14-.52.66.06l2.09,3.28c3.63-.23,7.68,2.32,9.73,5.25Z"/>
          <path class="cls-5" d="M9.82,32.36c.53-.19-.02.66-.12.6-.14-.09-.07-.53.12-.6Z"/>
        </g>
        <path class="cls-16" d="M48.57,30.81s-.37-.32-.18-.48l.18.48Z"/>
        <g>
          <path class="cls-13" d="M44.63,9.43c-.32.17-.62.39-.96.54-.09-.52.1-1.75-.48-1.97-.13-.72-1.09-3.11-.84-3.52.28-.46.32.26.54.18.09-.04-.05-1.6.96-1.55l-.18,1.13c.41.16.33-.86.72-.36l-.18,1.61c.72-.53.14-1.43.3-2.21l.54.54v-.6l.48.84.18-1.85c.36-.42.27.2.54.42l.12-.96.24.84c.25-.68.28-1.62,1.02-1.97l-.18.78.66-1.02c-.24.94,0,2.06-.84,2.75.14.36.59-.47.66-.42.57.44-1.46,2.31-1.61,2.81l1.13-1.13-.24.96.66-.54c.42.28-1.63,2.05-1.02,1.97l2.15-2.15c-.11.86-.26,1.27-1.13,1.85l.96-.12c-1.04,1.39-2.66,2.35-4.18,3.16Z"/>
          <path class="cls-9" d="M44.69,6.09c.06,0,.08.1.06.18-.07.44-.21-.17-.06-.18Z"/>
        </g>
        <g>
          <path class="cls-8" d="M51.2,17.2l-1.37,1.43-.18-.6c.01-.55-.25-2.12-.84-2.27-.06-.02-.17,0-.24,0-.46.04-.79.42-.96.84-.02,0,.05.21-.06.24-1.52-.33.4-1.72.42-1.85,0-.05-.28-.17-.24-.36.04-.21.36-.5.36-.6,0-.32-.47-.25-.6-.42,1.03-.87.67.22,1.61-.24l-.12.96c.58-.82,1.13.03,1.19,0,.17-.07-.36-.98.36-1.31.02,0,.22.25.24.24.08-.02.56-1.73,1.07-1.07.43.54-.16,1.35-.18,1.97l.54-.42c.15.77-.48,1.23-.9,1.85l.96-.48-1.07,2.09Z"/>
          <path class="cls-7" d="M48.57,15.76c-.24.4-.54.62-.96.84.16-.41.5-.8.96-.84Z"/>
          <path class="cls-7" d="M49.23,14.45c.18.07.27.5.12.6-.22.14-.25-.53-.12-.6Z"/>
        </g>
      </g>
    </g>
  </g>
</svg>