<?xml version="1.0" encoding="UTF-8"?>
<svg id="_레이어_2" data-name="레이어 2" xmlns="http://www.w3.org/2000/svg" width="114.36" height="57.48" xmlns:xlink="http://www.w3.org/1999/xlink" viewBox="0 0 114.36 57.48">
  <defs>
    <style>
      .cls-1 {
        fill: url(#_무제_그라디언트_133);
      }

      .cls-2 {
        fill: #fff4e1;
      }

      .cls-3 {
        fill: #fff;
      }

      .cls-4 {
        fill: #fbe9c5;
      }

      .cls-5 {
        fill: #f9c48b;
      }

      .cls-6 {
        fill: #f1945a;
      }

      .cls-7 {
        fill: url(#_무제_그라디언트_120);
      }

      .cls-8 {
        fill: #f7ad77;
      }
    </style>
    <linearGradient id="_무제_그라디언트_120" data-name="무제 그라디언트 120" x1="55.4" y1="5.38" x2="46.07" y2="54.53" gradientUnits="userSpaceOnUse">
      <stop offset="0" stop-color="#fae3af"/>
      <stop offset="1" stop-color="#f3a96e"/>
    </linearGradient>
    <linearGradient id="_무제_그라디언트_133" data-name="무제 그라디언트 133" x1="79.44" y1="27.14" x2="80.76" y2="53.04" gradientUnits="userSpaceOnUse">
      <stop offset="0" stop-color="#f9d4a0"/>
      <stop offset="1" stop-color="#f5b57c"/>
    </linearGradient>
  </defs>
  <g id="_레이어_1-2" data-name="레이어 1">
    <g id="_생성형_개체" data-name="생성형 개체">
      <path class="cls-6" d="M104.12,32.45c-.58.08-.11-.92-.13-1.05,2.62-1.57,8.07,2.39,9.17-1.9.7-2.74-1.67-3.12-1.96-4.45-.14-.65.12-1.74,0-2.42s-1.03-1.84-1.64-2.1c-4.34-1.88-4.39,3.79-8.05,4.06-.12-.22-.97-.45-.65-1.05,3.18-.15,2.82-2.61,4.91-3.8,2.06-1.17,5-.59,6.09,1.64.66,1.35.11,2.43.39,3.41.39,1.34,2.97,1.82,1.83,5.24-1.51,4.55-6.54,1.49-9.95,2.42Z"/>
      <path class="cls-8" d="M100.84,23.54c-.31.59.53.83.65,1.05.16.29.59,1.62.79,2.1-.27.59,2.24,5.31.72,4.71-.34-.13-1.95-5.8-2.82-6.68.55-.52.44-.54.39-1.18.09,0,.18,0,.26,0Z"/>
      <g>
        <path class="cls-7" d="M100.58,23.54c.04.64.16.66-.39,1.18l-.2-.26c-11.26,3.88-21.53-3.66-33,.79-12,4.65-16.06,20.8-3.86,27.63l-17.35.13-.13-.26c3.49-3.29,3.11-7.67-.07-11.07-3.99-4.27-11.32-5.5-16.5-7.86,5.28-4.14,10.73-9.7,10.87-16.89.02-1.22-.31-4.99-2.29-4.13-.55.24-3.12,3.56-3.93,4.32-5.42,5.1-10.98,6.16-16.89,9.69-9.51,5.67-1.02,12.17,3.99,17.09-2.54.54-4.46,1.25-5.89,3.54-1.26,2.01.16,2.15-3.21,2.03-6.13-.22-10.9-5.24-11.33-11.26,1.96-10.18,11.59-23.58,19.84-29.73,16.24-12.12,40.2-10.87,56.05,1.31,9.32,7.15,9.31,14.81,22.92,13.49.62-.06,1.27.27,1.38.26Z"/>
        <path class="cls-4" d="M45.9,1.15c3.7-.09,9.09.43,12.57,1.7,2.88,1.05,5.93,3.47,8.77,4.45,1.64.56,3.18.44,4.71,1.31.25.14,1.98,1.6,2.03,1.77.7,2.46-2.64-.6-3.08-.85-5.58-3.25-15.81-5.95-22.26-6.29-13.12-.68-24.25,4.02-33.4,13.1-1.64-.32,1.57-3.16,1.96-3.54C24.57,5.9,35.83,1.4,45.9,1.15Z"/>
      </g>
      <g>
        <path class="cls-1" d="M100.19,24.72c.86.88,2.48,6.55,2.82,6.68,1.52.6-.99-4.12-.72-4.71.09.22.18.43.26.65.29.75.7,1.6.92,2.36.1.36.49,1.52.52,1.7.02.12-.45,1.13.13,1.05-2.53.69-4.45,2.16-6.29,3.93-4.61,4.44-6.52,10.16-12.11,14.14-6.04,4.31-15.89,6.11-22.59,2.36-12.2-6.83-8.14-22.98,3.86-27.63,11.47-4.45,21.75,3.09,33-.79l.2.26Z"/>
        <path class="cls-4" d="M73.8,25.24c3.03-.19,7.63.27,10.61.92.57.12,2.95.58,3.08,1.11.02.27.04.41-.2.59-.31.24-6.65-.87-7.73-.92-6.64-.31-12.6,1.01-17.22,5.96-.63.67-3.16,4.3-3.73,4.39-1.96.3.78-4.15,1.24-4.78,3.07-4.24,8.77-6.95,13.95-7.27Z"/>
      </g>
      <path class="cls-2" d="M110.27,23.02c-.57.58-.12.8-.13.85-.27,2.39.18,1.52.65,3.01.83,2.59-2.9,1.59-4.26,1.77-1.03.14-2.14.61-3.08,1.05-.22-.76-.63-1.61-.92-2.36.85-.92,1.84-1.67,2.75-2.55,1.54-1.49,2.18-3.67,4.98-1.77Z"/>
      <path class="cls-4" d="M103.99,31.4c-.03-.19-.42-1.34-.52-1.7.93-.44,2.05-.91,3.08-1.05,1.36-.18,5.09.82,4.26-1.77-.48-1.49-.93-.62-.65-3.01,0-.05-.44-.28.13-.85.3-.3.59-.22.92-.39.12.68-.14,1.78,0,2.42.29,1.34,2.67,1.71,1.96,4.45-1.1,4.28-6.55.32-9.17,1.9Z"/>
      <path class="cls-3" d="M111.19,22.62c-.33.18-.62.09-.92.39-2.79-1.9-3.43.27-4.98,1.77-.91.88-1.9,1.63-2.75,2.55-.09-.22-.17-.43-.26-.65-.2-.47-.63-1.81-.79-2.1,3.67-.27,3.71-5.94,8.05-4.06.6.26,1.52,1.44,1.64,2.1Z"/>
      <g>
        <path class="cls-6" d="M63.13,52.88c6.7,3.75,16.55,1.95,22.59-2.36,5.59-3.98,7.5-9.7,12.11-14.14.02,6.4-2.67,12.53-7.73,16.5-5.58,4.38-11.6,4.3-18.4,4.45-17.26.4-34.81-.07-51.99-.65-3.49-1.2-8.45-2.27-12.11-2.62C.89,51.25-.91,44.96.39,38.21c.42,6.02,5.2,11.04,11.33,11.26,3.37.12,1.95-.02,3.21-2.03,1.43-2.29,3.35-3,5.89-3.54-5.01-4.92-13.5-11.42-3.99-17.09,5.92-3.53,11.47-4.59,16.89-9.69.81-.76,3.38-4.08,3.93-4.32,1.98-.87,2.32,2.9,2.29,4.13-.14,7.19-5.59,12.76-10.87,16.89,5.18,2.35,12.51,3.59,16.5,7.86,3.17,3.39,3.56,7.77.07,11.07l.13.26,17.35-.13Z"/>
        <path class="cls-5" d="M16.63,49.6c.45,0,.91.65,1.24.79,5.15,2,13.61.85,18.73-.65.09-.03.95-.08.79.13,1.99-1.07,3.83-1.54,5.57-3.08.06-.05.36-.75.59-.98.04-.04.77-.07.98-.46.22-.41-.35-.48.26-.98,2.83,5.86-2.9,8.81-7.79,9.69-4.15.75-20.13,2.07-20.37-4.45Z"/>
        <g>
          <path class="cls-5" d="M44.79,44.36c-.62.5-.04.57-.26.98s-.94.42-.98.46c-.23.23-.53.93-.59.98-1.74,1.53-3.57,2.01-5.57,3.08.16-.21-.7-.16-.79-.13-5.12,1.5-13.58,2.65-18.73.65-.34-.13-.79-.79-1.24-.79-.12-3.34,3.96-4.55,6.55-5.04-4.36-4.3-15.02-11.21-6.09-16.7,5.71-3.51,11.34-4.57,16.76-9.43.72-.64,3.52-4.14,3.8-4.19,1.91-.35.46,5.52.2,6.35-1.94,6.07-6.9,9.89-11.92,13.36,5.48,2.19,16.1,4.7,18.86,10.41Z"/>
          <path class="cls-4" d="M21.94,33.76c2.86,1.03,5.81,1.9,8.64,3.01s10.17,4.08,11.85,6.35c.33.44,1.38,2.2.46,2.42-.34.08-4.8-3.51-5.76-4.06-4.21-2.42-9.53-3.85-13.62-6.29-.13-.08-2.08-1.17-1.57-1.44Z"/>
          <path class="cls-4" d="M35.82,18.56c.93,0-.94,2.58-1.24,2.95-2.6,3.15-11.65,6.64-15.65,7.27-.3.05-.51.24-.72-.07,5.68-3.62,12.94-4.82,17.61-10.15Z"/>
          <path class="cls-4" d="M23.38,46.33c.56-.03,1.14.02,1.7,0,1.3.75-4.69,1.5-4.98,1.57-.64.16-2.8,1.67-2.42.2.25-.96,4.73-1.71,5.7-1.77Z"/>
        </g>
      </g>
    </g>
  </g>
</svg>