<?xml version="1.0" encoding="UTF-8"?>
<svg id="_레이어_2" data-name="레이어 2" xmlns="http://www.w3.org/2000/svg" viewBox="0 0 64.3 93.36">
  <defs>
    <style>
      .cls-1 {
        fill: #72b75b;
      }

      .cls-2 {
        fill: #ffdb3a;
      }

      .cls-3 {
        fill: #3b9252;
      }

      .cls-4 {
        fill: #fff38f;
      }

      .cls-5 {
        fill: #96cd69;
      }
    </style>
  </defs>
  <g id="_레이어_1-2" data-name="레이어 1">
    <g id="_생성형_개체" data-name="생성형 개체">
      <path class="cls-1" d="M36.73,88.68c.08-.65-.14-1.28-.26-1.9.19-.3.05-1.08,0-1.43-.99-7.42-2.08-15.83-4.32-22.95.49-.73.63-1.63.95-2.42.4-.99.92-2.15,1.38-3.11.22-.47.45-1.02.69-1.47.47-.9,1.18-2.06,1.73-2.94.32-.51.77-1.13,1.12-1.64.1-.15.24-.28.35-.43.16-.23.32-.63.43-.78.83-1.12,1.83-2.25,2.77-3.28.74-.82,1.54-1.66,2.33-2.42.91-.88,1.96-1.79,2.94-2.59.28-.23.58-.47.86-.69.91-.71,1.9-1.53,2.85-2.16.05-.03.12.09.13.09,4.11-2.72,8.62-5.11,13.61-5.66-7.29,4.87-11,14.17-11.15,22.73,0,.08,0,.1,0,.17-.03,4.22.38,7.92-.26,12.19-1.44,9.6-5.96,18.58-16.16,20.7Z"/>
      <path class="cls-5" d="M36.47,86.78c.12.62.34,1.25.26,1.9-.24.05-.61-.13-.6.26,0-.01-.13-.14-.13-.26-2.16.34-4.32.27-6.48,0-.06,0,0,.19-.13.17,0,0,.03-.16-.04-.17-10.26-1.51-14.9-8.81-16.55-18.45-1.85-10.77-.21-22.32-7-31.8-.68-.95-2.07-2.14-2.59-2.98,0-.01-.21-.37-.04-.35,11.27,6.02,20.51,15.19,26.06,26.75,3.86,8.03,5.58,16.24,7.26,24.93Z"/>
      <path class="cls-1" d="M13.74,38.47c.97.64,2.02,1.37,2.94,2.07.28.22.58.47.86.69,1.08.87,2.2,1.88,3.2,2.85.79.76,1.6,1.6,2.33,2.42.88.98,1.81,2.05,2.59,3.11.65.89,1.32,1.91,1.9,2.85.54.87,1.27,2.05,1.73,2.94.21.41.48,1.09.69,1.56.46,1,.91,2.08,1.3,3.11.27.72.68,1.74.86,2.33,2.24,7.12,3.33,15.53,4.32,22.95.05.35.19,1.13,0,1.43-1.68-8.69-3.4-16.9-7.26-24.93-5.55-11.56-14.79-20.73-26.06-26.75-.17-.03.03.33.04.35l-3.2-2.55c4.88.59,9.67,2.9,13.74,5.57Z"/>
      <path class="cls-3" d="M19.01,28.36c-.88,4.04-1.7,8.1-2.33,12.19-.92-.7-1.97-1.44-2.94-2.07-.18-6.77-1.57-13.58-4.75-19.58,3.89,2.5,7.13,5.89,10.03,9.46Z"/>
      <path class="cls-3" d="M50.56,38.47c-.95.63-1.95,1.45-2.85,2.16l-2.25-12.36c2.22-2.81,4.72-5.58,7.56-7.78.18-.14,2.28-1.72,2.38-1.51-3.34,5.89-4.51,12.78-4.84,19.49Z"/>
      <path class="cls-1" d="M36.13,88.94c.06.23-.12,3.95-.26,4.11-2,.38-4.3.5-6.22-.09l-.26-4.11c.12.02.07-.18.13-.17,2.16.27,4.32.34,6.48,0,0,.12.13.25.13.26Z"/>
      <path class="cls-4" d="M36.9,52.47c-.55.88-1.25,2.04-1.73,2.94-1.35.25-2.27-.95-2.16-2.2.17-1.97,2.89-2.3,3.89-.73Z"/>
      <path class="cls-4" d="M46.84,41.32c-.98.8-2.03,1.72-2.94,2.59-3.04-2.77.6-5.67,2.94-2.59Z"/>
      <path class="cls-4" d="M41.57,46.33c-.94,1.04-1.94,2.16-2.77,3.28-2.04-2.05.15-5.04,2.77-3.28Z"/>
      <path class="cls-4" d="M34.48,56.88c-.46.96-.98,2.12-1.38,3.11-.33-1.27.03-2.72,1.38-3.11Z"/>
      <path class="cls-4" d="M29.3,55.41c-.46-.89-1.19-2.06-1.73-2.94,3.46-3.33,5.93,2.74,1.73,2.94Z"/>
      <path class="cls-4" d="M20.74,44.09c-1-.97-2.12-1.98-3.2-2.85,2.31-2.76,5.55.27,3.2,2.85Z"/>
      <path class="cls-4" d="M25.67,49.62c-.78-1.06-1.71-2.13-2.59-3.11,2.43-1.62,4.24,1.03,2.59,3.11Z"/>
      <path class="cls-4" d="M31.29,60.07c-.39-1.03-.84-2.11-1.3-3.11,1.36,0,1.95,2.07,1.3,3.11Z"/>
      <g>
        <path class="cls-2" d="M45.46,28.27l2.25,12.36c-.29.22-.58.46-.86.69-2.33-3.08-5.98-.17-2.94,2.59-.79.76-1.6,1.6-2.33,2.42-2.61-1.75-4.81,1.23-2.77,3.28-.11.15-.27.55-.43.78-.74.35-5.75.03-5.96.3-.02.03-.01.27.04.3.28.18,4.85-.29,5.57-.17-.35.51-.81,1.13-1.12,1.64-1-1.56-3.71-1.23-3.89.73-.11,1.26.81,2.45,2.16,2.2-.24.45-.47,1-.69,1.47-1.35.39-1.71,1.84-1.38,3.11-.32.79-.47,1.69-.95,2.42-.19-.59-.6-1.61-.86-2.33.66-1.05.06-3.1-1.3-3.11-.21-.47-.48-1.15-.69-1.56,4.2-.2,1.73-6.27-1.73-2.94-.58-.94-1.25-1.97-1.9-2.85,1.65-2.08-.16-4.74-2.59-3.11-.74-.82-1.54-1.66-2.33-2.42,2.35-2.58-.88-5.61-3.2-2.85-.28-.23-.58-.47-.86-.69.64-4.09,1.45-8.15,2.33-12.19C20.43,21.86,24.23,2.52,31.07.18c3.58-1.22,6.98,4.03,8.25,6.78,3.05,6.61,4.24,14.31,6.14,21.3Z"/>
        <path class="cls-2" d="M38.37,50.4c-.11.15-.24.28-.35.43-.72-.12-5.29.36-5.57.17-.06-.04-.07-.27-.04-.3.21-.27,5.23.04,5.96-.3Z"/>
        <path class="cls-4" d="M29.51,46.33c2.54-.41,2.64,3.59.43,3.89-3.52.47-2.54-3.55-.43-3.89Z"/>
        <path class="cls-4" d="M19.49,35.18c3.27-.56,3.37,4.59-.26,3.63-2-.53-1.56-3.32.26-3.63Z"/>
        <path class="cls-4" d="M34.53,46.25c2.52-.39,3.32,3.49,1.04,3.89-3.17.56-3.1-3.57-1.04-3.89Z"/>
        <path class="cls-4" d="M24.33,40.8c2.8-.47,3.24,4.03.43,3.89-2.48-.12-2.5-3.54-.43-3.89Z"/>
        <path class="cls-4" d="M39.28,40.8c2.86-.55,3.67,4.26.35,3.89-1.98-.22-2.18-3.53-.35-3.89Z"/>
        <path class="cls-4" d="M29.69,41.06c2.27-.24,2.5,3.56.43,3.89-3.43.55-2.57-3.67-.43-3.89Z"/>
        <path class="cls-4" d="M34.35,41.06c3.03-.54,3.35,5-.35,3.72-1.4-.49-1.29-3.42.35-3.72Z"/>
        <path class="cls-4" d="M43.6,35.18c2.71-.4,3.25,3.24,1.21,3.8-2.51.69-3.44-3.47-1.21-3.8Z"/>
        <path class="cls-4" d="M25.11,35.7c2.48-.24,2.85,4.32-.26,3.8-2.11-.35-1.76-3.61.26-3.8Z"/>
        <path class="cls-4" d="M38.85,35.7c2.68-.5,2.94,3.49.69,3.8-2.57.35-2.49-3.47-.69-3.8Z"/>
        <path class="cls-4" d="M34.53,35.88c2.07-.17,2.77,3.45.69,3.8-2.86.49-2.91-3.62-.69-3.8Z"/>
        <path class="cls-4" d="M29.95,35.96c2.35-.24,2.45,4.4-.6,3.8-1.9-.37-1.15-3.62.6-3.8Z"/>
        <path class="cls-4" d="M25.54,30.69c2.69-.27,2.59,4.97-.52,3.63-1.62-.7-1.16-3.46.52-3.63Z"/>
        <path class="cls-4" d="M43.17,30c2.32-.12,2.66,3.57.35,3.8s-2.55-3.68-.35-3.8Z"/>
        <path class="cls-4" d="M21.13,30.17c2.84-.15,1.86,4.99-.95,3.46-1.65-.9-.74-3.37.95-3.46Z"/>
        <path class="cls-4" d="M38.33,30.69c2.6-.5,2.89,3.4.69,3.72-2.39.34-2.38-3.39-.69-3.72Z"/>
        <path class="cls-4" d="M34.01,30.95c2.03-.41,2.93,3.08,1.21,3.63-2.76.88-3.04-3.26-1.21-3.63Z"/>
        <path class="cls-4" d="M42.13,25.25c2.37-.23,2.57,3.17.6,3.54-2.52.48-2.7-3.34-.6-3.54Z"/>
        <path class="cls-4" d="M29.86,31.04c2.3-.45,2.66,3.71.17,3.72-2.26,0-1.73-3.41-.17-3.72Z"/>
        <path class="cls-4" d="M22.77,20.49c2.94-.57,2.12,4.93-.6,3.37-1.44-.82-.77-3.1.6-3.37Z"/>
        <path class="cls-4" d="M26.32,25.85c2.36-.31,2.08,4.02-.35,3.63-1.88-.3-1.47-3.39.35-3.63Z"/>
        <path class="cls-4" d="M27.18,20.92c2.17-.15,2.03,4.19-.52,3.72-1.74-.32-1.23-3.59.52-3.72Z"/>
        <path class="cls-4" d="M21.74,25.5c2.92-.55,2.58,4.29-.26,3.28-1.42-.5-1.27-2.99.26-3.28Z"/>
        <path class="cls-4" d="M41.27,20.49c2.17-.15,2.46,3.24.6,3.54-2.16.36-2.72-3.4-.6-3.54Z"/>
        <path class="cls-4" d="M37.64,25.85c2.28-.42,2.82,3.24.78,3.54-2.15.32-2.45-3.24-.78-3.54Z"/>
        <path class="cls-4" d="M30.47,26.02c1.87-.07,1.93,4.29-.69,3.72-1.55-.34-.89-3.65.69-3.72Z"/>
        <path class="cls-4" d="M33.75,26.11c1.92-.39,2.57,3.27.95,3.63-2.46.55-2.41-3.33-.95-3.63Z"/>
        <path class="cls-4" d="M36.95,20.92c2.09-.43,2.69,3.44.69,3.63s-2.22-3.31-.69-3.63Z"/>
        <path class="cls-4" d="M36,16.34c1.92-.37,2.71,3.11.78,3.46-2.28.41-2.32-3.16-.78-3.46Z"/>
        <path class="cls-4" d="M23.9,15.91c2.59-.39,1.9,4.42-.52,3.2-1.35-.68-.97-2.98.52-3.2Z"/>
        <path class="cls-4" d="M40.06,15.82c2.25-.45,2.4,3.15.52,3.37s-2.11-3.05-.52-3.37Z"/>
        <path class="cls-4" d="M30.55,21.27c1.68-.37,1.92,3.3.43,3.63-2.23.49-1.8-3.33-.43-3.63Z"/>
        <path class="cls-4" d="M33.4,21.18c1.74-.4,2.19,3.45.69,3.72-1.96.35-1.97-3.42-.69-3.72Z"/>
        <path class="cls-4" d="M27.79,16.52c2.35-.4,1.64,4.7-.6,3.2-1.1-.73-.66-2.98.6-3.2Z"/>
        <path class="cls-4" d="M38.59,11.5c2.01-.26,2.19,3.01.78,3.28-1.73.33-2.51-3.06-.78-3.28Z"/>
        <path class="cls-4" d="M25.37,11.76c2.02-.27,1.71,3.56-.43,3.11-1.47-.31-.97-2.93.43-3.11Z"/>
        <path class="cls-4" d="M30.98,16.52c1.33,0,1.4,3.74-.26,3.54-1.39-.16-1.07-3.54.26-3.54Z"/>
        <path class="cls-4" d="M33.14,16.6c1.36-.22,1.85,3.17.6,3.46-1.8.42-1.81-3.26-.6-3.46Z"/>
        <path class="cls-4" d="M35.39,12.19c1.52-.21,2.09,2.83.6,3.11-1.78.34-1.92-2.93-.6-3.11Z"/>
        <path class="cls-4" d="M31.85,9.17c2.45-.5,1.65,4.09-.35,2.68-.82-.58-.78-2.45.35-2.68Z"/>
        <path class="cls-4" d="M28.56,12.28c1.63-.27,1.54,3.48-.35,3.11-1.33-.26-.82-2.92.35-3.11Z"/>
        <path class="cls-4" d="M34.44,8.56c1.53-.35,2.02,2.49.95,2.77-1.63.41-2.29-2.46-.95-2.77Z"/>
        <path class="cls-4" d="M36.6,7.79c1.37-.41,2.21,2.74.69,2.94-1.3.17-1.64-2.66-.69-2.94Z"/>
        <path class="cls-4" d="M30.98,12.54c.11-.03.3.02.43,0,1.09.6.63,4.03-.78,3.02-.78-.56-.43-2.82.35-3.02Z"/>
        <path class="cls-4" d="M29.43,8.56c1.15-.03,1.13,2.14.17,2.68-1.83,1.03-1.65-2.64-.17-2.68Z"/>
        <path class="cls-4" d="M32.8,12.63c1.15-.34,1.75,2.8.69,3.11-1.57.46-1.47-2.88-.69-3.11Z"/>
        <path class="cls-4" d="M27.27,7.79c1.31-.15.87,3.04-.35,2.94-1.33-.11-.87-2.8.35-2.94Z"/>
        <path class="cls-4" d="M33.66,4.93c.93-.08,1.8,2.64.78,2.94-1.44.42-1.62-2.87-.78-2.94Z"/>
        <path class="cls-4" d="M31.76,5.71c1.42-.33,1.68,2.28.69,2.51-1.55.35-1.49-2.32-.69-2.51Z"/>
        <path class="cls-4" d="M30.38,4.93c1.19-.16.78,3.34-.52,2.94-.85-.43-.24-2.84.52-2.94Z"/>
        <path class="cls-4" d="M35.31,4.93c1.24-.34,2.2,2.29.86,2.51-1.13.18-1.51-2.33-.86-2.51Z"/>
        <path class="cls-4" d="M28.56,5.02c1.52-.3.36,2.38-.09,2.51-1.39.39-1.18-2.25.09-2.51Z"/>
        <path class="cls-4" d="M32.02,2.08c1.01.34,1.02,3.21-.26,2.59-.77-.37-.57-2.25.26-2.59Z"/>
        <path class="cls-4" d="M33.32,2.43c.77-.28,2.33,1.66,1.3,1.99-.92.29-1.72-1.84-1.3-1.99Z"/>
        <path class="cls-4" d="M30.72,2.51c.08,0,.17-.03.22.04.16.53-.61,2.13-1.25,1.94-.87-.26.34-2.06,1.04-1.99Z"/>
      </g>
    </g>
  </g>
</svg>