<?xml version="1.0" encoding="UTF-8"?>
<svg id="_레이어_2" data-name="레이어 2" xmlns="http://www.w3.org/2000/svg" xmlns:xlink="http://www.w3.org/1999/xlink" viewBox="0 0 37.84 96.71">
  <defs>
    <style>
      .cls-1 {
        fill: url(#_무제_그라디언트_169);
      }

      .cls-2 {
        fill: #b3d04f;
      }

      .cls-3 {
        fill: url(#_무제_그라디언트_108);
      }

      .cls-4 {
        fill: #4a8f4a;
      }

      .cls-5 {
        fill: #a0cb68;
      }

      .cls-6 {
        fill: #8fbd3a;
      }

      .cls-7 {
        fill: #2a7741;
      }

      .cls-8 {
        fill: #87bd80;
      }

      .cls-9 {
        fill: #5ca14b;
      }
    </style>
    <linearGradient id="_무제_그라디언트_108" data-name="무제 그라디언트 108" x1="11.34" y1="10.73" x2="22.12" y2="91.54" gradientUnits="userSpaceOnUse">
      <stop offset="0" stop-color="#6bb24a"/>
      <stop offset="1" stop-color="#458c45"/>
    </linearGradient>
    <linearGradient id="_무제_그라디언트_169" data-name="무제 그라디언트 169" x1="-3.89" y1="20.12" x2="22.88" y2="84.3" gradientUnits="userSpaceOnUse">
      <stop offset="0" stop-color="#6ab04a"/>
      <stop offset="1" stop-color="#468e45"/>
    </linearGradient>
  </defs>
  <g id="_레이어_1-2" data-name="레이어 1">
    <g id="_생성형_개체" data-name="생성형 개체">
      <path class="cls-6" d="M20.01,6.53c-.34.35.15.96,0,1.31-.18.44-.7.2-.91.29-.18-3.42-1.9-7.09-5.82-6.97-.09-.87-.15-1.05.86-1.14,3.82-.35,5.15,3.61,5.88,6.51Z"/>
      <path class="cls-2" d="M19.1,8.13s.05.3-.06.34c-.27.1-.75-.13-.8-.11-.1.03.02.17-.17.23-.14-2.86-1.11-6.82-4.74-6.51-.12-.09-.04-.72-.06-.91,3.92-.13,5.64,3.55,5.82,6.97Z"/>
      <path class="cls-4" d="M23.44,9.84c.4.76,3.22,3.03,4,4.05,9.19,12,9.95,37.78,4.91,51.5-1.04,2.84-2.71,5.22-3.88,7.82,2.88-9.39,3.91-19.46,3.65-29.29s-2.4-27.02-9.71-34.31c.14-.63.64.36,1.03.23Z"/>
      <path class="cls-5" d="M16.24,25.71c.04.18.02.77.11.91.42,12.69-.05,25.58-3.43,37.85-2.4,8.72-9.25,20.65-6.39,29.63-.12.27-.33-.37-.34-.4-3.14-10.5,3.01-19.99,5.6-29.8,3.15-11.95,3.68-24.77,3.43-37.11-.12-5.61-1.69-11.83.8-17.07l.23.06c-1.51,4.13-.96,11.55,0,15.93Z"/>
      <path class="cls-5" d="M22.41,9.61c7.3,7.29,9.45,24.4,9.71,34.31s-.78,19.9-3.65,29.29c-.24.53-.44,1.07-.69,1.6-.34.64-1.17,1.49-1.48,2.06,4.41-11.58,5.49-24.46,4.8-36.83-.58-10.32-2.7-22.5-9.25-30.72,0-.31.55.26.57.29Z"/>
      <path class="cls-5" d="M16.36,26.63c-.09-.15-.08-.73-.11-.91.55-1.41,2.06-.33,1.71.86-.2.68-1.26.6-1.6.06Z"/>
      <g>
        <path class="cls-3" d="M24.35,9.73c-.12-.04-1.04-.25-1.08-.23-.08.1.1.22.17.34-.39.13-.89-.86-1.03-.23-.02-.02-.57-.6-.57-.29,6.54,8.22,8.67,20.4,9.25,30.72.69,12.37-.38,25.24-4.8,36.83-.01.02-.21-.03-.34.29-.09.22-.13.87-.46,1.54-1.85,2.64-3.36,5.51-5.37,8.05-1.28,1.62-2.76,3.23-4.28,4.62-2.13,1.94-4.88,4.15-7.71,4.68-.45-.15-.37-.17-.69-.34-.02,0,.06-.06-.34-.23-.07-.5-.42-.91-.57-1.37-2.85-8.98,3.99-20.91,6.39-29.63,3.38-12.28,3.85-25.17,3.43-37.85.34.54,1.4.62,1.6-.06.35-1.19-1.17-2.27-1.71-.86-.96-4.38-1.51-11.8,0-15.93l-.23-.06c-.9-.18-2.27,1.54-3.08,1.94,1.73-1.93,2.77-2.29,5.14-3.08.19-.06.07-.2.17-.23.05-.02.53.21.8.11.11-.04.04-.33.06-.34.21-.08.73.15.91-.29.15-.36-.34-.97,0-1.31.07.29.32,1.88.4,1.94.22.17,3.46.46,3.94,1.26Z"/>
        <g>
          <path class="cls-5" d="M18.24,9.16c5.03,8.01,6.38,18.67,6.68,28.03.67,20.56-4.46,39.91-15.7,57.04,2.04-4.61,4.39-9.1,6.34-13.76,4.66-11.14,7.67-21.48,8.22-33.69s-.5-26.08-5.54-37.63Z"/>
          <path class="cls-5" d="M23.38,71.16c1.43-.23,1.52,1.47.57,2.06-1.8,1.1-2.03-1.82-.57-2.06Z"/>
          <path class="cls-5" d="M25.89,65.8c2.31-.57,1.18,2.99-.34,2.17-.72-.38-.44-1.98.34-2.17Z"/>
          <path class="cls-5" d="M15.39,67.74c2.03-.38,1.14,2.86-.46,2.06-.87-.44-.34-1.91.46-2.06Z"/>
          <path class="cls-5" d="M10.82,79.96c1.39-.16,1.18,2.04.11,2.28-1.57.36-1.32-2.15-.11-2.28Z"/>
          <path class="cls-5" d="M18.7,18.52c1.4-.17,1.58,2.54-.11,2.17-1.06-.23-.95-2.04.11-2.17Z"/>
          <path class="cls-5" d="M18.93,79.5c1.53-.15,1.09,2.2-.23,2.28-1.04-.35-.82-2.18.23-2.28Z"/>
          <path class="cls-5" d="M28.41,43.76c1.4-.42,1.53,2.11,0,1.71-.79-.2-.56-1.55,0-1.71Z"/>
          <path class="cls-5" d="M26.58,31.2c1.37-.22,1.01,2.18-.34,1.71-.69-.24-.36-1.6.34-1.71Z"/>
          <path class="cls-5" d="M26.46,56.43c1.42-.28,1.3,2.29-.11,1.6-.7-.34-.61-1.46.11-1.6Z"/>
          <path class="cls-5" d="M18.24,56.43c1.58-.43,1.31,2.21,0,1.6-.63-.3-.68-1.41,0-1.6Z"/>
          <path class="cls-5" d="M21.1,29.14c1.24-.19,1.08,1.92-.23,1.48-.66-.22-.44-1.38.23-1.48Z"/>
          <path class="cls-5" d="M19.04,40.1c1.29-.46.93,1.32.23,1.37s-.82-1.16-.23-1.37Z"/>
          <path class="cls-5" d="M19.84,48.21c.82-.34,1.3.89.69,1.14-.81.33-1.27-.9-.69-1.14Z"/>
        </g>
      </g>
      <g>
        <path class="cls-1" d="M16.02,9.73c-2.49,5.25-.91,11.46-.8,17.07.25,12.34-.28,25.17-3.43,37.11-2.58,9.81-8.74,19.31-5.6,29.8,0,.03.22.67.34.4.15.46.5.87.57,1.37-.07-.03-.46-.19-.46,0-12.72-5.04-3.73-25.53-1.26-34.2,2.03-7.13,3.23-14.39,3.65-21.81.46-8-1.53-21.77,3.88-27.81.82-.4,2.18-2.12,3.08-1.94Z"/>
        <g>
          <path class="cls-4" d="M7.11,95.49c.4.17.32.22.34.23-.33.08-.53-.12-.8-.23,0-.19.38-.03.46,0Z"/>
          <path class="cls-8" d="M11.73,23.89c.08-.03.32-.02.4.06,1.14.45,2.18,8.12,2.28,9.48.38,5.07-.06,11.03-1.14,15.99-.17.79-2.21,8.13-2.8,8.05-.47-1.51-.33-3.64-.29-5.31.11-3.8.65-7.62.8-11.42.19-4.81-.29-10.41.23-15.07.03-.27.27-1.69.51-1.77Z"/>
          <path class="cls-5" d="M8.31,59.74c1.25-.39,1.22,1.22.34,1.37-1.1.19-.98-1.17-.34-1.37Z"/>
          <path class="cls-5" d="M8.08,67.05c1.62-.41.93,1.72-.23,1.26-.54-.21-.27-1.13.23-1.26Z"/>
          <path class="cls-5" d="M3.51,83.38c1.38-.28.78,1.8-.34,1.37-.58-.22-.11-1.28.34-1.37Z"/>
          <path class="cls-5" d="M3.4,77.67c1.24-.4,1.22,1.32.23,1.37-.92.05-.74-1.21-.23-1.37Z"/>
        </g>
      </g>
      <g>
        <path class="cls-7" d="M24.35,9.73c4.23,1.36,7.73,8.37,9.14,12.28,6.56,18.3,6.14,45.89-4.34,62.69-4.23,6.78-12.3,14.29-21.01,11.36,2.83-.53,5.58-2.74,7.71-4.68,1.53-1.39,3-3,4.28-4.62,2.01-2.54,3.51-5.41,5.37-8.05-2.83,5.77-5.29,11.46-10.16,15.93.02.25.71-.37.74-.4,5.97-4.99,8.58-12.64,11.7-19.41.24-.53.45-1.07.69-1.6,1.17-2.6,2.84-4.98,3.88-7.82,5.04-13.72,4.28-39.5-4.91-51.5-.78-1.02-3.59-3.3-4-4.05-.07-.13-.25-.24-.17-.34.05-.02.97.19,1.08.23Z"/>
        <path class="cls-9" d="M25.49,78.7c.33-.68.36-1.33.46-1.54.13-.31.33-.27.34-.29.31-.57,1.14-1.42,1.48-2.06-3.12,6.77-5.74,14.42-11.7,19.41-.03.03-.72.65-.74.4,4.87-4.47,7.34-10.16,10.16-15.93Z"/>
        <path class="cls-4" d="M29.89,78.81c1.3.01.03,1.94-.46,2.06-.16.04-1.28-.55-1.31-.63-.44-1.05.79-.6.86-.63s.46-.8.91-.8Z"/>
        <path class="cls-9" d="M31.15,72.42c1.52-.29.96,2.08-.23,2.06-.6-.39-.52-1.91.23-2.06Z"/>
      </g>
    </g>
  </g>
</svg>