<?xml version="1.0" encoding="UTF-8"?>
<svg id="_레이어_2" data-name="레이어 2" xmlns="http://www.w3.org/2000/svg" width="53.78" height="66.86" viewBox="0 0 53.78 66.86">
  <defs>
    <style>
      .cls-1 {
        fill: #fff;
      }

      .cls-2 {
        fill: #ffe7c9;
      }

      .cls-3 {
        fill: #e1a378;
      }

      .cls-4 {
        fill: #f3c399;
      }
    </style>
  </defs>
  <g id="_레이어_1-2" data-name="레이어 1">
    <g id="_생성형_개체" data-name="생성형 개체">
      <path class="cls-2" d="M30.58.57l3.38,2.39c13.16,12.43,18.9,39.53,2.29,51.59-9.9,7.19-23.76,5.97-33.03-1.66-.83-1.56-1.59-3.18-2.08-4.89.62-.1,1.17.3,1.72.42,22.49,4.97,38.56-15.55,33.34-36.77-.75-3.03-2.41-7.01-4.58-9.47-.62-.71-1.49-1.09-1.98-1.92.34.07.62.22.94.31Z"/>
      <path class="cls-4" d="M30.58.57c2.72.79,5.04,2.22,7.18,4.06,12.18,10.5,19.65,33.39,11.44,48.11-8.28,14.84-29.21,17.72-41.5,6.19-1.86-1.88-3.23-3.7-4.47-6.03,9.26,7.63,23.12,8.86,33.03,1.66,16.61-12.06,10.87-39.17-2.29-51.59l-3.38-2.39Z"/>
      <path class="cls-3" d="M40.57,63.3c-.65.1-3.33,1.63-4.32,1.98-7.54,2.65-16.01,1.99-22.94-1.98-2.08-1.19-3.93-2.67-5.62-4.37,12.29,11.53,33.23,8.65,41.5-6.19,8.21-14.72.74-37.61-11.44-48.11,16.47,13.61,24.56,45.88,2.81,58.67Z"/>
      <g>
        <path class="cls-2" d="M29.64.26c.48.83,1.35,1.22,1.98,1.92,2.17,2.46,3.83,6.43,4.58,9.47,5.22,21.22-10.85,41.74-33.34,36.77-.54-.12-1.1-.52-1.72-.42-3.98-13.93,2.93-31.54,12.95-41.4C18.29,2.48,23.49-1,29.64.26Z"/>
        <path class="cls-1" d="M19.92,7.23c1.32-.09,1.93.92,2.03,2.13.22,2.77-2.13,7.45-3.74,9.67-4.96,6.84-9.53,5.13-5.93-3.33,1-2.34,4.91-8.28,7.65-8.48Z"/>
        <path class="cls-1" d="M9.41,25.44c3.96-.73,2.47,6.34-1.04,5.72-2.38-.42-1.24-5.3,1.04-5.72Z"/>
      </g>
    </g>
  </g>
</svg>