<?xml version="1.0" encoding="UTF-8"?>
<svg id="_레이어_2" data-name="레이어 2" xmlns="http://www.w3.org/2000/svg" viewBox="0 0 53.98 90.2">
  <defs>
    <style>
      .cls-1 {
        fill: #a78cc1;
      }

      .cls-2 {
        fill: #78b535;
      }

      .cls-3 {
        fill: #93c64d;
      }

      .cls-4 {
        fill: #6b4a92;
      }

      .cls-5 {
        fill: #7b5aa1;
      }
    </style>
  </defs>
  <g id="_레이어_1-2" data-name="레이어 1">
    <g id="_생성형_개체" data-name="생성형 개체">
      <path class="cls-4" d="M42.37,26.72c1.2,5.9,2.73,11.74,5.27,17.22,1.35,2.92,3.2,5.62,4.36,8.63,4.26,11.03,1.64,24.56-7.9,31.93-11.6,7.89-26.38,8.02-36.61-2.27-.55-.55-1.13-1.15-1.54-1.82.69.51.79.15.86.18.09.04,0,.24.09.27,12.83,5.08,31.18,1.72,38.29-11.04,4.98-8.93.73-16.99-2.54-25.26-.04-.09-.24,0-.27-.09,0-.03.08-.35,0-.55-2.28-5.92-3.87-12.06-4.63-18.4,1.37.57,2.98,1.1,4.45,1.32.24.03-.02-.05.18-.14Z"/>
      <path class="cls-3" d="M46.1,26.36c-.39.19-3.32-.31-3.91-.45-1.39-.35-3.76-1.32-5.04-2-1.49-.79-2.84-1.88-4.09-3-1.21,3.87-2.89,7.81-6.09,10.45-3.02-2.75-4.88-6.53-5.91-10.45-2.67,2.38-5.74,4.03-9.22,4.91-.85.21-3.03.79-3.82.64-.04-.29.03-.26.23-.36,4.11-2.14,8.97-9.63,12.9-13.08,1.63-1.43,3.5-3.2,5.86-2.41l.05,17.22.27-17.35c.59.08,1.45-.11,2,0,1.55.3,6.08,4.99,7.31,6.31,3.03,3.28,5.53,7.31,9.45,9.58Z"/>
      <path class="cls-2" d="M46.1,26.36c-3.92-2.28-6.42-6.31-9.45-9.58-1.23-1.33-5.76-6.01-7.31-6.31-.55-.11-1.41.08-2,0l-.27,17.35-.05-17.22c-2.36-.79-4.23.98-5.86,2.41-3.93,3.45-8.79,10.94-12.9,13.08-.2.1-.27.08-.23.36-.12-.02-.19,0-.27-.14,2.93-3.34,3.93-7.89,6.81-11.27,2.24-2.63,5.48-4.68,9.04-4.68.36-3.25,1.75-7.07,4.36-9.18.34-.27,1.63-1.14,2-1.18,1.56-.17,3.77,1.79,4.41,3.13-2.42,1.54-4.86,4.03-4,7.18,3.22.04,6.16,1.65,8.36,3.91,3.41,3.51,4.36,8.43,7.54,12.08l-.18.05Z"/>
      <path class="cls-4" d="M42.19,25.9c0,.28.13.56.18.82-.2.09.06.17-.18.14-1.47-.21-3.08-.75-4.45-1.32-1.64-.68-3.17-1.66-4.59-2.73-1.05,3.89-2.88,7.63-6.09,10.17-3.37-2.43-5.04-6.35-6.27-10.17-2.57,2.11-5.74,3.52-9.04,4,.06-.3.08-.69.09-1,3.49-.88,6.55-2.52,9.22-4.91,1.02,3.92,2.89,7.69,5.91,10.45,3.2-2.63,4.88-6.58,6.09-10.45,1.25,1.12,2.6,2.21,4.09,3,1.28.68,3.66,1.65,5.04,2Z"/>
      <g>
        <path class="cls-5" d="M37.74,25.54c.76,6.34,2.35,12.48,4.63,18.4.08.2,0,.52,0,.55.04.09.24,0,.27.09,3.27,8.27,7.53,16.33,2.54,25.26-7.12,12.75-25.46,16.12-38.29,11.04-.09-.04,0-.23-.09-.27-.07-.03-.17.33-.86-.18-2.42-1.78-5.08-9.26-5.54-12.22-2.1-13.49,4.52-18.92,8.45-30.34,1.18-3.43,2.23-7.47,2.91-11.04,3.3-.47,6.47-1.89,9.04-4,1.22,3.83,2.9,7.75,6.27,10.17,3.2-2.54,5.04-6.29,6.09-10.17,1.42,1.06,2.94,2.04,4.59,2.73Z"/>
        <path class="cls-1" d="M11.99,45.98c1.24-.24,2.22.87,2.32,2.04.16,1.86-2.94,8.33-4.09,9.99-1.34,1.95-3.35,1.12-3.54-1.09s2.95-10.5,5.31-10.95Z"/>
        <path class="cls-1" d="M17.71,28.99c1.68-.1,1.72,3.53,1.68,4.68-.07,2.19-1.18,7.36-4.32,6.77-2.73-.52.1-8.03.86-9.58.32-.64.98-1.82,1.77-1.86Z"/>
      </g>
    </g>
  </g>
</svg>