<?xml version="1.0" encoding="UTF-8"?>
<svg id="_레이어_2" data-name="레이어 2" xmlns="http://www.w3.org/2000/svg" viewBox="0 0 75.3 100.38">
  <defs>
    <style>
      .cls-1 {
        fill: #fff;
      }

      .cls-2 {
        fill: #fad45b;
      }

      .cls-3 {
        fill: #99cb62;
      }

      .cls-4 {
        fill: #fdeb87;
      }

      .cls-5 {
        fill: #7cad4a;
      }

      .cls-6 {
        fill: #e5ded3;
      }

      .cls-7 {
        fill: #6c993c;
      }
    </style>
  </defs>
  <g id="_레이어_1-2" data-name="레이어 1">
    <g id="_생성형_개체" data-name="생성형 개체">
      <g>
        <path class="cls-6" d="M74.79,68.52c.55,3.18-.06,6.93-.96,10.06-2.8,9.69-11.01,16.89-21.51,15.25-.85.76-1.7,1.72-2.6,2.41-.56.43-1.24.64-1.68,1.15-2.14.78-3.49,1.94-6.06,2.5h-1.3c6.1-2.69,11.42-6.77,14.29-12.94,5.79-12.46.65-30.43-6.16-41.47-.85-1.38-1.82-2.66-2.79-3.95l.38-.05c10,11.06,15.4,26.48,12.17,41.38,2.59-.85,5.06-2.06,7.36-3.51.87-6.01.65-12.25-1.06-18.09-2.47-8.44-8.51-15.23-14.67-21.22,6.92,5.58,13.43,12.74,15.64,21.6,1.38,5.55,1.15,11.69.38,17.32l.19.1c2.71-1.8,5.44-4.24,7.02-7.12.64-1.16.86-2.29,1.35-3.42Z"/>
        <path class="cls-6" d="M30.14,40.62c-11.62,14.12-19.37,40.26-3.7,54.27,2.26,2.02,5.16,3.72,7.99,4.81.24.24-1.12.11-1.2.1-1.97-.29-4.16-1.54-5.87-2.5-.6-.34-1.85-.85-2.45-1.35-.35-.28-1.78-2.17-1.92-2.21-.07-.02-1.24.28-1.44.29-11.12.34-18.18-7.19-20.54-17.56l-.87-6.21c.11-1.39.36-3.08.67-4.43l.96,4.38c1.67,4.1,4.74,7.56,8.47,9.91-.65-4.45-1.05-9.17-.67-13.66.88-10.53,7.69-20.12,15.78-26.46-10.3,9.55-16.46,21.4-15.4,35.8.06.76.35,3.89.58,4.43.36.82,5.56,2.8,6.69,2.74-.75-3.45-1.19-6.9-1.2-10.44-.02-8.89,1.97-15.41,6.74-22.81,2.1-3.25,4.62-6.43,7.41-9.09Z"/>
        <path class="cls-6" d="M46.4,41.48l-.38.05c.97,1.28,1.94,2.57,2.79,3.95,6.81,11.05,11.95,29.01,6.16,41.47-2.87,6.17-8.19,10.26-14.29,12.94h1.3c-2.93.64-5.85.69-8.76-.1.08.01,1.44.15,1.2-.1-2.83-1.09-5.73-2.79-7.99-4.81-15.66-14.01-7.91-40.15,3.7-54.27.78-.94,1.66-1.95,2.5-2.84.22-.23.62-.8.96-.77-9.86,12.13-17.88,32.52-12.03,47.92,5.35,14.08,27.24,14.78,32.43,0,4.11-11.7-.02-27.68-5.68-38.3-1.77-3.32-3.95-6.71-6.45-9.53-.06-.24.32.04.34.05,1.04.83,3.21,3.25,4.19,4.33Z"/>
        <path class="cls-6" d="M27.35,97.3c-1.78.2-3.53.72-5.34.77-15.7.43-23.03-13.73-21.89-27.81l.87,6.21c2.37,10.38,9.43,17.9,20.54,17.56.21,0,1.37-.31,1.44-.29.14.04,1.58,1.93,1.92,2.21.61.49,1.85,1.01,2.45,1.35Z"/>
        <path class="cls-6" d="M48.04,97.39c.44-.52,1.12-.72,1.68-1.15.9-.69,1.75-1.65,2.6-2.41,10.49,1.63,18.7-5.57,21.51-15.25.9-3.12,1.52-6.87.96-10.06.04-.09.08-.18.19-.19,2.19,15.39-6.81,31.88-24.2,29.54-.91-.12-1.97-.76-2.74-.48Z"/>
      </g>
      <g>
        <path class="cls-1" d="M74.98,68.33c-.11,0-.15.1-.19.19-.49,1.13-.71,2.26-1.35,3.42-1.59,2.89-4.32,5.32-7.02,7.12l-.19-.1c.77-5.63.99-11.77-.38-17.32-2.2-8.87-8.72-16.02-15.64-21.6,6.17,5.99,12.2,12.78,14.67,21.22,1.71,5.84,1.93,12.08,1.06,18.09-2.3,1.45-4.77,2.66-7.36,3.51,3.23-14.9-2.18-30.32-12.17-41.38-.98-1.08-3.15-3.5-4.19-4.33-.02-.01-.39-.28-.34-.05,2.49,2.82,4.68,6.2,6.45,9.53,5.65,10.62,9.79,26.6,5.68,38.3-5.19,14.78-27.08,14.08-32.43,0-5.85-15.4,2.17-35.79,12.03-47.92-.34-.03-.75.54-.96.77-.84.88-1.72,1.89-2.5,2.84-2.79,2.66-5.31,5.84-7.41,9.09-4.76,7.4-6.76,13.91-6.74,22.81,0,3.54.45,6.99,1.2,10.44-1.12.06-6.33-1.92-6.69-2.74-.23-.53-.52-3.66-.58-4.43-1.07-14.4,5.09-26.25,15.4-35.8-8.1,6.34-14.9,15.93-15.78,26.46-.37,4.49.03,9.22.67,13.66-3.73-2.35-6.8-5.81-8.47-9.91l-.96-4.38c1.51-6.43,5.6-13.36,10.1-18.14,1.34-1.42,2.83-2.69,4.28-3.99.29.04.11.13.05.24-.09.17-1.52,1.63-1.44,1.73.1.07.33.07.43.05.18-.04,2.62-1.92,3.08-2.21,6.62-4.28,12.98-6.59,14.77-15.25.65-3.11.17-5.46.29-8.42,2.28.34,2.38-3.74,5.63-1.92,6.73,3.76,4.15,9.19,6.88,14.96,2.05,4.35,8.6,7.51,12.56,10.15.39.26,2.42,1.89,2.6,1.92,1.17.25-.96-1.76-1.2-1.97.15-.29,1.74.91,1.97,1.11,6.86,5.78,12.93,15.37,14.19,24.25Z"/>
        <path class="cls-1" d="M36.83,41.68c2.01-.12,4.22.5,5.97,1.44,8.28,4.46,10.52,16.35,10.06,24.97.33-3.47-.06-7.01-.38-10.39.76,4.46,1.15,9.28-.05,13.71-.23-6.91-.02-13.81-3.13-20.16-4.68-9.55-16.1-12.3-21.84-2.02-3.65,6.53-4.78,13.83-4.62,21.27.04.2-.24.19-.29.1-.13-.25-.12-4.93-.1-5.58.28-7.8,4.83-22.78,14.39-23.34Z"/>
        <path class="cls-6" d="M33.36,49.09c-4.44,10.96-3.81,23.68,0,34.74-2.09-3.79-3.24-8.45-3.7-12.75-.78-7.24-.14-15.68,3.7-21.99Z"/>
        <path class="cls-6" d="M43.66,49.28c3.15,5.44,3.98,12.39,3.7,18.62-.23,5.12-1.36,10.8-3.7,15.35,3.54-10.9,4.03-23.14,0-33.97Z"/>
        <path class="cls-6" d="M38.08,49.86c.62,10.01.63,20.11.1,30.12l-.1-30.12Z"/>
      </g>
      <g>
        <path class="cls-5" d="M32.25,3.57c2.02,2.72,3.25,5.97,4.52,9.09.1.24.25,1.2.29,1.25.14.15,1.06-.12.58.24-1.57-.17-2.9.37-3.85,1.64l-5.48-11.16c1.18-.13,2.85-.59,3.95-1.06Z"/>
        <path class="cls-7" d="M28.31,4.63l5.48,11.16c-.73.97-1.4,2.88-1.44,4.04l-.19-.05c-.91-5.48-2.89-11.01-6.45-15.35.65.48,1.83.28,2.6.19Z"/>
        <path class="cls-3" d="M39.38,14.83c-1.15-4.29-2.97-8.45-5.29-12.22.53-.38,1.03-.97,1.35-1.54,1.17,1.76,2.48,4.79,3.27,6.78,1.52,3.81,2.64,7.79,3.37,11.84-.87-1.57-1.13-3.75-2.69-4.86Z"/>
        <path class="cls-3" d="M34.08,2.61c2.32,3.77,4.14,7.93,5.29,12.22-.51-.36-1.1-.61-1.73-.67.48-.36-.43-.09-.58-.24-.04-.05-.19-1.01-.29-1.25-1.27-3.13-2.5-6.38-4.52-9.09.36-.15,1.53-.75,1.83-.96Z"/>
        <g>
          <path class="cls-4" d="M35.43,1.07c-.32.57-.82,1.16-1.35,1.54-.29.21-1.47.81-1.83.96-1.09.47-2.77.93-3.95,1.06-.77.08-1.95.29-2.6-.19-1.2-.89,1.47-2.42,2.17-2.79,1.37-.72,5.68-2.18,7.02-1.44.43.24.37.63.53.87Z"/>
          <path class="cls-2" d="M33.17.49c2.14-.07,1.67.89.38,1.83s-5.38,2.31-6.93,2.02c-1.22-.23-.34-1.1.19-1.54,1.15-.96,4.86-2.26,6.35-2.31Z"/>
        </g>
      </g>
    </g>
  </g>
</svg>