<?xml version="1.0" encoding="UTF-8"?>
<svg id="_레이어_2" data-name="레이어 2" xmlns="http://www.w3.org/2000/svg" width="78.01" height="140.21" viewBox="0 0 78.01 140.21">
  <defs>
    <style>
      .cls-1 {
        fill: #dcddb5;
      }

      .cls-2 {
        fill: #e3efb1;
      }

      .cls-3 {
        fill: #7bb248;
      }

      .cls-4 {
        fill: #3e7d2a;
      }

      .cls-5 {
        fill: #518f42;
      }

      .cls-6 {
        fill: #2b6f28;
      }

      .cls-7 {
        fill: #f1f4d4;
      }

      .cls-8 {
        fill: #92c459;
      }

      .cls-9 {
        fill: #b8d965;
      }

      .cls-10 {
        fill: #64a33d;
      }

      .cls-11 {
        fill: #abc067;
      }
    </style>
  </defs>
  <g id="_레이어_1-2" data-name="레이어 1">
    <g id="_생성형_개체" data-name="생성형 개체">
      <g>
        <path class="cls-7" d="M42.68,132.18c-4.45,2.67-10.47,4.11-15.33.72l-3.68-4.48c-2.24-11.91,8.03-17.11,8.43-27.08,1.55,5.88-2.88,9.78-4.66,14.62-1.39,3.77-2.27,9.15-.72,12.91-.9-4.77-.14-9.77,1.79-14.17.8-1.83,2.57-3.83,3.23-5.56.45-1.18.75-5.15.9-5.38.1-.15.62-.15.72,0,.17.26-.72,5.42-.9,6.1-.51,1.98-1.76,4.18-2.33,6.1-1.61,5.42-3.14,11.37-.63,16.77.06-1.42-.69-2.81-.81-4.21-.29-3.55.36-7.01,1.26-10.4l4.39-12.82c.07,1.69-.18,3.62-.45,5.29-1.14,7.12-4.51,15.05-1.43,22.06-.76-2.89-.8-5.81-.72-8.79l4.04-22.15c1.14,9.66-2.87,19.42-.99,28.96l1.61-28.52.9.18.09-1.52-.27,30.58c.92-8.44,1-16.89,1.08-25.38l1.08-.27-.18,2.33.36-.36c-.34,2.24.45,4.19.72,6.55.6,5.27.81,10.56.72,15.87.46-.78.52-2.91.54-3.95.12-7.78-1.56-15.66-1.79-23.31,0-.28-.07-4.79.72-2.87.15.36-.24.72-.18,1.08.39,2.23.57,4.41.9,6.64,1.2,8.15,3.7,16.25,1.61,24.48Z"/>
        <path class="cls-9" d="M34.97,91.11c.05-.56.34-.3.36-.45.06-.58-.43-2.02.09-2.96.37.05,1.5,1.69,1.7,2.06.12.21,1.45,4.04,1.52,2.96-1.78-3.32.86-3.8,1.08-.18l.36-.18c-.03-.59-.29-1.07-.45-1.61l1.35-.54.63,1.35.63,11.39-.18-9.33.99,8.7c.34.4.77.78.72,0l-2.33-12.02c.05-.94,1.89,1.62,1.97,1.88.68,2.06.12,5.9.54,8.16l.36-.27c.05,1.08.2,2.16.36,3.23-.79-.27-.29,1.34-.18,1.97h-.36c-.31-.96-.34-1.34-1.08-2.24-.76.3,0,.92,0,.99.47,7.98,3.74,16.24,4.12,24.39-.1-.02-.24.01-.36,0-.14-2.78-.94-6.76-1.43-9.59-.91-5.15-2.58-10.21-3.05-15.42l-.45.63-.54-.54c-.13,9.4,4.86,19.33,1.35,28.69,2.09-8.23-.41-16.33-1.61-24.48-.33-2.22-.51-4.41-.9-6.64-.06-.36.33-.72.18-1.08-.78-1.92-.73,2.59-.72,2.87.24,7.65,1.92,15.53,1.79,23.31-.02,1.04-.08,3.17-.54,3.95.09-5.31-.12-10.6-.72-15.87l-1.08-13.36c-.07-.13-1.05.31-1.08.36-.11.21.19,4,.18,4.75-.07,8.48-.16,16.93-1.08,25.38l.27-30.58-.09,1.52-.9-.18-1.61,28.52c-1.88-9.54,2.13-19.3.99-28.96l-4.04,22.15c-.08,2.98-.04,5.9.72,8.79-3.08-7.01.3-14.94,1.43-22.06.27-1.67.52-3.6.45-5.29l-4.39,12.82c-.9,3.39-1.54,6.86-1.26,10.4.11,1.41.86,2.8.81,4.21-2.51-5.39-.98-11.35.63-16.77.57-1.92,1.83-4.12,2.33-6.1.17-.67,1.07-5.84.9-6.1-.1-.15-.62-.15-.72,0-.15.23-.45,4.2-.9,5.38-.66,1.73-2.42,3.73-3.23,5.56-1.94,4.4-2.69,9.39-1.79,14.17-1.56-3.76-.67-9.15.72-12.91,1.78-4.83,6.22-8.73,4.66-14.62.17-4.15-.65-7.35-1.61-11.3-.22-.9-.24-1.83-.9-2.6,2.22,1.2,2.09,3.96,3.23,5.92.26-.72-2.5-7.1-1.35-7.26,1.21,1.3,1.49,3.43,2.06,5.11.74.74-.45-2.61-.27-2.6.33-.11,1.49,3.21,1.52,3.68.5.65.17-1.08.18-1.17Z"/>
        <path class="cls-3" d="M43.4,92.18c-.09-.26-1.92-2.82-1.97-1.88l2.33,12.02c.05.78-.38.4-.72,0l-.99-8.7.18,9.33-.63-11.39-.63-1.35-1.35.54c-1.57-5.21-10.6-17.44-13.81-23.22-4.95-8.93-9.14-18.27-13.63-27.44-.09-.9.68.11.54-.72-.45-2.61-5.18-10.75-6.46-13.99-.67-1.7-2.33-5.82-2.51-7.44-.1-.9.15-.44.36-1.26.02-.02.07-.09.18-.18.3.14.85-.39,1.08-.09.17.22,1.14,4.54,1.43,5.38,6.5,18.48,15.4,34.54,25.65,51.11,3.04,4.91,9.44,12.43,10.94,17.58.11.38.46,1.42,0,1.7Z"/>
        <path class="cls-3" d="M26.72,59c.04.12-.1.37.18.36,2.34,5.88,7.02,12.5,10.22,18.11.73,1.27,1.61,2.49,2.33,3.77.11.19.23.49.36.72.21.38.58.83.72,1.08.42.76.86,1.56,1.26,2.33.42.83,1.1,1.91,1.43,2.69.25.59.75,1.6.9,2.15.09.33.33,1,.36,1.26.33,2.47-.29,5.91-.18,8.61l-.36.27c-.42-2.26.14-6.1-.54-8.16.46-.28.11-1.33,0-1.7-1.5-5.15-7.9-12.66-10.94-17.58C22.22,56.33,13.31,40.28,6.81,21.79c-.3-.84-1.27-5.16-1.43-5.38-.23-.3-.78.23-1.08.09.35-.3,1.99-2.09,2.33-1.88,4.42,15.71,12.69,29.56,19.55,44.12.13.27.19.55.54.27Z"/>
        <path class="cls-1" d="M44.48,105.27c.85,5.02,5,10.31,6.1,16.32.52,2.85.94,5.85.18,8.7.27.64.7-1.46.72-1.61.28-2.38-.07-5.29-.54-7.62-.78-3.9-2.75-8.06-4.48-11.57-.07-.14-.57-.92,0-.81,4.15,7.79,9.27,14.39,4.66,23.49-1.72,1.09-2.63,2.96-4.57,4.12-6.06,3.63-15.4,2.71-19.64-2.51,3.87,4.7,15.55,2.99,18.83-1.35,1.27-1.68,1.17-2.08,1.08-4.04.11.01.26-.02.36,0,1.12.27.31-2.07,1.43-2.15.04.25-.22,1.27.36.99-.22-2.46-.43-4.92-.9-7.35-.81-4.25-2.59-10.46-3.95-14.62h.36Z"/>
        <path class="cls-7" d="M46.81,128.41c.1,1.95.19,2.36-1.08,4.04-3.28,4.34-14.96,6.05-18.83,1.35-.44-.54-1.1-1.43-1.79-1.61-.58-1.2-1.19-2.45-1.43-3.77l3.68,4.48c4.86,3.39,10.89,1.95,15.33-.72,3.51-9.37-1.47-19.3-1.35-28.69l.54.54.45-.63c.47,5.22,2.14,10.27,3.05,15.42.5,2.83,1.3,6.82,1.43,9.59Z"/>
        <path class="cls-1" d="M26.9,133.79c4.23,5.22,13.58,6.14,19.64,2.51,1.94-1.16,2.85-3.03,4.57-4.12-1.37,2.71-2.7,4.19-5.2,5.92-.38.26-2.51,1.01-1.61,1.43-4.2.72-8.18,1.21-12.2-.36-.49-.19-1.73-.8-2.15-1.08-2.13-1.37-3.75-3.66-4.84-5.92.7.18,1.36,1.08,1.79,1.61Z"/>
        <path class="cls-9" d="M44.66,103.3c.4,2.78.56,3.06,1.79,5.38-.57-.11-.07.67,0,.81,1.74,3.51,3.71,7.67,4.48,11.57l-.36.54c-1.1-6.01-5.25-11.3-6.1-16.32-.11-.63-.61-2.24.18-1.97Z"/>
        <path class="cls-2" d="M40.17,114.24c-.27-2.36-1.06-4.31-.72-6.55l-.36.36.18-2.33-1.08.27c0-.75-.29-4.54-.18-4.75.03-.05,1.01-.49,1.08-.36l1.08,13.36Z"/>
        <path class="cls-10" d="M3.77,17.94c.19,1.62,1.84,5.74,2.51,7.44,1.28,3.24,6,11.38,6.46,13.99.14.83-.63-.18-.54.72,4.49,9.17,8.68,18.51,13.63,27.44,3.21,5.79,12.24,18.01,13.81,23.22.16.54.42,1.02.45,1.61l-.36.18c-.21-3.62-2.86-3.14-1.08.18-.07,1.08-1.41-2.75-1.52-2.96-.2-.37-1.33-2.02-1.7-2.06-.52.94-.03,2.38-.09,2.96-.02.15-.31-.11-.36.45-.75-1.23-1.24-2.61-1.97-3.86-6.06-10.32-12.3-20.67-17.4-31.56-4.79-10.24-8.9-20.99-12.37-31.74l7.17,20.09c-.26.74-1.52-.02-1.61-.54L.36,20.36c1.19-.59,2.06-2.68,3.41-2.42Z"/>
        <path class="cls-7" d="M48.6,126.26c-1.12.08-.31,2.43-1.43,2.15-.39-8.15-3.66-16.41-4.12-24.39.18-.28.53.76.54.81,1.57,7.43,3.81,13.72,5.02,21.43Z"/>
        <path class="cls-9" d="M44.12,105.27c1.35,4.16,3.13,10.37,3.95,14.62.47,2.43.67,4.89.9,7.35-.58.29-.32-.74-.36-.99-1.21-7.72-3.45-14-5.02-21.43-.01-.05-.36-1.09-.54-.81,0-.06-.76-.69,0-.99.74.9.76,1.28,1.08,2.24Z"/>
        <g>
          <path class="cls-5" d="M3.77,17.94c-1.35-.26-2.22,1.83-3.41,2.42l8.43,23.14c.1.52,1.36,1.27,1.61.54L3.23,23.94c3.48,10.76,7.58,21.5,12.37,31.74,5.1,10.89,11.34,21.24,17.4,31.56.73,1.25,1.23,2.62,1.97,3.86,0,.08.32,1.81-.18,1.17-.03-.46-1.2-3.78-1.52-3.68-.18-.01,1.01,3.34.27,2.6-.57-1.68-.86-3.82-2.06-5.11-1.16.16,1.6,6.54,1.35,7.26-1.14-1.96-1.01-4.72-3.23-5.92.66.77.68,1.7.9,2.6-2.34-5.7-6.09-10.64-8.97-16.05C12.48,57,7.03,38.38,0,20.54c.02-.39,3.55-3.36,4.12-3.86-.21.82-.46.35-.36,1.26Z"/>
          <path class="cls-10" d="M26.99,80.17c.91-.23,3.73,4.4,3.86,5.11.01.08-.19,1.53-.27,1.52-.35-.85-4.09-5.82-4.04-6.19,0-.03.42-.44.45-.45Z"/>
        </g>
        <path class="cls-11" d="M50.57,121.59l.36-.54c.46,2.33.82,5.24.54,7.62-.02.15-.45,2.26-.72,1.61.76-2.84.34-5.85-.18-8.7Z"/>
      </g>
      <g>
        <g>
          <path class="cls-3" d="M73.17,12.02c-.41.12-2.16,6.95-2.51,8.07l-19.19,41.52c-.56.7-1.01-.28-1.61.36-.89.93-3.2,6.42-4.3,8.07-.43.65-1.24,1.52-1.79,2.24-1.25,1.63-2.58,3.21-4.04,4.66l-.99-.36c-.03-.19.07-.4.18-.54.69-.83,1.36-1.62,1.97-2.51.37-.54,2.64-3.94,2.69-4.21.11-.6-.4.35-.72-.18-.22-.37-.26-1.38-.72-1.7.46-1,.69-1.37.72-2.51l.27.18c.62-.47,0-.86-.27-1.35l1.26-.27c.33.89.66,1.79.99,2.69l4.39-7.89c.97-1.22,1.57-2.78,2.33-4.12,7.75-13.63,13.91-28.87,19.55-43.49.39-.24,1.6.98,1.79,1.35Z"/>
          <path class="cls-5" d="M44.48,91.47c-.03-.25-.27-.92-.36-1.26.75.49,1.99-2.6,1.97-2.78-.01-.11-1.23-1.72-1.35-1.7l-1.52,2.33c-.33-.78-1.01-1.86-1.43-2.69.97-.05,1.21-1.4,1.61-1.97.63-.9,1.32-1.8,1.97-2.87.59.29.24.26.09.54-.23.42-1.69,2.6-1.7,2.78-.08.97.88,1.7,1.79.72.97-1.04,2.52-5.18,3.41-6.64.12-.2.63.08.9-.36,4.33-7.22,7.98-15.03,12.02-22.42l-.54-.54c1.14-1.48,4.1-11.04,4.84-11.66.44-.36,2.31-.03,2.51-.72l8.79-26-3.95-3.32c0-.39-.13-.55-.18-.9.31.05,4.13,3.64,4.66,4.21-6.31,18.85-12.31,37.65-21.7,55.24-3.65,6.84-8.04,13.24-11.84,20Z"/>
          <path class="cls-3" d="M73.35,12.02c.05.35.18.5.18.9,0,6.93-6.67,23.31-9.51,30.22-5.16,12.58-11.56,25.82-18.65,37.39-.66,1.07-1.34,1.97-1.97,2.87l-1.17-1.61-1.7,1.26c-.13-.24-.51-.69-.72-1.08l1.17-1.61,1.26,1.08c.54-.82,1.16-1.61,1.7-2.42,3.98-5.92,7-13.08,10.04-19.19,6.4-12.85,12.17-25.21,16.68-39.72.35-1.12,2.1-7.95,2.51-8.07.06,0,.12,0,.18,0Z"/>
          <path class="cls-3" d="M70.66,20.09c-4.5,14.51-10.28,26.88-16.68,39.72-3.04,6.11-6.06,13.27-10.04,19.19-.55.81-1.16,1.6-1.7,2.42l-1.26-1.08-1.17,1.61c-.13-.23-.25-.53-.36-.72,2.54-1.13.6-2.59.72-3.5.09-.72,3.68-4.25,3.59-5.47.56-.73,1.36-1.59,1.79-2.24,1.1-1.65,3.42-7.14,4.3-8.07.61-.64,1.06.34,1.61-.36l19.19-41.52Z"/>
          <path class="cls-10" d="M39.46,81.24c-.72-1.28-1.61-2.49-2.33-3.77l1.61-.9.99.36c1.46-1.46,2.79-3.03,4.04-4.66.09,1.22-3.5,4.75-3.59,5.47-.12.91,1.83,2.37-.72,3.5Z"/>
          <path class="cls-6" d="M44.12,90.21c-.14-.55-.64-1.56-.9-2.15l1.52-2.33c.12-.02,1.33,1.6,1.35,1.7.02.18-1.22,3.27-1.97,2.78Z"/>
          <path class="cls-5" d="M43.4,83.39c-.4.57-.64,1.92-1.61,1.97-.39-.77-.84-1.57-1.26-2.33l1.7-1.26,1.17,1.61Z"/>
          <path class="cls-5" d="M45.37,80.53c7.09-11.58,13.5-24.82,18.65-37.39,2.83-6.9,9.5-23.29,9.51-30.22l3.95,3.32-8.79,26c-.2.69-2.07.35-2.51.72-.75.62-3.7,10.18-4.84,11.66l.54.54c-4.04,7.39-7.69,15.2-12.02,22.42-.26.44-.78.16-.9.36-.88,1.46-2.44,5.6-3.41,6.64-.92.98-1.88.26-1.79-.72.02-.18,1.48-2.36,1.7-2.78.15-.28.51-.25-.09-.54Z"/>
        </g>
        <g>
          <g>
            <path class="cls-5" d="M20.27,2.87c-.8-.94-.76-.62-1.88-.18,2.62,12.57,6.83,24.96,9.95,37.48-3.82-12.27-7.1-24.74-10.22-37.21-1.26-.02-1.81.12-1.79,1.43.05,3.87,4.46,18.14,5.74,22.78,4.26,15.44,9.27,30.86,15.6,45.55.09.22.37.71,0,.81-.96-.85-2.74-2.86-3.41-3.95-.79-1.29-1.18-3.02-1.79-4.39-.08-.19-.46,0-.54-.18-.14-.31.19-.51.18-.54-.56-1.29-1.22-2.58-1.7-3.86-.33,1.32-.63-.26-.99-.72l-5.47-12.02c-.04.5-.31,1.06-.27,1.52.06.73,2.78,8.82,3.23,9.95-.28.01-.14-.24-.18-.36C20.63,41.23,15.25,23.21,12.37,4.57c.14-.38,6.61-2.48,7.53-2.78.14.34.26.72.36,1.08Z"/>
            <path class="cls-8" d="M33.72,29.95c.47,4.05,2.06,7.96,3.23,11.84.33,1.11.55,2.3.9,3.41.54,1.74,1.1,3.51,1.79,5.2.03.55.27.83.36,1.26.13.6.37,1.2.54,1.79.16.54.59,1.22.72,1.61.8,2.57,1.58,5.19,2.51,7.71.09.25.27.47.36.72l-1.26.27c.27.48.89.88.27,1.35l-.27-.18-5.56-14.17c-2.12-9.62-6.84-22.22-9.86-32.01-.49-1.58-1.05-1.17-1.08-1.26-1.19-3.87-1.88-8.27-3.05-12.2-.13-.45-.92-1.68-1.08-2.33-.1-.42.35-1.01-.36-1.7.45-.14,2.89-1.3,3.14-1.26l.45.27,8.25,29.68Z"/>
            <path class="cls-3" d="M21.88,1.26c.71.7.26,1.29.36,1.7.15.65.94,1.88,1.08,2.33,1.17,3.92,1.85,8.33,3.05,12.2.03.09.59-.33,1.08,1.26,3.02,9.79,7.75,22.4,9.86,32.01.27,1.22.66,3.86-.54,1.35-1.84-3.87-2.64-9.34-4.12-13.45-.36-.62-1.7.6-2.15.18-3.64-11.93-6.94-23.93-10.22-35.96-.1-.35-.22-.74-.36-1.08.64-.21,1.34-.34,1.97-.54Z"/>
            <path class="cls-10" d="M20.27,2.87c3.29,12.03,6.59,24.02,10.22,35.96.45.42,1.79-.8,2.15-.18,1.48,4.11,2.28,9.58,4.12,13.45,1.2,2.51.81-.12.54-1.35l5.56,14.17c-.03,1.14-.25,1.51-.72,2.51-.31.67-.64,1.32-.99,1.97-.44.1-.44-.18-.63-.45-2.76-3.95-5.12-16.87-7.35-22.06-.06-.13-.36-.74-.54-.72.17.32-.18.85-.18.9,0,.07.69,1.15.72,1.26,1.58,6.46,4.03,12.85,6.1,19.19.56,1.71,1.64,1.47.72,3.68-.68.54-.83-.31-1.08-.81-4.08-8.25-7.78-21.2-10.58-30.22-3.13-12.52-7.33-24.92-9.95-37.48,1.12-.44,1.08-.76,1.88.18Z"/>
            <path class="cls-5" d="M28.34,40.17c2.81,9.02,6.5,21.97,10.58,30.22.24.5.4,1.35,1.08.81-.12.3-.22.6-.36.9-.19.4-.94,1.17-1.08,1.61-.43-.14-.34.36-.45.36-.13,0-.37-.47-.45-.54.37-.09.09-.59,0-.81-6.33-14.69-11.34-30.11-15.6-45.55-1.28-4.64-5.69-18.91-5.74-22.78-.02-1.31.54-1.45,1.79-1.43,3.12,12.47,6.4,24.94,10.22,37.21Z"/>
            <path class="cls-6" d="M29.41,59.9c-.64-.04-.53-.03-.45.54.25,1.62,3.38,7.17,4.39,8.52.19.25.63.4.9.63.66,1.09,2.45,3.09,3.41,3.95.07.07.32.53.45.54.1,0,.02-.5.45-.36-.36,1.23.29,1.18.36,2.33-.11.13-.21.35-.18.54l-1.61.9c-3.2-5.62-7.88-12.23-10.22-18.11-.45-1.14-3.16-9.22-3.23-9.95-.04-.47.23-1.03.27-1.52l5.47,12.02Z"/>
            <path class="cls-6" d="M29.41,59.9c.36.46.66,2.04.99.72.48,1.27,1.14,2.56,1.7,3.86.01.03-.32.22-.18.54.08.19.46,0,.54.18.61,1.37,1,3.1,1.79,4.39-.26-.22-.71-.38-.9-.63-1.02-1.35-4.15-6.9-4.39-8.52-.09-.57-.19-.57.45-.54Z"/>
            <path class="cls-5" d="M42.15,67.43c.46.32.5,1.33.72,1.7.32.53.83-.42.72.18-.05.28-2.32,3.68-2.69,4.21-1.07.26-.62-.91-1.26-1.43.14-.3.23-.6.36-.9.92-2.21-.16-1.97-.72-3.68-2.07-6.34-4.52-12.73-6.1-19.19-.03-.11-.71-1.18-.72-1.26,0-.05.35-.58.18-.9.18-.03.48.59.54.72,2.23,5.19,4.59,18.11,7.35,22.06.19.27.19.54.63.45.35-.65.68-1.3.99-1.97Z"/>
            <path class="cls-4" d="M40.89,73.53c-.61.9-1.28,1.68-1.97,2.51-.07-1.15-.72-1.1-.36-2.33.13-.45.89-1.22,1.08-1.61.64.53.19,1.69,1.26,1.43Z"/>
          </g>
          <g>
            <path class="cls-10" d="M36.94,1.08c.26,1.63-.91,8.56-.36,9.59.06.11,1.26.43,1.43.18l.18-2.33-.09,7.08,1.7-.09c.27-1.64-.28-12.16.18-12.91.06-.09,1.19-.29,1.43-.27-1.04,9.62,1.51,21.7,0,31.03-.02.11.02.25,0,.36-.42.08-.67-.15-.9-.45-2.23-2.93-3.62-8.71-4.48-12.02-.02-.06-.54,0-.72-.72-1-4.16-1.42-14.38-.18-18.47.46-1.51.73-.23,1.43-1.17.17,0,.19.17.36.18Z"/>
            <path class="cls-5" d="M36.59.9c-.71.94-.98-.34-1.43,1.17-1.25,4.09-.82,14.31.18,18.47.17.72.7.66.72.72.86,3.31,2.25,9.09,4.48,12.02.23.3.48.53.9.45-.58,2.83-3.13,5.58-4.48,8.07-1.17-3.87-2.76-7.79-3.23-11.84-.43-3.72-.14-9.16,0-13,.19-5.33.72-10.67,1.26-15.96.14-.16,1.3-.1,1.61-.09Z"/>
            <path class="cls-10" d="M43.22,29.77c-.49,6.14-4.87,10.86-3.41,16.68.18.72.76,1.36.72,2.15-.15-.18-.28-.37-.45-.54l-.27.27c-.18.68-.22,1.36-.18,2.06-.7-1.69-1.25-3.46-1.79-5.2,1.01-.15.68-1.06.9-1.7.64-1.91,1.24-4.01,1.79-5.74.15-.48,1.66-3.74,1.61-3.95-.11-.46-.3-.49-.72-.45,1.51-9.33-1.04-21.4,0-31.03.14-.8-.38-.41-.9-.63l.36-.27c.49.08,2.34.09,2.51.45-.87,9.08.54,18.89-.18,27.89Z"/>
            <path class="cls-3" d="M40.89,1.44l-.36.27c.52.22,1.03-.18.9.63-.24-.02-1.38.18-1.43.27-.45.76.09,11.28-.18,12.91l-1.7.09.09-7.08-.18,2.33c-.18.25-1.37-.07-1.43-.18-.56-1.03.62-7.97.36-9.59,1.31.07,2.65.16,3.95.36Z"/>
            <path class="cls-4" d="M37.84,45.2c-.35-1.11-.56-2.3-.9-3.41,1.35-2.5,3.91-5.24,4.48-8.07.02-.11-.02-.25,0-.36.42-.04.61-.02.72.45.05.21-1.46,3.46-1.61,3.95-.55,1.73-1.15,3.83-1.79,5.74-.22.64.11,1.56-.9,1.7Z"/>
          </g>
          <g>
            <path class="cls-5" d="M51.83,54.16c-.77,1.35-1.36,2.91-2.33,4.12-.18.22-.75,1.05-.81,1.08-.08.04-1.27-.83-1.79-.54-.19.11-2.24,4.91-1.88.9.27-3.01,1.8-.6,2.51-1.52.22-.29,2.07-5.97,2.33-6.81,4.5-14.54,8.08-29.45,12.2-44.12-.07-1.01-2.61-1.32-3.32-2.06-.32.05-.48.91-.63,1.26.37-1.5-.1-1.81-1.61-1.97.05-.18.02-.33.18-.54,2.79,1.18,5.55,2.49,8.25,3.86l-13.09,46.36Z"/>
            <path class="cls-3" d="M53.44,2.51l1.08.99c-2.22,7.58-3.98,15.31-6.28,22.87-.31,1-.58,2.05-.9,3.05-.35-.51-.4-.28-.72.09-3.08,3.61-3.71,9.79-5.38,14.26-.31.82-.75,2.13-1.43,2.69-1.46-5.82,2.91-10.54,3.41-16.68L51.65,2.06c.32-.3,1.39.31,1.79.45Z"/>
            <path class="cls-3" d="M56.67,3.95c-.16.2-.13.35-.18.54-2.02,7.27-3.96,14.55-6.1,21.79l-2.15.09c2.3-7.55,4.05-15.29,6.28-22.87l-1.08-.99c.98.34,2.21,1,3.23,1.43Z"/>
            <path class="cls-6" d="M44.12,63.49c-.09-.24-.27-.47-.36-.72.09-.84,1.09-2.34,1.08-3.05h.18c-.35,4.01,1.69-.79,1.88-.9.53-.3,1.71.58,1.79.54.06-.03.63-.85.81-1.08l-4.39,7.89c-.33-.9-.65-1.8-.99-2.69Z"/>
            <path class="cls-10" d="M58.11,6.46c-4.25,9.77-7.27,26.16-10.58,37.03-1.24,4.06-2.57,8.21-4.12,12.11-.27-.74-.59-1.62-.9-2.33-.13-.31-.99-2.16-1.17-2.15l-.81,2.33c-.17-.59-.41-1.19-.54-1.79.93-1.1,1.54-1.85.54-3.05.04-.8-.54-1.43-.72-2.15.68-.56,1.13-1.87,1.43-2.69.55.48.89-.39,1.08-.81,1.98-4.34,3.57-9,5.02-13.54.32-1,.59-2.05.9-3.05l2.15-.09c2.14-7.24,4.08-14.52,6.1-21.79,1.51.16,1.98.47,1.61,1.97Z"/>
            <path class="cls-4" d="M42.5,53.27c.31.71.62,1.6.9,2.33.2.55,1.43,3.91,1.43,4.12.01.71-.99,2.21-1.08,3.05-.93-2.53-1.71-5.14-2.51-7.71.44-.56.47-1.65,1.26-1.79Z"/>
            <path class="cls-5" d="M42.5,53.27c-.79.14-.81,1.23-1.26,1.79-.12-.39-.56-1.07-.72-1.61l.81-2.33c.18,0,1.03,1.84,1.17,2.15Z"/>
            <path class="cls-5" d="M40.53,48.6c1,1.2.39,1.95-.54,3.05-.09-.42-.32-.71-.36-1.26-.04-.7,0-1.38.18-2.06l.27-.27c.17.16.3.36.45.54Z"/>
            <path class="cls-5" d="M45.01,59.72h-.18c0-.22-1.23-3.58-1.43-4.12,1.56-3.9,2.89-8.04,4.12-12.11,3.31-10.87,6.33-27.26,10.58-37.03.15-.35.3-1.2.63-1.26.71.74,3.25,1.05,3.32,2.06-4.11,14.67-7.7,29.58-12.2,44.12-.26.84-2.11,6.53-2.33,6.81-.71.93-2.25-1.48-2.51,1.52Z"/>
            <path class="cls-3" d="M47.35,29.41c-1.45,4.54-3.04,9.2-5.02,13.54-.19.41-.53,1.29-1.08.81,1.67-4.47,2.3-10.65,5.38-14.26.31-.37.37-.6.72-.09Z"/>
          </g>
        </g>
      </g>
    </g>
  </g>
</svg>