<?xml version="1.0" encoding="UTF-8"?>
<svg id="_레이어_2" data-name="레이어 2" xmlns="http://www.w3.org/2000/svg" width="108.07" height="63.2" viewBox="0 0 108.07 63.2"><defs>
    <style>
      .cls-1 {
        fill: #d25720;
      }

      .cls-2 {
        fill: #fda755;
      }

      .cls-3 {
        fill: #619538;
      }

      .cls-4 {
        fill: #feba5c;
      }

      .cls-5 {
        fill: #fc8f3d;
      }

      .cls-6 {
        fill: #ffe4cb;
      }

      .cls-7 {
        fill: #f6803f;
      }

      .cls-8 {
        fill: #a3230e;
      }

      .cls-9 {
        fill: #feb98f;
      }

      .cls-10 {
        fill: #e7a166;
      }

      .cls-11 {
        fill: #fdceaa;
      }

      .cls-12 {
        fill: #ee5414;
      }

      .cls-13 {
        fill: #a2c46d;
      }

      .cls-14 {
        fill: #fdca7e;
      }

      .cls-15 {
        fill: #e03c18;
      }

      .cls-16 {
        fill: #ee6a1d;
      }

      .cls-17 {
        fill: #bf3415;
      }

      .cls-18 {
        fill: #376c28;
      }
    </style>
  </defs>
  <g id="_레이어_1-2" data-name="레이어 1">
    <g id="_생성형_개체" data-name="생성형 개체">
      <path class="cls-7" d="M104.17,13.91c-3.58,2.94-7.19,5.76-11.05,8.34-3.65,2.44-10.44,6.94-14.45,8.2-.62.19-1.99.12-2.92.42-8.84,2.83-17.73,9.03-27.31,10.56,2.44-3.22,6.45-5.4,10.08-7.09,10.91-5.07,23.32-6.71,33.42-13.48,1-.56,1.94-1.11,2.85-1.81.39-.59,1.48-1,1.88-1.46.02-.02.41-.57.07-.49-.19.22-.4.39-.63.56-.5-1.62,2.95-3,1.39-1.04l.35.21c1.07-.59.45-1.25.49-1.32.53-1.01,3.02-2.57,3.61-3.82.78.7,1.55,1.42,2.22,2.22Z"/>
      <path class="cls-9" d="M100.28,10.43c-4.23,4.72-9.18,8.66-14.04,12.72,2.01-.3,3.94-1.31,5.7-2.29-10.1,6.77-22.52,8.41-33.42,13.48-3.63,1.69-7.63,3.87-10.08,7.09h-.14c-.34-.34-.86-.76-1.25-1.11l.83-.76c-.78-.71-7.67-5.53-8.13-5.35-.1.04-.02.66-.49.56-2.13-1.47-4.2-2.89-6.39-4.24.6-.97,11.85,5.21,13.06,5.91.55.32,2.83,2.11,3.27,2.08,4.63-2.86,9.53-5.24,14.11-8.2,1.32.37,1.33.22,2.08-.56.07-.07-.28-.12.07-.42,1.34-1.16,6.84-2.03,8.76-2.64,3.89-1.25,7.49-3.1,11.05-5.07l-3.61.07c4.01-1.07,14.58-8.32,16.12-12.16.07-.17.12-.57.14-.76.86.54,1.56,1.06,2.36,1.67Z"/>
      <path class="cls-2" d="M48.16,12.24c.88,0,1.76.11,2.64.14l4.31.28c-.27.12-1.5,1.12-1.81,1.39-5.06-.03-10.08.28-15.08.97-.16.02-.76.41-.83.42-2.1.31-4.39.02-6.39.97l5.63-3.2s.1.01.14,0c3.12-.95,8.12-.96,11.4-.97Z"/>
      <path class="cls-16" d="M65.12,7.38l-.97,1.39c-.18.16-.3.35-.42.42-.34.19-.63.19-.97.28-3.1.75-4.88-.39-7.64-.69-.91-.1-8,.84-9.1,1.11-1.48.36-3.31,1.75-4.93,2.02,1.72.03,3.44-.15,5.14-.35.48.61,1.66-.08,1.95.69-3.27,0-8.27.02-11.4.97,4.43-2.38,9.14-4.17,13.76-6.11.59.72,2.56.46,3.54.56.38.04.93.15,1.25.42l-.49-.76c.34-.75,1.29-.3,1.46-.35.1-.03,1.78-1.22,1.88-.21.07.72-2.46.31-2.5,1.25,1.97.29,4.65.83,6.6.35.99-.24,1.75-1.49,2.85-.97Z"/>
      <path class="cls-16" d="M101.94,11.68c-.6,1.25-3.08,2.81-3.61,3.82-.04.07.58.73-.49,1.32l-.35-.21c1.56-1.96-1.89-.58-1.39,1.04-1.4,1.03-2.72,2.23-4.17,3.2-1.75.99-3.69,1.99-5.7,2.29,4.85-4.06,9.8-7.99,14.04-12.72.56.42,1.13.78,1.67,1.25Z"/>
      <path class="cls-7" d="M92.35,5.71c-3.85,4.17-9.27,7.71-14.59,9.73,1.71-1.21,3.9-3.55,5.7-5,.42.45,1.36-.46,1.25-.97,1.92-1.51,3.95-2.89,5.84-4.45.52.23,1.26.43,1.81.69Z"/>
      <path class="cls-9" d="M90.55,5.01c-1.88,1.56-3.92,2.94-5.84,4.45-.42.33-.83.64-1.25.97-1.8,1.45-3.98,3.79-5.7,5-.55.39-1.13.71-1.74.97-3.98,1.73-.63.03.28-.69,1.29-1.02,2.56-2.63,3.89-3.75,3.03-2.56,6.32-4.82,9.24-7.5.39.17.75.39,1.11.56Z"/>
      <path class="cls-17" d="M108.06,24.89c0,.46.02.93,0,1.39-.49-.1-.58.3-.69.63-.36,1.03-1,3.7-1.18,4.79-.09.53.11-.01.21.28-.52.73-.95,1.06-1.53,1.67-.14-1.06.3-2.29-.49-3.2l-1.18,1.95c.04-.54.22-1.19,0-1.67.1-.1.18-.18.28-.28.51-.53.75-.66,1.11-1.39.17.44,1.2-.84,1.25-.9.29-.35.57-.8.83-1.18.48-.68.88-1.43,1.39-2.08Z"/>
      <path class="cls-16" d="M81.38,1.4c-2.93,2.14-7.13,2.82-10.56,4.17-.02-.08-.21-.48-.28-.69l9.59-3.75c.41.1.83.16,1.25.28Z"/>
      <path class="cls-2" d="M82.49,1.82c-.97.42-1.95.98-2.92,1.39-2.85,1.2-5.91,1.83-8.76,3.06-.04-.34,0-.66,0-.69,3.44-1.35,7.63-2.03,10.56-4.17.39.11.74.3,1.11.42Z"/>
      <path class="cls-2" d="M84.43,2.37c-.72.61-1.78.88-2.64,1.25-.43-.92-1.55-.04-2.22-.42.97-.41,1.95-.97,2.92-1.39.64.2,1.3.33,1.95.56Z"/>
      <path class="cls-15" d="M108.06,24.89c-.51.65-.91,1.41-1.39,2.08l.83-6.25c.31,1.42.54,2.71.56,4.17Z"/>
      <path class="cls-16" d="M65.39,29.75c-.25.03-.52-.15-.35-.42.12-.19,4.69-2.02,2.92-2.22-.39-.05-2.39,1.69-2.78,1.95-.3.2-1.05.19-1.39.42-.26.18-.45.81-.49.83-4.58,2.96-9.47,5.34-14.11,8.2-.43.02-2.72-1.77-3.27-2.08l17.02-8.62c.5.03,3.92-1.83,3.96-1.18-1.29,1.77,3.14-1.14,3.82-1.46,1.4-.66,5.75-2.76,6.95-3.06,1.36-.34,2.49-.02,3.96-.42l3.61-.07c-3.56,1.98-7.15,3.82-11.05,5.07-1.91.61-7.41,1.48-8.76,2.64-.35.3,0,.35-.07.42Z"/>
      <path class="cls-2" d="M12.45,26.41c2.79-2.36,6.5-1.41,9.73-2.5.11,0,.15.15.42.14,9.63-.32,19.54-1.68,28.98-1.67,1.98,0,4.05-.21,5.98-.14.18,0-.33.25.28.28.03,0,.23-.44.42-.42,1.08.12-.77.91-.97.97-9.05,2.59-24.51.52-34.74,2.08-1.69.26-.6.46-1.39,1.11-.29.24-1.87.59-1.88.07l.49-.9c-2.43.33-4.87.63-7.3.97Z"/>
      <path class="cls-9" d="M49,19.47c.28.07,2.08,1.42,2.92,1.25-7.11,1.01-15.47-.45-22.72,1.67l-6.6,1.67c-.27,0-.31-.14-.42-.14-1.44.05-3.09.26-5.07.56l-.14-.28,3.2-.69-1.88-.21c.67-.31,1.37-.71,2.08-.9,4.52-1.25,12.03-2.07,16.68-2.5,2.56-.24,9.78-.95,11.95-.42Z"/>
      <path class="cls-17" d="M64.14,20.02c-3.26,3.18-7.84,1.88-11.67.69.65-.14,1.93-.27,1.95-1.11,1.99.2,4.98.18,6.81-.56.74-.3,1.45-.65,1.88-1.39.2,0,.86,2.05,1.04,2.36Z"/>
      <path class="cls-7" d="M79.57,3.21c.67.38,1.79-.51,2.22.42-1.8.77-3.63,1.55-5.42,2.36l.56-1.04c-.18-.56-3.34.79-1.67,1.6-1.28.58-2.5,1.34-3.89,1.67-.1-.51-.34-1.32-.56-1.81,0-.05,0-.09,0-.14,2.84-1.22,5.9-1.86,8.76-3.06Z"/>
      <path class="cls-15" d="M74.29,11.54c.35.29.27.01.56.56-2.88.11-2.15,3.11.14.83,0,.03.22.24.14.63-.09.48-3.18,4.06-3.75,4.66-.08-1.41-2.13-1.48-2.64-.42-.05-.1-.2-.29-.28-.42,3.09-.97,2.92-5.18,5.84-5.84Z"/>
      <path class="cls-16" d="M47.05,40.31c-2.29-2.06-5.23-3.81-7.78-5.56.47.1.39-.52.49-.56.46-.17,7.35,4.64,8.13,5.35l-.83.76Z"/>
      <path class="cls-17" d="M74.29,11.54c-2.92.66-2.74,4.87-5.84,5.84-.08-.13-1-.81-.97-.9,3.06-.79,4.28-3.32,4.17-6.32.88.28,1.93.81,2.64,1.39Z"/>
      <path class="cls-17" d="M71.37,18.21c-.63.65-1.09,1.25-2.08,1.53-.05-.55-.3-1.48-.56-1.95.51-1.07,2.56-.99,2.64.42Z"/>
      <path class="cls-1" d="M74.84,12.1c.11.21.14.6.14.83-2.29,2.28-3.01-.73-.14-.83Z"/>
      <path class="cls-16" d="M76.37,5.99c-.37.17-.73.38-1.11.56-1.67-.81,1.49-2.15,1.67-1.6l-.56,1.04Z"/>
      <g>
        <path class="cls-16" d="M89.44,4.46c-2.92,2.69-6.21,4.95-9.24,7.5-1.34,1.13-2.6,2.73-3.89,3.75-.91.72-4.26,2.42-.28.69.61-.26,1.19-.59,1.74-.97,5.32-2.02,10.74-5.56,14.59-9.73,1.92.93,3.76,1.91,5.56,3.06-.01.2-.07.6-.14.76-1.54,3.84-12.11,11.09-16.12,12.16-1.47.39-2.6.08-3.96.42-1.2.3-5.55,2.4-6.95,3.06-.68.32-5.11,3.23-3.82,1.46-.04-.65-3.46,1.22-3.96,1.18l-17.02,8.62c-1.22-.7-12.47-6.87-13.06-5.91,2.19,1.35,4.26,2.77,6.39,4.24,2.55,1.75,5.49,3.49,7.78,5.56.39.35.91.77,1.25,1.11,1.27,1.3,2.9,3.4,3.89,4.93.08.12.47.81.14.9-4.05-6.8-8.82-8.84-15.43-11.95-8.13-3.83-18.48-9-27.66-5.56-1.25-.85-3.02.61-4.31.69,1.94-1.61,4.24-2.74,6.39-4.03.29.19.82.04,1.11,0,2.43-.34,4.86-.65,7.3-.97l-.49.9c0,.52,1.58.17,1.88-.07.79-.65-.3-.85,1.39-1.11,10.23-1.57,25.7.5,34.74-2.08.2-.06,2.05-.85.97-.97-.18-.02-.39.42-.42.42-.6-.03-.09-.27-.28-.28-1.93-.07-4,.14-5.98.14-9.44,0-19.34,1.35-28.98,1.67l6.6-1.67c7.26-2.12,15.61-.66,22.72-1.67.17-.02.39.04.56,0,3.83,1.18,8.42,2.48,11.67-.69.29.48,1,1.4,1.39,1.81-.81,1.09,2.68,2.2,3.06,2.08l.28.07c-.13-.76.17-1.58.14-2.29,0-.05,0-.09,0-.14.31-.51.33-1.24.28-1.81.99-.28,1.46-.87,2.08-1.53.57-.59,3.66-4.18,3.75-4.66.08-.39-.14-.59-.14-.63,0-.23-.03-.63-.14-.83-.29-.54-.21-.27-.56-.56-.71-.58-1.76-1.11-2.64-1.39-.02-.45-.19-1.46-.28-1.95,1.39-.32,2.61-1.08,3.89-1.67.38-.17.75-.39,1.11-.56,1.79-.81,3.62-1.59,5.42-2.36.86-.37,1.92-.64,2.64-1.25,1.69.6,3.36,1.37,5,2.08Z"/>
        <g>
          <path class="cls-15" d="M44.97,26c.27-.02.66-.14.69-.14,3.55-.18,5.72-.8,9.17-1.39-1.07,1.21,1.56,1.28.56,0,1.09-.17,2.29-.59,3.4-.69.9-.09,2.29-.28,3.13.07-6.48,2.41-13.27,2.68-20.08,3.27-5.06.44-10.39,1.69-15.43,0-.19-.06-.77-.22-.56-.56,2.9-.36,5.92.81,8.76.69,3.09-.12,6.77-1.04,10.35-1.25Z"/>
          <path class="cls-5" d="M84.09,5.85c.38-.02,1.13.24.9.76-1.54,1.21-2.64-.67-.9-.76Z"/>
          <path class="cls-7" d="M43.51,27.8c1.23-.32,1.79.69.69.97-1.4.36-1.77-.69-.69-.97Z"/>
          <path class="cls-7" d="M82.42,16.83c1-.03,1.17.93.14,1.11-1.7.3-1.2-1.08-.14-1.11Z"/>
          <path class="cls-7" d="M52.12,26.83c.8-.1,1.86.68.97.97-1.24.41-2.45-.78-.97-.97Z"/>
          <path class="cls-17" d="M68.59,23.91c-.38.11-3.86-.99-3.06-2.08.93.95,1.91,1.45,3.06,2.08Z"/>
          <path class="cls-7" d="M78.53,8.07c.41-.04.52.05.76.35-.36.56-.93.82-1.6.9-.68-.37.53-1.22.83-1.25Z"/>
          <path class="cls-7" d="M92.15,12.52c1.6-.14.14,1.51-.83,1.11-.63-.26.57-1.09.83-1.11Z"/>
          <path class="cls-7" d="M42.12,30.72s.62.18.83,0c1.08,1.21-1.19,1.27-1.18.49.19-.07.28-.45.35-.49Z"/>
          <path class="cls-14" d="M55.39,24.47c1,1.28-1.62,1.21-.56,0,.18-.03.38.03.56,0Z"/>
          <path class="cls-14" d="M89.78,11.82c.72-.22,1.03.79.42.97-.72.22-1.03-.79-.42-.97Z"/>
          <path class="cls-7" d="M78.11,20.86c1.6-.47.56,1.14-.28.83-.47-.17-.12-.72.28-.83Z"/>
          <path class="cls-14" d="M56.99,28.78c.58-.06.88.77.28.97-.94.32-1-.9-.28-.97Z"/>
          <path class="cls-14" d="M47.68,32.25c.53-.13,1,.76.42.97-.9.33-.96-.84-.42-.97Z"/>
          <path class="cls-7" d="M75.61,8.49c1.31-.26.43,1.28-.42.97-.52-.19.35-.96.42-.97Z"/>
          <path class="cls-7" d="M45.66,25.86s-.43.12-.69.14c-.58-1.25,1.55-1.08.69-.14Z"/>
          <path class="cls-7" d="M90.34,8.76c.27-.05.61-.02.63.35l-.9.35-.21-.35c0-.06.45-.34.49-.35Z"/>
          <path class="cls-7" d="M87,15.44c1.02.07-.12,1.2-.76.49-.02-.12.71-.49.76-.49Z"/>
          <path class="cls-7" d="M59.35,22.8c.64-.14.78.58.28.69-.54.12-.77-.59-.28-.69Z"/>
          <path class="cls-7" d="M62.82,25.72c.19-.08.7.05.63.35-.15.58-1.43-.01-.63-.35Z"/>
        </g>
      </g>
      <path class="cls-15" d="M99.58,32.95c-.99-2.73-1.77-6.33-5.21-6.67-7.59-.74-3.93,8.23-2.02,11.95-.33.21-.65.48-.97.69-.03.02-.11-.02-.14,0-1.09-3.88-4.68-7.25-3.34-11.6.2-.65.99-1.8,1.53-2.15,2.13-1.39,6.04-.87,7.99.69,2,1.61,2.33,4.69,2.15,7.09Z"/>
      <path class="cls-15" d="M102.22,19.05l1.67,2.99.97,4.1c-.05.98-.27,1.94-.28,2.92-.36.73-.6.86-1.11,1.39-.22-2.42-.46-4.72-1.67-6.88-.62-1.12-3.12-2.97-1.46-4.24.51-.39,1.28-.47,1.88-.28Z"/>
      <path class="cls-17" d="M101.53,31.83s-.12.36-.14.42c-.66-.01-1.45.58-1.53,1.25-.21,0-.11-.19-.14-.28-.04-.11-.1-.17-.14-.28.18-2.4-.15-5.48-2.15-7.09-1.95-1.57-5.87-2.08-7.99-.69,5.39-4.33,11.82.52,12.09,6.67Z"/>
      <g>
        <path class="cls-16" d="M104.17,13.91c1.86,2.24,2.71,3.97,3.34,6.81l-.83,6.25c-.27.38-.55.83-.83,1.18-.05.06-1.08,1.34-1.25.9,0-.98.23-1.94.28-2.92.09-1.94-.4-6.37-2.64-7.09-.59-.19-1.36-.11-1.88.28-1.66,1.26.83,3.12,1.46,4.24,1.21,2.16,1.45,4.46,1.67,6.88-.1.1-.17.18-.28.28-.3.28-1.61,1.03-1.67,1.11-.27-6.15-6.7-11-12.09-6.67-.54.35-1.33,1.51-1.53,2.15-1.35,4.35,2.25,7.72,3.34,11.6-.42.28-.84.54-1.25.83-.03.02-.11-.02-.14,0-.77-4.82-5.04-9.87-10.28-9.24,2.63.99,4.5,1.65,6.39,3.82,0,.27.32.49-.21.42-.17-.02-2.26-1.7-2.78-1.95-5.62-2.64-13.7,1.24-13.69,7.85,0,1.49,1.05,3.98,0,5.21-.62.73-1.59.79-2.22.14-.33-.33-.38-1.48-1.32-1.25-.06.01-.89.71-.9.76-.2.64,2.88,5.08,4.1,2.29-.14,2.43,1.87-2.06,2.02-2.71.64-2.82-.62-5.07.69-7.78,1.17-2.43,4.26-4.19,6.88-4.38,4.62-.33,7.23,3.42,10.08,6.39.3,1.6,0,1.17-1.53,1.95-.25-.78-.68-1.53-1.11-2.22-2.15-3.45-5.12-5.93-9.1-3.2s-4.03,10.32-6.18,14.31c-.01,0-.04.07-.28.14-3.92,1.18-5.47-.48-6.05-4.31-.47.35-.96.68-1.46.97-.03.02-.1-.02-.14,0-2.03-1.87-2.53-6.85-6.11-6.39-2.11.27-1.39,2.94-.69,4.38.27.56,1.15,1.4,1.39,1.95.19.42.06,1.2.14,1.39.21.47,1.4-.13,1.53.63-1.69.56-3.18,1.19-4.86,1.81-.32-.98-1.26-2.56-1.81-3.47.33-.09-.06-.79-.14-.9-.99-1.53-2.62-3.64-3.89-4.93h.14c9.57-1.53,18.46-7.73,27.31-10.56.93-.3,2.3-.22,2.92-.42,4.01-1.26,10.8-5.76,14.45-8.2,3.86-2.57,7.47-5.4,11.05-8.34Z"/>
        <g>
          <path class="cls-17" d="M104.86,26.14l-.97-4.1-1.67-2.99c2.24.72,2.73,5.14,2.64,7.09Z"/>
          <path class="cls-16" d="M67.55,42.95c.28-.06.49.43.28.56s-.77-.45-.28-.56Z"/>
          <g>
            <path class="cls-15" d="M62.48,38.64c-.23,1.7,1.41,2.09,1.39,3.61-2.4.81-5.33-4.17-1.39-3.61Z"/>
            <path class="cls-17" d="M63.87,42.26c.02-1.52-1.62-1.91-1.39-3.61,2.22.31,3.69,2.84,1.39,3.61Z"/>
            <path class="cls-16" d="M80.19,33.5s.5.32.49.35c-.43.37-.91-.34-.49-.35Z"/>
          </g>
        </g>
      </g>
      <path class="cls-9" d="M91.94,20.86c1.45-.97,2.77-2.16,4.17-3.2.23-.17.44-.34.63-.56.34-.09-.05.47-.07.49-.39.45-1.49.87-1.88,1.46-.91.7-1.85,1.25-2.85,1.81Z"/>
      <path class="cls-7" d="M65.39,29.75c-.75.78-.77.92-2.08.56.04-.03.22-.65.49-.83.34-.23,1.09-.22,1.39-.42.39-.26,2.39-1.99,2.78-1.95,1.77.2-2.8,2.04-2.92,2.22-.17.26.1.45.35.42Z"/>
      <path class="cls-7" d="M34.82,18.49c1.84.14,1.02.93,2.22,1.39-4.65.43-12.15,1.25-16.68,2.5,2.07-1.73,5.21-2.21,7.92-2.78,1.54-.33,5.16-1.22,6.53-1.11Z"/>
      <path class="cls-16" d="M34.82,18.49c-1.37-.11-4.99.79-6.53,1.11.42-.37,1-.07.83-.83,2.02.19,3.96-.85,5.63-1.11.36-.06,1.37.04,1.67,0,.08-.01,1.17-.41,1.25-.42.83-.11,1.7-.2,2.36-.28,1.44-.17,3.5.01,4.86-.28.1-.02.75-.63.97-.69l.35.21c-1.18,1.17,1.43.45,1.32,1.32l-12.72.97Z"/>
      <g>
        <path class="cls-7" d="M53.3,14.05c-.78.67-.99,1.09-1.53,1.67-1.54,1.31-.89.21-1.88.56-.83.67.11.59.35,1.11-.24.29-.98,1.24-1.11,1.53-.09.19-.2.3-.14.56-2.17-.53-9.39.18-11.95.42-1.21-.46-.38-1.25-2.22-1.39l12.72-.97c.11-.87-2.51-.15-1.32-1.32l-.35-.21c-.22.07-.88.67-.97.69-1.37.29-3.42.11-4.86.28-.66.08-1.53.17-2.36.28-.08.01-1.17.4-1.25.42-.29.04-1.3-.06-1.67,0-1.67.27-3.61,1.3-5.63,1.11l-.42-.21.42.21c.17.76-.41.46-.83.83-2.71.57-5.85,1.05-7.92,2.78-.71.2-1.41.6-2.08.9l1.88.21-3.2.69.14.28c1.98-.29,3.63-.51,5.07-.56-3.23,1.09-6.94.14-9.73,2.5-.3.04-.82.19-1.11,0,6.21-3.72,18.77-11.11,25.29-13.2l-5.63,3.2c2-.95,4.3-.66,6.39-.97.07-.01.67-.39.83-.42,5-.69,10.01-1,15.08-.97Z"/>
        <path class="cls-13" d="M50.25,17.38c-.24-.53-1.18-.44-.35-1.11.98-.35.34.75,1.88-.56-.48.52-1.08,1.13-1.53,1.67Z"/>
        <path class="cls-4" d="M32.25,16.96c.72-.34,1.05.65.42.83-.67.19-.84-.63-.42-.83Z"/>
        <path class="cls-16" d="M29.12,18.77l-.42-.21.42.21Z"/>
      </g>
      <g>
        <path class="cls-2" d="M76.79.29l-.97.76c-.15.87,1.93.54,1.95-.49.9.16,1.5.34,2.36.56l-9.59,3.75c-.08-.25-.22-.44-.14-.76l-.35-.21c-.78,1.1-2.3,1.41-3.4,2.22-.71-.38-1.96.26-.97.83-.08.07-.21.23-.42.42h-.14c-1.09-.52-1.85.73-2.85.97-1.95.48-4.63-.06-6.6-.35.04-.94,2.57-.53,2.5-1.25-.1-1.01-1.77.18-1.88.21-.17.05-1.12-.41-1.46.35l.49.76c-.32-.26-.87-.38-1.25-.42-.98-.1-2.96.16-3.54-.56,1.04-.44,2.39-1.04,3.61-1.53.33-.13.65-.29.97-.42,1.16-.33,2.24-.91,3.34-1.39,2.75-1.02,5.52-2.34,8.41-2.92.48-.1,3.85-.65,4.03-.56.05.03.07.61.56.69.12.02,2.17-.52,2.15-.97,1.18.03,2.04.11,3.2.28Z"/>
        <g>
          <path class="cls-16" d="M73.59,0c.02.46-2.03.99-2.15.97-.49-.09-.5-.67-.56-.69-.18-.09-3.55.46-4.03.56-2.88.58-5.66,1.9-8.41,2.92C63.48,1.55,67.73-.14,73.59,0Z"/>
          <path class="cls-2" d="M77.76.57c-.02,1.02-2.09,1.35-1.95.49l.97-.76c.36.05.66.22.97.28Z"/>
          <path class="cls-16" d="M58.45,3.76c-1.1.48-2.17,1.06-3.34,1.39.94-.37,2.18-.96,3.34-1.39Z"/>
          <path class="cls-16" d="M55.11,5.15c-.32.13-.64.28-.97.42-.07-.45.69-.34.97-.42Z"/>
          <path class="cls-2" d="M66.58,2.79c2.34-.23,3.12,1.88-.56,1.39-.46-.06-.78-.55-.83-.56-.11,0-.87.99-1.46.07.46-.88,1.35-.18,1.46-.21.16-.04.8-.64,1.39-.69Z"/>
          <path class="cls-7" d="M61.29,4.46c.4-.05.52.06.76.35-.24.57-1.66.8-1.39,0,.07-.12.56-.34.63-.35Z"/>
          <path class="cls-7" d="M66.64,6.12c-.33.25-.66.56-.97.83-.99-.57.26-1.21.97-.83Z"/>
          <path class="cls-7" d="M72.97,2.37c.75-.19.73.57.28.69-.63.18-.91-.54-.28-.69Z"/>
        </g>
      </g>
      <path class="cls-7" d="M62.2,11.68c-.21-.27-1.79-1.17-1.95-.9.14.27.11.48.14.76-.87.12-2.75-.22-3.2.69-.56,0-1.15.1-1.67.28-1.55-.36-3.17-.09-4.73-.14-.89-.03-1.76-.14-2.64-.14-.28-.78-1.47-.09-1.95-.69,3-.35,5.45-1.01,8.48-1.11,1.73-.06,3.36.25,5.21,0,.76-.1,2.32-.47,2.85-.97.35-.08.63-.09.97-.28-.02.32-.27.91-.42,1.18-.13.23-.78,1.37-1.11,1.32Z"/>
      <path class="cls-16" d="M55.53,12.52c-.12.04-.35.11-.42.14l-4.31-.28c1.55.05,3.18-.22,4.73.14Z"/>
      <path class="cls-4" d="M55.11,8.76c-.54.72-1.77.19-2.08,1.18l1.67.49c-3.03.1-5.48.76-8.48,1.11-1.71.2-3.42.37-5.14.35,1.63-.27,3.45-1.66,4.93-2.02,1.11-.27,8.2-1.21,9.1-1.11Z"/>
      <path class="cls-2" d="M62.75,9.46c-.53.5-2.08.87-2.85.97-1.85.25-3.48-.06-5.21,0l-1.67-.49c.31-.99,1.54-.46,2.08-1.18,2.76.31,4.54,1.45,7.64.69Z"/>
      <path class="cls-2" d="M83.46,10.43c.42-.34.83-.64,1.25-.97.11.52-.83,1.42-1.25.97Z"/>
      <g>
        <path class="cls-1" d="M52.89,19.33c.42.19,1.06.23,1.53.28-.02.84-1.29.97-1.95,1.11-.17.04-.38-.02-.56,0-.83.16-2.63-1.18-2.92-1.25-.06-.25.05-.36.14-.56,1.3-.29,2.35.28,3.75.42Z"/>
        <path class="cls-3" d="M67.48,17.52c.94,1.07,1.44,2.6,1.53,4.03,0,.05,0,.09,0,.14-.19-.93-.92-1.17-1.25-1.6-.14-.19.29-.23.28-.28-.12-.36-.79-.13-.9-.21-.48-.32-.42-1.18-.69-1.53,0-.01-.18.24-.28.14-.19-.2-1.31-1.36-1.32-1.46-.06-1.03,1.1.59,1.18.63.29.14,1.12.05,1.46.14Z"/>
        <g>
          <path class="cls-3" d="M70.54,4.87c.07.21.26.61.28.69,0,.03-.04.35,0,.69,0,.05,0,.09,0,.14.27,2.71.29,6.54-2.02,8.34-.29.23-1.03.29-1.25.42-.34.2-.12.6-.28.69-.41.26-2.33-.87-2.43-.21,1.14.79,1.71.82,2.64,1.88-.34-.09-1.17,0-1.46-.14-.08-.04-1.24-1.66-1.18-.63,0,.1,1.13,1.26,1.32,1.46.1.11.27-.15.28-.14.28.35.21,1.21.69,1.53.11.08.79-.15.9.21.02.05-.42.09-.28.28.33.43,1.06.67,1.25,1.6.03.71-.27,1.53-.14,2.29l-.28-.07c-1.15-.64-2.13-1.13-3.06-2.08-.39-.4-1.1-1.33-1.39-1.81-.19-.31-.85-2.36-1.04-2.36-.43.74-1.14,1.09-1.88,1.39-2.73.52-5.57.54-8.34.28-1.4-.13-2.45-.7-3.75-.42.13-.29.87-1.24,1.11-1.53.45-.54,1.04-1.14,1.53-1.67.3-.26.46-.58.76-.83l-.14.83c.31-.57,1.5-.77,1.81-.97.06-.04.12-.46.76-.83,1.08-.04,1.8.79,2.64,1.32-.42.7-.94.06-1.46.21-.12.03.19.3-.14.42-.28.1-1.11-.05-1.39.69,1.28-.45,2.94-.4,4.17-.69.24-.06-.09-.34-.07-.35.59-.15,1.26-.24,2.02-.21-.14-1.32-1-.87-2.02-.9l1.39-.35c.45.28.83.61,1.32.83.27-.26-.21-.73-.35-1.11-.04-.11-.1-.16-.14-.28.4-.04,1.05,1.01,1.32.97.04,0,.6-.45.63-.49.59-.87-.62-1.49-.97-1.95-.15-.19.37-.23.28-.35.33.05.98-1.09,1.11-1.32.15-.27.4-.86.42-1.18.12-.06.23-.26.42-.42.52-.44.75-1.06,1.11-1.39.2-.18.34-.35.42-.42.31-.28.64-.59.97-.83,1.1-.82,2.63-1.12,3.4-2.22l.35.21c-.08.33.06.51.14.76Z"/>
          <path class="cls-13" d="M71.37,8.21c.09.48.26,1.49.28,1.95.11,3.01-1.11,5.53-4.17,6.32-.03.09.89.78.97.9s.22.32.28.42c.26.47.5,1.39.56,1.95s.03,1.3-.28,1.81c-.09-1.43-.59-2.96-1.53-4.03s-1.5-1.09-2.64-1.88c.1-.67,2.03.47,2.43.21.15-.1-.06-.5.28-.69.22-.13.96-.19,1.25-.42,2.31-1.8,2.29-5.63,2.02-8.34.21.48.46,1.3.56,1.81Z"/>
          <path class="cls-13" d="M65.26,7.38c-.37.33-.6.95-1.11,1.39l.97-1.39h.14Z"/>
        </g>
        <path class="cls-18" d="M62.2,11.68c.09.12-.43.15-.28.35.35.46,1.56,1.08.97,1.95-.02.03-.59.48-.63.49-.27.04-.92-1.01-1.32-.97-.2-.62-.49-1.29-.56-1.95-.03-.28,0-.49-.14-.76.15-.27,1.74.63,1.95.9Z"/>
        <path class="cls-7" d="M60.39,11.54c.06.65.36,1.32.56,1.95.04.11.1.17.14.28-1.3-1.06-2.13-1.56-3.89-1.53.44-.91,2.32-.58,3.2-.69Z"/>
        <g>
          <path class="cls-13" d="M57.19,12.24c1.76-.03,2.6.47,3.89,1.53.14.38.61.85.35,1.11-.49-.22-.87-.55-1.32-.83-2.25-1.39-2.65-1.59-5.14-.14-.64.37-.71.8-.76.83-.31.2-1.5.4-1.81.97l.14-.83c-.31.25-.46.58-.76.83.53-.58.75-.99,1.53-1.67.31-.27,1.54-1.27,1.81-1.39.07-.03.3-.1.42-.14.52-.18,1.11-.27,1.67-.28Z"/>
          <path class="cls-3" d="M60.11,14.05l-1.39.35c1.01.03,1.87-.42,2.02.9-.76-.04-1.43.06-2.02.21-.02,0,.31.29.07.35-1.23.3-2.89.25-4.17.69.28-.74,1.11-.6,1.39-.69.33-.11.02-.38.14-.42.52-.15,1.04.49,1.46-.21-.84-.53-1.56-1.36-2.64-1.32,2.49-1.46,2.89-1.25,5.14.14Z"/>
          <path class="cls-13" d="M61.22,19.05c-1.83.74-4.82.75-6.81.56-.47-.05-1.11-.09-1.53-.28,2.77.26,5.61.24,8.34-.28Z"/>
        </g>
      </g>
      <g>
        <path class="cls-16" d="M99.58,32.95c.04.11.1.17.14.28l-.9.69c-.62-3-2.08-3.45-3.68-.83-.79,1.29-1.16,2.68-1.39,4.17-.47.31-.91.67-1.39.97-1.91-3.72-5.57-12.69,2.02-11.95,3.44.34,4.22,3.94,5.21,6.67Z"/>
        <path class="cls-16" d="M91.17,29.47c.62-.17.82.84,0,.56-.27-.09-.25-.49,0-.56Z"/>
      </g>
      <g>
        <path class="cls-15" d="M9.25,29.75c-7.01,2.63-10.92,13.93-4.66,19.18,3.24,2.71,21.3,7.61,26.4,9.03,7.14,2,22.38,8.12,21.19-4.93-.73-8.03-8.92-14-15.29-17.72,6.61,3.11,11.38,5.16,15.43,11.95.55.92,1.49,2.49,1.81,3.47.94,2.9.88,7.6-.83,10.21l-1.81,2.02c-2.95.55-5.66.06-8.55-.56-7.86-1.68-17.43-4.77-25.29-7.09-4.1-1.21-12.32-3.12-15.08-6.25C-1.96,43.91-.09,34.61,4.94,30.44c1.28-.09,3.06-1.55,4.31-.69Z"/>
        <path class="cls-15" d="M108.06,26.28c-.02.4-.09,1.13-.14,1.53-.25,1.98-.41,2.59-1.53,4.17-.1-.29-.29.25-.21-.28.18-1.09.82-3.77,1.18-4.79.11-.32.2-.73.69-.63Z"/>
        <path class="cls-15" d="M85.96,34.34c1.19,1.36,2.31,3.21,2.64,5-2.84-2.98-5.45-6.72-10.08-6.39-2.62.19-5.71,1.95-6.88,4.38-1.31,2.71-.05,4.96-.69,7.78-.15.65-2.15,5.14-2.02,2.71-1.22,2.79-4.3-1.66-4.1-2.29.02-.06.85-.75.9-.76.94-.22,1,.92,1.32,1.25-.73,2.83,2.3,2,2.22-.14,1.05-1.24,0-3.72,0-5.21-.01-6.61,8.07-10.49,13.69-7.85.52.24,2.61,1.92,2.78,1.95.53.08.2-.15.21-.42Z"/>
        <path class="cls-15" d="M85.96,39.06c-.28.74.9,1.96.69,2.57-.08.25-.59.28-.69.35-.79-.31-1.56-1.55-2.08-.28-.44-3.07-2.81-6.99-6.32-5-3.2,1.82-3.51,9.03-4.45,12.23.26-.24.59-.31.9-.42,0,.12-.11.14-.14.28-1.11.35-2.1,1.02-3.2,1.39,2.16-4,2.28-11.64,6.18-14.31s6.96-.25,9.1,3.2Z"/>
        <path class="cls-15" d="M89.85,39.76c-.18.13-.82.44-.83.49-.06.16.72,1.16.76,1.46l.21-1.95c.41-.29.83-.55,1.25-.83.03-.02.11.02.14,0l.97,3.34c-1.56.98-3.14,1.85-4.73,2.78.09-1.32-.16-2.53-.56-3.75,1.54-.78,1.83-.34,1.53-1.95-.33-1.8-1.46-3.64-2.64-5-1.89-2.17-3.76-2.83-6.39-3.82,5.24-.63,9.52,4.42,10.28,9.24Z"/>
        <path class="cls-8" d="M62.89,46.98c2.53,2.95,2.45,7.12,1.39,10.7-1.31.65-2.75,1.59-4.17,1.81.74-.78,1.55-2.84,1.81-3.89.54-2.25.49-3.32,0-5.56-.16-.73-.25-1.38-.56-2.08.41-.36.92-.69,1.39-.97.03-.02.1.02.14,0Z"/>
        <path class="cls-15" d="M70.4,50.32l-2.92,5.7c-1.07.55-2.1,1.13-3.2,1.67,1.06-3.58,1.14-7.75-1.39-10.7.5-.3.99-.63,1.46-.97.57,3.82,2.13,5.48,6.05,4.31Z"/>
        <path class="cls-15" d="M103.19,32.39c-.08,1.01-.29,2.05-.28,3.06-1.28,1.08-2.5,1.86-3.89,2.78-.05-.57.08-3.99-.35-4.17-.25-.1-.77.6-.97.56-.1-.02-.71-1.18-1.25-.97-.34.1-.55,1.72-.63,2.08-.02.09.02.19,0,.28-.14.03-.61.22-.69.28v-3.2c1.6-2.61,3.07-2.17,3.68.83l.9-.69c.03.09-.07.29.14.28-.08.72.41,1.65,0,2.43,1.56.36,1.29-2.82,1.53-3.68.01-.05.13-.4.14-.42.05-.08,1.37-.83,1.67-1.11.22.48.04,1.13,0,1.67Z"/>
        <path class="cls-15" d="M56.64,40.59c1.85.94,2.06,3.06,2.92,4.66.47.87,1.44,1.86,1.81,2.71.31.7.4,1.35.56,2.08-.34-.43-1.15-1.39-1.39-1.81-1.31-2.3-1.9-5.21-4.52-6.53-.51.37,3.39,6.1,3.68,6.81.02.04-.02.1,0,.14-.27-.02-.46.2-.69.28-.12-.76-1.32-.15-1.53-.63-.08-.19.05-.97-.14-1.39-.24-.54-1.12-1.38-1.39-1.95-.7-1.44-1.41-4.11.69-4.38Z"/>
        <path class="cls-8" d="M87.07,41.28c.4,1.22.65,2.43.56,3.75-1.52.89-3.05,1.77-4.59,2.64.51-1.54.57-2.89.69-4.45.71-.46,1.52-.77,2.22-1.25.1-.07.61-.1.69-.35.2-.61-.97-1.83-.69-2.57.43.69.86,1.44,1.11,2.22Z"/>
        <path class="cls-17" d="M73.87,48.79c-.43,1.88-1.7,3.38-2.36,5.14-1.34.71-2.68,1.39-4.03,2.08l2.92-5.7c.24-.07.26-.13.28-.14,1.1-.37,2.09-1.04,3.2-1.39Z"/>
        <path class="cls-17" d="M62.75,46.98c-.46.28-.98.62-1.39.97-.37-.85-1.34-1.84-1.81-2.71-.86-1.6-1.07-3.72-2.92-4.66,3.58-.46,4.09,4.52,6.11,6.39Z"/>
        <path class="cls-17" d="M67.06,46.01c.64.65,1.61.59,2.22-.14.08,2.13-2.95,2.97-2.22.14Z"/>
        <path class="cls-8" d="M89.99,39.76l-.21,1.95c-.05-.3-.83-1.3-.76-1.46.02-.04.66-.36.83-.49.03-.02.11.02.14,0Z"/>
        <path class="cls-8" d="M77.21,46.84l-.28,4.17c-1.81.98-3.6,1.96-5.42,2.92.66-1.76,1.93-3.26,2.36-5.14.03-.14.14-.16.14-.28.18-.07.25-.13.28-.14,1.01-.43,1.94-1.03,2.92-1.53Z"/>
        <path class="cls-17" d="M95.83,36c-.16.85-.49,4.23-.83,4.73-.32.46-2.08,1.18-2.64,1.53l-.97-3.34c.32-.21.64-.48.97-.69.48-.31.92-.66,1.39-.97s.93-.66,1.39-.97c.09-.06.55-.25.69-.28Z"/>
        <path class="cls-8" d="M98.47,38.64c-1.13.73-2.25,1.51-3.47,2.08.35-.5.67-3.87.83-4.73.02-.09-.02-.19,0-.28l1.95-.9.69,3.82Z"/>
        <path class="cls-8" d="M81.51,45.59c.07.02.4.26.42.28.23.31.31,1.78.28,2.22-1.11.62-2.23,1.2-3.34,1.81l.42-4.31c.22-.04,2.05-.05,2.22,0Z"/>
        <path class="cls-17" d="M78.87,49.9c-.65.36-1.28.75-1.95,1.11l.28-4.17s.31-.37.42-.42c.3-.15,1.44-.81,1.53-.83.04-.01.09,0,.14,0l-.42,4.31Z"/>
        <path class="cls-17" d="M99.03,38.23c-.15.1-.28.24-.56.42l-.69-3.82-1.95.9c.07-.37.28-1.98.63-2.08.54-.21,1.15.95,1.25.97.21.05.72-.66.97-.56.43.18.3,3.6.35,4.17Z"/>
        <path class="cls-8" d="M104.86,33.64c-.7.73-1.18,1.16-1.95,1.81-.01-1.01.19-2.04.28-3.06l1.18-1.95c.79.91.34,2.13.49,3.2Z"/>
        <path class="cls-17" d="M83.04,47.68c-.27.15-.56.27-.83.42.03-.44-.05-1.91-.28-2.22.77-1.88.19-1.58,1.81-2.64-.13,1.56-.18,2.91-.69,4.45Z"/>
        <path class="cls-15" d="M61.92,50.04c.49,2.24.54,3.31,0,5.56-.5.21-.92,1.41-1.46,1.53-1.82.41.07-1.43.21-2.29.29-1.73-.33-4.54-.97-6.18-.02-.04.02-.1,0-.14l.83-.28c.24.41,1.05,1.38,1.39,1.81Z"/>
        <g>
          <path class="cls-17" d="M59.7,48.65c.64,1.65,1.26,4.45.97,6.18-.14.86-2.02,2.7-.21,2.29.54-.12.96-1.32,1.46-1.53-.25,1.05-1.07,3.11-1.81,3.89-.91.97-7,3.17-8.62,3.47l1.81-2.02c1.71-2.61,1.77-7.31.83-10.21,1.68-.61,3.17-1.25,4.86-1.81.23-.08.43-.3.69-.28Z"/>
          <path class="cls-8" d="M57.54,51.29c1,.77,1.35,5.9-.42,5.42l-.14-.28c1.29-1.25.33-3.51.56-5.14Z"/>
        </g>
        <path class="cls-17" d="M85.96,41.98c-.7.48-1.52.79-2.22,1.25.05-.56-.1-.96.14-1.53.53-1.28,1.29-.03,2.08.28Z"/>
        <path class="cls-8" d="M101.39,32.25c-.24.87.04,4.05-1.53,3.68.41-.78-.08-1.71,0-2.43.07-.67.87-1.26,1.53-1.25Z"/>
        <path class="cls-15" d="M95.13,36.28c-.46.31-.92.66-1.39.97.23-1.49.6-2.88,1.39-4.17v3.2Z"/>
        <path class="cls-16" d="M60.53,48.23l-.83.28c-.29-.71-4.19-6.44-3.68-6.81,2.61,1.32,3.21,4.23,4.52,6.53Z"/>
        <path class="cls-15" d="M81.51,45.59c-.17-.05-2-.04-2.22,0-.04,0-.1-.01-.14,0-.35-2.02-1.4-.13-1.53.83-.1.05-.39.4-.42.42-.98.5-1.91,1.1-2.92,1.53.23-5.22,7.35-13.13,7.23-2.78Z"/>
        <path class="cls-16" d="M79.15,45.59c-.08.02-1.23.69-1.53.83.13-.97,1.18-2.85,1.53-.83Z"/>
        <g>
          <path class="cls-1" d="M83.88,41.7c-.24.57-.09.97-.14,1.53-1.62,1.06-1.04.76-1.81,2.64-.01-.02-.35-.26-.42-.28.13-10.35-7-2.44-7.23,2.78-.03.01-.09.07-.28.14-.31.11-.65.18-.9.42.94-3.2,1.24-10.41,4.45-12.23,3.51-1.99,5.88,1.94,6.32,5Z"/>
          <path class="cls-15" d="M78.8,38.37c1.63-.19,3.34.12,4.1,1.74,1.47,3.15-1.58-.66-1.74-.76-1.14-.76-3.33-.44-4.31.56-.33-1.11,1.22-1.44,1.95-1.53Z"/>
        </g>
        <g>
          <path class="cls-9" d="M36.9,35.31c6.37,3.72,14.56,9.69,15.29,17.72,1.19,13.06-14.05,6.93-21.19,4.93-5.1-1.43-23.17-6.32-26.4-9.03-6.26-5.25-2.35-16.55,4.66-19.18,9.18-3.45,19.53,1.73,27.66,5.56Z"/>
          <g>
            <path class="cls-6" d="M7.44,33.64c-1.1,1.03-2.91,3.98-2.22,5.42-1.81,4.28.48,8.51,5,9.1-.27-.2-.55-.3-.83-.49.62-.35,1.21-.72,1.81-1.11.79-.51,1.52-1.12,2.36-1.53.57-.28,1.58-.34,1.81-.42-.37.15-.36.35.07.28,4.05-.71,6.03-1.07,9.8.97l-.56.07c2.29,2.19,4.44,4.32,7.85,4.38l-.07-.42c2.25.53,4.86.82,6.39-1.32,3.29-4.58-3.67-8.48-6.67-10.77.22-.57,1.38.79,1.6.83.36.08.44-.43,1.11-.14.14.06,1.93,1.68,2.22,1.95,2.02,1.82,3.62,3.95,4.79,6.39-.01.17-.1.67-.14.83-1,4.2-9.62,4.01-12.72,2.78-1.65-.66-3.18-2.6-5.07-2.92-4.44-3.09-6.28-3.66-11.05-.28l-1.39.28c1.31.51,2.52-.77,3.82-.83-.57.36-2.98,2.21-3.06,2.78l.07.28c4.81,1.25,9.59,2.6,14.38,3.89,4.89,1.32,16.45,5.72,20.15.49,2.16-3.06.3-6.72-1.81-9.24-.18-.22-1.91-2.23-2.08-1.88,5.06,6.35,1.19,11.6-6.39,10.56,1.02-.3,2.02-1.04,2.78-1.46,1.48-.81,3.4-1.28,3.75-3.27.8-4.53-4.62-9.53-8.2-11.47-.13-.27.33-.15.35-.14.85.35.99,1.24,1.6,0,2.63,1.48,5.55,3.17,7.57,5.28l-.49-.21c3.84,2.98,7.04,7.08,6.39,12.23-.43,3.42-3.25,5.92-6.74,5.49-10.46-3.8-23.61-5.48-33.63-10.01-7.86-3.55-9.04-10.79-2.71-16.68l.14.28Z"/>
            <path class="cls-6" d="M36.9,37.25c-.61,1.24-.74.35-1.6,0-.02,0-.48-.13-.35.14-.37-.2-4.02-1.92-4.17-1.6,2.94,1.68,6.14,3.64,8.55,6.05,1.6,1.6,2.75,2.57,2.57,5-1.18-2.44-2.78-4.57-4.79-6.39-.3-.27-2.09-1.89-2.22-1.95-.67-.29-.75.22-1.11.14-.22-.05-1.38-1.4-1.6-.83-.62-.3-1.18-.69-1.81-.97-.48-1.06-4.07-2.23-1.39-2.57-5.32-2.03-16.96-4.91-21.54-.63l-.14-.28c7.22-6.71,22.24-.25,29.6,3.89Z"/>
            <path class="cls-6" d="M30.37,36.84c-.28-.13-.66-.45-.97-.35.38.3.83.51,1.25.76,1.79,2.15,7.15,6.81,6.39,9.8-.73,2.88-7.22.59-8.89-.21-2.57-1.23-4.5-3.47-7.64-3.47,3.68-.02,5.21,1.1,8.34,2.64,2.26,1.11,5.22,3.68,7.09.14,1.11-2.1-.48-2.73-1.95-3.89-1.87-1.48-4.45-2.74-6.18-4.17-2.71-2.24-2.25-4.06-6.39-4.73-5.58-.89-13.67-.28-16.19,5.7-.69-1.44,1.12-4.39,2.22-5.42,4.58-4.29,16.22-1.41,21.54.63-2.68.34.91,1.51,1.39,2.57Z"/>
            <path class="cls-11" d="M33.99,42.26c1.46,1.16,3.05,1.79,1.95,3.89-1.97-2.51-4.85-4.25-7.57-5.84-5.9-3.42-12.27-7.12-18.55-2.22-1,.78-1.61,1.52-1.95,2.78-.78,2.96,0,5.43,3.34,5.7-.6.39-1.19.76-1.81,1.11-6.34-4.12-3.29-11.41,3.13-12.92,10.38-2.45,12.95,4.1,20.85,7.5.17.07.55.29.63,0Z"/>
            <path class="cls-11" d="M45.1,44.9c1.57,3.86,1.8,7.48-2.71,9.17-3.64,1.37-13.28.37-16.33-2.08-.59-.47-1.67-1.54-2.08-2.15-1.55-2.31-.58-3.46-4.45-3.13-2.69.23-4.85,1.65-7.23,2.78.08-.57,2.49-2.42,3.06-2.78,6.55-4.11,8.8,3.47,14.52,5.42,2.89.98,6.56.45,9.52,0-.76.42-1.76,1.16-2.78,1.46,7.59,1.04,11.46-4.22,6.39-10.56.18-.36,1.9,1.66,2.08,1.88Z"/>
            <path class="cls-16" d="M33.99,42.26c-.07.29-.46.07-.63,0-7.9-3.41-10.46-9.95-20.85-7.5-6.42,1.51-9.47,8.81-3.13,12.92.28.18.57.29.83.49-4.53-.59-6.81-4.82-5-9.1,2.52-5.97,10.61-6.59,16.19-5.7,4.14.66,3.68,2.48,6.39,4.73,1.73,1.43,4.32,2.69,6.18,4.17Z"/>
            <path class="cls-16" d="M26.76,53.65c-.21-.46-.64-1.01-.97-1.39l.28-.28c3.05,2.45,12.69,3.46,16.33,2.08,4.51-1.7,4.28-5.31,2.71-9.17,2.11,2.52,3.97,6.19,1.81,9.24-3.7,5.24-15.26.84-20.15-.49Z"/>
            <path class="cls-12" d="M34.96,37.39c3.58,1.94,9,6.94,8.2,11.47-.35,1.98-2.28,2.45-3.75,3.27-2.96.45-6.63.98-9.52,0-5.72-1.95-7.97-9.53-14.52-5.42-1.3.07-2.51,1.35-3.82.83l1.39-.28c4.77-3.38,6.61-2.81,11.05.28,1.25.87,4.27,3.64,5.63,4.03,1.73.5,8.14.94,9.73.28.15-.06,2.37-1.87,2.43-2.02.23-.55.23-1.6,0-2.15.04-.17.13-.66.14-.83.18-2.43-.97-3.4-2.57-5-2.4-2.41-5.61-4.36-8.55-6.05.15-.32,3.8,1.4,4.17,1.6Z"/>
            <path class="cls-16" d="M30.37,36.84c.62.29,1.19.67,1.81.97,3,2.29,9.96,6.19,6.67,10.77-1.54,2.14-4.14,1.85-6.39,1.32-3.5-.82-4.41-2.51-7.23-4.03-3.77-2.04-5.75-1.68-9.8-.97-.43.08-.44-.12-.07-.28,2.33-.84,2.29-1.24,5.14-1.25,3.14,0,5.07,2.25,7.64,3.47,2.4,1.81,6.67,4.92,9.31,1.74,3.46-4.19-3.74-9.48-6.81-11.33-.42-.25-.87-.46-1.25-.76.31-.1.69.22.97.35Z"/>
            <path class="cls-11" d="M41.77,47.68c.23.56.23,1.61,0,2.15-.06.15-2.29,1.95-2.43,2.02-1.58.66-8,.22-9.73-.28-1.36-.39-4.38-3.16-5.63-4.03,1.9.32,3.42,2.26,5.07,2.92,3.1,1.23,11.72,1.42,12.72-2.78Z"/>
            <path class="cls-11" d="M28.84,46.01c-3.13-1.54-4.66-2.66-8.34-2.64-2.86.02-2.81.41-5.14,1.25-.22.08-1.23.14-1.81.42,4.62-4.59,11.06-3.53,15.29.97Z"/>
            <path class="cls-11" d="M25.23,45.87c2.82,1.52,3.73,3.21,7.23,4.03l.07.42c-3.42-.06-5.56-2.18-7.85-4.38l.56-.07Z"/>
            <path class="cls-11" d="M7.86,40.87c.33-1.25.94-2,1.95-2.78,1.39-.6,12.21,2.42,12.23,3.13l-13.27,1.6-.9-1.95Z"/>
            <g>
              <path class="cls-10" d="M35.93,46.15c-1.87,3.54-4.83.98-7.09-.14-4.23-4.5-10.67-5.56-15.29-.97-.85.41-1.58,1.02-2.36,1.53-3.34-.27-4.12-2.74-3.34-5.7l.9,1.95,13.27-1.6c-.02-.71-10.84-3.73-12.23-3.13,6.29-4.89,12.65-1.2,18.55,2.22,2.73,1.58,5.61,3.33,7.57,5.84Z"/>
              <path class="cls-11" d="M18.77,36.14c3.45,1.03,6.18,3.47,8.96,5.63-.24.47-8.63-4.24-9.03-5.28-.06-.16-.25-.09.07-.35Z"/>
            </g>
            <path class="cls-11" d="M28.15,46.84c1.68.8,8.17,3.09,8.89.21.75-2.99-4.6-7.64-6.39-9.8,3.07,1.84,10.27,7.14,6.81,11.33-2.64,3.19-6.91.07-9.31-1.74Z"/>
            <path class="cls-16" d="M26.06,51.99l-.28.28c-.61-.71-1.31-1.4-1.95-2.08-.36-1.09-.86-1.27-1.67-1.81-.77-.77-1.4-1.5-2.64-1.53v-.14c3.87-.34,2.89.82,4.45,3.13.42.62,1.5,1.68,2.08,2.15Z"/>
            <g>
              <path class="cls-10" d="M19.53,46.7v.14c-1.31-.03-2.83,1.05-3.89,1.74,2,1.62,2.44-1.06,4.24-1.18.87-.06,1.61.51,2.29.97.57.56,1.12,1.22,1.67,1.81.64.68,1.33,1.38,1.95,2.08.33.38.77.93.97,1.39-4.79-1.29-9.58-2.64-14.38-3.89l-.07-.28c2.38-1.13,4.54-2.55,7.23-2.78Z"/>
              <path class="cls-11" d="M19.53,46.84c1.24.03,1.87.76,2.64,1.53-.69-.46-1.42-1.03-2.29-.97-1.8.13-2.24,2.8-4.24,1.18,1.06-.69,2.58-1.77,3.89-1.74Z"/>
              <path class="cls-11" d="M18.91,50.04c.65.28,4.32.62,4.1,1.6-.17.77-4.05-.69-4.1-1.6Z"/>
              <path class="cls-11" d="M23.84,50.18c-.55-.59-1.1-1.24-1.67-1.81.81.54,1.31.72,1.67,1.81Z"/>
            </g>
          </g>
        </g>
      </g>
    </g>
  </g>
</svg>