<?xml version="1.0" encoding="UTF-8"?>
<svg id="_레이어_2" data-name="레이어 2" xmlns="http://www.w3.org/2000/svg" width="144.96" height="46.44" viewBox="0 0 144.96 46.44">
  <defs>
    <style>
      .cls-1 {
        fill: #b0cbe1;
      }

      .cls-2 {
        fill: #296da8;
      }

      .cls-3 {
        fill: #fff;
      }

      .cls-4 {
        fill: #e4f6fe;
      }

      .cls-5 {
        fill: #6094bd;
      }

      .cls-6 {
        fill: #2e7fbf;
      }

      .cls-7 {
        fill: #234f7a;
      }

      .cls-8 {
        fill: #c5e0f5;
      }

      .cls-9 {
        fill: #292c27;
      }
    </style>
  </defs>
  <g id="_레이어_1-2" data-name="레이어 1">
    <g id="_생성형_개체" data-name="생성형 개체">
      <path class="cls-7" d="M91.12,35.05c1.44,3.22,4.6,5.25,7.4,7.21-4.35-1-8.49-3.04-11.96-5.82.7-.2,4.11-1.77,4.55-1.39Z"/>
      <g>
        <path class="cls-2" d="M64.68,9.49c.06.5-.1.35-.44.38-.79.07-4.36-.15-4.68,0-.07.03-.3.54-.13.63,14.22.14,28.09,3.04,41.75,6.58,1.74.45,5.55,1.95,7.09,2.02.19,0,.58.08.38-.25l-4.55-1.27c-.35-.13-.03-.47-.13-.51-6.93-2.5-15.56-4.67-22.84-5.82l.51-1.52c.92.18,2.22.21,3.04.38.45.1.94.15,1.39.25l-.06.25c1.65.09,3.42.66,5.12,1.01.26.06.83.51,1.27.51l19.93,6.07c2.86.75,5.76,1.17,8.67,1.64.26.04.33,0,.38,0,1.75.28,5.1.46,6.52.89.33.1.6.3.82.57,0,.28-.12.07-.38.06-4.96-.12-10.23.39-15.31.38.07-.54-.14-.32-.44-.38-25.21-5.2-52.12-10.98-77.81-6.2-.93.17-1.82.35-2.72.63-2.78.87-5.79,3.82-8.79,3.16-.45-.1-.91-.78-1.27-.89-1.7-.51-5.97.33-7.78.76-.64-.35.39-.73.7-.89,13.15-6.49,35.23-9.17,49.79-8.48Z"/>
        <path class="cls-7" d="M65.82,7.34c.1,0,.24.11.51.13,1,.07,2.04.16,3.04.25.31.03.59.1.89.13.46.05.93.07,1.39.13,3.48.39,6.63,1.12,10,1.77l-.51,1.52c-5.4-.86-10.99-1.51-16.45-1.77-14.55-.69-36.64,1.99-49.79,8.48-.31.15-1.34.53-.7.89-2.9.68-6.26,2.17-8.41,4.3-1.03,1.01-.32,1.32.19,2.28.15.28.22.51.51.7-.06.46-1.88-1.01-2.28-.44-1.4-.6-4.71-1.13-3.29-3.48.8-1.32,10.28-5.71,12.21-6.52,10.38-4.32,23.63-7.51,34.86-8.35,5.75-.43,12.08-.36,17.84,0Z"/>
        <path class="cls-6" d="M113.01,21.76c-2.99,0-6-.03-8.98-.13-8.28-.26-16.58-1.09-24.86-1.39-14.27-.52-28.7-.63-42.83,1.52-.42-1.15-1.67-3.18-2.53-4.05l-1.77-1.9c.9-.28,1.79-.46,2.72-.63,25.69-4.78,52.61,1,77.81,6.2.3.06.51-.16.44.38Z"/>
        <path class="cls-5" d="M81.13,11.26c7.28,1.15,15.9,3.32,22.84,5.82.09.03-.22.38.13.51l4.55,1.27c.2.33-.19.26-.38.25-1.54-.07-5.34-1.57-7.09-2.02-13.66-3.54-27.54-6.44-41.75-6.58-.17-.1.06-.6.13-.63.32-.15,3.89.07,4.68,0,.35-.03.5.12.44-.38,5.46.26,11.05.92,16.45,1.77Z"/>
      </g>
      <g>
        <path class="cls-7" d="M123.26,24.55c1.62-.31,4.85.03,5.57-1.64.43-1.01.08-.71-.51-1.52.25,0,.38.22.38-.06-.22-.27-.49-.47-.82-.57-1.42-.43-4.76-.61-6.52-.89,6.77-6.68,14.34-13.16,23.53-16.13-3.05,3.84-6.59,7.81-9.11,12.02-3.37,5.62-2.96,6.5.51,11.89,2.51,3.9,5.76,7.35,8.67,10.94-7.36-2.07-14.17-6.62-19.74-11.77-.63-.58-1.74-1.52-1.96-2.28Z"/>
        <path class="cls-7" d="M120.98,19.86c-2.9-.48-5.81-.89-8.67-1.64l-19.93-6.07c.62-.01,3.67-1.92,3.99-1.77-.38.58.82,2.82,1.27,2.91s2.66-1.42,3.42-1.27c-.17.58.98,2.72,1.39,2.78.27.04,2.71-1.48,3.29-1.14.13.07.8,2.44,1.39,2.53.27.04,2.61-1.43,3.29-1.14.13.06,1,2.41,1.39,2.53.25.07,2.42-1.13,3.29-.76.12.05,1,2.08,1.39,2.15.17.03,2.23-.86,3.04-.63.41.12.94,1.32,1.46,1.52Z"/>
        <path class="cls-7" d="M91.12,11.64c-1.7-.35-3.47-.92-5.12-1.01l.06-.25c3.45-3.75,7.76-6.36,12.59-7.97-3.12,2.47-6.59,5.14-7.53,9.24Z"/>
        <g>
          <path class="cls-7" d="M84.67,10.12c-.82-.17-2.12-.2-3.04-.38-3.36-.65-6.52-1.38-10-1.77.91-.1,1.18-.43,1.77-1.08-1.53-.57-2.53-.82-3.16.95-.29-.03-.58-.1-.89-.13.37-.76.93-1.25,1.64-1.64.97.28,2.15.35,3.1.63,3.54,1.06,6.84,2.98,10.56,3.42Z"/>
          <path class="cls-7" d="M71.64,7.97c-.46-.05-.93-.08-1.39-.13.63-1.77,1.64-1.51,3.16-.95-.59.65-.86.98-1.77,1.08Z"/>
          <g>
            <path class="cls-7" d="M58.23,2.66l.82-.51-.32.57c.41.08.81.33,1.2.44.6.17,1.85.08,2.02.13.1.02-.16.3.13.38.77.2,1.52.43,2.28.63.2.06.26-.27.51-.25.1,0-.16.3.13.38,2.01.54,4.01,1.07,6.01,1.64-.72.4-1.27.89-1.64,1.64-1-.09-2.04-.19-3.04-.25l1.64-1.83c-.67-.85-1.86,1.06-2.15,1.71-5.76-.36-12.09-.43-17.84,0,.94-1.93,1.99-3.83,3.42-5.44,1.31-1.48,1.31-2.11,3.04-.32-1.1,1.18-2.52,2.9-3.04,4.43-.08.22-.31.77-.06.95.97-.32,3.61-5.08,3.92-5.19.19-.07,2.15.95,2.59.95-.51.12-2.88,4.06-2.59,4.24.63.4,2.94-3.51,3.35-3.99-.12-.11-.25-.22-.38-.32Z"/>
            <path class="cls-7" d="M58.23,2.66c.13.1.26.2.38.32-.41.48-2.72,4.39-3.35,3.99-.29-.18,2.08-4.12,2.59-4.24-.44,0-2.4-1.01-2.59-.95-.31.1-2.95,4.87-3.92,5.19-.24-.18-.01-.73.06-.95.52-1.53,1.94-3.25,3.04-4.43-1.73-1.79-1.73-1.16-3.04.32.03-.33,1.34-1.89,1.46-1.9.41-.03,1.95,2.26,3.04.63-1.24,1.49,1.47,1.35,2.34,2.02Z"/>
            <path class="cls-7" d="M66.32,7.47c-.26-.02-.41-.12-.51-.13.29-.65,1.48-2.56,2.15-1.71l-1.64,1.83Z"/>
            <path class="cls-7" d="M61.2,3.67c.12-.02.36-.03.44.06.14.15-1.94,3.23-2.47,3.23-.64-.14,1.28-3.15,2.02-3.29Z"/>
            <path class="cls-7" d="M64.24,4.43c1.19-.15-1.41,2.82-1.64,2.66-.28-.6,1.24-2.61,1.64-2.66Z"/>
          </g>
        </g>
      </g>
      <g>
        <path class="cls-6" d="M51.65,42.01c.32.12,1.97.63,2.02.82.08.3-.44,2.94-.19,3.61-2.17-.57-4.06-1.74-5.76-3.16-.32-.48.53-.34.51-.57,0-.08-1-1.01.51-.57.22.15.42.51.76.32-.27-.22-.47-.23-.76-.32-.28-.19-1-.67-1.08-1.01.93.1,1.81.72,2.66,1.01.14.05.26-.2.51-.13.04.01.17.42.63.51.89.16-.08-.1.19-.51Z"/>
        <path class="cls-6" d="M54.3,40.61c1.81.19,3.87.84,5.76.89-2.62,1.33-7.34.3-10.19-.38-.26-.06-1.8-.18-.89-.76,1.78.06,3.54.07,5.31.25Z"/>
        <path class="cls-2" d="M48.99,40.36c-.91.58.63.7.89.76.31.51,1.24.69,1.77.89-.27.4.7.67-.19.51-.46-.09-.59-.49-.63-.51-.25-.08-.37.17-.51.13-.85-.29-1.72-.91-2.66-1.01.08.34.8.82,1.08,1.01-1.51-.44-.51.49-.51.57.02.23-.82.09-.51.57-.74-.63-2.33-2.62-2.78-2.91,1.33-.25,2.71-.04,4.05,0Z"/>
        <path class="cls-2" d="M48.74,42.13c.29.08.49.09.76.32-.34.2-.54-.17-.76-.32Z"/>
      </g>
      <g>
        <path class="cls-1" d="M128.83,22.9c-.72,1.68-3.95,1.34-5.57,1.64-.81.15-5.13.92-5.5,1.14-.46.28-.53,1.2-.82,1.58-1.02,1.3-2.62.09-3.8-.06l-.32-.38.19-.06c-2.21.45-4.6,1.16-6.77,1.96-4.02,1.48-8.69,3.47-12.65,5.19-.3.13-.6.11-.32.51-.59-.18-1.75.04-2.15.63-.44-.38-3.85,1.19-4.55,1.39-6.86,1.92-14.33,3.16-21.45,3.67-3.59.26-7.32.05-10.82.51-1.78-.19-3.53-.19-5.31-.25-1.34-.04-2.72-.25-4.05,0-.12-.08-.23-.13-.32-.25-4.15-.09-8.24-.73-12.34-1.27.66-.38,1.22-1.28,1.64-1.9.84-.38.34-.76,1.46-.76,3.77,0,9.08,1.26,13.16,1.52,8.59.54,17.44.3,25.94-1.01,17.62-2.73,32.62-12.21,50.61-13.54,1.13-.08,2.94.34,3.61-.51,0,.12-.05.26.13.25Z"/>
        <path class="cls-8" d="M128.32,21.38c.58.81.94.51.51,1.52-.18,0-.12-.13-.13-.25-.07-.88-.37-.65-1.2-.63-5.02.13-19.35,2.23-23.41.13-.4-.21-.44-.22-.06-.51,2.98.09,6,.12,8.98.13,5.08.01,10.35-.5,15.31-.38Z"/>
        <g>
          <path class="cls-8" d="M104.03,21.64c-.37.29-.34.3.06.51,4.05,2.1,18.39,0,23.41-.13.84-.02,1.13-.25,1.2.63-.67.84-2.48.42-3.61.51-17.99,1.33-32.99,10.81-50.61,13.54-8.5,1.32-17.35,1.55-25.94,1.01-4.08-.26-9.39-1.51-13.16-1.52-1.12,0-.61.38-1.46.76,2.99-4.42,4.3-10.02,2.4-15.18,14.12-2.15,28.56-2.04,42.83-1.52,8.28.3,16.58,1.13,24.86,1.39Z"/>
          <path class="cls-7" d="M51.58,21.76c3.98-.05,8.16.44,11.83,1.96-2.39.47-4.82.88-7.15,1.58-2.53.76-8.77,4.14-10.5,4.3-2.04.19-1.74-1.42-2.59-2.59-1.11-1.54-2.87-2.07-4.68-2.28,3.73-2.22,8.77-2.92,13.1-2.97Z"/>
        </g>
        <g>
          <path class="cls-7" d="M33.81,17.71c.86.87,2.11,2.9,2.53,4.05,1.9,5.17.59,10.76-2.4,15.18-.42.62-.99,1.52-1.64,1.9-1.09-.14-2.2-.22-3.29-.38,7.23-4.17,9.88-14.57,4.18-21.07,0-.35.61.29.63.32Z"/>
          <g>
            <path class="cls-8" d="M33.81,17.71s-.63-.66-.63-.32c5.71,6.49,3.06,16.9-4.18,21.07-7.24-1.08-13.95-2.63-20.69-5.57-1.26-.55-7.84-3.71-8.16-4.62-.96-2.7,2.94-.48,3.86-.32.62.11,1.47.2,2.09.13,2.91.44,5.45.65,7.97,2.34l-8.1-5c-.51-.95-1.22-1.26-.19-2.28,2.16-2.13,5.52-3.62,8.41-4.3,1.82-.43,6.08-1.27,7.78-.76.36.11.82.79,1.27.89,3.01.66,6.02-2.29,8.79-3.16l1.77,1.9Z"/>
            <path class="cls-7" d="M5.97,25.43l8.1,5c-2.52-1.69-5.06-1.9-7.97-2.34.51-.06,1.52-.32,1.52-.95-.07-.23-2.96-1.26-3.42-1.46.4-.57,2.21.91,2.28.44-.29-.19-.36-.42-.51-.7Z"/>
            <path class="cls-5" d="M28.43,21.89c4.07,7.19.24,13.56-8.22,11.89,8.25.51,11.09-4.43,8.22-11.89Z"/>
            <g>
              <path class="cls-5" d="M14.13,19.11c3.88-.18,5.07,5.56,1.39,6.71-5.4,1.68-6.46-6.47-1.39-6.71Z"/>
              <g>
                <path class="cls-4" d="M14.01,19.74c3.79-.22,4.14,5.37.76,5.82-4.3.58-4.47-5.61-.76-5.82Z"/>
                <g>
                  <path class="cls-9" d="M13.75,20.75c2.91-.52,3.26,3.41,1.01,3.8-2.71.46-3.34-3.38-1.01-3.8Z"/>
                  <path class="cls-3" d="M13.5,21.76c.46-.07.58.82.13.89s-.58-.82-.13-.89Z"/>
                </g>
              </g>
            </g>
          </g>
        </g>
      </g>
    </g>
  </g>
</svg>