<?xml version="1.0" encoding="UTF-8"?>
<svg id="_레이어_2" data-name="레이어 2" xmlns="http://www.w3.org/2000/svg" viewBox="0 0 59.12 97.9">
  <defs>
    <style>
      .cls-1 {
        fill: #dbe7f1;
      }

      .cls-2 {
        fill: #4a89b7;
      }

      .cls-3 {
        fill: #366590;
      }

      .cls-4 {
        fill: #fff;
      }

      .cls-5 {
        fill: #a1cbeb;
      }

      .cls-6 {
        fill: #80bde0;
      }

      .cls-7 {
        fill: #3d77a5;
      }

      .cls-8 {
        fill: #e1e1df;
      }

      .cls-9 {
        fill: #5ea3d5;
      }
    </style>
  </defs>
  <g id="_레이어_1-2" data-name="레이어 1">
    <g id="_생성형_개체" data-name="생성형 개체">
      <path class="cls-5" d="M48.26,5.65l10.49,13.64c-.1.65-3.43.2-4.03.2-12.51-.06-25.01.6-37.5.67.02-.16-.26-.25-.27-.27-1.25-2.74-7.49-9.48-7.66-11.56,12.97-1.09,25.94-2.58,38.98-2.69Z"/>
      <path class="cls-9" d="M48.12,0c.5,1.31-.1,4.16.13,5.65-13.05.11-26.02,1.6-38.98,2.69-.15-1.74.33-4.85,0-6.32.22,0,.45.01.67,0,12.72-.68,25.46-1.3,38.18-2.02Z"/>
      <path class="cls-1" d="M54.71,19.49v.54c-8.47.4-16.93.68-25.41.94-3.67.11-7.38,0-11.02.47.17,9.58.23,19.18.13,28.77-.07,6.67.09,13.82-.27,20.43-.03.56-.07,2.68-.4,2.49-.74-17.64-.15-35.31-.54-52.96,12.5-.07,25-.73,37.5-.67Z"/>
      <g>
        <path class="cls-6" d="M59.01,89.53c-.01.98.05,1.98,0,2.96-1.62-.38-3.33-.81-4.91-1.34s-5.21-2.41-6.52-2.55l7.8-.6v-43.02c-.14-.36-1.83.18-2.22.2-8.27.35-15.7-3.96-23.73-1.61l-.13-22.58c8.48-.26,16.94-.54,25.41-.94.63-.03,4.1-.52,4.3-.07-.26,23.18.34,46.39,0,69.56Z"/>
        <path class="cls-9" d="M29.3,20.97l.13,22.58c-3.06.89-6.21,3.12-8.07,5.71v41.13c2.7.05,5.38-.3,8.07-.47v6.99c-3.22.26-8.91,1.19-11.83.94l-.13-24.4.27-.34c.33.19.37-1.92.4-2.49.36-6.61.2-13.77.27-20.43.1-9.58.03-19.19-.13-28.77,3.64-.46,7.35-.36,11.02-.47Z"/>
        <path class="cls-6" d="M47.59,88.59c1.31.15,4.94,2.02,6.52,2.55s3.29.97,4.91,1.34c-.02.36.14,1.73-.2,1.88-9.81.61-19.58,1.77-29.37,2.55v-6.99c5.33-.34,12.39-1.47,17.48-1.34.22,0,.46-.02.67,0Z"/>
      </g>
      <g>
        <g>
          <path class="cls-2" d="M16.94,19.89s.29.1.27.27c.39,17.65-.2,35.33.54,52.96l-.27.34.13,24.4c-2.09-.18-15.62-3.82-17.61-4.7V20.63l2.69-3.43c-.31.46-2.12,2.84-2.15,3.02-.02.12-.03.4.07.47,3.83.07,7.73.34,11.56.13.7-.04,3.85-.23,4.3-.4.03-.01.33-.51.47-.54Z"/>
          <path class="cls-8" d="M8.27,42.34c2.98-.28,5.43,1.67,7.59,3.43l-.07,44.56-12.97-4.1v-40.19c1.21-1.69,3.3-3.5,5.44-3.7Z"/>
        </g>
        <g>
          <path class="cls-7" d="M9.28,2.02c.33,1.47-.15,4.58,0,6.32.18,2.08,6.41,8.82,7.66,11.56-.14.03-.44.53-.47.54-.45.17-3.6.37-4.3.4-3.83.2-7.73-.06-11.56-.13-.1-.07-.09-.35-.07-.47.03-.18,1.84-2.56,2.15-3.02,1.93-2.89,4.03-5.67,6.18-8.4-.6-2.3-.11-5.07-.27-7.53.17-.02.66.67.67.74Z"/>
          <path class="cls-3" d="M10.55,15.06c1.09-.15,5.65,4.64,5.38,5.11l-13.24-.07,7.86-5.04Z"/>
        </g>
      </g>
      <g>
        <path class="cls-4" d="M47.59,88.59c-.22-.02-.45,0-.67,0l.47-.27c-4.5-2.66-9.14-6.79-11.76-11.36-1.28-2.23-6.04-15.44-6.32-17.88-.53-4.6.16-10.76.13-15.53,8.02-2.35,15.46,1.97,23.73,1.61.39-.02,2.08-.56,2.22-.2v43.02l-7.8.6Z"/>
        <path class="cls-4" d="M46.91,88.59c-5.09-.13-12.15,1-17.48,1.34-2.68.17-5.37.52-8.07.47v-41.13c1.85-2.59,5.01-4.82,8.07-5.71.03,4.76-.66,10.93-.13,15.53.28,2.44,5.04,15.65,6.32,17.88,2.63,4.57,7.26,8.7,11.76,11.36l-.47.27Z"/>
      </g>
    </g>
  </g>
</svg>