<?xml version="1.0" encoding="UTF-8"?>
<svg viewBox="0 0 76.78 107.79" xmlns="http://www.w3.org/2000/svg">
  <defs>
    <style>
      .cls-1 { fill: #286834; }
      .cls-2 { fill: #fcac48; }
      .cls-3 { fill: #dc5c0e; }
      .cls-4 { fill: #eb8328; }
      .cls-5 { fill: #eec3a7; }
      .cls-6 { fill: #71280d; }
      .cls-7 { fill: #fddcb8; }
    </style>
  </defs>
  <g>
    <path class="cls-2" d="M34.76,22.8c.17.46,3.82,3.68,4.24,3.74,1.01.15,2.64-1.35,3.52-1.58.2-.05.57-.17.72.07.16,8.68,9.21,11.36,15.39,15.17l-1.15,1.44c-1.64-1.12-3.37-2.25-5.18-3.09,6.44,4.18,12.42,8.9,16.54,15.46.74,4.81-.18,9.89-2.59,14.09-.29-4.63-2.17-9.8-4.6-13.74-5.06-8.21-14.11-13.26-18.41-22,2.49,7.28,9.15,11.89,13.95,17.55,4.77,5.62,8.07,12.26,8.2,19.78-.05.16-.1.21-.14.43-3.13,4.8-7.31,8.97-12.37,11.72.96-7.41.87-15-.86-22.29-2.49-10.46-9.12-19.28-11.29-29.84.53,8.72,5.74,16.07,8.56,24.09,3.23,9.21,4.16,19.19,2.44,28.84-2.53,1-4.88,2.37-7.55,3.16-.67.2-4.93,1.35-5.11.93-.5-16.9.67-34.2,0-51.06-.07-1.84-.29-3.71-.5-5.54-.19,1.73-.43,3.51-.5,5.25-.72,16.85,0,34.74,0,51.7-1.6.12-3.43.62-5.11.72-1.93.11-3.89-.08-5.82,0,0,0-.08.06-.14-.14-2.93-9.69-3.09-19.5-.72-29.34.07-.07.21-.36.29-.43,2.24-2.3,4.72-5.95,5.75-8.99.43-1.27,1.46-4.49,0-5.25,1.78-4.44,3.7-8.94,3.96-13.81-1.07,4.75-2.72,9.29-4.82,13.66-.05,0-.1,0-.14,0-1.96-.12-4.61.67-6.47,1.29,3.42-3.89,7.68-7.6,8.99-12.8-2.14,5.36-6.72,9.12-10.57,13.23-.2.09-.39.16-.58.29-5.57.9-11.85,6.48-13.09,12.01-.53,2.37-.73,5.21,2.16,5.82-1.66,7.38-.31,15.55,3.02,22.29l-7.77-3.16c-.06-.08-.2-.21-.29-.29-4.25-9.44-4.16-19.77,1.29-28.69,3.94-6.45,10.21-10.43,16.18-14.74C10.06,46.16-.08,58.29,3.41,75.22c.25,1.23,1.38,5.17,2.01,6.11-1.28-.11-2.25-1.53-3.31-2.16-5.72-16.33.55-29.14,14.45-37.97,7.49-4.76,18.52-7.4,17.19-18.62l1.01.22Z"/>
    <path class="cls-4" d="M65.25,70.11c-.18,1.02.03,2.67-.14,3.81-1.96,12.81-9.65,23.4-21.57,28.62.27.19.54.01.79-.07,13.35-4.49,22.3-19.95,21.93-33.65,0-.2,0-.57,0-.72,2.41-4.21,3.33-9.28,2.59-14.09.35.55.97,1.18,1.29,1.8,9.02,16.99-1.37,36.35-17.11,44.58,15.36-6.42,25.46-24.7,19.7-40.99-2.63-7.44-8.87-13.42-15.25-17.76l1.15-1.44c8.38,5.16,15.23,10.93,17.4,21.07,4.29,19.99-10.43,38.53-30.06,41.49-2.01.3-4.85.41-6.9.43v-16.18s-.87.06-1.01.07c0-16.96-.72-34.86,0-51.7.07-1.74.32-3.52.5-5.25.21,1.83.43,3.7.5,5.54.67,16.86-.5,34.15,0,51.06.18.42,4.44-.73,5.11-.93,2.67-.8,5.02-2.16,7.55-3.16-1.26,7.05-4.28,13.93-8.85,19.42,5.68-4.95,8.5-12.52,9.85-19.78-.18-.26-.79.27-1.01.36,1.72-9.64.79-19.63-2.44-28.84-2.81-8.02-8.03-15.37-8.56-24.09,2.17,10.56,8.8,19.39,11.29,29.84,1.74,7.29,1.83,14.88.86,22.29,5.06-2.75,9.24-6.92,12.37-11.72Z"/>
    <path class="cls-4" d="M26.99,87.66l-1.01.07c1.73,5.33,4.22,11.03,8.77,14.53-3.95-3.99-6-9.21-7.62-14.45,1.93-.08,3.9.11,5.82,0,1.68-.09,3.51-.6,5.11-.72v15.96c-2.14-.02-4.33.02-6.47-.29-13.72-1.98-24.88-10.45-29.48-23.59,1.06.62,2.02,2.05,3.31,2.16.11.16.12.27.29.43,2.88,7.14,8.65,13.34,15.32,17.11.68.39,2.07,1.19,2.73,1.44.06.02.85.36.79.07-6.7-3.31-11.71-8.21-15.82-14.38-.55-.83-1.33-3.01-1.73-3.52l7.77,3.16c.14.29.28.27.29.29,3.64,6.99,9.87,13.35,17.26,16.04-6.74-3.5-12.59-9.04-15.96-15.89,1.17.3,9.08,2.03,9.49,1.51-2.73-9.12-2.7-18.83-.86-28.12.19-.14.21-.37.29-.43.28-.23.7-.42,1.01-.72-2.37,9.84-2.21,19.65.72,29.34Z"/>
    <path class="cls-1" d="M42.53,24.95c-.88.23-2.51,1.73-3.52,1.58-.42-.06-4.08-3.28-4.24-3.74-.55-1.51-.66-7.13-1.01-9.28-.73-4.53-1.93-8.97-2.59-13.52,3.64,3.31,5.65,8.32,7.41,12.87,1.58-3.79,3.89-8.31,7.91-9.92-2.13,7.14-3.9,14.5-3.96,22Z"/>
    <path class="cls-6" d="M38.07,103.05c.19,0,.61.15,1.01.14,2.06-.02,4.9-.13,6.9-.43.25.3,2.87,2.25,2.23,2.73l-2.73-1.01c-.54,0,.77,1.4.79,1.51.3,1.67-2.53-.97-2.8-.79l.36,1.94-.36.07-1.58-1.73-.14,2.16-1.87-1.87c-1.08,4.52-1.92.01-2.16,0-.25.3-1.47,2.49-1.94,1.8l-.07-1.94c-3.35,3.76-1.34-.31-1.58-.43-1.9,1.35-4.35,2.81-1.87-.72l-2.88,1.15c-.55-.34,1.92-2.69,2.23-2.88,2.14.31,4.34.27,6.47.29Z"/>
    <path class="cls-7" d="M31.31,43.51c-2.14,5.13-4.78,10.07-6.04,15.53-.08.06-.1.29-.29.43-2.87,2.18-8.77,4.21-12.37,4.03-.17,0-.67-.1-.86-.14-2.89-.61-2.69-3.46-2.16-5.82,1.24-5.53,7.52-11.11,13.09-12.01-3.01,2.05-10.63,13.43-10.79,17.04-.02.53.21.98.79.65.24-.14,1.43-4.44,1.8-5.25,2.52-5.62,6.12-7.77,9.28-12.15.19-.26.34-.2.07-.58.32-.12.79-.36,1.01-.43,1.86-.62,4.52-1.41,6.47-1.29Z"/>
    <path class="cls-3" d="M57.48,41.64c6.38,4.34,12.62,10.32,15.25,17.76,5.75,16.28-4.34,34.57-19.7,40.99,15.74-8.24,26.14-27.59,17.11-44.58-.33-.62-.95-1.24-1.29-1.8-4.12-6.56-10.1-11.28-16.54-15.46,1.8.84,3.54,1.98,5.18,3.09Z"/>
    <path class="cls-4" d="M6.71,82.19s-.66-.09-1.01-.43c-.17-.16-.18-.27-.29-.43-.63-.95-1.76-4.88-2.01-6.11C-.08,58.29,10.06,46.16,24.19,38.76c-5.97,4.31-12.24,8.29-16.18,14.74-5.45,8.92-5.54,19.25-1.29,28.69Z"/>
    <path class="cls-4" d="M66.26,68.1c0,.15,0,.52,0,.72-.26-.08-.83.78-.86.86-.13-7.52-3.43-14.16-8.2-19.78-4.8-5.65-11.46-10.26-13.95-17.55,4.3,8.74,13.35,13.8,18.41,22,2.43,3.94,4.31,9.1,4.6,13.74Z"/>
    <path class="cls-3" d="M66.26,68.82c.36,13.71-8.58,29.17-21.93,33.65-.25.09-.52.26-.79.07,11.92-5.22,19.62-15.81,21.57-28.62.17-1.14-.04-2.79.14-3.81.04-.23.09-.27.14-.43.03-.09.61-.95.86-.86Z"/>
    <path class="cls-7" d="M26.56,57.89l5.61-14.24s.11-.02.14,0c1.46.76.43,3.98,0,5.25-1.03,3.04-3.51,6.69-5.75,8.99Z"/>
    <path class="cls-4" d="M12.61,63.5c-1.56,7.65-.1,15.58,3.45,22.44-.35-.08-1.18-.35-1.01,0,0-.02-.15,0-.29-.29-3.33-6.74-4.68-14.91-3.02-22.29.19.04.69.14.86.14Z"/>
    <path class="cls-5" d="M23.83,45.23c.26.38.12.31-.07.58-3.16,4.38-6.76,6.54-9.28,12.15-.36.81-1.56,5.11-1.8,5.25-.58.33-.81-.12-.79-.65.16-3.61,7.77-15,10.79-17.04.18-.12.38-.2.58-.29.12-.05.44.05.58,0Z"/>
    <path class="cls-3" d="M6.71,82.19c.08.08.23.21.29.29.4.51,1.18,2.7,1.73,3.52,4.11,6.17,9.12,11.08,15.82,14.38.06.29-.73-.05-.79-.07-.66-.25-2.05-1.05-2.73-1.44-6.67-3.78-12.44-9.97-15.32-17.11.35.34.97.39,1.01.43Z"/>
    <path class="cls-5" d="M32.17,43.65l-5.61,14.24c-.07.08-.22.36-.29.43-.31.3-.73.49-1.01.72,1.26-5.46,3.9-10.4,6.04-15.53.05,0,.1,0,.14,0,.04,0,.68.13.72.14Z"/>
    <path class="cls-3" d="M26.99,87.66c.06.2.14.13.14.14,1.62,5.24,3.68,10.47,7.62,14.45-4.55-3.49-7.04-9.2-8.77-14.53l1.01-.07Z"/>
    <path class="cls-4" d="M24.84,44.8c-.22.07-.69.31-1.01.43-.14.05-.46-.05-.58,0,3.85-4.11,8.43-7.87,10.57-13.23-1.31,5.2-5.56,8.92-8.99,12.8Z"/>
    <path class="cls-4" d="M32.31,43.65s-.1.02-.14,0c-.03-.01-.68-.14-.72-.14,2.1-4.38,3.75-8.92,4.82-13.66-.25,4.86-2.18,9.37-3.96,13.81Z"/>
    <path class="cls-3" d="M51.73,82.63c.22-.09.83-.62,1.01-.36-1.35,7.25-4.17,14.83-9.85,19.78,4.57-5.49,7.59-12.37,8.85-19.42Z"/>
    <path class="cls-3" d="M39.07,103.19c-.4,0-.81-.14-1.01-.14v-15.96c.14-.01.98-.12,1.01-.07v16.18Z"/>
    <path class="cls-2" d="M16.35,86.08c-.13-.03-.16-.11-.29-.14-3.55-6.86-5.01-14.78-3.45-22.44,3.6.18,9.5-1.85,12.37-4.03-1.83,9.29-1.86,19,.86,28.12-.42.52-8.32-1.21-9.49-1.51Z"/>
    <path class="cls-3" d="M16.06,85.93c.13.03.16.11.29.14,3.38,6.85,9.23,12.4,15.96,15.89-7.38-2.69-13.62-9.04-17.26-16.04-.18-.35.66-.08,1.01,0Z"/>
  </g>
</svg>