<?xml version="1.0" encoding="UTF-8"?>
<svg id="_레이어_2" data-name="레이어 2" xmlns="http://www.w3.org/2000/svg" viewBox="0 0 84.93 107.6">
  <defs>
    <style>
      .cls-1 {
        fill: #fb911e;
      }

      .cls-2 {
        fill: #35882b;
      }

      .cls-3 {
        fill: #fdc57c;
      }

      .cls-4 {
        fill: #f57a0b;
      }

      .cls-5 {
        fill: #7db336;
      }
    </style>
  </defs>
  <g id="_레이어_1-2" data-name="레이어 1">
    <g id="_생성형_개체" data-name="생성형 개체">
      <path class="cls-4" d="M13.58,95.85l-1.29-1.63c-.18-.12.06-.4.14-.41.17-.02,2.53,1.42,2.99,1.63.15.07.26-.14.27-.14.09.04-.02.36.41.54,29.36,12.65,62.49-10.83,59.87-42.75-.68-8.26-5.05-19.8-12.1-24.53,23.14,13.3,28.1,44.16,10.47,64.36-15.96,18.28-43.15,19.72-60.76,2.92Z"/>
      <path class="cls-5" d="M66.25.03c.9-.06,7.18-.07,7.41.34-1.07,6.38-4.12,14.69-9.85,18.28-4.72,2.95-10.66,3.35-15.9,1.63l19.37-14.75c-7.4,3.39-14.18,8.04-20.73,12.84-.62-.13.81-5.59,1.02-6.18C50.38,4.16,58.18.55,66.25.03Z"/>
      <path class="cls-5" d="M22.75,1.93c9.29.26,18.09,5.12,17.47,15.56l-13.39-11.21,12.03,12.3c-10.43,1.68-16.55-7.18-16.11-16.65Z"/>
      <path class="cls-5" d="M42.53,15.8l-.27,10.94c1.61.82,1.16-1.22,1.22-2.11.71,2.52,3.25.74,5.17,1.56-.93.99-2.17,1.53-3.4,2.04-.1.27,2.22,1.94,1.77,2.72-.9.58-3.56-.93-4.28-1.02-1.68-.2-8.03,3.65-3.06-1.7-.47-.08-3.39-1.68-3.26-2.04l4.42-.2c.65-1.13.71-2.16.75-3.4.03-.92-.48-6.44-.27-6.73.39-.13.82-.06,1.22-.07Z"/>
      <path class="cls-2" d="M43.61,22.59c-.04.67-.09,1.37-.14,2.04-.06.89.39,2.93-1.22,2.11l.27-10.94c.23,0,1.27-.05,1.36.07-.27,2.23-.15,4.5-.27,6.73Z"/>
      <g>
        <path class="cls-1" d="M41.58,22.59c-.04,1.24-.09,2.27-.75,3.4l-4.42.2c-.13.36,2.8,1.96,3.26,2.04-4.97,5.35,1.38,1.5,3.06,1.7.72.08,3.39,1.6,4.28,1.02.46-.78-1.87-2.44-1.77-2.72,1.22-.51,2.47-1.05,3.4-2.04-1.92-.83-4.46.96-5.17-1.56.04-.67.1-1.37.14-2.04,6.7.26,14.65,2.22,20.25,5.98,7.05,4.73,11.42,16.28,12.1,24.53,2.61,31.92-30.51,55.39-59.87,42.75-.43-.18-.32-.5-.41-.54-.01,0-.13.2-.27.14-.46-.21-2.82-1.65-2.99-1.63-.08.01-.32.29-.14.41l1.29,1.63c-15.91-15.18-18.34-39.07-4.62-56.61,7.74-9.89,19.97-16.35,32.62-16.65Z"/>
        <path class="cls-3" d="M26.28,33.19c8.28-.4,3.68,11-3.67,11.69-9.1.85-4.23-11.31,3.67-11.69Z"/>
        <path class="cls-3" d="M15.95,45.16c3.73-.3,2.91,5.02-.14,5.84-4.82,1.31-3.65-5.54.14-5.84Z"/>
      </g>
    </g>
  </g>
</svg>