<?xml version="1.0" encoding="UTF-8"?>
<svg id="_레이어_2" data-name="레이어 2" xmlns="http://www.w3.org/2000/svg" width="116.92" height="43.41" viewBox="0 0 116.92 43.41">
  <defs>
    <style>
      .cls-1 {
        fill: #fdc3ab;
      }

      .cls-2 {
        fill: #80a93a;
      }

      .cls-3 {
        fill: #e53524;
      }

      .cls-4 {
        fill: #619539;
      }

      .cls-5 {
        fill: #4b8638;
      }

      .cls-6 {
        fill: #c8271e;
      }
    </style>
  </defs>
  <g id="_레이어_1-2" data-name="레이어 1">
    <g>
      <path class="cls-6" d="M94.9,15.27c-1.78,7.65-11.27,13.18-18.06,16.88-21.92,11.92-58.38,20.01-73.97-5.8-.87-1.45-1.59-3.12-2.11-4.75,1.96.9,2.75,3.67,4.22,5.41,14.97,17.75,43.37,12.37,62.11,4.09,9.08-4.02,17.86-9.95,24.13-17.67.68.65,2.67,1.75,3.69,1.85Z"/>
      <g>
        <path class="cls-5" d="M95.16,14.22c-2.01-.81-2.84-2.32-3.96-3.96,1.14-1.36,2.42-3.14,3.82-4.22,1.52-1.16,7.63-3.42,7.78-3.82.2-.53-.13-.78-.66-.66-1.8.81-3.66,1.5-5.54,2.11-1.06.34-.65.57-2.77.79,5.83-2.37,12.68-5.74,19.12-3.96,1.11.31,4.99,2.1,3.69,3.43-1.35,1.39-2.97-.74-4.22-1.05-4.58-1.16-12.84,1.96-15.69,5.67-1.6,2.08-1.01,3.42-1.58,5.67Z"/>
        <path class="cls-4" d="M91.21,10.26c-1.46-2.14-2.34-4.13-3.16-6.59,2.84.62,2.11,1.18,5.8.79,2.12-.22,1.71-.45,2.77-.79,1.88-.61,3.74-1.3,5.54-2.11.53-.12.86.13.66.66-.15.41-6.26,2.66-7.78,3.82-1.4,1.08-2.68,2.86-3.82,4.22Z"/>
        <path class="cls-2" d="M88.04,3.67c.83,2.47,1.71,4.45,3.16,6.59,1.12,1.64,1.95,3.15,3.96,3.96-.09.35-.18.7-.26,1.05-1.03-.1-3.01-1.19-3.69-1.85-2.05-1.96-4.03-7.47-4.48-10.29.84.1,1.14.49,1.32.53Z"/>
      </g>
      <g>
        <path class="cls-3" d="M86.73,3.14c.45,2.82,2.43,8.32,4.48,10.29-6.27,7.72-15.05,13.65-24.13,17.67-18.74,8.29-47.13,13.66-62.11-4.09-1.47-1.74-2.26-4.51-4.22-5.41-.39-1.22-1.55-1.82.13-3.16,2.09-.68,5.71,4.05,7.38,5.27,1.5,1.1,2.99,2,4.62,2.9,1.53.85,2.27,1.26,3.96,1.85,14.57,5.09,34.32-3.66,46.81-11.34,3.84-2.36,17.47-13.49,20.04-13.98.56-.11,2.42-.08,3.03,0Z"/>
        <path class="cls-1" d="M81.85,5.78c.41-.02.91.52.92.92.15,3.52-19.28,14.65-22.81,16.48-9.33,4.82-19.73,9.44-30.46,9.1,2.4-1.69,6.22-1.51,9.1-2.24,12.45-3.18,23.86-9.8,34.28-17.14,1.34-.94,8.39-7.09,8.97-7.12Z"/>
      </g>
    </g>
  </g>
</svg>