<?xml version="1.0" encoding="UTF-8"?>
<svg id="_레이어_2" data-name="레이어 2" xmlns="http://www.w3.org/2000/svg" width="44.27" height="66.65" viewBox="0 0 44.27 66.65">
  <defs>
    <style>
      .cls-1 {
        fill: #fcec3a;
      }

      .cls-2 {
        fill: #b56b3c;
      }

      .cls-3 {
        fill: #e5bb19;
      }

      .cls-4 {
        fill: #f2b79e;
      }

      .cls-5 {
        fill: #d29919;
      }

      .cls-6 {
        fill: #e6eff6;
      }

      .cls-7 {
        fill: #bcd4e1;
      }

      .cls-8 {
        fill: #b68463;
      }

      .cls-9 {
        fill: #f7e062;
      }

      .cls-10 {
        fill: #fffeff;
      }

      .cls-11 {
        fill: #a27056;
      }

      .cls-12 {
        fill: #8d502e;
      }

      .cls-13 {
        fill: #fdf7c7;
      }

      .cls-14 {
        fill: #f5ece8;
      }

      .cls-15 {
        fill: #f9d512;
      }

      .cls-16 {
        fill: #c59a85;
      }

      .cls-17 {
        fill: #cad3d9;
      }

      .cls-18 {
        fill: #d2804e;
      }

      .cls-19 {
        fill: #b8ac88;
      }

      .cls-20 {
        fill: #fcf3aa;
      }
    </style>
  </defs>
  <g id="_레이어_1-2" data-name="레이어 1">
    <g id="_생성형_개체" data-name="생성형 개체">
      <g>
        <path class="cls-7" d="M11.81,16.78c.15,5.91-.76,5.59-3.48,10.33-.37.64-.79,1.25-1.16,1.9C1.71,38.69-.09,48.76,2.96,59.67c.05.16.07.4.11.53.12.39.27.69.42,1.05.39.96.08,1.06,1.21,1.69,5.28,2.94,30.13,3.08,35.2-.11,1.09-.68.66-.92,1-1.79.12-.29.31-.6.42-.95.05-.15.07-.29.11-.42,2.79-9.78.73-22.07-4.43-30.78-.22-.37-.78-1.48-1.05-1.69-2.07-3.58-4.62-6.59-3.48-11.07.58-.15,1.32-.83,1.48.21-1.06,4.21.89,5.43,2.64,8.54,1.51,2.69,2.85,5.36,4.01,8.22.1.25.22.48.32.74.06.14.1.1.11.11.07.18.15.36.21.53.25.67.41,1.42.63,2.11.07.21.29.53.32.63.2.64.35,1.35.53,2,.04.14.06.36.11.53.29,1.1.46,2.23.74,3.32.03.11.13.44.32.37-.01,0-.21.15-.21.16-.04.13.39,2.21.42,2.69,0,.1,0,.21,0,.32.02.28-.02.57,0,.84.01.19-.04.35.21.42-.21.4-.08,1.21-.11,1.69,0,.14,0,.28,0,.42-.03.62.05,1.28,0,1.9,0,.11-.1.43-.11.53-.24,2.68-.96,7.64-2,10.07-.11.27-.86,1.02-1.11,1.21-5.09,3.97-32.42,3.96-37.52,0-1.3-1.01-2.32-5.35-2.69-7.11-.23-1.11-.52-2.64-.63-3.74-.01-.13.02-.52,0-.74-.05-.66-.09-1.34-.11-2,0-.17,0-.35,0-.53,0-.52-.01-1.06,0-1.58,0-.24,0-.49,0-.74.01-.29.09-.47.11-.74.06-1.1.17-1.83.32-2.9.01-.07-.23-.01-.21-.16.12-.82.7-2.59.95-3.58.04-.17.06-.37.11-.53.18-.67.43-1.34.63-2,.07-.21.14-.42.21-.63.23-.71.47-1.41.74-2.11.07-.17.14-.35.21-.53.01-.03-.01-.07,0-.11.09-.24.22-.5.32-.74.8-1.94,1.69-3.87,2.74-5.69.04-.07.12-.17.21-.32.33-.57.72-1.11,1.05-1.69,1.89-3.22,4.2-5.31,2.85-9.59.14-.18,1.15-.04,1.21,0,.36.24-.08.8.37.84Z"/>
        <path class="cls-10" d="M32.47,16.14c-1.15,4.48,1.41,7.49,3.48,11.07-1.02-.78-5.65-1.62-7.06-1.79-.46-.06-.91-.07-1.37-.11-1.98-.17-3.91-.21-5.9-.21-.14,0-.28,0-.42,0-1.26.01-2.72-.06-3.9.21-.97.02-1.93-.11-2.9.11-.21.09-.21.32-.26.42-.47.84-1.06,3.14-1.48,4.22-1.52,4-3.09,7.99-3.85,12.23-.3-.31.14-1.12.16-1.21.72-3.89,1.8-7.12,3.16-10.8.56-1.53,1.33-3.01,1.79-4.58-.21-.31-.3-.05-.42-.05-.6-.2.29-1.38.42-1.84.71-2.41.67-4.44.42-6.9,4.78.95,11.07.75,15.81-.21.77-.16,1.46-.34,2.21-.53.03,0,.07,0,.11,0Z"/>
        <path class="cls-6" d="M3.48,61.25c1.79,1.4,4.41,2.03,6.64,2.32.35.05.7.07,1.05.11,7.22.89,15.18,1.15,22.4,0,2.45-.39,5.44-1,7.33-2.64-.34.87.09,1.11-1,1.79-5.07,3.18-29.92,3.05-35.2.11-1.13-.63-.82-.73-1.21-1.69Z"/>
        <path class="cls-6" d="M13.81,16.67c.08.02.22.15.53.21.25,2.47.29,4.5-.42,6.9-.14.46-1.02,1.65-.42,1.84-.17,0-.37-.02-.53,0-1.48.22-3.2,1.01-4.64,1.48,2.72-4.74,3.63-4.42,3.48-10.33,0-.24-.23-.36,0-.63.66.22,1.33.36,2,.53Z"/>
        <g>
          <path class="cls-7" d="M11.81,9.19c.08.41.52,2.73.74,2.85l18.92.11.69-3.27c.73.44,5.54,1.19,4.06,2.64-1.47,1.43-17.28,1.26-20.13,1.16-1.87-.07-6.53-.04-7.91-1.26-.08-.07-.47-.44-.47-.47-.1-.81,3.36-1.92,4.11-1.74Z"/>
          <g>
            <path class="cls-17" d="M33.95,16.35c-.15-1.04-.89-.36-1.48-.21-.03,0-.07,0-.11,0l-1.9-.11c.11-.33.21-.79.32-1.16.15-.52.4-1.26.32-1.79,1.13-.06,2.42-.09,3.53-.32.55-.11,2.65-1.25,2.9-.58.06.17-.02,2.49-.11,2.64-.21.34-2.79.78-3.32.9-.1.08-.12.5-.16.63Z"/>
            <path class="cls-10" d="M35.37,12.98c1.13-.09,1.28.35.9,1.42-.58,1.64-4.26.54-2.37-.9.19-.15,1.24-.51,1.48-.53Z"/>
          </g>
          <path class="cls-19" d="M32.36,16.14c-.75.19-1.45.37-2.21.53.07-.19.26-.46.32-.63l1.9.11Z"/>
          <g>
            <path class="cls-17" d="M12.76,13.19c.15.52.26,1.07.42,1.58s.34,1,.53,1.48l-1.9-.11c-.23.27,0,.39,0,.63-.45-.04-.01-.61-.37-.84-.06-.04-1.07-.18-1.21,0-.3-.59-2.69-.46-3.06-1.21-.14-.3-.16-2.34,0-2.64.37-.68.9.31,1.32.47,1.28.5,2.9.58,4.27.63Z"/>
            <path class="cls-10" d="M8.39,13.19c.14-.05,2.49.52,1.95,1.53-.85,1.59-3.03-1.13-1.95-1.53Z"/>
            <path class="cls-19" d="M13.71,16.25c.04.1.08.3.11.42-.67-.16-1.35-.31-2-.53l1.9.11Z"/>
          </g>
          <g>
            <path class="cls-18" d="M33.52,2.44l-2.42.84c-.52.08-1.06.14-1.58.21-2.51-.03-5.01.27-7.54.21-1.96-.04-10.14-.66-11.44-1.69-.11-.09-.34-.18-.32-.37.13-.11.24-.27.37-.37C12.18.12,22.59-.06,24.93.02c1.27.04,8.26.51,8.8,1.42.2.37-.12.59-.21,1Z"/>
            <path class="cls-8" d="M29.2,13.19l-.32,1.79c-4.35.28-8.93.25-13.28,0-.06-.23-.1-.93-.21-1.11-.52-.79-1.79-.07-1.26.9-.23-.02-.59.24-.95,0-.16-.52-.27-1.06-.42-1.58,5.06.19,11.51.04,16.44,0Z"/>
            <path class="cls-12" d="M33.52,2.44c-.49,2.14-.92,4.28-1.37,6.43l-.69,3.27-18.92-.11c.5-.46,2.37.38,2.32-.53.06.18.13.33.16.53,3.09-.12,6.17.16,9.28.11.48,0,1.1-.19,1.58-.21.56-.02,1.21.22,1.79.11.1-.02,0-.28.11-.32.03,0,.1.3.21.32.17.02,1.41.04,1.48,0,.38-.23,1.34-7.76,1.63-8.75l2.42-.84Z"/>
            <path class="cls-2" d="M13.71,3.28c-.23.19-.19.13-.21.42l-1.53-.42c-.09.06-.04.17-.05.26-.04.38,1.51,7.05,1.69,7.38.3.55.64.07,1.16.16.03.12.08.35.11.42.05.9-1.82.07-2.32.53-.22-.11-.65-2.44-.74-2.85-.45-2.17-.78-4.36-1.26-6.53,1.07.13,2.09.45,3.16.63Z"/>
            <path class="cls-4" d="M29.52,3.49c-4.88.69-10.95.6-15.81-.21-1.08-.18-2.09-.51-3.16-.63-.04-.2-.13-.44,0-.63,1.3,1.02,9.48,1.64,11.44,1.69,2.52.06,5.02-.24,7.54-.21Z"/>
            <path class="cls-11" d="M31.1,13.09c.09.53-.17,1.27-.32,1.79-.63-.03-1.27.06-1.9.11l.32-1.79c.62,0,1.27-.07,1.9-.11Z"/>
            <path class="cls-2" d="M29.52,3.49c.52-.07,1.06-.13,1.58-.21-.29.99-1.25,8.52-1.63,8.75-.06.04-1.31.02-1.48,0-.11-.02-.18-.33-.21-.32-.11.03,0,.3-.11.32-.59.12-1.23-.13-1.79-.11-.48.02-1.1.2-1.58.21-3.1.05-6.18-.23-9.28-.11-.03-.19-.09-.35-.16-.53-.03-.07-.07-.3-.11-.42-.3-1.17-1.34-6.42-1.26-7.38.02-.29-.02-.23.21-.42,4.86.81,10.93.9,15.81.21Z"/>
            <path class="cls-2" d="M14.13,14.77c.1,0,.11.1.21.11.19,1.37.13,1.71,1.69,1.42-.14-.43-.3-.88-.42-1.32,4.35.25,8.93.28,13.28,0,.63-.04,1.27-.14,1.9-.11-.11.36-.21.83-.32,1.16-.06.18-.25.44-.32.63-4.74.97-11.03,1.16-15.81.21-.31-.06-.44-.19-.53-.21-.02-.12-.06-.32-.11-.42-.19-.48-.38-.98-.53-1.48.36.24.72-.02.95,0Z"/>
            <path class="cls-10" d="M15.61,14.98c-.43-.02-.84-.07-1.26-.11-.1,0-.11-.1-.21-.11-.53-.97.75-1.69,1.26-.9.11.17.15.88.21,1.11Z"/>
            <path class="cls-14" d="M13.5,3.71c-.07.95.96,6.21,1.26,7.38-.52-.09-.86.39-1.16-.16-.18-.33-1.72-7-1.69-7.38,0-.1-.04-.2.05-.26l1.53.42Z"/>
            <path class="cls-16" d="M15.61,14.98c.12.44.28.88.42,1.32-1.56.29-1.5-.05-1.69-1.42.42.04.83.08,1.26.11Z"/>
          </g>
        </g>
        <g>
          <path class="cls-9" d="M35.95,27.21c.27.21.84,1.32,1.05,1.69-.23-.03-.37.23-.53.32-1.09.61-2.3.55-3.48.9,4.02,8.84,6.16,18.62,4.06,28.3l-5.32-.9c2.31-9.5.22-18.08-2.74-27.04,1.28-.14,2.55-.37,3.85-.42l.05-.26c-.57-.62-.92-2.89-1.26-3.37-.33-.45-2.7-.24-2.74-1,1.42.17,6.04,1.01,7.06,1.79Z"/>
          <path class="cls-15" d="M10.86,29.84c-.99,2.51-2.24,4.96-3.06,7.54-2.3,7.28-2.02,13.59-.74,21.03-1.39.31-2.85.55-4.11,1.26C-.09,48.76,1.71,38.69,7.17,29c1.13,1,2.3.53,3.69.84Z"/>
          <path class="cls-15" d="M41.32,60.09c-.11.35-.31.65-.42.95-1.89,1.64-4.88,2.25-7.33,2.64-7.21,1.15-15.18.89-22.4,0,.96.08,2.19-.06,3.21.21.16-.1-.42-2.3-.47-2.64,5.96-.73,10.89-.79,16.86,0-.09.33-.66,2.45-.47,2.53l5.48-.74c.23-.13.29-.82.37-1.05.04-.11.07-.21.11-.32.13-.39.34-.99.42-1.37,0-.03,0-.07,0-.11.02-.13.1-.38.11-.42.57.04,2.88.98,1.9-.11.8.2,1.82.17,2.64.42Z"/>
          <path class="cls-3" d="M37,28.9c5.16,8.71,7.21,21,4.43,30.78-.41-.04-.78-.3-1.16-.42-.38-.72.28-2.04.42-2.9.97-6.06-.02-12.04-1.48-17.92-.77-3.11-1.9-6.13-2.74-9.22.16-.09.3-.35.53-.32Z"/>
          <path class="cls-9" d="M10.97,29.84s-.07,0-.11,0c-1.38-.32-2.56.16-3.69-.84.37-.65.79-1.26,1.16-1.9,1.43-.47,3.16-1.25,4.64-1.48l-2,4.22Z"/>
          <path class="cls-15" d="M7.38,59.88c.03.13-.03.29,0,.42.09.41.21.76.32,1.16.05.18,0,.34.11.63.12.32.05.79.37.95.37.18,1.77,0,1.95.53-2.23-.29-4.85-.92-6.64-2.32-.15-.36-.3-.66-.42-1.05l4.01-1.16c.05.25.27.62.32.84Z"/>
          <path class="cls-5" d="M7.07,58.41c.03.19-.04.44,0,.63l-4.01,1.16c-.04-.13-.06-.37-.11-.53,1.26-.72,2.72-.95,4.11-1.26Z"/>
          <path class="cls-5" d="M40.27,59.25c.38.12.75.38,1.16.42-.04.13-.06.27-.11.42-.82-.25-1.83-.22-2.64-.42-.58-.14-2.06-.4-1.63-1.16,1.06.24,2.18.42,3.21.74Z"/>
          <path class="cls-20" d="M12.13,30.27c-1.36,3.68-2.44,6.91-3.16,10.8-.02.09-.46.9-.16,1.21.76-4.24,2.33-8.23,3.85-12.23.91.27,2.2.13,2.95.84-2.78,9.8-3.26,15.9-2.21,26.14-.13.37-.49.36-.79.42-1.83.37-3.67.53-5.53.95-1.28-7.43-1.56-13.75.74-21.03.82-2.58,2.06-5.03,3.06-7.54.03,0,.07,0,.11,0,.31.09.84.29,1.16.42Z"/>
          <path class="cls-20" d="M21.61,25.1l5.9.21c.46.04.91.05,1.37.11.04.76,2.41.55,2.74,1,.35.48.7,2.75,1.26,3.37l-.05.26c-1.29.05-2.57.28-3.85.42-.44-1.32-.82-2.67-1.21-4.01h-10.7c.02-.14-.17-.8-.05-1.05l-2.9.42c.06-.1.05-.33.26-.42.97-.22,1.93-.09,2.9-.11,1.13-.02,2.29.04,3.43,0,.19,0,.52.11.47-.21.14,0,.28,0,.42,0Z"/>
          <path class="cls-13" d="M17.08,26.47c-.15.89-1.06,3.03-1.37,4.11-.03.11-.07.2-.11.32-.75-.71-2.04-.57-2.95-.84.41-1.08,1.01-3.38,1.48-4.22l2.9-.42c-.11.26.08.92.05,1.05Z"/>
          <path class="cls-20" d="M12.13,30.27c-.32-.13-.85-.34-1.16-.42l2-4.22c.16-.02.36,0,.53,0,.12,0,.21-.26.42.05-.47,1.57-1.23,3.06-1.79,4.58Z"/>
          <path class="cls-9" d="M27.52,25.31l-5.9-.21c1.99,0,3.92.04,5.9.21Z"/>
          <path class="cls-9" d="M21.19,25.1c.05.32-.28.2-.47.21-1.14.04-2.3-.02-3.43,0,1.18-.27,2.64-.2,3.9-.21Z"/>
          <path class="cls-15" d="M40.27,59.25c-1.03-.32-2.16-.5-3.21-.74-.42.76,1.06,1.02,1.63,1.16.98,1.08-1.33.15-1.9.11,0-.18.09-.22.11-.37-.16-.34-2.42-.55-2.85-.47-.45-.02-2.13-.48-2.42-.42-.05-.21.15-.92-.05-1.05-.23-.15-4.84-.59-5.48-.63-4.23-.28-8.5-.04-12.7.42,0-.07,0-.14,0-.21-1.05-10.24-.56-16.34,2.21-26.14.03-.11.08-.21.11-.32,4.36.33,8.93.38,13.28-.11,2.96,8.96,5.05,17.54,2.74,27.04l5.32.9c2.1-9.68-.04-19.46-4.06-28.3,1.18-.34,2.38-.28,3.48-.9.84,3.09,1.97,6.11,2.74,9.22,1.45,5.88,2.44,11.86,1.48,17.92-.14.86-.8,2.18-.42,2.9Z"/>
          <path class="cls-1" d="M30.99,60.62c.07.26-.16.43-.21.63-5.98-.79-10.9-.73-16.86,0-.03-.22-.06-.62,0-.84,5.88-.72,11.22-.64,17.07.21Z"/>
          <path class="cls-20" d="M13.92,61.25c.05.33.63,2.53.47,2.64-1.02-.27-2.26-.13-3.21-.21-.35-.03-.7-.06-1.05-.11-.18-.54-1.58-.35-1.95-.53-.32-.15-.25-.63-.37-.95.33.06.65-.16.95-.21,1.64-.26,3.49-.43,5.16-.63Z"/>
          <path class="cls-9" d="M36.16,61.99c-.08.23-.14.93-.37,1.05l-5.48.74c-.19-.08.39-2.2.47-2.53,1.77.23,3.56.9,5.38.74Z"/>
          <path class="cls-9" d="M36.69,60.31c-.08.38-.29.98-.42,1.37-1.69-.54-3.42-.79-5.16-1.05l.32-1.37,5.27,1.05Z"/>
          <path class="cls-20" d="M36.26,61.68c-.04.11-.07.21-.11.32-1.82.16-3.6-.5-5.38-.74.05-.2.28-.37.21-.63.03,0,.07,0,.11,0,1.75.26,3.48.52,5.16,1.05Z"/>
          <path class="cls-9" d="M36.79,59.78s-.08.29-.11.42c-.6-.4-2.8-.47-3.21-.74-.09-.06-.25-.24-.11-.32.29.15.61-.2.69-.21.43-.08,2.69.14,2.85.47-.02.15-.1.18-.11.37Z"/>
          <path class="cls-20" d="M34.05,58.94c-.07.01-.4.36-.69.21-.15.08.01.26.11.32.42.26,2.62.34,3.21.74,0,.03,0,.07,0,.11l-5.27-1.05-.11-.11c.16-.14.07-.48.11-.53,0,0,.17-.1.21-.11.3-.06,1.97.4,2.42.42Z"/>
          <path class="cls-9" d="M13.6,59.15l.21,1.26c-1.81.23-3.78.61-5.59.95-.18.03-.35.05-.53.11-.11-.4-.22-.75-.32-1.16,1.88-.72,4.18-.93,6.22-1.16Z"/>
          <path class="cls-9" d="M13.39,57.25c.04.35.16.69.11,1.05-2.05.21-4.33.5-6.11,1.58-.05-.22-.27-.59-.32-.84-.04-.19.03-.44,0-.63,1.87-.42,3.7-.58,5.53-.95.3-.06.66-.05.79-.42,0,.07,0,.14,0,.21Z"/>
          <path class="cls-13" d="M13.5,58.3s.07,0,.11,0l.11.84s-.07,0-.11,0c-2.04.23-4.34.44-6.22,1.16-.03-.13.03-.29,0-.42,1.78-1.08,4.07-1.37,6.11-1.58Z"/>
          <path class="cls-20" d="M8.23,61.36l.53.53c-.3.05-.62.27-.95.21-.11-.29-.05-.45-.11-.63.17-.06.35-.07.53-.11Z"/>
          <path class="cls-9" d="M28.99,30.48c-4.35.49-8.92.44-13.28.11.31-1.08,1.22-3.22,1.37-4.11h10.7c.39,1.34.77,2.68,1.21,4.01Z"/>
          <path class="cls-3" d="M31.63,58.51s-.2.1-.21.11c-5.74-.72-12.03-.88-17.81-.32-.03,0-.07,0-.11,0,.05-.37-.06-.7-.11-1.05,4.2-.46,8.47-.7,12.7-.42.64.04,5.25.48,5.48.63.2.13,0,.84.05,1.05Z"/>
          <path class="cls-15" d="M31.31,59.15l.11.11-.32,1.37s-.07,0-.11,0c-5.85-.85-11.2-.93-17.07-.21-.03,0-.07,0-.11,0l-.21-1.26s.07,0,.11,0c5.91-.66,11.68-.63,17.6,0Z"/>
          <path class="cls-13" d="M13.81,60.41s.07,0,.11,0c-.06.22-.03.63,0,.84-1.67.2-3.52.37-5.16.63l-.53-.53c1.81-.34,3.77-.72,5.59-.95Z"/>
          <path class="cls-9" d="M31.42,58.62s.05.38-.11.53c-5.92-.63-11.69-.66-17.6,0l-.11-.84c5.78-.56,12.07-.4,17.81.32Z"/>
        </g>
      </g>
    </g>
  </g>
</svg>