<?xml version="1.0" encoding="UTF-8"?>
<svg id="_레이어_2" data-name="레이어 2" xmlns="http://www.w3.org/2000/svg" xmlns:xlink="http://www.w3.org/1999/xlink" viewBox="0 0 76.67 108.05">
  <defs>
    <style>
      .cls-1 {
        fill: #a9c8b5;
      }

      .cls-2 {
        fill: url(#_무제_그라디언트_31);
      }

      .cls-3 {
        fill: #7eaf37;
      }

      .cls-4 {
        fill: url(#_무제_그라디언트_35);
      }

      .cls-5 {
        fill: url(#_무제_그라디언트_38);
      }

      .cls-6 {
        fill: #5b9567;
      }

      .cls-7 {
        fill: #347958;
      }

      .cls-8 {
        fill: url(#_무제_그라디언트_33);
      }

      .cls-9 {
        fill: url(#_무제_그라디언트_37);
      }

      .cls-10 {
        fill: #186632;
      }

      .cls-11 {
        fill: #aeca79;
      }

      .cls-12 {
        fill: #529228;
      }
    </style>
    <linearGradient id="_무제_그라디언트_31" data-name="무제 그라디언트 31" x1="38.93" y1="33.97" x2="37.74" y2="106.73" gradientUnits="userSpaceOnUse">
      <stop offset="0" stop-color="#7dab81"/>
      <stop offset=".59" stop-color="#4a8b57"/>
      <stop offset="1" stop-color="#2b754d"/>
    </linearGradient>
    <linearGradient id="_무제_그라디언트_37" data-name="무제 그라디언트 37" x1="13.54" y1="47.35" x2="39.07" y2="95.35" gradientUnits="userSpaceOnUse">
      <stop offset="0" stop-color="#468659"/>
      <stop offset="1" stop-color="#1a633b"/>
    </linearGradient>
    <linearGradient id="_무제_그라디언트_33" data-name="무제 그라디언트 33" x1="14.92" y1="27.75" x2="15.93" y2="102.17" gradientUnits="userSpaceOnUse">
      <stop offset="0" stop-color="#71a378"/>
      <stop offset=".47" stop-color="#4b8b57"/>
      <stop offset="1" stop-color="#28724b"/>
    </linearGradient>
    <linearGradient id="_무제_그라디언트_38" data-name="무제 그라디언트 38" x1="50.66" y1="43.79" x2="56.48" y2="102.19" gradientUnits="userSpaceOnUse">
      <stop offset="0" stop-color="#47875a"/>
      <stop offset="1" stop-color="#1a633b"/>
    </linearGradient>
    <linearGradient id="_무제_그라디언트_35" data-name="무제 그라디언트 35" x1="61.08" y1="27.71" x2="63.25" y2="101.89" gradientUnits="userSpaceOnUse">
      <stop offset="0" stop-color="#70a378"/>
      <stop offset=".48" stop-color="#4b8c57"/>
      <stop offset="1" stop-color="#28724b"/>
    </linearGradient>
  </defs>
  <g id="_레이어_1-2" data-name="레이어 1">
    <g id="_생성형_개체" data-name="생성형 개체">
      <g>
        <path class="cls-2" d="M40.1,33.2c2.36.21,4.15.76,6.27,1.75,1,.46,1.54.7,2.47,1.44,6.72,5.31,7.11,16.18,7.3,24.1.22,9.39-.52,19.88-2.26,29.09-.89,4.7-2.05,9.99-4.73,13.98,1.06.21,3.99.38,4.63-.46-.13.45.65.33.87.31,6.75-.59,10.61-6.63,13.21-12.18,5.31-11.33,6.8-24.02,8.53-36.13h.1c-.87,11.91-5.31,37.4-14.65,45.43-2.2,1.89-5.26,2.94-8.12,3.29-1.05.13-4.16-.06-4.73.1-.12.03-1.4,1.4-1.75,1.64-4.61,3.2-12.96,3.4-17.58.1-.37-.27-1.73-1.71-1.85-1.75-.78-.23-3.64.03-4.83-.1-3.9-.44-7.28-2.1-9.82-5.09C5.61,89.81,1.83,70.58.63,59.1c.24-.23.3.81.31.87,1.28,11.06,5.38,32.26,13.72,40.04,2.32,2.16,5.27,3.07,8.22,3.49l-.05-.72c.14.27.04.42.26.62.53.47,3.53.14,4.32.41,0-1.05-1.19-2.2-1.59-3.14-4.19-9.82-5.42-28.7-5.24-39.57.14-8.43.46-19,7.4-24.82.8-.44,1.37-.92,2.26-1.34,2.22-1.04,4.11-1.56,6.58-1.75,1.15-.09,2.13-.1,3.29,0Z"/>
        <path class="cls-1" d="M36.76,35.87c1.97-.14,5.21.11,7.09.72,5.22,1.68,6.35,9.2,5.34,13.88-6.45-5.76-15.22-5.64-21.74-.05-.75-5.61.15-12.7,6.63-14.13.82-.18,1.84-.35,2.67-.41Z"/>
      </g>
      <g>
        <path class="cls-7" d="M34.13,22.51c-.01.74.07,1.42-.1,2.16-.14.6-.9,2.41-1.39,2.78-.22.17-4.47,2.03-4.73,2.06-.05,0-.87-.19-.93-.21-.32-.1-.24-.39-.31-.41-.04-.02-.65-.03-.82-.1-.15-.06-.28-.4-.31-.41-1.54-.63-3.28-1.1-5.04-1.23l1.59.93c-.78-.34-2.07-.86-2.88-1.03,3-3.34,7.33-5.37,11.87-5.04,1.01.07,2.01.53,3.03.51Z"/>
        <path class="cls-7" d="M57.47,27.03c-.97.21-2.37.81-3.29,1.23.39-.57,1.37-.62,1.95-.98-.97-.15-2.3.17-3.24.46-1.27.4-3.27,1.88-4.52,1.64-.07-.01-1.03-.43-1.23-.51-.11-.04,0-.27-.1-.31-.03-.01-.59.01-.62,0-.11-.05,0-.26-.1-.31-.42-.19-1.64-.35-2.16-.72s-1.15-1.96-1.28-2.57c-.18-.77-.09-1.52-.21-2.26,5.29-1.95,11.21.23,14.8,4.32Z"/>
        <path class="cls-10" d="M33.72,27.75c-.37,1.77-.79,3.1-2.36,4.16l5.45,1.28c-2.46.19-4.35.71-6.58,1.75-1.9-3.09-4.79-5.46-8.12-6.89l-1.59-.93c1.75.14,3.49.6,5.04,1.23.02,0,.16.35.31.41.17.07.78.09.82.1.06.03-.01.31.31.41.06.02.88.21.93.21.26-.03,4.5-1.89,4.73-2.06.49-.37,1.25-2.18,1.39-2.78.08,1-.1,2.1-.31,3.08Z"/>
        <path class="cls-10" d="M54.18,28.26c-2.21,1.02-4.59,2.71-6.17,4.57-.56.67-.98,1.64-1.64,2.11-2.12-.99-3.91-1.54-6.27-1.75l5.34-1.28c-1.2-.71-1.92-1.8-2.26-3.14-.31-1.23-.33-2.55-.31-3.8.14.61.78,2.21,1.28,2.57s1.74.52,2.16.72c.11.05,0,.26.1.31.03.01.59-.01.62,0,.11.04,0,.27.1.31.21.08,1.17.5,1.23.51,1.25.23,3.26-1.24,4.52-1.64.93-.29,2.27-.61,3.24-.46-.58.36-1.56.41-1.95.98Z"/>
      </g>
      <g>
        <path class="cls-9" d="M27.97,36.28c-6.94,5.83-7.26,16.39-7.4,24.82-.18,10.87,1.06,29.75,5.24,39.57.4.94,1.59,2.09,1.59,3.14-.79-.27-3.78.06-4.32-.41-.22-.19-.11-.35-.26-.62-3.77-7.07-5.33-26.98-5.55-35.31-.32-12.05-.98-24.76,10.69-31.2Z"/>
        <g>
          <path class="cls-8" d="M19.23,27.03c.81.17,2.1.69,2.88,1.03,3.33,1.43,6.22,3.8,8.12,6.89-.89.41-1.46.89-2.26,1.34-11.67,6.44-11.01,19.14-10.69,31.2.22,8.32,1.78,28.23,5.55,35.31l.05.72c-2.95-.43-5.9-1.33-8.22-3.49C6.31,92.24,2.21,71.04.93,59.97c0-.06-.07-1.1-.31-.87-.91-8.71-1.66-19.49,4.11-26.78,3.46-4.38,8.97-6.44,14.49-5.29Z"/>
          <path class="cls-1" d="M14.55,29.4c3.33-.31,6.44,2.33,8.69,4.47-6.72,3.38-12.89,7.83-16.6,14.54-1.67-5.6-1.2-13.19,3.7-17.06.99-.78,2.97-1.84,4.21-1.95Z"/>
        </g>
      </g>
      <g>
        <path class="cls-5" d="M53.77,103.09c-.64.84-3.57.68-4.63.46,2.68-3.99,3.84-9.28,4.73-13.98,1.74-9.21,2.48-19.7,2.26-29.09-.19-7.92-.57-18.79-7.3-24.1,11.38,4.65,10.84,20.64,10.59,30.99-.21,8.53-1.08,17.98-2.88,26.31-.36,1.68-1.94,8.3-2.78,9.41Z"/>
        <g>
          <path class="cls-4" d="M76.59,53.86c-.4-.02-.17.96-.21,1.23-1.73,12.11-3.22,24.8-8.53,36.13-2.6,5.55-6.46,11.59-13.21,12.18-.22.02-1,.15-.87-.31.84-1.1,2.41-7.72,2.78-9.41,1.79-8.33,2.67-17.78,2.88-26.31.26-10.35.8-26.34-10.59-30.99-.93-.74-1.47-.97-2.47-1.44.67-.46,1.08-1.44,1.64-2.11,1.57-1.86,3.96-3.55,6.17-4.57.92-.43,2.32-1.03,3.29-1.23,16.25-3.44,19.81,14.91,19.12,26.83Z"/>
          <path class="cls-6" d="M76.59,53.86c-.02.42-.07.82-.1,1.23h-.1c.04-.27-.2-1.25.21-1.23Z"/>
          <path class="cls-1" d="M60.81,29.4c1.86-.17,3.65.6,5.14,1.64,5.33,3.76,5.87,11.72,4.01,17.47-3.43-6.75-9.83-11.32-16.5-14.54,1.69-1.84,4.8-4.34,7.35-4.57Z"/>
        </g>
      </g>
      <g>
        <path class="cls-3" d="M38.35,31.76c-2.54-.18-4.62-1.18-4.63-4.01.21-.98.39-2.08.31-3.08.17-.74.09-1.42.1-2.16.11-5.35-2.05-14.67-9.2-13.67-1.5.21-2.62,1.78-4.21,1.44-1.23-.26-2.28-2.72-2.62-3.8,7.93-3.42,15.06.86,18.19,8.38,2.22,5.31,2.28,11.23,2.06,16.91Z"/>
        <path class="cls-12" d="M38.35,31.76c1.28.09,3.43,0,4.21-1.18l.62-1.8c.34,1.33,1.06,2.42,2.26,3.14l-5.34,1.28c-1.15-.1-2.14-.09-3.29,0l-5.45-1.28c1.57-1.06,1.99-2.39,2.36-4.16,0,2.83,2.08,3.83,4.63,4.01Z"/>
        <g>
          <path class="cls-3" d="M42.67,22.71c.12.74.03,1.49.21,2.26-.02,1.26,0,2.58.31,3.8l-.62,1.8c-.78,1.18-2.94,1.27-4.21,1.18.22-5.68.16-11.6-2.06-16.91-3.14-7.52-10.27-11.8-18.19-8.38-.44-1.39-1.45-5.41.46-6.06,4.03-1.38,11.38.97,14.7,3.49,6.43,4.88,8.21,11.22,9.41,18.81Z"/>
          <path class="cls-11" d="M22.16,1.85c.74-.19,3.85.14,4.73.31,7.87,1.47,13.03,10.12,14.44,17.42.32,1.64,1.1,7.83.72,9.15-.22.74-1.73.78-1.95-.1-.27-1.05-.05-3.89-.21-5.24-.86-7.7-4.33-17.79-13-19.48-1.35-.26-3.58-.04-4.63-.31-.79-.2-.93-1.53-.1-1.75Z"/>
        </g>
      </g>
    </g>
  </g>
</svg>