<?xml version="1.0" encoding="UTF-8"?>
<svg id="_레이어_2" data-name="레이어 2" xmlns="http://www.w3.org/2000/svg" viewBox="0 0 128.73 73.34">
  <defs>
    <style>
      .cls-1 {
        fill: #f78887;
      }

      .cls-2 {
        fill: #f9afac;
      }

      .cls-3 {
        fill: #ffefeb;
      }

      .cls-4 {
        fill: #e95a55;
      }

      .cls-5 {
        fill: #fddbd6;
      }

      .cls-6 {
        fill: #f2726f;
      }
    </style>
  </defs>
  <g id="_레이어_1-2" data-name="레이어 1">
    <g id="_생성형_개체" data-name="생성형 개체">
      <path class="cls-1" d="M64.91,12.16c2.55,5.32,8.5,7.37,3.45,13.46-10.45,12.61-41.1,13.11-55.58,8.91-1.14-.33-5.14-2.75-5.45-.62-.18,1.23,1.62,1.89,2.55,2.42,8.57,4.87,19.62,8.91,29.28,10.91,2.44.51,7.14,1.59,9.46,1.38l-.28,2.35c-1.44.06-3.95-.44-5.45-.69-15.03-2.49-29.87-8.89-42.46-17.26.3-.62.74-1.02,1.31-1.38,11.53-2.22,23.73-3.22,34.94-6.77,9.7-3.06,19.08-8.32,28.24-12.7Z"/>
      <path class="cls-5" d="M128.57,17.55c0,1.85.02,3.68,0,5.52-6.63,3.03-13.21,6.23-19.4,10.08-7.39,4.59-14.1,10.21-21.4,14.91-8.18,5.27-29.32,17.09-38.6,17.4-2.85.09-7.29-.79-10.15-1.38-3.52-.73-7.07-1.76-10.43-3.04,6.6,2.02,13.31,3.7,20.23,4.28.57-.48-.47-4.35.21-5.11,7.8-.57,22.92-7.59,29.76-11.74,9.49-5.75,17.36-13.74,26.79-19.61,7.25-4.51,15.09-8.13,22.99-11.32Z"/>
      <path class="cls-4" d="M128.71,14.51c.01,1.01-.14,2.05-.14,3.04-7.91,3.19-15.74,6.81-22.99,11.32-9.43,5.87-17.3,13.85-26.79,19.61-6.84,4.15-21.96,11.17-29.76,11.74-.09,0-.19,0-.28,0l-.28-4c9.15-.56,26.25-10.12,34.04-15.33s14.3-11.24,22.23-15.74c6.67-3.79,14.68-7.24,21.82-10.08.55-.22,1.56-.63,2.14-.55Z"/>
      <path class="cls-5" d="M128.71,14.51c-.58-.08-1.6.34-2.14.55-7.14,2.84-15.15,6.29-21.82,10.08-7.93,4.51-14.67,10.69-22.23,15.74s-24.89,14.77-34.04,15.33c-.05,0-.09,0-.14,0l-.07-3.18C30.71,51.51,14.76,44.64.14,35.22c.07-1.01-.32-.97.28-2.21,12.59,8.37,27.43,14.77,42.46,17.26,1.5.25,4.02.75,5.45.69.05,0,.09,0,.14,0v2c6.14-.84,12.55-3.36,18.16-6.01,11.26-5.32,19.48-12.44,29.55-19.19s21.71-10.84,32.52-15.47c.03.74-.01,1.48,0,2.21Z"/>
      <path class="cls-5" d="M128.57,28.18c-.01,1.24.03,2.49,0,3.73-7.46,3.14-14.77,6.65-21.89,10.5-18.57,10.03-35.5,24.06-56.76,28.17l-.21.35.41,2.42c-2.47.05-11.18-2.72-14.02-3.59-10.25-3.13-24.49-8.26-33.56-13.81-1.7-1.04-2.08-.85-2.42-2.9,2.06,1.01,3.98,2.42,6.01,3.45,5.23,2.67,12.11,5.51,17.68,7.46,8.36,2.93,17.15,5.34,25.89,6.56-.23-.69-.24-1.28-.28-2,8.95.07,28.36-10.93,36.25-15.88,4.8-3.01,9.31-6.49,14.09-9.53,9.13-5.81,18.81-10.71,28.79-14.91Z"/>
      <path class="cls-4" d="M128.57,28.18c-9.98,4.21-19.66,9.11-28.79,14.91-4.78,3.04-9.29,6.52-14.09,9.53-7.89,4.96-27.3,15.95-36.25,15.88-.06-1.02-.07-2.04-.28-3.04,9.28-.31,30.41-12.13,38.6-17.4,7.31-4.71,14.02-10.33,21.4-14.91,6.19-3.85,12.78-7.05,19.4-10.08-.02,1.7.02,3.41,0,5.11Z"/>
      <path class="cls-1" d="M48.34,56.21s.09,0,.14,0l.28,4c-5.3.29-13.12-1.37-18.3-2.76-10.85-2.91-21.11-8-30.31-14.36,0-1.57-.03-3.11,0-4.7,9.75,6.23,20.24,11.68,31.42,14.91,4.69,1.36,11.96,3.11,16.78,2.9Z"/>
      <path class="cls-2" d="M128.71,33.43c-.04.25.11.5-.21.69-9.51,4.49-19.35,9.36-28.45,14.64-10.17,5.9-19.26,13.01-30.1,17.95-4.02,1.83-15.82,6.54-19.82,6.63l-.41-2.42.21-.35c21.26-4.11,38.19-18.14,56.76-28.17,7.12-3.85,14.43-7.35,21.89-10.5-.01.45.23.98.14,1.52Z"/>
      <path class="cls-3" d="M48.75,60.22c.09,0,.19,0,.28,0-.68.76.37,4.63-.21,5.11-6.92-.58-13.63-2.26-20.23-4.28-10.01-3.07-19.49-7.6-28.45-12.98-.04-1.69,0-3.29,0-4.97,9.2,6.36,19.46,11.45,30.31,14.36,5.18,1.39,13,3.06,18.3,2.76Z"/>
      <path class="cls-6" d="M127.46,7.88c1.3.68.9,1.09,1.1,2.35-11.25,4.57-23.52,9.08-33.63,15.88-8.15,5.48-15.19,11.44-24.03,16.16-4.86,2.6-17.28,8.38-22.44,8.7-.05,0-.09,0-.14,0l.28-2.35c2.85-.25,6.53-2.29,9.39-2.9,12.05-2.98,26.37-15.1,36.66-21.96s20.6-9.94,31.21-14.78c.21-.1.53-.26.48-.55.68-.15.57-.3,1.1-.55Z"/>
      <path class="cls-2" d="M128.57,10.23c.15.89.1,1.25.14,2.07-10.81,4.62-22.74,8.9-32.52,15.47s-18.29,13.87-29.55,19.19c-5.61,2.65-12.02,5.17-18.16,6.01v-2c5.16-.32,17.58-6.1,22.44-8.7,8.84-4.72,15.88-10.67,24.03-16.16,10.1-6.8,22.37-11.31,33.63-15.88Z"/>
      <path class="cls-3" d="M48.34,56.21c-4.81.21-12.09-1.54-16.78-2.9-11.18-3.23-21.67-8.69-31.42-14.91.02-1.08-.08-2.06,0-3.18,14.62,9.42,30.57,16.28,48.13,17.81l.07,3.18Z"/>
      <path class="cls-1" d="M28.59,61.05c3.35,1.28,6.91,2.31,10.43,3.04,2.86.59,7.3,1.47,10.15,1.38.21,1,.22,2.02.28,3.04-3.43-.03-8.28-1.23-11.67-2.07-12.89-3.22-26.31-8.59-37.63-15.47,0-.11-.13-.15-.14-.41-.04-.83.15-1.72.14-2.49,8.96,5.38,18.43,9.91,28.45,12.98Z"/>
      <path class="cls-3" d="M49.44,68.5c.04.72.05,1.31.28,2-8.74-1.22-17.54-3.63-25.89-6.56-5.56-1.95-12.45-4.79-17.68-7.46-2.03-1.04-3.95-2.45-6.01-3.45-.12-.71.04-1.41,0-2.07,11.32,6.87,24.74,12.25,37.63,15.47,3.39.85,8.24,2.04,11.67,2.07Z"/>
      <g>
        <path class="cls-3" d="M102.75,1.67l11.46,2.49c3.4.82,10.38,2.22,13.26,3.73-.53.25-.43.4-1.1.55-2.61.59-4.98.01-7.8.97-8.03,2.72-17.67,8.7-24.99,12.98-6.33,3.7-13.3,5.04-20.16,7.32-7.66,2.55-14.72,5.53-22.79,7.04-3.34.63-20.85,2.04-22.09,3.04-1.72,1.37,2.62,3.06,3.59,3.45,7.22,2.88,18.4,4.34,25.89,2.49-2.86.61-6.54,2.65-9.39,2.9-2.32.21-7.02-.87-9.46-1.38-9.65-2-20.71-6.04-29.28-10.91-.93-.53-2.74-1.19-2.55-2.42.31-2.13,4.32.29,5.45.62,14.48,4.2,45.13,3.7,55.58-8.91,5.05-6.09-.9-8.15-3.45-13.46,4.71-2.25,9.31-4.87,14.15-6.9C81.8,4.11,91.16.24,93.56,0c1.42-.13,7.34,1.31,9.18,1.66Z"/>
        <path class="cls-5" d="M114.21,4.15l-11.46-2.49c3.84.72,7.66,1.57,11.46,2.49Z"/>
        <path class="cls-1" d="M95.08,1.8c3.99-.27,16.21,2.4,19.61,4.56.72.46,1.83,1.1,1.31,2.14-.36.72-12.5,5.79-14.43,6.84-6.61,3.59-16.52,11.82-24.58,10.36-1.9-.34-1.19-1.66-1.73-2.97-1.11-2.73-4.97-4.76-4.42-8.7.75-5.37,19.38-11.89,24.24-12.22Z"/>
      </g>
      <path class="cls-1" d="M58,45.72c-7.49,1.85-18.67.4-25.89-2.49-.97-.39-5.31-2.08-3.59-3.45,1.25-1,18.76-2.41,22.09-3.04,8.06-1.51,15.13-4.5,22.79-7.04,6.86-2.28,13.83-3.62,20.16-7.32,7.33-4.29,16.97-10.27,24.99-12.98,2.82-.95,5.19-.38,7.8-.97.05.29-.27.46-.48.55-10.61,4.84-21.32,8.19-31.21,14.78s-24.61,18.98-36.66,21.96Z"/>
    </g>
  </g>
</svg>