<svg viewBox="0 0 58.91 78.65" xmlns="http://www.w3.org/2000/svg">
  <defs>
    <style>
      .cls-1 { fill: #cb8b35; }
      .cls-2 { fill: #f9cf7a; }
      .cls-3 { fill: #fcdea0; }
      .cls-4 { fill: #e6ab49; }
    </style>
  </defs>
  <g>
    <path class="cls-4" d="M25.93,78.4l-5.96-1.97c-1.29-.7-2.62-1.31-3.87-2.09,3.99.1,8.06.39,11.98-.49,11.3-2.53,20.49-11.38,23.78-22.42,4.22-14.18-2.35-38.56-13.58-48.47-.74-.66-1.86-1.1-2.27-1.97,17.55,5.32,24.82,35.16,22.49,51.18-2.41,16.56-15.33,28.4-32.56,26.23Z"/>
    <path class="cls-3" d="M22.86,1.97c-13.58,6.13-13.02,18.7-16.1,30.9-.72,2.85-2.05,5.54-2.83,8.36-1.47,5.35-1.83,11.09-.25,16.47-.91.12-1.67-1.19-2.46-.55-3.17-10.66.49-15.64,3.07-25.25C7.46,20.14,8.07,6.11,21.87,1.23c-.12.47.66.21.98.74Z"/>
    <path class="cls-2" d="M29.12,0c-2.1.51-3.91,1-5.9,1.84-.09.04-.23.06-.37.12-.32-.53-1.1-.27-.98-.74C24.28.38,26.57.04,29.12,0Z"/>
    <path class="cls-2" d="M36,.99c.42.86,1.53,1.31,2.27,1.97,11.23,9.92,17.79,34.29,13.58,48.47-3.28,11.04-12.48,19.89-23.78,22.42-3.93.88-7.99.59-11.98.49-5.84-3.65-10.42-9.63-12.29-16.28,2.17.46,4.24,1.35,6.45,1.66,17.59,2.43,29.1-8.1,30.53-25.25,1.09-13-5.15-27.29-17.57-32.62,1.99-.84,3.8-1.33,5.9-1.84,2.74-.04,4.3.2,6.88.98Z"/>
    <path class="cls-4" d="M47.68,21.14c-.87,1.19-5.29.49-5.28.06.05-.11.24-.05.25-.06,1.56-.67,3.53-.86,5.04,0Z"/>
    <path class="cls-4" d="M35.76,65.99s.17.21-.06.37c-.52.36-5.07,1.87-5.35,1.6-.02-.14.1-.11.12-.12,1.75-1.16,2.91-2.31,5.28-1.84Z"/>
    <path class="cls-1" d="M35.76,65.86s0,.08,0,.12c-2.37-.47-3.54.68-5.28,1.84.19-2.21,3.74-3.39,5.28-1.97Z"/>
    <path class="cls-4" d="M48.41,47.31s.1.27.25.25c-.2.65-4.15-.03-4.79-.12,1.12-.83,3.39-.81,4.55-.12Z"/>
    <path class="cls-1" d="M47.68,20.89c0,.19.15.05,0,.25-1.5-.86-3.48-.67-5.04,0,.03-.18.05-.21.12-.37,1.36-1.01,3.81-1.4,4.91.12Z"/>
    <path class="cls-2" d="M35.76,65.86c-1.55-1.43-5.1-.24-5.28,1.97-.03.02-.14-.02-.12.12-.73-.74,1.31-2.72,2.15-2.95s3.13-.33,3.26.86Z"/>
    <path class="cls-2" d="M48.66,47.56c-.15.02-.23-.24-.25-.25-.84-1.53-4.01-1.28-4.79.12-.02,0-.17.28-.37-.06.56-2.26,6.01-1.72,5.41.18Z"/>
    <path class="cls-1" d="M48.41,47.31c-1.15-.68-3.42-.71-4.55.12-.08-.01-.18.02-.25,0,.78-1.4,3.95-1.65,4.79-.12Z"/>
    <path class="cls-2" d="M47.68,20.89c-1.11-1.53-3.56-1.14-4.91-.12,1.01-2.06,4.86-1.57,4.91.12Z"/>
    <path class="cls-1" d="M12.23,64.76c.56,0,1.34.33,1.66.8-1.14-.14-2.11-.44-3.26-.06.05-.45,1.29-.74,1.6-.74Z"/>
    <path class="cls-2" d="M23.22,1.85c12.42,5.33,18.66,19.62,17.57,32.62-1.44,17.16-12.95,27.68-30.53,25.25-2.21-.31-4.28-1.2-6.45-1.66,1.86,6.65,6.44,12.63,12.29,16.28,1.25.78,2.58,1.39,3.87,2.09l5.96,1.97c-11.45-1.44-21.43-10.26-24.7-21.26.79-.64,1.54.67,2.46.55-1.58-5.38-1.23-11.11.25-16.47.77-2.81,2.11-5.51,2.83-8.36,3.07-12.21,2.52-24.77,16.1-30.9.14-.06.28-.09.37-.12Z"/>
    <path class="cls-1" d="M25.25,9.46c1.19-.13,2.93.23,3.26,1.54-1.11-.38-2.19-.64-3.38-.55-.62.05-3.33,1.18-1.72-.25.23-.21,1.54-.7,1.84-.74Z"/>
    <path class="cls-1" d="M34.04,34.65c-.01.17.16.33.06.37-.21.07-.31-.11-.43-.12-2.34-.28-2.35-.45-4.55.49-.19.08-.37.16-.55.25-.2-.15.09-.26.06-.37.99-1.72,4.04-2.04,5.41-.61Z"/>
    <path class="cls-1" d="M14.62,45.34c.02.22.28.5,0,.61-1.18-1.18-3.81-1.38-5.16-.37-.19-.04-.22-.07-.37-.12,1.24-1.72,4.13-1.64,5.53-.12Z"/>
    <path class="cls-4" d="M14.62,45.96c-.34.15-4.52-.25-5.16-.37,1.35-1.01,3.98-.82,5.16.37Z"/>
    <path class="cls-4" d="M33.67,34.9c.03.38-.19.31-.43.37-.9.21-3.16.46-4.05.37-.44-.04.25-.16-.06-.25,2.19-.94,2.21-.78,4.55-.49Z"/>
    <path class="cls-3" d="M14.62,45.34c-1.4-1.51-4.29-1.6-5.53.12-.09-.04-.25.29-.25-.06.46-.81,1.3-1.53,2.27-1.66,1.24-.17,3.41.27,3.5,1.6Z"/>
    <path class="cls-3" d="M34.04,34.65c-1.36-1.43-4.41-1.11-5.41.61,0-.04-.42.16,0-.55,1.12-1.93,5.53-1.79,5.41-.06Z"/>
    <path class="cls-1" d="M26.85,47.43c.7-.13,1.99,0,2.27.8-.89-.33-2.32-.56-3.13-.06-.19-.35.66-.7.86-.74Z"/>
    <path class="cls-3" d="M18.13,14.63c1.42-.03,3.31,1.46,3.75,2.76,1.14,3.41-2.19,9.92-4.42,12.53-7.69,9.02-8.69-6.75-4.42-12.29.93-1.2,3.57-2.97,5.1-3.01Z"/>
    <path class="cls-4" d="M13.82,25.44c.84-.16,1.4.17,1.84.25.27.04.82-.57,1.17.8-1.31-.67-2.74-.63-4.12-.18-.12-.39.92-.83,1.11-.86Z"/>
  </g>
</svg>