<?xml version="1.0" encoding="UTF-8"?>
<svg id="_레이어_2" data-name="레이어 2" xmlns="http://www.w3.org/2000/svg" width="69.91" height="145.18" xmlns:xlink="http://www.w3.org/1999/xlink" viewBox="0 0 69.91 145.18">
  <defs>
    <style>
      .cls-1 {
        fill: url(#_무제_그라디언트_221);
      }

      .cls-2 {
        fill: #4a8634;
      }

      .cls-3 {
        fill: #ddd5ad;
      }

      .cls-4 {
        fill: #fafbfc;
      }

      .cls-5 {
        fill: #cad965;
      }

      .cls-6 {
        fill: #64a239;
      }

      .cls-7 {
        fill: #f6f6c8;
      }

      .cls-8 {
        fill: #8cc843;
      }

      .cls-9 {
        fill: #76bb55;
      }

      .cls-10 {
        fill: url(#_무제_그라디언트_224);
      }

      .cls-11 {
        fill: #f0eddb;
      }
    </style>
    <linearGradient id="_무제_그라디언트_224" data-name="무제 그라디언트 224" x1="38.88" y1="65.11" x2="43.47" y2="120.18" gradientUnits="userSpaceOnUse">
      <stop offset="0" stop-color="#e8e5d2"/>
      <stop offset="1" stop-color="#cdc39b"/>
    </linearGradient>
    <linearGradient id="_무제_그라디언트_221" data-name="무제 그라디언트 221" x1="17.81" y1="75.68" x2="50.12" y2="101.64" gradientUnits="userSpaceOnUse">
      <stop offset="0" stop-color="#f9f8f0"/>
      <stop offset="1" stop-color="#e1dbba"/>
    </linearGradient>
  </defs>
  <g id="_레이어_1-2" data-name="레이어 1">
    <g id="_생성형_개체" data-name="생성형 개체">
      <g>
        <path class="cls-10" d="M39.7,125.14c-.43.4-.89.76-1.28,1.2-.57-.44,1.27-7.16,1.35-8.26l-8.78.45c-.08-.36.44-.54.68-.6,1.48-.37,7.97-.03,8.41-.45.22-.21,1.36-4.02,1.5-4.66l-8.63.38c2.73-1.2,5.88-.84,8.78-.68l1.43-3.68c-.24-.65-6.65-.73-7.58-.68s-2,.55-2.93.53c-.48-.01-.29-.15-.08-.23,3.46-.83,7.05-.79,10.51,0,.37-.14.95-3.28.98-3.83-3.49-.92-7.26-.54-10.81-.15,3.4-1.05,7.37-.8,10.89-.23.5-2.21,1.05-4.56,1.43-6.83.09-.55-.31-.71-.3-.75,0-.06.42-.13.45-.3.2-1.3.38-2.61.6-3.9-4.5-1.35-9.51-1.92-14.19-1.28,1.41-.65,3.46-.6,5.03-.6,1.34,0,2.65.07,3.98.15l5.33,1.13c.81-5.99,1.35-12.18-.15-18.09,1.41.52,2.95,1.03,3.83,2.4.44-1.41-3.16-2.8-4.28-3.15-.83-3.65-2.38-7.48-5.56-9.69-.14-.98,3.17.37,3.45-.53,9,3.41,8.81,13.1,8.26,21.25-.63,9.37-5.5,34.75-12.31,41.07Z"/>
        <path class="cls-3" d="M30.99,118.53l8.78-.45c-.08,1.1-1.93,7.82-1.35,8.26.39-.44.85-.81,1.28-1.2-.41.88-1.32,1.34-1.65,2.33-.85,2.55-.43,7.84-1.05,10.96-.47,2.35-1.47,4.64-2.55,6.76,1.59-5.66,2.28-12.67-.6-18.02-4.72-8.77-7.51-13.96-10.36-23.8l.45-.23c1.66,6.16,3.86,12.49,7.88,17.49.67-.02-.89-1.97-.83-2.1Z"/>
        <path class="cls-11" d="M46.3,73.78c1.5,5.92.96,12.1.15,18.09l-5.33-1.13c-1.33-.08-2.64-.15-3.98-.15l.3-5.71c2.15,0,3.97.14,6.08.6.27.06,2.63,1.13,2.63.53-2.7-1.66-5.82-1.72-8.86-1.58l.3-5.56c2.42-.04,4.87.13,7.28.3.28-.27-.47-.42-.6-.45-1.18-.29-3.31-.26-4.58-.3-.22-.68-2.02-.05-2.25-.38-.17-.24-.31-5.06-.15-5.78,3.13.06,6.06.42,9.01,1.5Z"/>
        <path class="cls-3" d="M45.85,73.03c1.12.35,4.71,1.75,4.28,3.15-.88-1.38-2.42-1.89-3.83-2.4-2.95-1.08-5.88-1.44-9.01-1.5-2.69-.05-5.38.09-8.03.6-.08-.29.53-.38.75-.45,3.74-1.15,12.06-.59,15.84.6Z"/>
        <path class="cls-3" d="M37.44,84.89c-2.16,0-4.04.24-6.16.53,1.93-.76,3.96-.88,6.01-.98,3.04-.14,6.16-.08,8.86,1.58,0,.61-2.36-.47-2.63-.53-2.11-.46-3.93-.6-6.08-.6Z"/>
        <g>
          <path class="cls-1" d="M40.3,61.77c.61.08,2.78.8,3.45,1.05-.29.89-3.6-.45-3.45.53,3.18,2.2,4.73,6.03,5.56,9.69-3.78-1.19-12.1-1.75-15.84-.6-.22.07-.83.16-.75.45,2.65-.51,5.34-.65,8.03-.6-.16.72-.02,5.54.15,5.78.23.32,2.04-.31,2.25.38-2.81-.09-6.35-.12-9.09.45-.74.15-2.31.48-2.55,1.2,3.19-.96,6.23-1.14,9.54-1.2l-.3,5.56c-2.04.1-4.08.22-6.01.98,2.12-.29,3.99-.53,6.16-.53l-.3,5.71c-1.57,0-3.62-.05-5.03.6,4.68-.64,9.69-.07,14.19,1.28-.22,1.3-.4,2.6-.6,3.9-.03.17-.44.24-.45.3,0,.04.39.21.3.75-.38,2.27-.92,4.63-1.43,6.83-3.52-.58-7.48-.83-10.89.23,3.55-.39,7.32-.77,10.81.15-.03.55-.6,3.69-.98,3.83-3.46-.79-7.06-.83-10.51,0-.21.08-.4.21.08.23.93.02,1.99-.47,2.93-.53s7.34.02,7.58.68l-1.43,3.68c-2.9-.17-6.05-.52-8.78.68l8.63-.38c-.14.64-1.28,4.44-1.5,4.66-.44.42-6.93.08-8.41.45-.23.06-.75.24-.68.6-.06.13,1.49,2.08.83,2.1-4.03-5.01-6.22-11.33-7.88-17.49l-.45.23c-3.65-12.6-10.72-38.23,8.56-41.3,1.97-.31,6.35-.56,8.26-.3Z"/>
          <path class="cls-3" d="M39.7,78.44c1.27.04,3.4.02,4.58.3.13.03.88.18.6.45-2.41-.17-4.86-.34-7.28-.3-3.3.06-6.35.25-9.54,1.2.24-.72,1.81-1.05,2.55-1.2,2.73-.57,6.28-.54,9.09-.45Z"/>
          <path class="cls-3" d="M35.57,94.95c3.09-.15,6.53.1,9.39,1.28l-7.88-.98-5.11.3c.97-.42,2.55-.55,3.6-.6Z"/>
          <path class="cls-3" d="M37.22,99.46c1.86.01,3.85.32,5.63.83l-9.54-.23.9-.45c.98.16,2.05-.16,3-.15Z"/>
        </g>
      </g>
      <g>
        <g>
          <path class="cls-6" d="M25.88,1.4c.2,1.97,1.18,3.79,1.8,5.41,2.04,7.53,4.61,15.6,5.11,23.43.06,1,.02,2.14.08,3.15-.49-.25-.61-.93-.9-1.2-1.41-1.33-9.26-5.85-11.26-6.91-.54-.28-.22.11-.38.15-.1.03-.33-.37-.6.08.78.58.03,1.06,0,1.13.04-1.95-2.77-1.67-.3.15-.26.43,0,.69,0,.9-.74-1.08-1.45-2.26-2.33-3.3-.76.3-.75.49-1.65.45-.03,0-.83-.66-.23-.6,1.23,1.09,1.48-1.05,2.85.53-.63-.81.49-1.31.45-1.65-.05-.47-1.96-.93-1.2-3.15.12-.34.73-.81.75-.9.14-.61-.97-1.42-.6-2.85.22-.85,1.61-1.83,1.65-1.95.17-.48-.43-1.58-.3-2.4.22-1.36,2.46-2.13,2.55-3,.12-1.08-1.34-1.77-.75-3,.42-.89,1.86-.63,2.33-.98.22-.17.39-1.04.53-1.35.5-1.11.66-2.72,1.95-3.08l.45.98Z"/>
          <path class="cls-8" d="M30.84,2.45c3.18-.03,1.98.31,2.55,2.18.38,1.25,2.93-.6,4.05,1.5.28.53.34,2.11.6,2.4.54.6,1.42-.51,1.95.9.38,1-.46,2.23.45,3.08-1.47.15-.18-2.48-1.05-3.38-.42-.44-.58.37-1.73-.83-.06-.06-.42.09-.53-.08-.19-.29-.27-1.84-.75-2.4-1.11-1.3-2.15.23-3.23-.38-.69-.38-.41-1.27-.6-1.5-.06-.07-1.81-.45-1.88-.38-.25,1.83-1.05,3.25-2.1,4.73-.16-.43-.75-1.1-.9-1.5-.62-1.62-1.61-3.44-1.8-5.41-.01-.15-.24-.28-.15-.53.61-.42,1.24.63,1.43.68.31.07,1.38-.3,1.8-.15.44.16.63,1.6,1.35,1.95.23.11,2.22.23,2.4.45l.15.9c.57-2.89-.98-1.53-1.8-1.8-.25-.08-.21-.43-.23-.45Z"/>
          <path class="cls-8" d="M30.84,2.45s-.02.37.23.45c.82.28,2.37-1.09,1.8,1.8l-.15-.9c-.19-.22-2.18-.34-2.4-.45-.72-.36-.91-1.79-1.35-1.95s-1.5.22-1.8.15c-.18-.04-.82-1.1-1.43-.68-.09.25.14.38.15.53l-.45-.98c-1.29.35-1.46,1.97-1.95,3.08.07-1.9,1.08-3.84,3.23-3.45.26.05,1.04.66,1.35.75.34.1.75-.26,1.2-.15.73.17,1.16,1.34,1.58,1.8Z"/>
          <path class="cls-8" d="M39.85,35.34c-5.15,6.73-1.73,13.71-1.95,21.32-.02.81-.23,2.47-.45,3.23-.05.18.1.54-.3.3l-.75-8.33v-13.82c.47-1.38,2.63-7.1,3.15-8.03.2-.35.88-1.15,1.13-1.58.35.16-.85,3.02-.98,3.38-.03.09.27.55.15.9-.08.22-1.18,1.11-1.5,1.8-.57,1.22-.5,2.64-.9,3.9,1.06-.69,1.15-2.63,2.4-3.08Z"/>
          <path class="cls-7" d="M36.39,51.86c-.76.02-.29-1.04-.3-1.13-.14-1.41-.36-2.78-.45-4.2,0-.12-.29,0-.3-.23,0-.02.31.05.3-.08-.15-3.12-.3-5.1.75-8.18v13.82Z"/>
          <g>
            <path class="cls-8" d="M40.45,12.51c.32-.03.67-.33.83-.3,1.34.27.2,4.98.53,5.78.21.53,1.28-.72,1.65.9.46,2.06-2.06,5.85-1.95,6.16.12.35.73.09.9.45.2.43-.32.93-.3,1.35,0,.04.43.45.45.6,0,.04-.34.17-.3.6s.67,1.15.45,1.95c-.16.58-1.95.8-.53,1.88.11-.37.95-1.2.98-1.28.22-.7-.28-2.46.15-3.15.2-.32.86-.22.98-1.28l.68.23c.1-1.08.13-4.25,1.43-4.58.37-.09.71.26,1.05.15.37-.12.78-2.15,1.13-2.63,1.09-1.49,1.43-.32,2.18-.68.45-.21.66-1.25,1.28-1.8,1.19-.67,1.55.88,3.08,0-.93-.21,1.38-1.89,1.8-1.95.38-.06,1.77.08,1.43.75-.72-.11-1.28.19-1.8.68-2.3,2.11-3.68,9.35-4.05,11.64l-2.25,1.65c-.36-3.25-.2-6.54,1.2-9.54-.66.06-.71,1.4-.75,1.5-.37.87-1.13,2.46-1.2,3.15-.23,2.25.69,6.88.3,8.56-.04.15-1.73,2.39-1.8,2.25l-.15-10.66c-.1-.21-.41.04-.45.15-.1.26,0,4.74,0,5.56,0,1.42.49,4.32.15,6.01,0,.04-.15.13-.3.6-.1.32-1.11,1.35-1.13,1.88-1.04-.82-.76-1.82-.9-3-.25,0,.32,2.31-.68,2.03l.23-6.38c-.15.67-.34,1.5-.38,2.18-.02.27.15,4.34-.3,3.9.05-.13-.51-2.78-.75-1.8-.14.58.3.56.3.6-.07,1.32-.61,2.72-.15,4.2-.62-.05-.03-1.18-.9-1.13-.2-1.74-1.13-3.79-2.03-5.26-.31.24-.45.6-.68.9-1.26.45-1.35,2.38-2.4,3.08.4-1.26.34-2.68.9-3.9.32-.69,1.42-1.58,1.5-1.8.12-.35-.18-.81-.15-.9.12-.36,1.32-3.21.98-3.38-.24.43-.93,1.22-1.13,1.58-.52.94-2.68,6.65-3.15,8.03-1.05,3.09-.9,5.07-.75,8.18,0,.12-.3.06-.3.08-.47-6.29-.74-12.79-1.8-19-.99-5.77-2.88-13.56-4.96-19,1.05-1.48,1.85-2.9,2.1-4.73.06-.07,1.82.3,1.88.38.19.23-.09,1.12.6,1.5,1.08.61,2.12-.93,3.23.38.48.56.56,2.11.75,2.4.11.17.47.02.53.08,1.15,1.2,1.31.39,1.73.83.87.9-.42,3.53,1.05,3.38Z"/>
            <path class="cls-5" d="M37.07,26.18c-.65,2.05-1.66,3.98-2.4,6.01.28-2.1,1.43-4.17,2.4-6.01Z"/>
            <path class="cls-5" d="M37.52,24.98c.36.15-.13,1.1-.3,1.05-.12-.37.28-.69.3-1.05Z"/>
          </g>
          <path class="cls-6" d="M20.32,25.43c2.87,2.58,7.33,3.87,10.29,6.16.25.19,2.42,2.46,2.48,2.63.28.78,0,2.81.3,3.75-.45.74-2.37-2.37-2.63-2.63-1.09-1.06-3.11-2.01-4.2-3.15-1.5-.42-2.83-1.48-4.2-2.25-.65,0-.64.9-1.05.9-1.79.02-1.84-1.81-1.88-3.15,0-.21-.26-.47,0-.9,0-.01.29-.14.3-.15.03-.07.78-.54,0-1.13.27-.45.5-.05.6-.08Z"/>
          <path class="cls-4" d="M19.72,26.63s-.29.14-.3.15c-2.47-1.82.34-2.1.3-.15Z"/>
        </g>
        <g>
          <path class="cls-2" d="M4.26,27.23c.37.36.65.9,1.2,1.13-.7.56-1.18-.02-2.03.08-.08,0-.96.58-1.5.3.12.31,0,.85.15,1.05.39.49,5.94,1.05,6.83.6,6,4.24,10.84,8.68,15.47,14.42-.97.12-1.97-.64-2.93-.75-2.24-.26-6.25-.15-8.26.45l-2.63.45c-1.46-.65-1.09-1.91-1.58-2.1s-1.57.26-2.18-.38c-.22-.23.12-.77-.38-.98-.23-.09-.73.08-1.2-.15-1.05-.53-.4-1.48-.53-1.88-.16-.5-2.04-.31-1.95-2.4,0-.17.48-.87.45-1.05-.03-.19-1.36-.91-1.5-1.65-.16-.88.52-1.74.45-2.25-.13-.92-2.54-.96-2.1-2.55.05-.18,1.01-.88,1.05-1.05.22-.86-1.33-1.99-.9-3.23.48-1.37,3.53,1.44,4.05,1.95Z"/>
          <path class="cls-2" d="M60.27,39.99c-1,.4-1.8-.4-2.48-.15-.18.07-.33.64-.6.75-.48.19-1.28.06-1.5.15-.32.13-.34.79-.38.83-1.42,1.42-2.03.58-1.05,3-.55,1.31-2.11.37-2.93.38-6.26.08-8.28,2.34-9.84,8.18-.75,2.8-1.14,5.74-1.2,8.63-1.91-.26-6.29-.01-8.26.3.2-.82.26-1.04.15-1.88-.81-6.13-4.1-13.28-11.34-12.24-1.61.23-5.45,2.48-3.53-.98-.62-.05-1.73-1.68-1.88-1.73-.41-.12-1.1.29-1.65.15-.12-.03-.48-.57-.6-.6-.82-.2-1.22.78-2.63.15l2.63-.45c2.01-.6,6.02-.71,8.26-.45.95.11,1.96.87,2.93.75,3.85,4.77,7.65,9.95,8.71,16.14.11.16.44.03.6.08.78.23.83-.16,1.2-.15.4.01,3.77.42,3.9.23.07-.95.32-4.12.75-4.81.25-.4.45.1.75-.15,1.32-4.69,3.17-9.57,5.41-13.89l3.98-1.65c2.64-.56,5.22-1.48,7.96-1.35l2.63.75Z"/>
          <g>
            <path class="cls-6" d="M15.22,24.23c-.6-.05.19.6.23.6.9.04.89-.16,1.65-.45.87,1.05,1.59,2.23,2.33,3.3.04,1.34.08,3.18,1.88,3.15.41,0,.4-.9,1.05-.9,1.38.77,2.71,1.84,4.2,2.25,1.09,1.14,3.12,2.1,4.2,3.15.26.26,2.18,3.37,2.63,2.63-.3-.95-.02-2.97-.3-3.75-.06-.17-2.23-2.44-2.48-2.63-2.95-2.29-7.41-3.58-10.29-6.16.16-.04-.16-.43.38-.15,2.01,1.05,9.85,5.58,11.26,6.91.29.27.41.95.9,1.2-.06-1.02-.01-2.15-.08-3.15,1.15,5.35.9,10.87,1.2,16.29.02.34.45.99.45,1.05.23,4.41-.02,8.88.45,13.29-.37-.01-.43.38-1.2.15.46-.4.4-2.54.3-3.08-1.48-7.77-19.53-25.05-26.5-29.21-.51-.3-1.59-1-2.18-.9-.3-.22-.69-.47-1.05-.6-.53-.52-3.58-3.32-4.05-1.95.26-1.58,1.68-1.1,2.48-1.35.15-.05.58-.7.9-.75.47-.08,1.42.48,1.65.45.32-.04.91-.87,1.05-.9.82-.19,1.36,1.02,1.8,1.05.61.04,1.31-1.56,3-1.2.31.07,1.36,1.04,1.65,1.05.56.02.78-.74,1.5-.6.54.11.79,1.03.98,1.2Z"/>
            <path class="cls-4" d="M30.69,41.5c.31.24.98.78,1.2,1.05,3.22,3.96,1.81,9.43,1.88,14.12-2.47-5.57-6.91-10.5-6.61-16.97,1.33.46,2.41.92,3.53,1.8Z"/>
            <path class="cls-2" d="M31.89,42.55c-.22-.27-.89-.81-1.2-1.05.12-.61-1.83-1.61-2.33-1.8-.98-.37-2.94-.31-3.9-.6-2.04-.62.39-2.29.53-2.63.22-.58-.49-1.54-.6-1.95-.01-.04.31-.71.3-.75-.06-.29-3.4-2.16-2.03-2.78.84-.38,6.02,3.12,6.91,3.9.5.44,3.66,3.85,3.83,4.28.11.28.26,1.43.08,1.58-.81-.8-1.87-2.31-2.85-2.85-.01,0-.14.23-.3.15-1.64-.83-3.19-1.3-4.88-1.13,1.04.5,2.46.48,3.53.83,3.71,1.22,5.06,4.05,4.81,7.81-.18.03-1.01-3.07-1.88-3Z"/>
          </g>
          <path class="cls-5" d="M33.69,61.02c-.16-.05-.49.09-.6-.08-1.06-6.19-4.86-11.38-8.71-16.14-4.63-5.73-9.47-10.18-15.47-14.42-1.2-.85-2.41-1.7-3.6-2.55.59-.1,1.67.6,2.18.9,6.98,4.16,25.02,21.44,26.5,29.21.1.54.16,2.68-.3,3.08Z"/>
          <path class="cls-2" d="M5.31,27.83c1.2.85,2.4,1.71,3.6,2.55-.89.45-6.44-.11-6.83-.6-.16-.2-.03-.74-.15-1.05.54.28,1.42-.29,1.5-.3.85-.1,1.33.49,2.03-.08-.55-.23-.83-.76-1.2-1.13.36.13.75.38,1.05.6Z"/>
        </g>
        <g>
          <path class="cls-6" d="M65.67,14.47c.94.16,3.18.5,3.6,1.43.7,1.52-1.17,2.91-1.05,3.75.09.67,1.93.95,1.65,2.1-.11.44-2.13,1.5-2.25,1.95-.28,1.06,1.13,1.82.9,3.15-.11.61-1.48,1.65-1.5,1.8-.05.35.64.86.75,1.2.7,2.24-1.73,2.33-1.8,2.85-.03.23.87.85.45,1.8-.45,1.01-1.96.73-2.18.98-.23.26.19.61.08.98-.31,1-2.05.64-2.48.98-.11.09-.36,1.15-.83,1.8.08-.83.19-1.89,1.05-2.33l-.23-.23c-4.81.46-10.04-.17-14.34,2.4,2.35-4.01,4.72-6.84,7.66-10.36.98.21,2.52-2.08,3.15-2.93.02-.03.57-1.06,0-.68,1.82-2,3.5-4.08,5.56-5.86,1.37-1.16,2.76-2.31,4.2-3.38-.02-.44-1.91-.31-2.18-.38-.04-.01-.59-.59-.68-.6l.45-.45Z"/>
          <path class="cls-2" d="M61.02,39.24c-.19.26-.45.63-.75.75l-2.63-.75c-2.74-.13-5.32.79-7.96,1.35l-3.98,1.65c.51-.98,1.23-2.18,1.8-3.15,4.3-2.57,9.53-1.94,14.34-2.4l.23.23c-.86.44-.97,1.5-1.05,2.33Z"/>
          <path class="cls-5" d="M28.58,8.31c2.07,5.44,3.97,13.23,4.96,19,1.06,6.21,1.33,12.71,1.8,19,.01.23.29.11.3.23.09,1.43.31,2.79.45,4.2,0,.09-.46,1.15.3,1.13l.75,8.33c.4.23.25-.12.3-.3.22-.76.43-2.42.45-3.23.75-1.63,1.23-3.39,1.95-5.03.55-1.24,1.95-3.27,2.25-4.43,1.34-2.18,2.33-4.61,3.6-6.83,4.64-8.09,11.07-15.12,18.17-21.1-2.06,1.78-3.74,3.86-5.56,5.86-1.1,1.21-2.1,2.34-3.15,3.6-2.94,3.53-5.31,6.36-7.66,10.36-.57.97-1.3,2.17-1.8,3.15-2.24,4.32-4.09,9.2-5.41,13.89-.3.25-.5-.25-.75.15-.43.68-.68,3.85-.75,4.81-.14.19-3.5-.21-3.9-.23-.47-4.41-.22-8.88-.45-13.29,0-.06-.43-.71-.45-1.05-.3-5.42-.05-10.94-1.2-16.29-.5-7.83-3.07-15.89-5.11-23.43.15.4.74,1.07.9,1.5Z"/>
          <path class="cls-6" d="M52.46,27.98c-.11.66.13,1.46,0,2.03-.09.39-1.34,1.56-1.58,2.03-.51.21-.65-2.16-.68-2.4l2.25-1.65Z"/>
          <path class="cls-2" d="M55.16,28.73c1.05-1.26,2.05-2.39,3.15-3.6.57-.39.02.65,0,.68-.63.84-2.17,3.14-3.15,2.93Z"/>
          <g>
            <path class="cls-9" d="M65.22,14.92c.08,0,.63.59.68.6.27.07,2.16-.07,2.18.38-1.44,1.07-2.83,2.22-4.2,3.38-7.1,5.98-13.53,13-18.17,21.1-1.27,2.22-2.26,4.65-3.6,6.83.4-1.54.63-5.93.45-7.51.87-.05.28,1.08.9,1.13-.46-1.48.08-2.88.15-4.2,0-.04-.44-.02-.3-.6.24-.98.8,1.67.75,1.8.45.43.29-3.63.3-3.9.04-.68.23-1.5.38-2.18l-.23,6.38c.99.28.42-2.03.68-2.03.14,1.18-.14,2.19.9,3,.02-.53,1.02-1.55,1.13-1.88.15-.47.29-.56.3-.6.34-1.69-.15-4.58-.15-6.01,0-.81-.1-5.3,0-5.56.04-.11.35-.36.45-.15l.15,10.66c.07.14,1.77-2.1,1.8-2.25.39-1.68-.53-6.31-.3-8.56.07-.7.83-2.28,1.2-3.15.04-.1.09-1.44.75-1.5-1.4,2.99-1.57,6.28-1.2,9.54.03.24.17,2.61.68,2.4.24-.47,1.49-1.64,1.58-2.03.13-.57-.11-1.36,0-2.03.37-2.29,1.76-9.52,4.05-11.64.52-.48,1.08-.79,1.8-.68.45.07.81.66,1.43.6.34-.03,1.02-.79,1.35-.9.97-.31,1.63.45,1.95.45s1.35-.98,2.18-.9Z"/>
            <path class="cls-5" d="M44.13,39.54c.31.08.44,1.18.15,1.35-.16-.44-.02-.91-.15-1.35Z"/>
          </g>
        </g>
      </g>
    </g>
  </g>
</svg>