<?xml version="1.0" encoding="UTF-8"?>
<svg id="_레이어_2" data-name="레이어 2" xmlns="http://www.w3.org/2000/svg" width="88.95" height="73.22" viewBox="0 0 88.95 73.22">
  <defs>
    <style>
      .cls-1 {
        fill: #53201c;
      }

      .cls-2 {
        fill: #851d16;
      }

      .cls-3 {
        fill: #583b3c;
      }

      .cls-4 {
        fill: #72872a;
      }

      .cls-5 {
        fill: #fff;
      }

      .cls-6 {
        fill: #da3a21;
      }

      .cls-7 {
        fill: #59100a;
      }

      .cls-8 {
        fill: #96ab55;
      }

      .cls-9 {
        fill: #fda67b;
      }

      .cls-10 {
        fill: #9dadbc;
      }

      .cls-11 {
        fill: #9e281b;
      }

      .cls-12 {
        fill: #d17765;
      }

      .cls-13 {
        fill: #dde8f3;
      }

      .cls-14 {
        fill: #b92115;
      }
    </style>
  </defs>
  <g id="_레이어_1-2" data-name="레이어 1">
    <g id="_생성형_개체" data-name="생성형 개체">
      <g>
        <path class="cls-6" d="M53.93,3.47l-.53.2c2.83,2.81,5.41,5.88,7.62,9.22,1.1,1.67,7.75,13.49,7.35,14.7-.1.31-1.57.6-1.87,1-.38-1.41-5.51-2.25-6.28-1.74-1.41.94.82,2.66,1.74,3.07l-7.01,1.74.8.67-.07.27c-.55-.95-1.82-.42-2.67-.4s-1.78.15-2.67.07c7.03-5.38,8.49-14.22,5.61-22.31-.69-1.93-3.8-7.71-5.41-8.75-.28-.18-1.73-.82-2-.67-1.86,7.71-9.1,8.53-15.57,10.29.31-.13.88-.39,1.07-.67,2.57-.3,7.99-1.84,10.09-3.34,2.33-1.67,3.58-4.15,4.41-6.81,2.13.74,3.71,2.06,5.41,3.47Z"/>
        <path class="cls-6" d="M82.66,27.53c.47.79.81,1.58,1.2,2.41-5.74,8.32-28.31,10.96-37.75,11.09-10.11.14-34.32-2.18-40.69-10.96.18-.9.61-1.88,1.07-2.67,5.24,6.2,13.92,9.03,21.71,10.42,13.02,2.33,24.76,1.21,37.41-2.27,5.82-1.6,12.66-3.79,17.04-8.02Z"/>
        <path class="cls-14" d="M73.04,20.04c.67.31,1.63.65,2.14,1.2,2.21,2.44-3.11,3.4-4.74,3.74-1.29-2.47-2.67-4.9-4.21-7.22,2.28.61,4.67,1.27,6.81,2.27Z"/>
        <g>
          <path class="cls-8" d="M66.49,28.59s-.08.28-.13.4c-1.86.82-5.3-.17-6.15-2.14.77-.51,5.9.32,6.28,1.74Z"/>
          <path class="cls-4" d="M66.36,29s.09.69,0,.87c-.62,1.26-3.39.52-4.41.07-.91-.41-3.15-2.13-1.74-3.07.85,1.97,4.29,2.95,6.15,2.14Z"/>
        </g>
        <path class="cls-11" d="M55.67,32.6c-.26.31-2.88.64-2.67-.4.85-.02,2.12-.55,2.67.4Z"/>
        <g>
          <path class="cls-6" d="M53,32.2c-.21,1.04,2.42.71,2.67.4l.07-.27-.8-.67,7.01-1.74c1.02.46,3.79,1.19,4.41-.07.09-.18-.02-.83,0-.87.05-.12.12-.38.13-.4.3-.4,1.77-.69,1.87-1,.4-1.2-6.25-13.03-7.35-14.7-2.2-3.34-4.78-6.41-7.62-9.22l.53-.2c2.83,2.35,5.17,5.16,7.62,7.88.28.71,1.14,1.48,1.6,2.14.82,1.17,1.75,2.3,2.54,3.47.18.27.36.54.53.8,1.54,2.32,2.92,4.75,4.21,7.22,1.64-.35,6.95-1.31,4.74-3.74,2.92,1.31,5.84,3.54,7.48,6.28-4.38,4.23-11.22,6.42-17.04,8.02-12.65,3.48-24.39,4.6-37.41,2.27-7.79-1.4-16.48-4.22-21.71-10.42,3.22-5.51,11.62-8.21,17.44-9.75l4.88-4.68c1.1-.35,2.83-1.56,4.14-2.14,6.46-1.75,13.71-2.58,15.57-10.29.28-.15,1.72.48,2,.67,1.61,1.05,4.72,6.82,5.41,8.75,2.88,8.1,1.42,16.93-5.61,22.31.89.08,1.78-.05,2.67-.07Z"/>
          <g>
            <path class="cls-9" d="M44.11,9.35c.35-.02.71.02,1.07,0l-.13.4c-3.54,1.85-7.98,2.76-11.49,4.41-1.52.72-5,3.86-6.01,4.01-1.18.18-.48-.73-.07-1.27,2.51-3.25,12.61-7.27,16.64-7.55Z"/>
            <path class="cls-9" d="M23.13,18.71c-.2.52-1.49,2.37-1.87,2.54-.59.26-2.59.36-3.47.67-2.22.77-5.24,2.67-6.75,4.48-.71.85-1.1,1.93-1.87,2.67.12-.68-.03-1.45.13-2.14.9-3.72,10.34-7.46,13.83-8.22Z"/>
            <g>
              <path class="cls-8" d="M32.29,30.73c-2.07.8-5.02-.75-6.15-2.54,1-.83,6.15.76,6.15,2.54Z"/>
              <path class="cls-4" d="M32.29,30.73c0,3.98-8.55-.55-6.15-2.54,1.13,1.78,4.08,3.34,6.15,2.54Z"/>
            </g>
            <g>
              <path class="cls-8" d="M52.33,19.37c-.32,2.34-3.27,3.56-5.34,4.01-.04-.08-.35-.06-.27-.6.19-1.27,4.16-4.26,5.61-3.41Z"/>
              <path class="cls-4" d="M46.98,23.38c2.07-.45,5.03-1.66,5.34-4.01,2.95,1.72-2.78,5.41-4.61,4.94-.32-.08-.61-.64-.73-.94Z"/>
            </g>
            <g>
              <path class="cls-8" d="M42.71,28.59c.81,2.06-1.36,5.04-3.21,5.88-.83-1.09,1.13-5.05,2.34-5.75.56-.32.38-.18.87-.13Z"/>
              <path class="cls-4" d="M39.5,34.47c1.85-.84,4.01-3.81,3.21-5.88,3.8.39-1.28,8.43-3.21,5.88Z"/>
            </g>
            <g>
              <path class="cls-8" d="M21.06,27.12c-.38,2.02-4.01,3.35-5.88,2.94-.11-.71.38-1.1,1-1.6,1.06-.85,3.72-2.14,4.88-1.34Z"/>
              <path class="cls-4" d="M15.18,30.06c1.87.41,5.5-.92,5.88-2.94,3.09,2.15-5.35,6.23-5.88,2.94Z"/>
            </g>
            <path class="cls-9" d="M27.81,14.43l-1.54,2.74c-.06,1.29-2.8,6.9-4.21,6.61-.6-.12,1.14-2.11,1.27-2.34,1.37-2.45,2.41-4.96,4.48-7.01Z"/>
            <path class="cls-11" d="M74.18,25.25c3.84-.33-.14,2.1-1.67.73-.03-.31,1.42-.71,1.67-.73Z"/>
            <path class="cls-11" d="M51.46,33.27c.37-.04,2.26.19,2.07.73-.42.57-3.47.47-3.07-.4.24-.12.78-.31,1-.33Z"/>
            <path class="cls-11" d="M55.47,33.4c.26-.04,1.33.16,1.27.47-.25.42-2.25.22-1.87-.27.19,0,.54-.19.6-.2Z"/>
            <path class="cls-11" d="M74.98,26.46c.21-.02,1.11.15,1.14.33-.2.49-2.04.48-1.94.07.1-.19.66-.39.8-.4Z"/>
          </g>
        </g>
      </g>
      <g>
        <path class="cls-11" d="M6.36,42.36c2.51,9.09,7.74,17.41,15.03,23.38l-3.67-5.01c-2.87-4.84-5.09-10.13-6.01-15.7,18.7,7.94,43.5,8.05,62.53,1.2-5.55,11.25-16.58,18.69-28.39,22.18-2.01.59-4.27.87-6.15,1.6l1.67.27c-6.51-.27-16.37-2-22.18-4.94-9.85-4.99-15.21-15.69-17.5-26.06,1.54,1.05,3.05,2.15,4.68,3.07Z"/>
        <path class="cls-2" d="M78.52,58.52c-1.05,1.21-2.3,2.45-3.54,3.47-1.03.84-4.53,2.82-5.01,3.47-9.04,3.65-18.82,5.21-28.59,4.81l-1.67-.27c1.88-.74,4.13-1.01,6.15-1.6,11.81-3.49,22.84-10.93,28.39-22.18.13-.05.28-.09.4-.13,4.57-1.69,8.96-3.83,12.83-6.81-1.45,6.78-4.38,13.97-8.95,19.24Z"/>
        <path class="cls-7" d="M41.37,70.28c9.78.4,19.56-1.16,28.59-4.81-.12.16-.36,1.13-.67,1.54-3.87,5.03-19.25,6.26-25.25,6.21s-17.87-1.21-22.78-4.94c-.93-.7-1.98-1.72-2.07-2.94,5.81,2.94,15.67,4.68,22.18,4.94Z"/>
        <path class="cls-12" d="M11.71,45.03c.92,5.57,3.15,10.86,6.01,15.7l3.67,5.01c-7.3-5.97-12.52-14.3-15.03-23.38,1.69.96,3.56,1.91,5.34,2.67Z"/>
      </g>
      <g>
        <path class="cls-13" d="M34.02,10.15c-.19.28-.76.53-1.07.67-1.31.58-3.04,1.79-4.14,2.14-1.62.52-4.06.61-5.81,1.07-5.86,1.54-24.1,7.04-17.57,16.03s30.58,11.1,40.69,10.96c9.44-.13,32-2.77,37.75-11.09s-9.46-13.64-15.17-15.23c-1.81-.5-3.7-.84-5.55-1.2-.46-.65-1.32-1.43-1.6-2.14-.06-.16-.02-.34-.27-.47.2-.12.35-.19.6-.2,4.22-.14,16.8,4.46,20.58,6.81,4.51,2.81,6.64,5.22,6.48,10.69-.62.88-.95,1.87-1.6,2.74-1.65,2.19-4.83,4.09-7.22,5.41-9.18,3.9-19.22,5.75-29.2,6.28-14.19.75-29.12-.89-42.22-6.41,9.93,5.23,22.21,7.25,33.4,7.48s25.89-1.39,35.61-5.88l-3.07,8.28c-.12.05-.27.09-.4.13-19.03,6.85-43.84,6.74-62.53-1.2-1.79-.76-3.65-1.71-5.34-2.67s-3.14-2.02-4.68-3.07c-2.32-10.5-3.84-17.02,6.61-22.72,8.3-4.52,16.73-5.35,25.72-6.41Z"/>
        <path class="cls-10" d="M88.94,28.19c-.11,3.52-.73,7.64-1.47,11.09-3.87,2.99-8.25,5.13-12.83,6.81l3.07-8.28c.55-.25,1.75-1.11,2.41-1.47,2.39-1.32,5.56-3.22,7.22-5.41.66-.87.99-1.86,1.6-2.74Z"/>
        <path class="cls-3" d="M28.81,12.96l-4.88,4.68c-5.81,1.54-14.22,4.24-17.44,9.75-.46.79-.89,1.77-1.07,2.67C-1.1,21.07,17.14,15.57,23,14.03c1.76-.46,4.2-.55,5.81-1.07Z"/>
        <path class="cls-3" d="M83.86,29.93c-.39-.83-.73-1.61-1.2-2.41-1.64-2.74-4.57-4.97-7.48-6.28-.5-.56-1.47-.89-2.14-1.2l-7.35-3.07c-.79-1.18-1.72-2.31-2.54-3.47,1.84.37,3.74.7,5.55,1.2,5.71,1.59,20.8,7.07,15.17,15.23Z"/>
        <path class="cls-1" d="M73.04,20.04c-2.14-1-4.53-1.66-6.81-2.27-.18-.27-.36-.54-.53-.8l7.35,3.07Z"/>
        <path class="cls-5" d="M80.12,36.34c-.65.36-1.86,1.22-2.41,1.47-9.72,4.49-24.95,6.1-35.61,5.88-11.19-.23-23.48-2.25-33.4-7.48,13.11,5.52,28.03,7.16,42.22,6.41,9.97-.53,20.02-2.38,29.2-6.28Z"/>
      </g>
    </g>
  </g>
</svg>