<?xml version="1.0" encoding="UTF-8"?>
<svg id="_레이어_2" data-name="레이어 2" xmlns="http://www.w3.org/2000/svg" width="170.66" height="141.45" viewBox="0 0 170.66 141.45">
  <defs>
    <style>
      .cls-1 {
        fill: #113d5d;
      }

      .cls-2 {
        fill: #93cfee;
      }

      .cls-3 {
        fill: #fff;
      }

      .cls-4 {
        fill: #5cb8eb;
      }

      .cls-5 {
        fill: #194f74;
      }

      .cls-6 {
        fill: #266491;
      }

      .cls-7 {
        fill: #c2c1c1;
      }

      .cls-8 {
        fill: #fceae7;
      }

      .cls-9 {
        fill: #337db7;
      }
    </style>
  </defs>
  <g id="_레이어_1-2" data-name="레이어 1">
    <g id="_생성형_개체" data-name="생성형 개체">
      <path class="cls-3" d="M17.69,86.66c40.93,13.97,83.39,15.07,124.94,3.03l-6.82,9.47-10.6,11.23c-.49.1-1.02.16-1.51.25-31.76,6.03-59.92,4.65-91.12-3.28-1.3-.33-2.98-.94-4.29-.76-.63-.46-8.62-3.32-8.83-2.9l.76,1.14c-3.08-3.73-6.25-8.41-8.58-12.75-1.46-2.72-2.89-5.66-3.79-8.58.21-.39,8.02,2.71,8.33,3.03.64.66,2.94,6.62,3.79,8.08,1.1,1.89,6.13,10.05,7.45,10.98.47.33,3.77,1.56,3.66.38-.05-.6-6.38-8.22-7.32-9.59-1.57-2.29-4.45-8.13-6.06-9.72Z"/>
      <path class="cls-9" d="M156.77,59.15l-4.8,14.39c-.33.12-.48.24-.5.25-41.77,15-87.47,15.55-129.49,1.01-.03-.07.03-.18,0-.25-.58-1.59-.86-4.26-1.77-5.68-1.55-2.42-7.76-4.62-9.72-7.19l1.89,9.34c-1.73-.7-9.47-3.44-10.1-4.67C1.05,59.27-.17,51.72.02,44.51c.99,3.56,2.98,6.34,5.68,8.83,28.96,26.76,117.85,24.23,151.07,5.81Z"/>
      <path class="cls-2" d="M40.15,18.26c-.67.54-1.91,1.65-2.52,2.02-2.39-1.23-2.7-1.27-5.05-.25-1.05.45-2.98,1.84-3.53,2.78-10.56,2.95-31.91,11.85-21.46,25.75,3.94,5.23,10.43,8.23,16.41,10.6,22.64,9,54.42,10.84,78.63,9.09,16.37-1.18,48.31-6.26,59.7-18.68,14.76-16.1-15.28-25.2-26-28.27-.62-.18-1.14-.58-1.77-.76-1.15-.34-2.79-1.09-4.29-1.01-.07-.68-.19-1.53-.5-2.15.31-.91,9.08,1.78,10.35,2.15,13.75,3.92,30.39,9.58,30.54,26-2.69,6.04-8.19,10.47-13.88,13.63-33.22,18.43-122.11,20.96-151.07-5.81C3,50.85,1.01,48.07.02,44.51c.31-11.61,8.79-16.43,18.43-20.7,7.22-3.2,15.45-5.73,23.22-6.69-.4.52-1.03.74-1.51,1.14Z"/>
      <path class="cls-3" d="M151.47,73.79c-.56,2.57-3.38,5.78-4.04,8.08-2.57.75-5.44,2.07-7.95,2.78-35.09,9.91-80.42,9.83-112.07-1.51-.23-.08-2.27-.11-2.65-.63-.79-2.61-1.85-5.15-2.78-7.7,42.01,14.54,87.72,13.99,129.49-1.01Z"/>
      <path class="cls-9" d="M146.67,82.88l-3.53,6.56s-.04.12-.5.25c-41.55,12.04-84.01,10.95-124.94-3.03-1.69-1.67-8.01-2.34-9.97-3.79-1.1-.81-2.26-5.63-2.78-7.07,45.04,19.36,94.92,21.95,141.73,7.07Z"/>
      <path class="cls-7" d="M163.08,82.88c-3.14,7.61-6.7,14.43-11.86,20.95l-13.25,3.79c-4.26.9-8.48,1.93-12.75,2.78l10.6-11.23,6.82-9.47c.46-.13.48-.24.5-.25,6.74-1.98,13.38-4.07,19.94-6.56Z"/>
      <path class="cls-6" d="M168.13,66.98c-5.4,2.14-10.69,4.58-16.15,6.56l4.8-14.39c5.69-3.16,11.19-7.59,13.88-13.63.07,7.75-.91,13.97-2.52,21.46Z"/>
      <path class="cls-7" d="M168.13,66.98c-.7,3.24-1.26,5.41-2.27,8.58-5.94,2.82-12.18,4.79-18.43,6.82.02-.16-.04-.38,0-.5.66-2.3,3.48-5.5,4.04-8.08.03,0,.17-.13.5-.25,5.46-1.99,10.75-4.43,16.15-6.56Z"/>
      <path class="cls-6" d="M165.86,75.56c-.89,2.79-1.68,4.66-2.78,7.32-6.56,2.49-13.2,4.58-19.94,6.56l3.53-6.56s.71-.49.76-.5c6.24-2.02,12.48-4,18.43-6.82Z"/>
      <path class="cls-4" d="M21.98,74.55c-3.35-.71-6.45-2.27-9.59-3.53l-1.89-9.34c1.96,2.58,8.16,4.77,9.72,7.19.91,1.42,1.19,4.09,1.77,5.68Z"/>
      <g>
        <path class="cls-6" d="M151.22,103.83c-6.71,8.47-16.78,16.91-26.5,21.71-21.37,10.53-51.92,11.25-73.83,2.02-1.37-.58-3.43-1.4-4.42-2.52,2.85.39,5.63,1.25,8.46,1.77.2.04,1.82.45,1.64-.25h.25c4.13,1.74,18.37,1.78,23.35,1.51,15.65-.82,32.05-6.74,43.54-17.42.49-.09,1.02-.16,1.51-.25,4.26-.84,8.49-1.88,12.75-2.78l13.25-3.79Z"/>
        <path class="cls-5" d="M46.46,125.03c.99,1.13,3.05,1.95,4.42,2.52,21.91,9.23,52.46,8.52,73.83-2.02-.06,3.57-1.56,5.75-4.04,8.08-23.26,3.93-50.52,9.2-72.06-3.03-.82-.03.51,1.84.63,2.02-2.03-1.81-3.04-4.69-3.28-7.32l.13-.5.38.25Z"/>
        <path class="cls-6" d="M120.67,133.61c-3.74,3.51-9.2,5.33-14.26,6.31-11.52,2.24-50.04,3.51-57.17-7.32-.12-.18-1.45-2.05-.63-2.02,21.55,12.23,48.81,6.96,72.06,3.03Z"/>
        <path class="cls-9" d="M28.29,106.6c1.81,1.34,4.83,5.45,6.94,7.32,6.24,5.54,13.54,9.65,21.33,12.62.18.7-1.44.29-1.64.25-2.83-.51-5.6-1.38-8.46-1.77l-.38-.25-.13.5c-9.77-5.11-18.7-11.9-25.75-20.45l-.76-1.14c.21-.42,8.21,2.44,8.83,2.9Z"/>
        <path class="cls-9" d="M123.7,110.64c-11.5,10.68-27.89,16.6-43.54,17.42-4.98.26-19.22.22-23.35-1.51-3.44-1.44-10.88-6.65-14.01-9.09-3.57-2.78-7.6-6.4-10.22-10.1,31.21,7.93,59.36,9.31,91.12,3.28Z"/>
        <path class="cls-4" d="M32.58,107.36c2.62,3.7,6.65,7.32,10.22,10.1,3.13,2.43,10.57,7.64,14.01,9.09h-.25c-7.78-2.97-15.09-7.08-21.33-12.62-2.11-1.87-5.13-5.98-6.94-7.32,1.31-.18,2.99.43,4.29.76Z"/>
      </g>
      <path class="cls-5" d="M29.05,22.8c-.38.64-1.18,4.21-1.39,4.29-.26.1-3.86-.38-5.55.25-4.28,1.59-2.4,5.69-3.16,6.94-.17.28-4.75,1.07-5.55,3.03-.53,1.28.08,3.62,0,3.79-.13.26-3.69.52-4.8,2.27-.79,1.24-.99,3.71-1.01,5.17-10.45-13.9,10.9-22.79,21.46-25.75Z"/>
      <path class="cls-1" d="M162.32,49.56c-.63-1.55-1.26-3.75-2.65-4.8-.98-.73-3.8-1.21-3.91-1.39-.53-.88.76-3.77-2.02-5.43-1.55-.92-3.18-.44-3.91-.76-.39-.17-1.29-6.72-4.67-6.56,2.71,1.06,4.29.87,5.3,4.42.25.87-.48,1.27-.38,1.39.64.79,5.4-.86,6.94,4.16.17.55-.18,2.15,0,2.52.16.32,3.38.76,4.54,2.52.4.6-.12,2.75,1.51,2.02,5.1-10.27-6.08-17.37-14.01-21.08-1.58-.74-8.81-3.71-10.1-3.79-.44-.03-1.17-.11-1.39.38-1.15,2.62,2.07,2.12,3.66,3.16,1.32.86,1.3,1.93,1.89,2.78-.67-.71-1.3-2.01-2.15-2.52-1.03-.63-3.55-.73-3.66-.88-.22-.31-.12-3.73-1.01-4.42,10.72,3.07,40.76,12.17,26,28.27Z"/>
      <path class="cls-5" d="M145.16,30.63c-.34-.14-1.33-.21-1.39-.25-.14-.09-.44-.98-.63-1.26-.59-.85-.57-1.92-1.89-2.78-1.59-1.04-4.81-.54-3.66-3.16.21-.49.95-.41,1.39-.38,1.29.08,8.52,3.05,10.1,3.79,7.93,3.71,19.11,10.81,14.01,21.08-1.64.73-1.12-1.42-1.51-2.02-1.17-1.77-4.39-2.21-4.54-2.52-.18-.37.17-1.98,0-2.52-1.54-5.02-6.31-3.38-6.94-4.16-.1-.12.63-.52.38-1.39-1.01-3.55-2.59-3.35-5.3-4.42Z"/>
      <g>
        <path class="cls-8" d="M162.32,49.56c-11.38,12.41-43.32,17.49-59.7,18.68-24.21,1.75-55.99-.09-78.63-9.09,5.31.57,10.74,2.29,16.53,3.28,30.7,5.25,60.85,2.52,90.87-5.05,6.86-1.73,16.46-4.66,21.33-9.97,2.93-3.19,3.6-5.64,1.01-9.47,2.78,1.66,1.49,4.55,2.02,5.43.11.18,2.93.66,3.91,1.39,1.39,1.04,2.02,3.24,2.65,4.8Z"/>
        <path class="cls-1" d="M134.56,20.53c-1.47-.49-2.67.37-4.04.5-.47-.23-.21-1.07-.25-1.51,1.5-.08,3.14.67,4.29,1.01Z"/>
        <g>
          <path class="cls-3" d="M130.52,21.04c1.37-.13,2.57-.99,4.04-.5.62.18,1.14.58,1.77.76.89.69.79,4.11,1.01,4.42.11.15,2.63.26,3.66.88.85.51,1.48,1.82,2.15,2.52.19.28.49,1.17.63,1.26.06.04,1.04.12,1.39.25,3.38-.15,4.28,6.39,4.67,6.56.73.32,2.36-.17,3.91.76,2.59,3.83,1.92,6.28-1.01,9.47-4.87,5.31-14.47,8.24-21.33,9.97-30.02,7.57-60.17,10.3-90.87,5.05-5.8-.99-11.23-2.72-16.53-3.28-5.97-2.37-12.47-5.37-16.41-10.6.02-1.47.22-3.94,1.01-5.17,1.11-1.75,4.67-2.01,4.8-2.27.08-.17-.53-2.5,0-3.79.81-1.96,5.39-2.75,5.55-3.03.75-1.25-1.13-5.35,3.16-6.94,1.7-.63,5.29-.15,5.55-.25.21-.08,1.01-3.65,1.39-4.29.56-.94,2.49-2.32,3.53-2.78,2.02-.93,3.78,1.02,5.05.25.61-.37,1.85-1.47,2.52-2.02-.09.83,1.97-.29,2.02-.38.17-.33-.17-1.82,0-2.27,1.58-4.26,6.53-2.95,9.72-1.64.56-2.9.73-7.13,4.8-6.56.47.07,2.21,1.24,2.52,1.01.22-.16.77-4.07,2.52-4.8,2.8-1.16,5.03,1.07,5.3,1.01.33-.07,1.35-4.06,4.04-3.79.8.08,2.59,2.14,3.28,2.02.22-.04,2.37-2.55,3.53-2.78,2.77-.53,3.25,1.58,4.04,1.51.83-.07,2.28-1.89,5.05-1.51,1.23.17,2.89,2.55,3.28,2.52.16,0,2.1-1.54,2.78-1.77,3.83-1.26,5.84.16,7.7,3.41.03.06-.08,1.28.13,1.39.29.16,3.01-1.08,5.05.25,1.23.8,1.77,3.78,2.27,3.79.74.02,2-1.03,3.79-.76,1.29.19,2.85,1.99,3.03,2.02.28.04,2.3-1.15,3.03-1.26,3.89-.58,4.73,1.94,4.92,5.17,4.69-1.07,6.85,1.98,6.82,6.31.47.45.72-.12.76-.13Z"/>
          <g>
            <path class="cls-8" d="M37.63,20.28c-1.27.77-3.03-1.18-5.05-.25,2.35-1.02,2.66-.97,5.05.25Z"/>
            <path class="cls-8" d="M107.42,38.2c.55-.09.94.12,1.39.38-.25.29-.55-.12-.63.38-.45,2.87-.34,6.99,1.39,9.47-.01.94-1.89.46-2.4.13-2.88-1.86-3.03-9.82.25-10.35Z"/>
            <path class="cls-8" d="M59.46,16.49c.78,1.72,1.54,4.17,2.65,5.68.77,1.04,4.11,2.84,2.65,3.66-3.29,1.85-10.01-7.04-5.3-9.34Z"/>
            <path class="cls-8" d="M72.34,30.38c.29-.1.9.07,1.26,0-1.31,1.98,5.82,4.15,5.43,5.68-.95,3.7-12.15-3.78-6.69-5.68Z"/>
            <path class="cls-8" d="M84.2,50.82c1.99-.32,2.38,4.68,2.15,6.18-.26,1.68-2.11,5.03-4.16,4.67.76-1.37,2.71-2.59,3.16-4.16,1.9-6.79-2.57-6.51-4.42-1.14-1.33-1.22,2.51-5.43,3.28-5.55Z"/>
            <path class="cls-8" d="M116.38,21.04c-3.84.68-11.08-2.13-9.34-7.07l3.16,4.29,6.18,2.78Z"/>
            <path class="cls-8" d="M94.8,22.55c1.94-.5,7,1.45,7.95,3.66.35.82.47.96-.38,1.39-.17-3.85-12.76-5.92-6.69-.38-2.71.27-3.87-3.9-.88-4.67Z"/>
            <path class="cls-8" d="M87.73,10.43c2.47-1.18-1.46,4.89-2.78,5.81-3.36,2.34-6.25.39-4.8-.5.19.52,3.62.08,3.79,0,.2-.1,2.92-2.83,3.16-3.16.6-.84.53-2.1.63-2.15Z"/>
            <path class="cls-8" d="M126.1,35.42c-.14,2.67-6.36,2.92-7.45.88.03-.4,7.09.3,7.45-.88Z"/>
            <path class="cls-8" d="M22.36,42.49c.32-.11,2.71.11,2.15,1.14-.05.1-1.38-.1-2.15.38-1.54.97-2.62,3.51-3.53,5.05-1.58-1.22,2.82-6.33,3.53-6.56Z"/>
            <g>
              <path class="cls-8" d="M39.02,34.16c4.67-1.02,7.78,10.68,3.79,11.86-5.22,1.55-8.03-10.93-3.79-11.86Z"/>
              <path class="cls-3" d="M40.78,35.42c1.43-.46,4.25,7.92,2.52,9.34-.42,0-1.85-7.28-2.15-8.2-.03-.08-1.49-.77-.38-1.14Z"/>
            </g>
            <g>
              <path class="cls-8" d="M116.38,21.04l-6.18-2.78-3.16-4.29c1.49-4.21,12.93.44,11.86,5.17-.2.87-1.7,1.75-2.52,1.89Z"/>
              <path class="cls-3" d="M109.69,13.21c3.2.08,6.99,1.19,8.2,4.42l-8.2-4.42Z"/>
            </g>
            <g>
              <path class="cls-8" d="M145.16,47.79c-.23,2.22-4.91,5.19-6.94,5.55s-3.63-.26-4.92-1.77h5.93l5.93-3.79Z"/>
              <g>
                <path class="cls-8" d="M145.16,47.79l-5.93,3.79h-5.93c-.18-.21-.86-.26-1.01-.88-1.11-4.61,13.53-9.27,12.87-2.9Z"/>
                <path class="cls-3" d="M139.98,45.52c1.27-.14,2.82-.21,3.66.88l-10.1,2.27c1.76-1.12,4.35-2.93,6.44-3.16Z"/>
              </g>
            </g>
            <g>
              <path class="cls-8" d="M61.86,58.9c-2.35.66-7.45-2.23-8.58-4.16-.61-1.04-.39-4.39.76-5.17.26,2.07.43,3.73,1.77,5.43.17.21,2.5,2.31,2.65,2.4.59.35,3.24.43,3.41,1.51Z"/>
              <g>
                <path class="cls-8" d="M61.86,58.9c-.17-1.09-2.82-1.17-3.41-1.51-.15-.09-2.48-2.18-2.65-2.4-1.34-1.7-1.51-3.36-1.77-5.43,3.64-2.49,13.77,7.67,7.82,9.34Z"/>
                <path class="cls-3" d="M56.43,50.32c1.75-.16,8.06,5.44,6.31,6.56-.39.25-6.5-5.31-6.31-6.56Z"/>
              </g>
            </g>
          </g>
        </g>
      </g>
    </g>
  </g>
</svg>