<?xml version="1.0" encoding="UTF-8"?>
<svg id="_레이어_2" data-name="레이어 2" xmlns="http://www.w3.org/2000/svg" width="35.32" height="84.51" viewBox="0 0 35.32 84.51">
  <defs>
    <style>
      .cls-1 {
        fill: #942d11;
      }

      .cls-2 {
        fill: #b71f17;
      }

      .cls-3 {
        fill: #fddf75;
      }

      .cls-4 {
        fill: #f7ada3;
      }

      .cls-5 {
        fill: #e55849;
      }

      .cls-6 {
        fill: #fabb29;
      }

      .cls-7 {
        fill: #cb3d33;
      }

      .cls-8 {
        fill: #91100c;
      }
    </style>
  </defs>
  <g id="_레이어_1-2" data-name="레이어 1">
    <g id="_생성형_개체" data-name="생성형 개체">
      <path class="cls-7" d="M19.53,80.67c-4,3.3-8.62,3.79-13.02.85.87-.27-.43-.19-.48-.21-.4-.19-1.65-1.35-1.76-1.39l.21-.32c1.43,1.27,5.04,2.85,6.99,2.56.25-.04,1.1-.2.64-.53-.98.28-2.02.01-2.93-.37.74-.22,1.5-.44,2.19-.8.19-.1,1.14-.63,1.01-.96,10.22-4.87,16.26-22.63,17.5-33.13,1.77-15.07-2.24-34.09-16.64-41.77,1.27-.19,3.09-.06,4.05-.43.09-.03.14.18.21.05,0-.34-.2-.05-.21-.05-3.27-.46-6.55-.27-9.39,1.71v-.21c.4-.33,1.61-.91,1.6-1.39l4.53-1.6c14.93-2.29,21.1,24.47,21.29,35.26.22,13.04-5.36,34.13-15.79,42.73Z"/>
      <path class="cls-2" d="M4.27,79.93c.11.03,1.37,1.2,1.76,1.39.05.02,1.35-.05.48.21-.44.48-.09,1.46-.32,2.19-.58,1.78-1.36.04-2.08-.16s-1.23.2-1.92.32c-.21-1.52-1.06-1.46-2.19-2.08,0-.08.92-.62,1.07-.69.3-.15,2.83-1.18,2.99-1.17.07,0,.16-.02.21,0Z"/>
      <g>
        <path class="cls-2" d="M9.18,3.85c-.58-.12-2.68,1.66-2.56,2.24-.63-.06-4.25-.93-4.37-1.44-.2-.82,1.95-1.57,2.13-1.92.12-.23.07-.97.21-1.28.78-1.7,1.88.67,2.83.59S8.6-.17,9.44.01s-.23,3.16-.27,3.84Z"/>
        <path class="cls-8" d="M9.18,3.85c.17.03.32.24.32.43.01.48-1.2,1.05-1.6,1.39-.29.24-.85.55-1.07.75-.21-.04-.18-.17-.21-.32-.12-.58,1.98-2.36,2.56-2.24Z"/>
      </g>
      <path class="cls-5" d="M13.23,4.6c14.4,7.68,18.42,26.7,16.64,41.77-1.24,10.5-7.28,28.26-17.5,33.13-1.56.74-3.45,1.58-5.17,1.07-.19-.22.31-.45.37-.53,2.76-.47,5.71-2.47,7.74-4.37,15.83-14.83,19.5-55.6-.48-68.28-.7-1.25-2.11-1.78-3.31-2.4,0-.31,1.48-.34,1.71-.37Z"/>
      <path class="cls-7" d="M17.28,4.17c-.97.36-2.79.24-4.05.43-.23.03-1.7.06-1.71.37,1.2.62,2.61,1.15,3.31,2.4-1.27-.81-3.06-1.93-4.48-1.76.65.48,1.4,1.35,1.81,2.03.08.13.58.97.37,1.12-.28-.49-2.66-3.28-3.2-2.88l1.87,5.49-2.72-4.85-.05,3.68-1.01-2.83c-1.01,1.34-.99,3.01-1.17,4.59-.63-1.88-.02-4.91,1.65-6.08,2.83-1.97,6.12-2.17,9.39-1.71Z"/>
      <path class="cls-7" d="M7.58,80.03c-.07.09-.57.32-.37.53,1.72.51,3.62-.32,5.17-1.07.12.33-.82.86-1.01.96-.69.36-1.45.58-2.19.8.91.38,1.95.65,2.93.37.46.34-.39.5-.64.53-1.95.29-5.56-1.29-6.99-2.56-1.77-1.58-2.59-4.16-2.29-6.51.36,1.82.84,3.69,1.92,5.23.21-.06.21-2.61.8-2.83-.2.49-.15,3.58.16,3.68l2.72-4.21c-.15.68-1.97,4.24-1.92,4.59.22,1.52,3.1-1.62,3.36-2.08.4.15-1.53,2.4-1.65,2.56Z"/>
      <g>
        <path class="cls-5" d="M14.83,7.37c19.98,12.68,16.31,53.45.48,68.28-2.03,1.9-4.98,3.9-7.74,4.37.12-.16,2.05-2.41,1.65-2.56-.26.46-3.14,3.6-3.36,2.08-.05-.35,1.78-3.91,1.92-4.59l-2.72,4.21c-.31-.1-.36-3.19-.16-3.68-.59.22-.59,2.77-.8,2.83-1.08-1.54-1.56-3.41-1.92-5.23-.3,2.34.52,4.93,2.29,6.51l-.21.32s-.14,0-.21,0c-1.74-1.67-3.35-3.78-3.73-6.24-.94-6,3.3-10.62,5.55-15.68,3.4-7.68,4.58-17.12,2.88-25.39-1.84-8.96-10.92-17.85-1.92-26.19.22-.2.78-.51,1.07-.75v.21c-1.68,1.17-2.28,4.2-1.65,6.08.18-1.58.17-3.25,1.17-4.59l1.01,2.83.05-3.68,2.72,4.85-1.87-5.49c.54-.4,2.92,2.39,3.2,2.88.21-.15-.29-.99-.37-1.12-.41-.68-1.17-1.55-1.81-2.03,1.42-.17,3.21.95,4.48,1.76Z"/>
        <g>
          <path class="cls-4" d="M12.16,26.58c-.78.28-1.53.68-2.35.85-1.36-3.93-5.37-9.54-5.12-13.5.02-.33.32-1.92.69-1.97l6.78,14.62Z"/>
          <path class="cls-4" d="M12.48,36.07c.57.16,1.11.27,1.71.32.31,4.51-.14,9.01-.85,13.44-.82.15-1.9.08-2.67.43,1.28-4.65,1.56-9.61.96-14.4.21.11.62.15.85.21Z"/>
          <path class="cls-4" d="M11.52,51.33c.4.1.87.29,1.28.32-.93,3.79-2.33,7.44-4.16,10.88-.74-.05-1.75-.32-2.45-.21,1.99-3.51,3.31-7.32,4.37-11.2.36.23.65.13.96.21Z"/>
          <path class="cls-4" d="M12.06,28.39c.14,0,.55,0,.64,0l1.28,6.29c-.65.12-1.77.12-2.35.32l-1.49-6.83c.31.14,1.52.21,1.92.21Z"/>
          <path class="cls-4" d="M6.51,63.49c.48.25.78.36,1.28.53-.45.95-3.15,6.36-4.11,6.29-.22-.01-.65-.61-.69-.8-.36-1.71,1.97-4.78,2.67-6.35.15.14.73.26.85.32Z"/>
          <g>
            <path class="cls-6" d="M8.64,62.53c2.95.2,5.53.48,8.54.21-.09.41-1.38.49-1.76.53-3.19.35-6.35-.06-9.5-.53-.18.21.29.28.43.32,1.75.56,5.31.94,7.15.85,2.22-.1,4.32-.9,6.46-1.39-3.91,2.75-9.09,2.3-13.44.96-.12-.06-.7-.18-.85-.32-.02-.02-.36-.54-.32-.59.32.04.66-.24.85-.27.7-.1,1.72.16,2.45.21Z"/>
            <path class="cls-3" d="M20.06,62.53h-.11c-2.13.49-4.24,1.29-6.46,1.39-1.84.08-5.4-.3-7.15-.85-.14-.04-.61-.11-.43-.32,3.15.48,6.3.88,9.5.53.38-.04,1.68-.13,1.76-.53,1.11-.1,2.35-.24,3.36-.75.3.08-.43.49-.48.53Z"/>
            <path class="cls-8" d="M20.06,62.53c-3.29,3.01-8.28,2.9-12.27,1.49-.5-.18-.8-.28-1.28-.53,4.35,1.34,9.53,1.79,13.44-.96h.11Z"/>
          </g>
          <g>
            <path class="cls-6" d="M24.65,31.59c0,.07,0,.14,0,.21-2.93,3.5-7.72,4.72-12.16,4.27-.23-.06-.64-.1-.85-.21-.11-.06-.65-.42-.64-.48.14-.04.61-.36.64-.37.57-.2,1.69-.2,2.35-.32,2.83-.52,5.42-.94,8.11-2.03.07.34-.47.53-.69.64-1.36.64-3.66,1.45-5.12,1.71s-3.28.14-4.59.53c4.63.51,9.39-1.01,12.96-3.95Z"/>
            <path class="cls-3" d="M24.65,31.59c-3.58,2.94-8.33,4.46-12.96,3.95,1.31-.4,3.13-.28,4.59-.53s3.76-1.07,5.12-1.71c.23-.11.77-.3.69-.64.97-.39,2.06-.88,2.83-1.6.34.13-.19.47-.27.53Z"/>
            <path class="cls-8" d="M14.19,36.39c-.59-.05-1.13-.16-1.71-.32,4.44.45,9.23-.76,12.16-4.27-.04.44-1.18,1.6-1.55,1.92-2.4,2.12-5.77,2.93-8.91,2.67Z"/>
          </g>
          <g>
            <path class="cls-6" d="M23.9,47.17c-3.06,3.47-7.94,4.35-12.38,4.16-.31-.08-.6.01-.96-.21-.24-.15-.37-.31-.43-.59.18-.08.35-.19.53-.27.76-.34,1.85-.28,2.67-.43,2.49-.46,5.4-.9,7.79-1.71.04.23-.21.35-.37.43-3.05,1.39-6.73,1.78-10.03,2.13-.32.33,1.78.22,1.92.21,2.21-.11,5.32-.74,7.36-1.6,1.35-.57,2.7-1.67,3.89-2.13Z"/>
            <path class="cls-3" d="M24.01,47.17h-.11c-1.19.46-2.54,1.57-3.89,2.13-2.04.86-5.15,1.5-7.36,1.6-.14,0-2.24.11-1.92-.21,3.3-.36,6.98-.75,10.03-2.13.16-.07.41-.2.37-.43,1.02-.35,2.27-.96,3.15-1.6.35.07-.25.61-.27.64Z"/>
            <path class="cls-1" d="M12.8,51.65c-.41-.03-.88-.22-1.28-.32,4.44.19,9.32-.69,12.38-4.16h.11c-2.3,3.4-7.28,4.8-11.2,4.48Z"/>
          </g>
          <g>
            <path class="cls-6" d="M21.45,21.88s0,.07,0,.11c-1.23,2.54-3.53,4.17-6.03,5.33l-3.36,1.07c-.4,0-1.61-.07-1.92-.21-.65-.29-.3-.69-.32-.75.82-.17,1.57-.57,2.35-.85,2.67-.98,5.12-1.97,7.47-3.63-.08.46-.73.89-1.12,1.17-2.46,1.81-5.31,2.95-8.27,3.68,4.5-.1,8.27-2.76,11.2-5.92Z"/>
            <path class="cls-3" d="M21.45,21.88c-2.93,3.17-6.71,5.82-11.2,5.92,2.96-.73,5.81-1.87,8.27-3.68.39-.29,1.04-.71,1.12-1.17.77-.54,1.45-1.11,2.08-1.81.1.25-.21.53-.27.75Z"/>
            <path class="cls-8" d="M12.7,28.39c-.09,0-.5,0-.64,0l3.36-1.07c2.49-1.16,4.8-2.8,6.03-5.33-1,3.43-5.22,6.1-8.75,6.4Z"/>
          </g>
          <g>
            <path class="cls-6" d="M19.42,13.88c-1.47,3.05-4.98,4.31-8.22,3.52-.31-.17-1.57-.73-.75-.96,1.66,1.19,4.67.44,6.35-.53.96-.56,1.62-1.51,2.61-2.03Z"/>
            <path class="cls-3" d="M19.42,13.88c-.99.51-1.65,1.47-2.61,2.03-1.68.97-4.69,1.73-6.35.53.13-.04.37.02.53,0-.05.32.29.21.48.21,2.3.08,4.32-.49,6.13-1.92.64-.3,1.28-.75,1.76-1.28.31,0,.06.24.05.43Z"/>
            <path class="cls-1" d="M11.2,17.4c3.23.79,6.75-.47,8.22-3.52-.07,3.07-5.46,5-8.22,3.52Z"/>
            <path class="cls-6" d="M17.6,14.73c-1.81,1.43-3.83,2-6.13,1.92-.2,0-.53.11-.48-.21,2.2-.31,4.59-.76,6.62-1.71Z"/>
          </g>
        </g>
      </g>
      <path class="cls-7" d="M17.28,4.17s.2-.28.21.05c-.07.12-.13-.09-.21-.05Z"/>
    </g>
  </g>
</svg>