<?xml version="1.0" encoding="UTF-8"?>
<svg id="_레이어_2" data-name="레이어 2" xmlns="http://www.w3.org/2000/svg" width="170.66" height="125.63" xmlns:xlink="http://www.w3.org/1999/xlink" viewBox="0 0 170.66 125.63">
  <defs>
    <style>
      .cls-1 {
        fill: #fdf8e6;
      }

      .cls-2 {
        fill: url(#_무제_그라디언트_310);
      }

      .cls-3 {
        fill: #fef4d3;
      }

      .cls-4 {
        fill: #fde27d;
      }

      .cls-5 {
        fill: #fdd54e;
      }

      .cls-6 {
        fill: #feeeac;
      }
    </style>
    <linearGradient id="_무제_그라디언트_310" data-name="무제 그라디언트 310" x1="81.86" y1="21.81" x2="88.57" y2="115" gradientUnits="userSpaceOnUse">
      <stop offset="0" stop-color="#fde279"/>
      <stop offset=".77" stop-color="#fdf1c2"/>
      <stop offset="1" stop-color="#fffefe"/>
    </linearGradient>
  </defs>
  <g id="_레이어_1-2" data-name="레이어 1">
    <g id="_생성형_개체" data-name="생성형 개체">
      <g>
        <path class="cls-5" d="M71.69.13c3.91-.52,7.06.53,10.47,2.41.53.29,2.68,2.38,2.86,2.41.4.07,5.44-3.8,7.14-4.28,7.55-2.12,14.37,1.34,18.09,8.83,8.53-5.92,19.5-.33,21.19,10.7,9.25-2.89,18.02,4.8,17.5,15.65,9.22,1.25,14.93,10.11,11.9,20.33,10.37,3.63,13.48,17.45,4.64,25.28l-40.23,20.6c-.36,7.35,1.07,15.32-5,20.33-10.53,8.7-27.28-2.94-37.37-1.6-9.49,1.25-24.57,9.38-33.33,1.07-4.72-4.48-4.45-12.78-3.93-19.12L5.04,81.45c-8.65-7.71-5.6-22.02,4.88-25.28-3.49-9.43,2.7-19.77,11.66-20.06-.38-10.67,8.17-19.01,17.5-15.91,2-11.27,12.39-16.08,21.42-10.97,2.41-4.3,6.46-8.46,11.19-9.09Z"/>
        <g>
          <path class="cls-4" d="M87.28,31.96c.59,12.83-.04,28.1-.48,41.06-.29,8.57-.9,17.13-1.43,25.68-.12.28-.47-.5-.48-.53-.86-4.27-.54-12.79-.71-17.52-.56-15.6-.72-31.2-.95-46.81-.04-2.49.04-5,0-7.49l3.81-.13c-.19,1.93.15,3.85.24,5.75Z"/>
          <path class="cls-4" d="M122.28,40.79c-8.8,16.32-17.4,32.97-25.71,49.62-1.24,2.48-4.16,10.19-5.48,11.77-.2.24-.42.62-.71.27,5.83-15.12,12.02-30.17,18.81-44.8,2.96-6.39,6.17-12.69,9.28-18.99l3.81,2.14Z"/>
          <path class="cls-4" d="M106.8,30.36c-3.95,13.93-7.69,27.99-11.43,41.99-2.52,9.42-4.87,19.09-7.5,28.35,3.46-23.88,8.85-47.54,14.64-70.88,1.26.78,3.32,1.84,4.28.53Z"/>
          <path class="cls-4" d="M38.72,51.22c1.79,2.25,3.71,4.4,5.48,6.69,12.71,16.4,24.24,33.9,36.07,51.09-15.08-18.14-29.6-36.9-44.87-54.83l3.33-2.94Z"/>
          <path class="cls-4" d="M58.96,52.29c7.87,16.71,14.8,33.96,21.66,51.22.01.79-.66-.18-.71-.27-2.88-4.53-6.19-13.07-8.81-18.32-5.71-11.45-11.64-22.69-17.62-33.97-1.72-3.25-3.25-6.66-5-9.9l3.81-2.14c2.21,4.45,4.54,8.87,6.67,13.37Z"/>
          <path class="cls-4" d="M134.9,54.43c-15.1,17.72-29.46,36.29-44.28,54.3,10.93-19.03,27.42-39.99,40.95-56.97l3.33,2.67Z"/>
          <path class="cls-4" d="M68.48,31.7c4.02,16.47,7.64,32.45,10.71,49.22,1.23,6.69,2.72,13.39,3.33,20.19l-6.43-25.28c-.51-6.65-6.73-25.59-8.81-33.17-.93-3.39-1.9-6.78-2.86-10.16l4.05-.8Z"/>
          <path class="cls-4" d="M25.87,71.28l1.9-4.01c16.93,14.23,33.81,28.48,50.23,43.47-17.78-12.45-34.94-26.01-52.13-39.45Z"/>
          <path class="cls-4" d="M144.42,71.28c-17.2,13.37-34.28,26.95-51.78,39.85-.73-.02.43-1.02.48-1.07,4.07-3.89,8.96-7.96,13.21-11.77,8.83-7.91,17.87-15.65,26.9-23.27,2.9-2.45,5.89-4.79,8.81-7.22l2.38,3.48Z"/>
          <path class="cls-6" d="M83.24,26.35c.04,2.49-.04,5,0,7.49h-1.67c-.06-4.63.05-9.28,0-13.91-.04-4.32.03-8.65,0-12.97-4.06-3.2-9.6-3.44-13.93-.67-.65.42-3.6,3.24-3.69,3.88-.12.89,2.9,10.65,3.33,12.44,4.05,16.62,10.72,39.37,12.38,56.04.06.6.22,2-.48,2.27-3.08-16.76-6.69-32.74-10.71-49.22-1.82-7.47-3.84-14.88-5.71-22.33,4.74-7.39,13.82-8.68,20.23-3.21,0,6.74.14,13.46.24,20.19Z"/>
          <path class="cls-6" d="M48.48,41.06c1.75,3.23,3.28,6.65,5,9.9l-1.19.53c-2.95-5.55-6.03-11.07-9.05-16.58-.82-1.5-5.41-10.86-6.07-11.23-1.81-1.02-6.75.99-8.33,2.41-1.14,1.03-4,5.52-3.69,7.09.14.72,8.09,9.1,9.28,10.57,3.53,4.36,6.84,8.97,10.47,13.24l-.71.94c-1.77-2.28-3.68-4.44-5.48-6.69-4.85-6.09-9.66-12.21-15-17.79.79-4.99,4.36-10.03,8.93-11.1.83-.19,4.64-.5,5.24-.27.94.36,9.36,16.71,10.59,18.99Z"/>
          <path class="cls-6" d="M118.47,38.65c-3.12,6.3-6.32,12.6-9.28,18.99l-.48-1.2c4.19-8.56,8.16-17.27,12.38-25.81.81-1.65,6.36-11.21,6.43-11.9.22-2.21-4.32-6.14-6.07-6.82-1.55-.6-6.28-1.14-7.62-.27-.55.36-3.68,11.71-4.17,13.37-.21.72-.51,1.44-.71,2.14h-1.19c.58-2.01,4.24-16.09,4.88-16.58.13-.1,2.82-.77,3.09-.8,5.82-.72,11.56,2.72,13.21,9.23-3.83,6.31-7.18,13-10.47,19.66Z"/>
          <path class="cls-6" d="M62.76,26.08h-1.67c-.16-.54-.32-1.07-.48-1.6-.55-1.9-2.99-12.28-3.93-12.84-2.18-1.3-7.15-.03-9.28,1.34-1.12.72-4.49,4.32-4.4,5.75.04.71,5.58,10.47,6.43,12.17,2.96,5.95,7.81,14.16,10,20.19.23.64.44,1.14-.48,1.2-2.12-4.51-4.46-8.92-6.67-13.37-2.65-5.34-5.36-10.62-8.09-15.91-1.94-3.76-3.75-3.43-.95-7.76,2.64-4.08,7.35-6.06,11.78-5.48.26.03,2.74.71,2.86.8.73.57,4.3,13.51,4.88,15.51Z"/>
          <path class="cls-3" d="M108.95,27.15c-4.47,15.44-8.07,31.29-12.97,46.54l-.6-1.34c3.74-14,7.47-28.06,11.43-41.99.31-1.08.64-2.14.95-3.21h1.19Z"/>
          <path class="cls-6" d="M158.46,54.16c-.86,1.7-13.93,11.56-16.43,13.64-2.91,2.43-5.91,4.78-8.81,7.22l-.71-1.6c5.03-4.25,10.12-8.46,15.24-12.57,1.45-1.16,9.67-6.8,10.12-7.49.48-.73.25-.63.36-1.34,1.24.52.66,1.3.24,2.14Z"/>
          <path class="cls-3" d="M62.76,26.08c.61,2.1,1.07,4.31,1.67,6.42.95,3.38,1.93,6.77,2.86,10.16l-1.43.27c-1.57-5.62-3.15-11.25-4.76-16.85h1.67Z"/>
          <path class="cls-5" d="M81.57,19.93l-14.28,2.67c-.44-1.79-3.45-11.55-3.33-12.44.09-.64,3.04-3.46,3.69-3.88,4.33-2.77,9.87-2.53,13.93.67.03,4.32-.04,8.65,0,12.97Z"/>
          <path class="cls-5" d="M60.62,24.47l-11.19,6.42c-.84-1.7-6.39-11.46-6.43-12.17-.09-1.43,3.28-5.03,4.4-5.75,2.13-1.36,7.11-2.64,9.28-1.34.94.56,3.37,10.94,3.93,12.84Z"/>
          <path class="cls-5" d="M121.09,30.63l-11.43-5.62c.49-1.67,3.61-13.01,4.17-13.37,1.34-.87,6.06-.33,7.62.27,1.75.68,6.29,4.61,6.07,6.82-.07.69-5.61,10.25-6.43,11.9Z"/>
          <path class="cls-5" d="M43.24,34.91l-8.81,8.83c-1.19-1.47-9.14-9.84-9.28-10.57-.31-1.57,2.55-6.06,3.69-7.09,1.58-1.42,6.53-3.42,8.33-2.41.66.37,5.25,9.73,6.07,11.23Z"/>
          <path class="cls-5" d="M158.22,52.02c-.11.71.12.6-.36,1.34-.44.69-8.67,6.32-10.12,7.49l-6.9-10.57c1.21-1.2,7.98-10.11,8.69-10.3s3.57,1.11,4.28,1.6c2.81,1.93,4.97,6.73,4.4,10.43Z"/>
          <path class="cls-3" d="M83.24,33.84c.24,15.61.39,31.21.95,46.81-1.68-1.06-1.51-6.09-1.67-8.43-.85-12.69-.79-25.66-.95-38.38h1.67Z"/>
          <path class="cls-1" d="M53.48,50.95c5.97,11.27,11.91,22.52,17.62,33.97-.82,1.17-1.09.36-1.67-.4-5.36-7.11-12.46-24.23-17.14-33.03l1.19-.53Z"/>
          <path class="cls-1" d="M133.23,75.03c-9.03,7.62-18.07,15.36-26.9,23.27-1.46-.34,1.34-2.77,1.79-3.21,7.46-7.44,16.39-14.89,24.4-21.67l.71,1.6Z"/>
          <path class="cls-3" d="M67.29,42.66c2.08,7.57,8.29,26.52,8.81,33.17.06.84-.15,3.1-.95,1.2-3.57-8.4-6.61-24.55-9.28-34.1l1.43-.27Z"/>
          <g>
            <path class="cls-2" d="M102.52,29.82c-5.79,23.34-11.18,47-14.64,70.88,2.62-9.26,4.98-18.93,7.5-28.35l.6,1.34c4.9-15.25,8.51-31.1,12.97-46.54.2-.7.5-1.41.71-2.14l11.43,5.62c-4.22,8.54-8.19,17.25-12.38,25.81l.48,1.2c-6.79,14.63-12.98,29.68-18.81,44.8.29.36.51-.02.71-.27,1.31-1.58,4.24-9.29,5.48-11.77,8.31-16.65,16.91-33.3,25.71-49.62,1.22-2.26,9.43-18.35,10.36-18.72.27-.11,3.52-.06,4.05,0,5.11.61,9.73,5.87,10.12,11.64-5.42,5.65-10.31,11.88-15.24,18.05-13.52,16.98-30.02,37.95-40.95,56.97-.12.21-1.04.21-.6.8l.6-.8c14.82-18.01,29.18-36.57,44.28-54.3,1.68-1.98,13.17-15.85,14.16-16.05.78-.16,4.44,1.35,5.24,1.87,3.76,2.48,5.72,7.96,5.12,12.71-.05.41-.25,1.49-.95,1.2.42-.84,1.01-1.62-.24-2.14.56-3.7-1.6-8.5-4.4-10.43-.71-.49-3.56-1.8-4.28-1.6s-7.48,9.1-8.69,10.3l6.9,10.57c-5.12,4.11-10.21,8.32-15.24,12.57-8.01,6.77-16.94,14.23-24.4,21.67-.44.44-3.25,2.87-1.79,3.21-4.25,3.81-9.14,7.88-13.21,11.77-.05.05-1.21,1.05-.48,1.07,17.5-12.9,34.58-26.49,51.78-39.85,2.03-1.58,15.32-12.52,16.31-12.57.67-.04,4.51,3.07,5.12,3.88,3.89,5.14,3.17,12.63-1.31,16.98-26.48,13.15-52.34,27.95-79.51,39.32-26.72-11.94-52.74-25.7-78.8-39.32-6.71-5.88-4.36-18.74,4.05-20.6,5.24,4.03,10.38,8.23,15.59,12.3,17.19,13.44,34.35,27,52.13,39.45-16.42-14.99-33.3-29.24-50.23-43.47-5.43-4.56-10.93-9.04-16.43-13.51-.8-4.81.85-10.55,4.64-13.24.91-.65,4.83-2.37,5.71-2.14.95.25,12.03,13.84,13.69,15.78,15.27,17.94,29.8,36.69,44.87,54.83-11.82-17.19-23.36-34.69-36.07-51.09l.71-.94c-3.63-4.27-6.94-8.88-10.47-13.24l8.81-8.83c3.01,5.51,6.09,11.03,9.05,16.58,4.68,8.8,11.78,25.92,17.14,33.03.57.76.85,1.57,1.67.4,2.62,5.25,5.93,13.8,8.81,18.32.06.09.72,1.06.71.27-6.86-17.26-13.79-34.51-21.66-51.22.92-.06.71-.57.48-1.2-2.18-6.03-7.04-14.25-10-20.19l11.19-6.42c.16.53.32,1.06.48,1.6,1.61,5.6,3.19,11.23,4.76,16.85,2.67,9.55,5.71,25.7,9.28,34.1.81,1.9,1.02-.36.95-1.2l6.43,25.28c-.61-6.8-2.11-13.51-3.33-20.19.7-.27.54-1.67.48-2.27-1.66-16.67-8.33-39.41-12.38-56.04l14.28-2.67c.05,4.63-.06,9.28,0,13.91.17,12.72.1,25.7.95,38.38.16,2.34-.02,7.37,1.67,8.43.17,4.73-.15,13.25.71,17.52,0,.04.36.82.48.53.52-8.54,1.14-17.11,1.43-25.68.44-12.96,1.07-28.23.48-41.06l.48-26.08c6.71-5.13,15.5-3.83,20.23,3.74-1.87,6.71-3.8,13.43-5.48,20.19Z"/>
            <g>
              <path class="cls-5" d="M94.55,4.41c3.23-.41,10.47,1.52,11.78,5.22.61,1.71-2.64,11.18-3.21,13.51l-14.16-3.34V6.95c.24-.72,4.78-2.44,5.59-2.54Z"/>
              <path class="cls-4" d="M14.44,82.52l5.48-13.64c5.23,4.15,10.3,8.56,15.71,12.44-1.61,3.26-3,6.75-3.69,10.3-.87.48-15.42-7.91-17.5-9.09Z"/>
              <path class="cls-4" d="M155.61,82.78c-5.6,3.09-11.18,6.09-17.02,8.56l-3.45-10.03c5.12-4.41,10.41-8.59,15.71-12.71l4.76,14.18Z"/>
              <path class="cls-5" d="M155.61,82.78l-4.76-14.18c1.33-1.03,9.5-7.94,10.12-8.02,3.09-.41,6.36,7.23,6.31,10.3-.14,7.76-6.71,9.17-11.66,11.9Z"/>
              <path class="cls-5" d="M19.92,68.87l-5.48,13.64c-6.21-3.53-13.72-5.58-10.24-16.18.57-1.74,3.86-6.13,5.59-5.75.61.13,8.76,7.21,10.12,8.29Z"/>
              <path class="cls-5" d="M133.35,23.67c1.86-.73,6.16.59,7.86,1.87,1.19.9,4.51,5.58,4.4,7.09-.08,1.1-8.55,9.2-9.4,11.1l-8.93-8.43c.53-1.48,5.5-11.41,6.07-11.64Z"/>
              <path class="cls-5" d="M20.27,39.99c1.79,0,7.29,8.21,9.17,9.76l-6.55,11.1c-1.43-.69-10.39-7.42-10.59-8.16-1.25-4.44,3.78-12.68,7.97-12.71Z"/>
              <path class="cls-4" d="M90.62,108.73l-.6.8c-.45-.59.47-.59.6-.8Z"/>
            </g>
          </g>
          <g>
            <path class="cls-6" d="M47.65,103.65l33.45,15.65c-7.58,2.1-16.78,4.7-24.64,3.61-8.56-1.18-10.06-11.27-8.81-19.26Z"/>
            <path class="cls-5" d="M48.36,106.32l31.3,12.71c.14.73-11.96,2.46-12.97,2.54-11.09.87-19.63.35-18.33-15.25Z"/>
          </g>
          <g>
            <path class="cls-6" d="M122.87,103.38c4.58,26.24-19.32,20.32-33.21,15.65l33.21-15.65Z"/>
            <path class="cls-5" d="M121.68,106.32c.23,0,.7-.09.83.13,1.61,22.2-19.73,14.47-31.66,12.84,4.59-2.2,9.48-3.57,14.16-5.48,2.57-1.05,15.32-7.43,16.66-7.49Z"/>
          </g>
        </g>
      </g>
    </g>
  </g>
</svg>