<?xml version="1.0" encoding="UTF-8"?>
<svg id="_레이어_2" data-name="레이어 2" xmlns="http://www.w3.org/2000/svg" width="89.61" height="57.47" viewBox="0 0 89.61 57.47">
  <defs>
    <style>
      .cls-1 {
        fill: #b2b3b4;
      }

      .cls-2 {
        fill: #fff;
      }

      .cls-3 {
        fill: #8c8d8d;
      }

      .cls-4 {
        fill: #af784d;
      }

      .cls-5 {
        fill: #e1e3e3;
      }

      .cls-6 {
        fill: #26120d;
      }

      .cls-7 {
        fill: #3c140a;
      }

      .cls-8 {
        fill: #59331f;
      }
    </style>
  </defs>
  <g id="_레이어_1-2" data-name="레이어 1">
    <g id="_생성형_개체" data-name="생성형 개체">
      <path class="cls-2" d="M12.25,33.85c17.38,7.91,47.2,7.63,64.68.15,1.39-.59,2.82-1.17,4.13-1.92-8.44,14.69-25.16,24.87-42.45,23.04l10.85,2.07c-7.47.37-17.43.28-24.14-3.54-1.89-1.08-2.75-2.55-4.36-3.84-2.75-2.21-6.13-3.72-9.08-6.2-.73-.61-3.19-3.42-3.77-3.4-3.34-4.16-6.14-8.47-7.38-13.73.19-.04.25-.25.44-.3,6.31,16.18,22.29,27.44,39.57,28.57-11.57-3.24-22.15-10.71-28.5-20.89Z"/>
      <path class="cls-5" d="M77.08,32.22l-.15,1.77c-17.48,7.49-47.3,7.76-64.68-.15-3.27-1.49-6.4-3.54-9.08-5.91-.66-.58-1.41-1.92-1.99-1.77-.19.05-.25.26-.44.3-.53-2.25-.39-3.26-.59-5.32h.15c1.84,6.9,12.75,11.72,18.97,13.59,17.01,5.1,41.49,4.77,57.81-2.51Z"/>
      <path class="cls-1" d="M53.16,56.88c-.05,0-.34.5-.89.59-.37-.35-2.25-.32-2.81-.3l-10.85-2.07c17.3,1.84,34.02-8.34,42.45-23.04.23-.13.59-.5.74-.59,2.35-1.43,4.63-2.88,6.28-5.17.12.96-.67,2.53-1.11,3.47-5.33,11.35-16.08,20.2-27.98,23.85-.73.22-4.97.99-5.17,1.18-.08.08-.66,1.78-.66,2.07Z"/>
      <path class="cls-2" d="M12.25,33.85c6.35,10.19,16.93,17.66,28.5,20.89C23.47,53.61,7.49,42.35,1.18,26.17c.58-.14,1.34,1.19,1.99,1.77,2.68,2.37,5.81,4.42,9.08,5.91Z"/>
      <path class="cls-3" d="M82.84,29.12l-1.03,2.36c-.15.09-.5.46-.74.59-1.31.75-2.75,1.33-4.13,1.92l.15-1.77c1.74-.78,4.22-2.02,5.76-3.1Z"/>
      <g>
        <path class="cls-2" d="M82.84,29.12c-1.54,1.08-4.02,2.33-5.76,3.1-16.32,7.28-40.8,7.61-57.81,2.51-6.22-1.86-17.14-6.69-18.97-13.59-1.51-5.66,3.11-10.13,7.46-12.85C25.4-2.72,63.04-2.62,80.99,7.71c10.07,5.8,12.12,14.22,1.85,21.41Z"/>
        <g>
          <path class="cls-1" d="M85.94,22.04c-2.25-4.21-6.93-7.2-11.37-8.71-12.47-6.27-35.14-6.7-48.8-3.54-1.03.24-3.58.77-4.36,1.33-6.58,1.66-14.36,4.81-17.72,11.07C-1.56,11.12,18.28,4.63,25.91,2.99c10.96-2.36,23.8-2.5,34.85-.59,8.08,1.39,30.6,7.68,25.18,19.64Z"/>
          <g>
            <path class="cls-6" d="M21.41,11.11c-1.11.8-.28.98-.15,2.21-2.36.67-4.87,1.6-7.09,2.66-12.04,5.71-4.55,11.08,4.06,13.73,14.58,4.49,41.35,4.58,55.6-1.03,6.67-2.63,11.97-7.56,3.1-12.26-.18-.53.63-1.26.44-1.7-.06-.14-2.44-1.22-2.81-1.4,4.44,1.51,9.12,4.5,11.37,8.71-5.4,11.91-34.64,14.57-46,14.03-9.36-.45-31.81-4.5-36.25-13.88,3.36-6.26,11.14-9.41,17.72-11.07Z"/>
            <path class="cls-7" d="M74.57,13.32c.37.18,2.74,1.26,2.81,1.4.19.44-.63,1.17-.44,1.7-13.83-7.32-40.83-7.31-55.67-3.1-.13-1.23-.96-1.42.15-2.21.77-.55,3.32-1.09,4.36-1.33,13.66-3.16,36.33-2.73,48.8,3.54Z"/>
            <path class="cls-7" d="M14.17,15.98c-3.15,3.12-1.96,5.73,1.33,7.97,4.56,5.46,25.29,6.41,32.12,6.2,2.98-.09,19.13-1.57,20.75-3.25,2.7-.42,7.86-2.85,8.56-5.69.28-1.12-.08-1.86.07-2.88,5.4,4.6-1.29,6.72-3.17,10.34-14.24,5.62-41.01,5.53-55.6,1.03-8.62-2.66-16.1-8.03-4.06-13.73Z"/>
            <path class="cls-8" d="M68.37,26.91c-1.61,1.68-17.76,3.16-20.75,3.25-6.83.21-27.56-.75-32.12-6.2-.38-.45-1.17-1.36-.52-1.92,6.72,4.93,16.39,6.37,24.66,6.64,6.82.23,29.07-1.25,32.12-8.49.16-.38.03-1.86.52-1.7,2.1,3.51-1.16,4.92-3.17,7.01-.34.36-.58,1.24-.74,1.4Z"/>
            <g>
              <path class="cls-8" d="M76.93,16.42c8.87,4.7,3.57,9.63-3.1,12.26,1.89-3.62,8.58-5.74,3.17-10.34-.16,1.02.2,1.76-.07,2.88-.7,2.83-5.86,5.26-8.56,5.69.16-.17.4-1.05.74-1.4,2.01-2.1,5.28-3.5,3.17-7.01-.49-.16-.36,1.32-.52,1.7-3.04,7.24-25.29,8.72-32.12,8.49-8.27-.28-17.94-1.72-24.66-6.64-.65.56.14,1.46.52,1.92-3.29-2.24-4.48-4.85-1.33-7.97,2.22-1.05,4.72-1.99,7.09-2.66,14.84-4.21,41.84-4.22,55.67,3.1Z"/>
              <path class="cls-4" d="M44.07,11.55c8.6-.28,19.63.47,26.8,5.54-16.19-5.51-35.49-5.43-51.31,1.26,6.33-5.19,16.47-6.53,24.51-6.79Z"/>
            </g>
          </g>
        </g>
      </g>
    </g>
  </g>
</svg>