<?xml version="1.0" encoding="UTF-8"?>
<svg id="_레이어_2" data-name="레이어 2" xmlns="http://www.w3.org/2000/svg" width="85.59" height="58.82" xmlns:xlink="http://www.w3.org/1999/xlink" viewBox="0 0 85.59 58.82">
  <defs>
    <style>
      .cls-1 {
        fill: #535656;
      }

      .cls-2 {
        fill: #efc230;
      }

      .cls-3 {
        fill: url(#_무제_그라디언트_297);
      }

      .cls-4 {
        fill: #bfbfbf;
      }

      .cls-5 {
        fill: #fdda6d;
      }

      .cls-6 {
        fill: #fefefe;
      }

      .cls-7 {
        fill: #676869;
      }

      .cls-8 {
        fill: #a5a5a7;
      }
    </style>
    <linearGradient id="_무제_그라디언트_297" data-name="무제 그라디언트 297" x1="1.86" y1="32.59" x2="81.54" y2="38.98" gradientUnits="userSpaceOnUse">
      <stop offset=".11" stop-color="#6b6c6e"/>
      <stop offset=".92" stop-color="#474a4a"/>
    </linearGradient>
  </defs>
  <g id="_레이어_1-2" data-name="레이어 1">
    <g id="_생성형_개체" data-name="생성형 개체">
      <g>
        <g>
          <path class="cls-1" d="M56.33,55.58c-3.01,3.95-17.28,3.55-21.82,2.61-2.5-.52-6.06-1.55-6.53-4.48,9.17,3.23,19.6,3.08,28.78,0l.19.44-.62,1.43Z"/>
          <path class="cls-7" d="M70.01,30.09c-5.12,16.01-23.05,23.59-38.91,21.94,9.96-.73,21.61-4.41,27.72-12.8,1.65-2.27,2.67-4.69,3.73-7.27,2.51-.52,5.02-1.09,7.46-1.86Z"/>
          <g>
            <path class="cls-3" d="M62.55,31.96c-1.06,2.58-2.08,5.01-3.73,7.27-6.12,8.39-17.76,12.07-27.72,12.8,15.86,1.65,33.79-5.93,38.91-21.94,5.01-1.59,10.18-3.83,13.67-7.89l1.86-3.29c-.53,6.11-3.25,13.29-6.59,18.4-1.43,2.19-3.48,4.64-5.35,6.46-.12.12-.25.26-.37.37-.32.31-.7.74-.99.99-.18.15-.6.41-.87.62,0,0-.03.05-.12.12-.38.3-.84.58-1.24.87s-.83.59-1.24.87c-1.4.94-3.19,2.06-4.66,2.86-.99.54-6.85,2.95-7.02,3.29-.3.59,0,.81-.75,1.8l.62-1.43-.19-.44c-9.17,3.08-19.61,3.23-28.78,0-3.71-1.3-7.47-3.37-10.69-5.59-.34-.23-.66-.5-.99-.75-.31-.23-.56-.51-.87-.75-.2-.15-.47-.25-.62-.37-.45-.36-.94-.75-1.37-1.12-2.09-1.8-4.07-3.74-5.72-5.97C3.68,33.7.35,25.5.02,18.65l1.99,3.67c10.32,13.27,45.66,12.69,60.54,9.63Z"/>
            <path class="cls-8" d="M4.55,28.48l9.7,4.1c3.44,7.53,9.23,13.82,16.47,17.84-8.75-1.66-17.78-8.48-22.87-15.66-.39-.55-3.82-5.91-3.29-6.28Z"/>
          </g>
        </g>
        <g>
          <path class="cls-4" d="M85.54,18.9l-1.86,3.29c-3.49,4.06-8.67,6.3-13.67,7.89-2.44.78-4.95,1.35-7.46,1.86-14.88,3.06-50.22,3.63-60.54-9.63L.02,18.65c-.19-3.99,1.24-6.16,4.16-8.7,15.24-13.23,59.25-12.81,75.46-1.49,3.93,2.74,6.33,5.45,5.9,10.44Z"/>
          <g>
            <path class="cls-1" d="M40.17,1.5c-.35,1.68-1.11,2.77-2.24,3.98-9.4.38-20.45,1.86-28.72,6.59-2.68,1.53-6.87,4.58-5.97,8.2C.2,15.14,6.1,10.13,10.15,7.84,17.26,3.82,32.04,1.13,40.17,1.5Z"/>
            <path class="cls-1" d="M82.56,20.02c1.44-5.56-8.61-9.86-12.68-11.19-5.33-1.74-11.03-2.59-16.6-3.23-1.54-.18-4.14.03-5.47-.25-1.59-.34-4.43-3.27-6.53-3.73,10.15-.11,22.41.82,31.76,4.97,4.6,2.04,13.01,7.48,9.51,13.43Z"/>
            <g>
              <path class="cls-5" d="M82.56,20.02c-.42,1.63-4.06,4.35-5.53,5.22-15.36,9.1-53.68,9.38-68.87-.12-1.43-.89-4.5-3.2-4.91-4.85-.91-3.62,3.28-6.67,5.97-8.2l-.12,1.62c-3.58,2.1-4.14,5.09-.99,7.96.4.79,1.1,1.47,1.8,1.99,12.45,9.13,53.38,9.09,65.76-.12,8.46-6.3,1.84-12.22-5.53-14.17-.1-.07-.34-.13-.37-.19,0-.01.2-.13.12-.31,4.07,1.33,14.12,5.63,12.68,11.19Z"/>
              <path class="cls-6" d="M40.54,1.5c.22,4.3-4.75,7.8-8.27,9.45-2.33,1.09-8.1,2.21-8.89,4.91-1.67,5.75,11.44,7.17,14.98,7.27,4.25.12,8.47-.51,12.62-1.31-4.73,1.8-10.24,2.31-15.29,2.05-4.27-.22-8.91-1.18-12.62-3.36-.39-.23-1.55-1.42-1.8-1.49-1.15-1.95-.18-3.89,1.43-5.22,4.5-3.72,10.76-3.54,15.23-8.33,1.13-1.21,1.88-2.3,2.24-3.98.12,0,.25-.01.37,0Z"/>
              <path class="cls-2" d="M21.4,22.01c-1.02-.85-.73-1.59-1.74-2.11.23-.78.81-1.08,1.62-.87.26.07,1.41,1.26,1.8,1.49,3.71,2.17,8.34,3.13,12.62,3.36.01.3,1.11.36,1.31.37,5.96.35,13.35-.48,18.9-2.73,9.88-4.01,10.36-9.59.25-13.8-.15-.06-2.76-.74-1.99-.87.21-.03,3.61,1.07,4.1,1.24,4.95,1.72,13.98,6.25,7.21,12.18s-36.86,7.73-44.07,1.74Z"/>
              <path class="cls-2" d="M8.1,21.64c2.8,2.55,8.04,4.37,11.69,5.22-.09.36.19.42.44.5,11.44,3.86,45.4,3.55,54.57-4.97,5.88-5.46-.18-10-4.66-13.05,7.37,1.95,13.99,7.87,5.53,14.17-12.39,9.22-53.31,9.26-65.76.12-.71-.52-1.4-1.2-1.8-1.99Z"/>
              <path class="cls-6" d="M19.78,26.86c-3.65-.85-8.89-2.67-11.69-5.22-3.14-2.87-2.59-5.85.99-7.96,3.16-1.86,8.33-2.91,11.93-3.42-1.43,1.24-3.35,1.2-5.03,1.8-2.89,1.03-7.19,3.32-6.53,7.02s10.77,7.61,14.23,8.27c.21.38-.62.26-.75.25-1.02-.06-2.18-.51-3.17-.75Z"/>
              <g>
                <path class="cls-5" d="M41.29,1.62c2.1.46,4.94,3.39,6.53,3.73,1.33.28,3.93.07,5.47.25,5.57.64,11.26,1.49,16.6,3.23.07.18-.13.3-.12.31.03.05.27.12.37.19,4.49,3.05,10.54,7.59,4.66,13.05-9.18,8.52-43.14,8.83-54.57,4.97-.24-.08-.53-.13-.44-.5.99.23,2.15.69,3.17.75.12,0,.96.13.75-.25-3.46-.66-13.56-4.47-14.23-8.27s3.64-5.99,6.53-7.02c1.69-.6,3.61-.56,5.03-1.8-3.6.51-8.78,1.56-11.93,3.42l.12-1.62c8.27-4.72,19.32-6.21,28.72-6.59-4.47,4.79-10.73,4.61-15.23,8.33-1.61,1.33-2.58,3.27-1.43,5.22-.8-.21-1.39.09-1.62.87-.4,1.4.1,3.25,1.74,2.11,7.21,5.99,37.08,4.38,44.07-1.74s-2.26-10.47-7.21-12.18c-.49-.17-3.89-1.28-4.1-1.24-.77.13,1.84.81,1.99.87,10.11,4.2,9.64,9.78-.25,13.8-5.55,2.25-12.93,3.09-18.9,2.73-.2-.01-1.29-.08-1.31-.37,5.05.26,10.56-.25,15.29-2.05-4.15.8-8.37,1.43-12.62,1.31-3.54-.1-16.65-1.52-14.98-7.27.79-2.7,6.56-3.82,8.89-4.91,3.52-1.64,8.49-5.15,8.27-9.45.3.03.47.06.75.12Z"/>
                <g>
                  <path class="cls-2" d="M41.35,2.25c.94-.26,3.1,2.71,3.42,3.54,1.53,4-.54,6.99-4.29,8.39-.77.29-4.75,1.46-3.67-.68.34-.68,3.63-2.32,4.41-3.05,1.97-1.84,2.17-4.08,1.06-6.4-.13-.28-1.46-1.66-.93-1.8Z"/>
                  <path class="cls-5" d="M33.77,13.31c2.23-.24,2.54,3.42.99,3.73-.09.02-1.78-.22-1.86-.25-1.47-.52-.26-3.36.87-3.48Z"/>
                  <path class="cls-5" d="M50.55,10.2c2.64-.42,1.94,3.54-.5,3.11-1.74-.31-1.13-2.85.5-3.11Z"/>
                  <path class="cls-5" d="M45.7,13.93c2.43-.58,2.33,2.95.25,3.11-2.31.18-1.59-2.79-.25-3.11Z"/>
                  <path class="cls-2" d="M24.82,10.57c.09,0,.28-.03.31.06-1.5.75-3.2,1.46-4.54,2.55-.61.5-2.19,2.68-2.36,2.73-1.06.34-.8-.85-.44-1.43.64-1.03,5.88-3.8,7.02-3.92Z"/>
                  <path class="cls-5" d="M70.94,19.15c2.51-.58,1.52,3.12-.37,2.24-.96-.45-.53-2.03.37-2.24Z"/>
                  <path class="cls-5" d="M71.93,13.19c.84-.25,1.35.69,1.06,1.43-.34.56-.92.2-1.18.31-.19.08-1.5,1.4-1.68.19-.12-.82,1.09-1.17,1.55-1.43.27-.15-.02-.42.25-.5Z"/>
                  <path class="cls-5" d="M14.5,14.68c1.55-.42,1.88,2.08.5,2.24-1.57.18-1.57-1.94-.5-2.24Z"/>
                  <path class="cls-5" d="M66.84,9.83c1.24-.32,1.97,1.28,1.24,1.74-1.4.88-2.61-1.39-1.24-1.74Z"/>
                </g>
              </g>
              <path class="cls-5" d="M21.4,22.01c-1.64,1.14-2.15-.71-1.74-2.11,1.01.52.72,1.27,1.74,2.11Z"/>
            </g>
          </g>
        </g>
      </g>
    </g>
  </g>
</svg>