<?xml version="1.0" encoding="UTF-8"?>
<svg id="_레이어_2" data-name="레이어 2" xmlns="http://www.w3.org/2000/svg" viewBox="0 0 72.72 104.82">
  <defs>
    <style>
      .cls-1 {
        fill: #439d38;
      }

      .cls-2 {
        fill: #75b73d;
      }

      .cls-3 {
        fill: #96c239;
      }

      .cls-4 {
        fill: #faef85;
      }

      .cls-5 {
        fill: #df464f;
      }

      .cls-6 {
        fill: #d12536;
      }
    </style>
  </defs>
  <g id="_레이어_1-2" data-name="레이어 1">
    <g id="_생성형_개체" data-name="생성형 개체">
      <path class="cls-1" d="M51.97,26.44c-4.46-1.51-8.46-3.63-13.16-1.07-.26-.01-.88.19-1.27.19-.34,0-.74-.11-1.17-.1-.38.02-.8-.06-1.17.1-.48-.1-.97-.2-1.46-.19-.7-.43-1.69-.82-2.49-.97-3.93-.75-6.85.72-10.38,1.95-2.99-2.51-4.74-6.14-5.26-9.99,5.28,5.56,14.24,2.43,19.54,7.85.19-1.66-.04-3.36.05-5.02.34-6.18,2.55-12.57,7.16-16.81.57-.52,2.58-2.23,3.22-2.34,1.11-.19,3.57.68,3.17,2.1-.12.41-3.7,2.71-4.34,3.27-5.2,4.51-7.17,12.4-6.92,19.01,5.18-5.7,14.41-2.33,19.69-8.09-.56,3.96-2.37,7.37-5.21,10.14Z"/>
      <path class="cls-2" d="M51.97,26.44c.88.3,1.82.81,2.78,1.07,3.12.87,6.45,1.35,9.65.58.48.25-3.55,3.42-3.85,3.61-2.23,1.35-5.3,2.16-7.9,2.34-3.5-5.15-7.33-8.39-13.84-8.68,4.7-2.56,8.7-.44,13.16,1.07Z"/>
      <path class="cls-2" d="M33.74,25.37c-6.23.02-10.35,3.9-13.65,8.68-2.69-.19-5.48-.95-7.8-2.34-1.39-.84-3.09-2.29-4.05-3.61,4.22,1,8.4-.08,12.38-1.46.27-.09.23-.29.24-.29,3.54-1.23,6.45-2.7,10.38-1.95.79.15,1.79.55,2.49.97Z"/>
      <path class="cls-3" d="M35.2,25.56c-2.64,1.16-3.76,6.21-3.7,8.77-3.2,3.76-7.59,5.69-12.48,6.04-.96.07-1.91.15-2.88.1-.19.02-.15-.11-.15-.24.01-.23,2.38-3.27,2.73-3.8.48-.74.88-1.68,1.36-2.39,3.3-4.78,7.41-8.65,13.65-8.68.49,0,.98.1,1.46.19Z"/>
      <path class="cls-4" d="M26.33,89.61c-.7.37-.96-.09-1.36-.49l.39-.24c-.41-1.19-1.06-2.3-.68-3.61,1.43.02,1.82,1.64,2,2.78.94-1.25-1.57-4.7-2.68-2.83,0-.06-.02-.17,0-.19.91-1.57,2.85.61,3.02,1.9.08.6-.08,2.36-.68,2.68Z"/>
      <path class="cls-4" d="M19.21,49.74c.83,1.92-.95,5.07-2.24,3.41-.22-.28-.37-1.18-.39-1.56l.49.15c-.12-.75.68-3.46,1.56-2.14.75,1.12-.15,2.21-.05,3.36.6-1.01.7-2.09.63-3.22Z"/>
      <path class="cls-4" d="M32.08,99.35c-.13-.03-.17-.03-.29-.1-.39-.51-1.22-3.9-.05-3.7.3.05,2.24,3.02.97,3.61-.15.07-.66-.17-.63.19Z"/>
      <path class="cls-4" d="M24.97,89.12c-.82-.79-1.59-2.86-.97-3.9,1.11-1.87,3.62,1.58,2.68,2.83-.18-1.14-.57-2.76-2-2.78-.38,1.3.27,2.42.68,3.61l-.39.24Z"/>
      <path class="cls-4" d="M33.45,98.09c-.03.84-.44,1.47-1.36,1.27-.03-.37.48-.12.63-.19,1.26-.58-.67-3.56-.97-3.61-1.17-.2-.34,3.19.05,3.7-.99-.54-1.65-2.6-1.17-3.61.91-1.9,2.88.88,2.83,2.44Z"/>
      <path class="cls-4" d="M19.21,49.74c.07,1.13-.04,2.21-.63,3.22-.1-1.15.8-2.24.05-3.36-.88-1.31-1.68,1.4-1.56,2.14l-.49-.15c-.04-.74.04-1.71.49-2.34.82-1.15,1.69-.55,2.14.49Z"/>
      <g>
        <path class="cls-5" d="M20.09,34.04c-.49.7-.88,1.65-1.36,2.39-.35.54-2.72,3.57-2.73,3.8,0,.14-.04.27.15.24.97.05,1.92-.03,2.88-.1l-1.95,8.87c-.45.62-.53,1.6-.49,2.34.02.38.17,1.28.39,1.56.2.34-.18.29-.19.44-.45,3.56.25,9.97.97,13.55,1.21,6.03,3.82,12.26,6.24,17.89-.02.03,0,.13,0,.19-.62,1.04.16,3.11.97,3.9.4.39.66.86,1.36.49l4.29,6.04c-.48,1.01.18,3.07,1.17,3.61.12.07.16.07.29.1.92.2,1.34-.43,1.36-1.27l3.8,4.09c-1.41.79-3.08,1.53-4.58,2.14-14.46-4.19-27.63-28.29-31.29-41.96-2.17-8.09-2.3-18.6,3.51-25.25,2.03-2.32,4.72-3.96,7.41-5.41,2.32,1.39,5.1,2.15,7.8,2.34Z"/>
        <path class="cls-4" d="M9.08,42.52c.86-1.05,1.37-2.52,2.73-3.02.43.2.62,1.06.58,1.51-.11,1.51-3.22,4.23-3.31,1.51Z"/>
        <path class="cls-4" d="M13.76,61.73c1.13.93.82,4.75-1.12,4.29-.1-.02-.27-.32-.34-.39.21-.66-.31-1.45-.29-2.29.06-3.97,2.43-.43,1.85,1.46.39-.1.43-1.45.39-1.75-.03-.24-.36-1.1-.49-1.32Z"/>
        <path class="cls-4" d="M5.37,55.29l.39.15c-.03-1.37-.48-2.52.29-3.85,1.68-.54,2.33,4.05.44,4.39-.77.14-.85-.16-1.12-.68Z"/>
        <path class="cls-4" d="M17.07,74.98c.37.79.53,2.78-.34,3.31-1.03.63-1.51-.26-1.9-1.07.55-.55.2-.41.19-.93,0-.34-.06-1.9.1-2.05,1.94.19,1.9,2.38,1.51,3.85.81-.88.6-1.95.44-3.12Z"/>
        <path class="cls-4" d="M13.76,61.73c.13.21.45,1.07.49,1.32.04.31,0,1.66-.39,1.75.57-1.89-1.79-5.43-1.85-1.46-.01.84.51,1.63.29,2.29-.92-.83-1.27-3.03-.78-4.14s1.74-.56,2.24.24Z"/>
        <path class="cls-4" d="M17.07,74.98c.16,1.17.37,2.24-.44,3.12.39-1.47.43-3.66-1.51-3.85-.16.14-.1,1.71-.1,2.05,0,.52.36.37-.19.93-.4-.84-.66-1.73-.49-2.68.32-1.76,2.25-.58,2.73.44Z"/>
        <path class="cls-4" d="M6.06,51.59c-.77,1.33-.32,2.48-.29,3.85l-.39-.15c-.52-1-.65-3.28.68-3.7Z"/>
        <path class="cls-4" d="M11.81,39.5c-1.36.5-1.87,1.97-2.73,3.02-.04-1.24,1.37-3.65,2.73-3.02Z"/>
      </g>
      <path class="cls-3" d="M52.65,34.04c.43.63.89,1.76,1.36,2.49.37.57,2.72,3.47,2.73,3.7,0,.14.04.27-.15.24-.73-.02-1.46.02-2.19,0-5.03-.17-10.04-2.34-13.26-6.24.07-3.26-.82-6.72-3.61-8.68.39,0,1-.21,1.27-.19,6.52.29,10.34,3.53,13.84,8.68Z"/>
      <path class="cls-4" d="M42.02,95.75c.39.89.21,1.8-.29,2.63-.13.22-.66.77-.88.88-.73.35-1.41.04-1.56-.78.32-.1.22-.13.29-.34.32-.99.4-2.11,1.51-2.58.84-.03.38,2.54.05,3.07.97-.66.96-1.83.88-2.88Z"/>
      <g>
        <path class="cls-6" d="M60.54,31.7c21.18,10.49,10.25,37.86.78,52.88-5.46,8.66-17.04,23.1-28.66,19.74,1.5-.62,3.17-1.35,4.58-2.14,1.28-.72,2.89-1.52,3.61-2.92.22-.11.74-.66.88-.88,1.07-.74,2.12-1.65,3.07-2.53,7.58-7.02,15.13-17.78,16.23-28.32.07-.71.36-2.26-.1-2.68.43-.92.55-1.64.39-2.63.37,0,.31.09.39-.24,1.48-6.28-3.88-16.01-7.21-21.05-.07-.11-.22-.29-.1-.44.73.02,1.46-.02,2.19,0,.19.02.15-.11.15-.24-.01-.23-2.36-3.13-2.73-3.7-.47-.72-.93-1.85-1.36-2.49,2.59-.17,5.66-.99,7.9-2.34Z"/>
        <path class="cls-4" d="M66.25,51.49c2.02-.44,2.01,5.53-.39,4.29-1.39-.72-.75-4.04.39-4.29Z"/>
        <path class="cls-4" d="M63.08,40.67c.4.63.76,1.51.58,2.29-.45,1.99-4.4-.98-3.02-3.17.96-1.03,2.51,2.54,2.68,2.44.21-.5-.03-.84-.29-1.27-.06-.11-.25-.34.05-.29Z"/>
        <path class="cls-4" d="M63.08,40.67c-.3-.05-.11.19-.05.29.26.43.51.77.29,1.27-.17.1-1.72-3.47-2.68-2.44.69-1.09,1.95.1,2.44.88Z"/>
      </g>
      <path class="cls-3" d="M36.37,25.47l-.19,19.79c-.28-.15-1.51-1.82-1.75-2.19-1.68-2.55-2.85-5.64-2.92-8.72-.06-2.56,1.06-7.61,3.7-8.77.37-.16.79-.08,1.17-.1Z"/>
      <path class="cls-2" d="M37.54,25.56c2.79,1.95,3.67,5.41,3.61,8.68-.08,4.14-1.92,8.13-4.73,11.11-.22.06-.23-.09-.24-.1l.19-19.79c.43-.02.83.11,1.17.1Z"/>
      <path class="cls-4" d="M42.02,95.75c.08,1.04.09,2.21-.88,2.88.33-.53.79-3.1-.05-3.07-1.11.48-1.19,1.6-1.51,2.58-.07.22.03.24-.29.34-.34-1.84,1.87-4.7,2.73-2.73Z"/>
      <g>
        <path class="cls-4" d="M61.32,62.21c.16,1,.04,1.72-.39,2.63-1.57,3.34-3.79-.98-2.05-3.17.32-.41,1.31-.98,1.8-.83.44.34.55.83.63,1.36Z"/>
        <path class="cls-4" d="M59.91,61.53c1.09-.15.63,2.55.44,3.17-.05.17-.31.3-.39.49-.08.17.34.82-.44.73-.82-.09-.72-2.81-.44-3.46.08-.19.64-.9.83-.93Z"/>
      </g>
      <g>
        <path class="cls-5" d="M54.4,40.48c-.13.15.02.33.1.44,3.34,5.04,8.69,14.77,7.21,21.05-.08.34-.02.25-.39.24-.09-.53-.19-1.02-.63-1.36-.49-.16-1.48.42-1.8.83-1.75,2.19.48,6.51,2.05,3.17.46.42.17,1.98.1,2.68-1.1,10.54-8.65,21.3-16.23,28.32-.95.88-2,1.79-3.07,2.53.51-.83.68-1.75.29-2.63-.86-1.97-3.07.88-2.73,2.73.15.82.83,1.13,1.56.78-.72,1.4-2.32,2.2-3.61,2.92l-3.8-4.09c.05-1.56-1.92-4.33-2.83-2.44l-4.29-6.04c.6-.32.76-2.08.68-2.68-.17-1.29-2.11-3.47-3.02-1.9-2.42-5.63-5.03-11.85-6.24-17.89-.72-3.58-1.42-9.99-.97-13.55.02-.15.4-.1.19-.44,1.29,1.66,3.07-1.49,2.24-3.41-.45-1.04-1.32-1.64-2.14-.49l1.95-8.87c4.89-.36,9.28-2.29,12.48-6.04.07,3.08,1.24,6.17,2.92,8.72.24.37,1.47,2.05,1.75,2.19.01,0,.02.16.24.1,2.81-2.99,4.64-6.97,4.73-11.11,3.22,3.9,8.22,6.07,13.26,6.24Z"/>
        <path class="cls-4" d="M26.43,62.9c-1.98-.01-1.72,2.52-1.22,3.8l.34-.15c-.49-.55-.23-3.22.63-3.07.75.13,1.12,2.13,1.02,2.78,0,.07-.79,1.61,0,.88.42-.39.32-3.01.1-3.56.68,1.04.59,3.29-.19,4.24-2.05,2.47-3.88-5.84-.68-4.92Z"/>
        <path class="cls-4" d="M37.44,55.39c1.4,2.01-.61,6.81-2.14,3.9.61-.29.01-1.04,0-1.51-.02-.93.07-1.83.93-2.39,1.35.62,1.34,2.5.73,3.66.31.58.72-1.53.78-1.66l-.29-2Z"/>
        <path class="cls-4" d="M37.54,75.76c1.08,1.94-.53,6.5-2.14,3.8.71,0,.02-.84,0-1.22-.05-.87.33-3.92,1.56-2.14.38.55.42,1.39.39,2.05,0,.09-.47,1,0,.88.15-.15.41-2.35.39-2.63,0-.04-.45-.58-.19-.73Z"/>
        <path class="cls-4" d="M47.77,63.68c1.31,2.91-2.02,7.15-2.73,2.53.41.33.25,1.3.97,1.02-.49-1.03-.81-2.52.1-3.41,1.17-1.16,1.39,1.3,1.27,2.05-.03.16-.69,1.21-.44,1.32l.83-1.12v-2.39Z"/>
        <path class="cls-4" d="M47.58,43.11c1.45,1.54.37,6.93-1.66,3.8.01-.66-.45-3.63.54-3.8s1.34,3.08.93,3.75c.53.19.01-.86.49-.49l.19-1.56-.49-1.71Z"/>
        <path class="cls-4" d="M55.86,49.84c1.13,2.82-1.25,5.48-2.34,2.24l.39.15c-.46-.56.06-3.37.83-3.17.1.03.79,1.64.83,1.8.1.46-.23,1.07.15,1.32l.34-1.12h-.19v-1.22Z"/>
        <path class="cls-4" d="M25.06,47.5c-.15-.19-.12-.23-.19-.39.45-.62.06-1.28.19-2,.55-3.04,2.07-2.11,1.85.49-.02.26-.29.46-.29.49-.06.25.11.65.1.68-.18.49-1.21,1.49-1.66.73Z"/>
        <path class="cls-4" d="M46.02,88.92c.04.07.59.67.63.68.63.15.36-.5.44-.63.35-.59.83-1.01.97-1.75.55-2.78-1.09-2.32-1.75-.39-.14.42.06,1.29-.49,1.41-.75-3.81,3.93-5.41,3.02-1.02-.22,1.07-2.07,3.88-2.83,1.71Z"/>
        <path class="cls-4" d="M46.02,88.92c-.19-.31-.14-.38-.19-.68.54-.13.35-1,.49-1.41.66-1.93,2.31-2.39,1.75.39-.15.74-.62,1.16-.97,1.75-.08.13.19.78-.44.63-.05-.01-.59-.61-.63-.68Z"/>
        <path class="cls-4" d="M25.06,47.5c.44.76,1.48-.24,1.66-.73.01-.03-.15-.43-.1-.68,0-.03.27-.23.29-.49.22-2.59-1.3-3.52-1.85-.49-.13.72.25,1.38-.19,2-.62-1.35-.56-4.96,1.51-4.48,2.18.51.64,5.78-.97,5.36-.19-.05-.29-.42-.34-.49Z"/>
        <path class="cls-4" d="M47.77,63.68v2.39l-.83,1.12c-.25-.1.41-1.16.44-1.32.13-.75-.1-3.2-1.27-2.05-.91.89-.59,2.38-.1,3.41-.72.28-.56-.7-.97-1.02-.37-2.42,1.65-4.92,2.73-2.53Z"/>
        <path class="cls-4" d="M37.54,75.76c-.25.15.19.69.19.73.02.28-.24,2.48-.39,2.63-.47.12,0-.78,0-.88.03-.65-.01-1.5-.39-2.05-1.23-1.78-1.61,1.27-1.56,2.14.02.38.71,1.21,0,1.22-.7-1.17-1.03-4,.54-4.58.75-.28,1.24.12,1.61.78Z"/>
        <path class="cls-4" d="M37.44,55.39l.29,2c-.06.12-.47,2.23-.78,1.66.61-1.16.62-3.04-.73-3.66-.85.56-.95,1.45-.93,2.39.01.47.61,1.22,0,1.51-.51-.97-.72-2.78-.19-3.75.6-1.11,1.63-1.17,2.34-.15Z"/>
        <path class="cls-4" d="M47.58,43.11l.49,1.71-.19,1.56c-.48-.37.04.67-.49.49.41-.67.06-3.93-.93-3.75s-.52,3.14-.54,3.8c-.25-.39-.62-1.06-.68-1.51-.19-1.47.84-3.88,2.34-2.29Z"/>
        <path class="cls-4" d="M27.3,63.58c.22.55.33,3.17-.1,3.56-.79.73,0-.81,0-.88.1-.65-.27-2.65-1.02-2.78-.86-.15-1.13,2.52-.63,3.07l-.34.15c-.5-1.28-.76-3.81,1.22-3.8.37.11.67.37.88.68Z"/>
        <path class="cls-4" d="M55.86,49.84v1.22h.19l-.34,1.12c-.37-.25-.05-.86-.15-1.32-.04-.17-.73-1.78-.83-1.8-.77-.2-1.29,2.6-.83,3.17l-.39-.15c-.87-2.6,1.29-4.86,2.34-2.24Z"/>
        <g>
          <path class="cls-4" d="M57.47,73.62c2.01-.11.78,5.22-1.17,4.87-1.6-.28-1.11-4.75,1.17-4.87Z"/>
          <path class="cls-4" d="M57.47,74.2c.32.06.27,1.49.24,1.8-.05.53-.64,1.41-.58,1.46.06.06.84.17-.15.73-1.31.75-1.35-2.44-.73-3.27.13-.18,1.12-.75,1.22-.73Z"/>
        </g>
      </g>
    </g>
  </g>
</svg>