<?xml version="1.0" encoding="UTF-8"?>
<svg id="_레이어_2" data-name="레이어 2" xmlns="http://www.w3.org/2000/svg" width="94.2" height="34.59" viewBox="0 0 94.2 34.59">
  <defs>
    <style>
      .cls-1 {
        fill: #dc7253;
      }

      .cls-2 {
        fill: #bf5024;
      }

      .cls-3 {
        fill: #f18b65;
      }

      .cls-4 {
        fill: #fdcba0;
      }
    </style>
  </defs>
  <g id="_레이어_1-2" data-name="레이어 1">
    <g id="_생성형_개체" data-name="생성형 개체">
      <path class="cls-1" d="M93.96,15.75c.01.26.04.37-.11.61-.65,1.02-4.31,1.98-5.56,2.7-2.33,1.33-4.65,3.86-7.16,5.4-7.04,4.3-15.42,6.25-23.63,6.5.14-1.41.21-2.86-.39-4.19-.36,1.44-.79,2.86-1.16,4.3-5.05-.09-10.11-.37-15.09-1.21-.02-1.35-.29-2.66-.61-3.97-.06,1.29-.15,2.57-.28,3.86l-10.69-1.98c.05-1.53-.34-3.4-.83-4.85-.12,1.51-.34,3.01-.5,4.52C18.41,25.32,8.76,22.85,0,18.4c.01-.53.07-1.21.55-1.43.36-.17,6.54,1.29,7.55,1.43,1.36.19,2.77.21,4.13.33.11.43.37.98.5,1.43.06-.43.11-1,.06-1.43,2.42.2,4.86.24,7.27.44,24.13,1.96,51.27,9.57,73.14-4.63.71.61.49.45.77,1.21Z"/>
      <path class="cls-3" d="M93.19,14.54c-21.88,14.2-49.01,6.59-73.14,4.63-.02-.23.56-.39.72-.44,4.77-1.43,10.39-3.36,15.09-4.52,3.63-.9,7.43-.79,11.13-.44.58.32.33,3.9.72,4.63.33.04.19-.19.22-.39.15-1.14.31-2.88.33-4.02,3.29.28,6.49,1.22,9.75,1.65,7.17.96,14.19.58,21.37,0l.72,2.75c.03.12-.02.26,0,.39.33.51.12-2.43.11-2.59l.28-.66,10.57-.66c-2.21-.34-4.42-.62-6.39-1.76-1.44-.83-2.45-2.22-3.75-3.19-7.68-5.81-14.76-8.66-24.56-8.92-.27,0-.61-.08-.61.33-.19-.47-.55-.87-.77-1.32,7.89.16,15.56,1.46,22.31,5.73,3.99,2.53,6.86,6.37,11.57,7.6,1.54.4,3.02.07,4.35,1.21Z"/>
      <path class="cls-1" d="M61.91,34.26c-1.69,0-3.43.22-5.18.22.32-1.16.65-2.32.77-3.52,8.21-.25,16.59-2.2,23.63-6.5,2.51-1.54,4.83-4.06,7.16-5.4,1.25-.72,4.92-1.67,5.56-2.7.15-.23.12-.35.11-.61,1.35,3.66-3.54,4.56-5.78,6.06-1.81,1.21-3.34,3.32-5.07,4.74-5.99,4.92-13.6,6.91-21.2,7.71Z"/>
      <path class="cls-1" d="M27.98,27.43c-.13,1.24-.02,2.57-.55,3.75-7.5-1.69-15.7-4.17-22.64-7.49C2.66,22.66-.06,21.14,0,18.4c8.76,4.45,18.41,6.92,27.98,9.03Z"/>
      <path class="cls-1" d="M55.96,31.07c-.3,1.17-.5,2.37-.88,3.52-3.51,0-7.07-.54-10.46-.55-1.28-.18-2.57-.28-3.86-.44.27-.44-.39-.02-.44-.39-.01-.09.52-1.4.55-1.76.05-.48,0-1.1,0-1.6,4.98.84,10.04,1.12,15.09,1.21Z"/>
      <path class="cls-1" d="M39.99,29.74c-.12,1.24-.11,2.42-.55,3.64-3.59-.5-7.15-1.11-10.69-1.87.5-.41-.25.04-.22-.5,0-.05.4-.81.44-.99.13-.66.31-1.61.33-2.26l10.69,1.98Z"/>
      <path class="cls-2" d="M54.97,0c.22.45.59.85.77,1.32.96,2.44.58,6.29.94,8.92-.45-1.49-.57-3.09-1.05-4.57-.57-1.78-2.3-3.85-1.65-5.67.33,0,.66,0,.99,0Z"/>
      <path class="cls-2" d="M29.3,27.76c-.02.65-.2,1.6-.33,2.26-.04.18-.44.94-.44.99-.03.53.72.09.22.5-.44-.09-.88-.23-1.32-.33.53-1.17.42-2.5.55-3.75.16-1.5.37-3.01.5-4.52.48,1.45.88,3.31.83,4.85Z"/>
      <path class="cls-2" d="M40.87,29.85c0,.5.05,1.12,0,1.6-.04.36-.56,1.67-.55,1.76.05.37.71-.05.44.39-.44-.06-.89-.16-1.32-.22.44-1.21.43-2.4.55-3.64s.21-2.57.28-3.86c.31,1.31.59,2.61.61,3.97Z"/>
      <path class="cls-2" d="M48.25,13.99c-.02,1.14-.18,2.88-.33,4.02-.03.2.11.43-.22.39.12-4.16-1.18-8.14-1.76-12.17,2.19,1.76,2.37,5.14,2.31,7.77Z"/>
      <g>
        <path class="cls-3" d="M53.98,0c-.65,1.82,1.08,3.89,1.65,5.67.47,1.48.6,3.08,1.05,4.57-.35-2.64.02-6.48-.94-8.92,0-.41.33-.34.61-.33,9.81.26,16.89,3.11,24.56,8.92,1.29.98,2.31,2.36,3.75,3.19,1.97,1.14,4.18,1.43,6.39,1.76l-10.57.66-.28.66c-.09-1.13-.14-2.22-.66-3.25l-.22.11c-.16.51.6,4.54.77,5.34l-.72-2.75c-7.18.58-14.2.96-21.37,0-3.26-.43-6.46-1.37-9.75-1.65.05-2.62-.12-6-2.31-7.77.58,4.03,1.88,8.01,1.76,12.17-.39-.73-.14-4.31-.72-4.63-3.7-.35-7.49-.46-11.13.44-4.7,1.16-10.32,3.09-15.09,4.52-.16.05-.74.21-.72.44-2.41-.2-4.85-.24-7.27-.44-.07-.6-.34-1.08-.72-1.54-.17.39.06,1.14.17,1.54-1.36-.12-2.78-.14-4.13-.33-1.01-.14-7.19-1.6-7.55-1.43-.15-.2-.1-.3,0-.5,1.44-2.87,12.11-7.15,15.37-8.43C27.94,3.34,40.98-.07,53.98,0Z"/>
        <g>
          <path class="cls-4" d="M33.38,6.61c-.01-.11.02-.23,0-.33.47-.12.91-.41,1.38-.55,2.76-.81,16.25-3.42,18.18-2.09,1.68,1.15-1.76,2.05-2.53,1.98l-17.02.99Z"/>
          <path class="cls-4" d="M72.98,6.72c1.91-.35,7.92,4.7,9.31,6.22-.31.47-9.82-3.41-10.13-4.74-.11-.48.36-1.4.83-1.49Z"/>
          <path class="cls-2" d="M33.38,6.28c.02.1-.01.22,0,.33.28,2.39-.12,5.03-.11,7.44-.13-1.12-.12-2.43-.33-3.52-.31-1.66-2.01-5.25-1.65-6.61.02-.09.22-.42.39-.39.72.58,1.56,1.85,1.71,2.75Z"/>
          <path class="cls-2" d="M68.24,5.73c2.9,2.41,2.54,6.2,2.09,9.58l-2.09-9.58Z"/>
          <path class="cls-4" d="M29.03,6.17c.39.02.48.24.39.61-.22.85-5.93,1.77-6.94,1.87,1.32-.33,5.48-2.54,6.55-2.48Z"/>
          <path class="cls-2" d="M19.66,9.48c2.32,1.27,1.17,4.77,1.54,6.94-.4-.95-.34-2.05-.61-3.03-.15-.56-1.64-3.59-.94-3.91Z"/>
          <path class="cls-2" d="M80.19,16.2c.01.16.22,3.1-.11,2.59-.02-.12.03-.27,0-.39-.17-.8-.93-4.83-.77-5.34l.22-.11c.52,1.03.57,2.12.66,3.25Z"/>
          <path class="cls-2" d="M12.78,18.73c.05.43,0,1-.06,1.43-.13-.45-.38-1-.5-1.43-.11-.4-.34-1.15-.17-1.54.38.46.64.94.72,1.54Z"/>
        </g>
      </g>
      <path class="cls-2" d="M57.5,30.96c-.12,1.21-.45,2.36-.77,3.52-.54,0-1.07.11-1.65.11.38-1.15.58-2.35.88-3.52.37-1.43.8-2.86,1.16-4.3.6,1.33.52,2.78.39,4.19Z"/>
    </g>
  </g>
</svg>