<?xml version="1.0" encoding="UTF-8"?>
<svg id="_레이어_2" data-name="레이어 2" xmlns="http://www.w3.org/2000/svg" viewBox="0 0 89.93 80.09">
  <defs>
    <style>
      .cls-1 {
        fill: #e1ddcb;
      }

      .cls-2 {
        fill: #fff;
      }

      .cls-3 {
        fill: #f4f2e7;
      }

      .cls-4 {
        fill: #c9c3ac;
      }
    </style>
  </defs>
  <g id="_레이어_1-2" data-name="레이어 1">
    <g id="_생성형_개체" data-name="생성형 개체">
      <g>
        <path class="cls-1" d="M.19,23.64c.04-1.87-.16-3.77.19-5.43l41.65,17.04c1.02.56,1.61,1,1.97,2.15-1.53,12.51,1.6,27.68,0,39.88-.05.41-.28,1.98-.94,1.87-.13-11.13-1.59-22.19-1.5-33.32.03-3.67,2.09-7.49-1.59-9.45-6.64-3.55-29.36-11.7-36.69-13.1-1.28-.24-1.95-.5-3.09.37Z"/>
        <path class="cls-1" d="M89.67,18.77c.17,1.92,0,4.23,0,6.18-.13-1.17-.85-4.75-2.34-4.68-7.98,3.51-15.94,7.07-23.96,10.48-2.26.96-14.77,5.45-15.44,6.65-.87,12.6-.13,25.62-.37,38.38.49,1.55,1.37,2.29,3,2.53-.23.95-2.21,1.3-3,1.5-.86-.53-1.12-1.27-1.5-2.15v-40.06l.75-1.68c14.08-5.68,28.04-11.88,42.22-17.32.3-.12.71-.42.66.19Z"/>
        <g>
          <path class="cls-4" d="M89.67,24.95c.2,1.8-.05,4.1,0,5.99.12,4.52.02,9.13,0,13.67,0,.31,0,.63,0,.94-.03,4.2.6,11.66,0,15.44-.27,1.72-.8,2.46-2.25,3.28-3.49,1.97-10.53,4.15-14.6,5.8-.57.23-1.13.53-1.68.75-4.94,2-10.34,4.41-15.16,6.18-1.44.53-4.08,1.5-5.43,1.31-1.63-.23-2.5-.97-3-2.53.24-12.76-.49-25.78.37-38.38.68-1.2,13.19-5.68,15.44-6.65,8.02-3.41,15.99-6.98,23.96-10.48,1.49-.07,2.21,3.51,2.34,4.68Z"/>
          <path class="cls-1" d="M85.46,22.7c1.61-.19,1.66,2.6,1.78,3.84,1.06,10.74-.11,22.66.37,33.51-.62.76-1.5,1.15-2.34,1.59-6.5,3.4-15.15,6.16-22.09,8.99-2.59,1.05-6.57,3.44-8.99,4.12-5.62,1.58-4.28-4.51-4.4-8.52-.19-6.04-1.14-20.66-.19-25.83.22-1.2,1.32-2.16,2.34-2.71,4.04-2.2,10.65-4.16,15.16-6.18,6.18-2.77,12.38-5.59,18.35-8.8Z"/>
        </g>
        <g>
          <path class="cls-3" d="M89.67,18.77c.05-.61-.35-.3-.66-.19-14.17,5.44-28.13,11.64-42.22,17.32l-.75,1.68v40.06c.38.88.64,1.62,1.5,2.15-5.03,1.26-10.82-1.9-15.73-3.74-5.36-2.02-10.79-4.2-16.1-6.37-.55-.23-1.12-.52-1.68-.75-2.45-1-11.8-4.31-12.92-5.9-1.44-2.05-.87-5.66-.94-8.14-.01-.43,0-.88,0-1.31-.01-.56,0-1.13,0-1.68,0-.43,0-.88,0-1.31C.13,46.19-.01,41.7,0,37.3s.09-9.15.19-13.67c1.14-.87,1.81-.62,3.09-.37,7.33,1.4,30.05,9.56,36.69,13.1,3.68,1.97,1.62,5.78,1.59,9.45-.1,11.14,1.37,22.2,1.5,33.32.65.1.88-1.46.94-1.87,1.6-12.2-1.53-27.36,0-39.88-.36-1.15-.94-1.59-1.97-2.15L.38,18.21c.47-2.22,1.9-2.68,3.84-3.56C14.03,10.21,30.81,3.79,41.09.8c1.66-.48,3.09-.96,4.87-.75,12.01,4.35,24.34,8.96,35.57,13.48,2.79,1.12,7.82,1.63,8.14,5.24Z"/>
          <g>
            <path class="cls-2" d="M43.53,1.92c3.68-.49,19.64,6.51,24.15,8.24.89.34,1.65.63,2.43.94,1.73.67,13.56,4.7,13.95,5.34.12.25.11.72,0,.94-.19.39-6.8,3.23-7.77,3.65-9.82,4.21-20.05,7.52-29.77,11.98-.98.14-2.02.22-3,0-4.92-1.08-14.6-6.26-19.47-8.24-4.35-1.77-12.8-3.98-16.29-5.99-1.74-1-2.38-2.23-.37-3.37L43.53,1.92Z"/>
            <g>
              <path class="cls-2" d="M44.28,3.79l2.06.19c9.23,4.75,22.58,7.06,31.45,11.79,2.2,1.17,1.12,1.76-.56,2.62-9.19,4.73-21.3,7.39-30.7,12.17l-2.43.19c-9.36-4.85-21.78-7.54-30.89-12.36-.78-.41-2.06-.89-1.78-1.97.4-.53,1.03-.75,1.59-1.03,9.3-4.64,21.62-7.27,31.26-11.61Z"/>
              <path class="cls-3" d="M48.77,14.65c.75.07,1.51.24,1.4,1.22-.35,1.02-6.07,1.71-6.74,0,.99-1.62,3.36-.92,4.96-.84.06,0,.31-.38.37-.37Z"/>
              <path class="cls-3" d="M45.02,13.34c4.72-1,2.51,2.45-.84.47,0-.12.74-.45.84-.47Z"/>
            </g>
          </g>
        </g>
      </g>
    </g>
  </g>
</svg>