<?xml version="1.0" encoding="UTF-8"?>
<svg id="_레이어_2" data-name="레이어 2" xmlns="http://www.w3.org/2000/svg" viewBox="0 0 89.63 87.82">
  <defs>
    <style>
      .cls-1 {
        fill: #2f9230;
      }

      .cls-2 {
        fill: #ef312c;
      }

      .cls-3 {
        fill: #5faf40;
      }

      .cls-4 {
        fill: #f38c86;
      }

      .cls-5 {
        fill: #e1131b;
      }

      .cls-6 {
        fill: #7ac84e;
      }
    </style>
  </defs>
  <g id="_레이어_1-2" data-name="레이어 1">
    <g id="_생성형_개체" data-name="생성형 개체">
      <path class="cls-2" d="M24.97,12.55c2.46,3.59,6.35,5.78,9.99,7.99-3.33.9-6.2,1.75-9.37,3.12.02-.96,1.01-2.02,1.12-2.94.82-6.33-9.01.4-10.81,1.94-9.57,8.22-12.64,23.32-7.75,34.85.56-5.98,3.73-11.53,7.18-16.43,2.79-3.96,6.64-7.31,8.49-11.74l-6.18,1.81,3.06-2.25c1.08-.36,2.13-.83,3.25-1.12l-.12,1.31c5.07-1.09,10.38-1.31,15.49-2.44-1.21,4.46-3.05,8.24-5.75,11.99l-1.19,1.5,3.06-1.62c-.19.22-.68,1.41-1,1.81-.86,1.09-1.75,2.18-2.56,3.31,4.61-2.07,8.56-5.38,11.56-9.43l3.19-5.81c7.47,3.54,14.97,7.16,21.61,12.12.06-.5-.52-1.15-.81-1.5-2.44-6.88-8.4-11.99-14.49-15.74,5.91-2.7,12.47-4.67,19.05-4.12l.12-.25c-.18-.57-2.74-.91-3.12-1.12s-.02-.19-.06-.5c1.62-.19,3.25-.2,4.87-.37,7.45,5.05,12.61,12.04,14.74,20.86-1.1,22.92-20.42,40.17-42.91,41.35-15.37.8-32.01-5.07-41.16-17.8l-3.62-6.18C-3.03,36.05,6.47,18.85,24.85,12.55h.12Z"/>
      <path class="cls-5" d="M73.07,79.39c-15.4,11.18-40.67,11.21-56.21.25-7.93-5.59-14.05-14.95-15.99-24.48l3.62,6.18c9.15,12.73,25.79,18.61,41.16,17.8,22.49-1.18,41.81-18.43,42.91-41.35,3.77,15.62-2.61,32.24-15.49,41.6Z"/>
      <path class="cls-3" d="M61.45,1.69c-1.48,4.58-5.63,9.1-9.06,12.37-.48.45-3.77,3.06-3.81,3.31-.1.65,1.15.81,1.56.69.13-.04.15-.27.31-.37,1.13.08,2.3-.49,3.37-.75,6.13-1.48,11.01-1.79,17.24-.62-7.11.59-14.64,1.89-20.74,5.56.27.48,1.03.48,1.37.69.41.25.84.5,1.25.75,6.09,3.75,12.05,8.86,14.49,15.74-.18-.22-.63-.63-.87-.87-1.59-2.81-4.33-4.94-7.06-6.62-2.89-1.78-7.61-4.14-10.74-5.5-.73-.32-3.09-1.33-3.75-1.12-.27.08-2.15,4.16-2.56,4.81-2.17,3.49-5.52,6.58-8.87,8.93,2.7-3.75,4.54-7.53,5.75-11.99.17-.62.45-1.35.37-2,.24-.08,1.13.08,1-.56-.17-.8-3.75.33-4.43.44-7.27,1.16-14.47,1.67-20.67,6.12,2.44-3.37,6.26-5.37,9.99-7,3.17-1.38,6.04-2.22,9.37-3.12.42-.11.83-.26,1.25-.37.22-.06,2.5-.12,1.56-1-.46-.43-4.3-1.96-5.25-2.5-4.2-2.37-8.03-5.24-10.81-9.24-.18-.44-.58-.98-.56-1.5,1.76,2.27,4.18,3.75,6.56,5.25,3.8,2.4,7.58,4.1,11.87,5.5.19.06.41.14.62.12,0,1.6-.52,4.86.37,5.93,2.53,3.05,10.99-.43,6.31-4.18-.39.03.75,2.67-.75,3.62-.42.27-2.48.66-2.69.19.15-5.06-.25-10.12-1.62-14.99l-2.25-5.93c.29-.06.79-.19,1.06-.12,1.09.25,3.4,6.15,3.81,7.37.72,2.17,1.11,4.44,1.81,6.62,2.85-1.75,5.49-3.73,7.93-6,2.99-2.78,5.48-5.82,7.5-9.31.05.62-.06,1.11-.25,1.69Z"/>
      <path class="cls-1" d="M40.21,16.8c0-1.54.11-3.1-.25-4.62-.15-.9-.12-2.07-.25-2.94-.01-.08-.25-.29-.25-.31-.18-1.13-.27-2.3-.5-3.44-.36-1.79-1.85-3.51.62-4.06l2.25,5.93c1.37,4.87,1.77,9.93,1.62,14.99.21.47,2.27.08,2.69-.19,1.5-.95.36-3.59.75-3.62,4.68,3.75-3.78,7.23-6.31,4.18-.89-1.07-.37-4.34-.37-5.93Z"/>
      <path class="cls-2" d="M73.44,16.68c-.79-.14-1.59-.23-2.37-.37-6.23-1.16-11.11-.86-17.24.62l4.87-6.5c5.57,1.37,9.94,3.09,14.74,6.25Z"/>
      <path class="cls-2" d="M39.46,8.93s.24.23.25.31c.13.86.1,2.03.25,2.94,0-.01-.22.05-.25-.06-.25-.88.09-2.15-1.37-2,.88,2.07,1.25,4.31,1.25,6.56-4.29-1.4-8.06-3.1-11.87-5.5l11.74-2.25Z"/>
      <path class="cls-2" d="M54.21,9.31c-2.44,2.27-5.09,4.25-7.93,6-.7-2.18-1.09-4.45-1.81-6.62l9.74.62Z"/>
      <path class="cls-6" d="M73.44,16.68c.13.08.25.16.37.25-1.62.17-3.25.19-4.87.37-6,.69-11.95,2.38-17.24,5.25-.34-.21-1.1-.21-1.37-.69,6.1-3.67,13.63-4.97,20.74-5.56.78.15,1.59.24,2.37.37Z"/>
      <path class="cls-6" d="M57.95,10.18c-1.28,1.76-5.73,6.31-7.5,7.5-.16.11-.19.34-.31.37-.41.13-1.66-.04-1.56-.69.04-.25,3.33-2.86,3.81-3.31,3.43-3.26,7.58-7.79,9.06-12.37-.38,2.99-1.72,6.04-3.5,8.49Z"/>
      <path class="cls-6" d="M36.22,20.17c-4.01-2.12-8.05-4.34-11.24-7.62h-.12c-1.26-1.63-2.34-3.2-3.12-5.12,2.77,4,6.61,6.87,10.81,9.24.95.53,4.79,2.07,5.25,2.5.94.88-1.34.94-1.56,1Z"/>
      <path class="cls-5" d="M58.7,10.43l-4.87,6.5c-1.07.26-2.24.83-3.37.75,1.77-1.18,6.21-5.73,7.5-7.5.23,0,.57.2.75.25Z"/>
      <path class="cls-4" d="M25.6,23.67c-3.74,1.62-7.55,3.63-9.99,7-.03.36.09.19.31.12,1.34-.36,3.29-1.37,4.81-1.87l-3.06,2.25,6.18-1.81c-1.85,4.44-5.71,7.79-8.49,11.74-3.45,4.9-6.62,10.44-7.18,16.43-4.9-11.53-1.83-26.63,7.75-34.85,1.79-1.54,11.63-8.27,10.81-1.94-.12.91-1.11,1.98-1.12,2.94Z"/>
      <path class="cls-5" d="M66.57,38.16c.24.24.69.65.87.87.29.35.87,1,.81,1.5-6.64-4.95-14.14-8.58-21.61-12.12l-3.19,5.81c-3,4.05-6.94,7.37-11.56,9.43.81-1.13,1.7-2.22,2.56-3.31.32-.41.81-1.59,1-1.81.58-.66,2.48-1.63,3.31-2.37,3.17-2.85,5.56-6.15,6.87-10.24,6.74,3.67,15.45,6.75,20.92,12.24Z"/>
      <path class="cls-6" d="M66.57,38.16c-5.47-5.49-14.19-8.57-20.92-12.24-1.31,4.09-3.7,7.4-6.87,10.24-.83.74-2.73,1.72-3.31,2.37l-3.06,1.62,1.19-1.5c3.35-2.35,6.7-5.44,8.87-8.93.41-.65,2.29-4.72,2.56-4.81.66-.21,3.01.81,3.75,1.12,3.13,1.35,7.86,3.72,10.74,5.5,2.72,1.68,5.47,3.81,7.06,6.62Z"/>
      <path class="cls-5" d="M68.95,17.3c.04.31-.32.29.06.5s2.94.55,3.12,1.12l-.12.25c-6.59-.55-13.14,1.42-19.05,4.12-.41-.25-.84-.5-1.25-.75,5.29-2.86,11.24-4.56,17.24-5.25Z"/>
      <path class="cls-6" d="M39.71,24.67c-5.02,1.7-10.59,1.77-15.74,3.12-1.12.29-2.16.76-3.25,1.12-1.52.51-3.47,1.51-4.81,1.87-.23.06-.34.24-.31-.12,6.21-4.45,13.41-4.96,20.67-6.12.69-.11,4.26-1.24,4.43-.44.14.64-.76.48-1,.56Z"/>
      <path class="cls-5" d="M39.34,26.67c-5.11,1.13-10.43,1.35-15.49,2.44l.12-1.31c5.15-1.36,10.72-1.43,15.74-3.12.08.65-.21,1.38-.37,2Z"/>
      <path class="cls-5" d="M36.22,20.17c-.41.12-.83.26-1.25.37-3.65-2.21-7.53-4.41-9.99-7.99,3.19,3.28,7.23,5.5,11.24,7.62Z"/>
      <path class="cls-5" d="M39.96,12.18c.36,1.52.25,3.08.25,4.62-.21.01-.43-.06-.62-.12,0-2.25-.37-4.49-1.25-6.56,1.46-.15,1.13,1.12,1.37,2,.03.11.25.05.25.06Z"/>
    </g>
  </g>
</svg>